<svg width="187" height="53" viewBox="0 0 187 53" fill="none" xmlns="http://www.w3.org/2000/svg">
<path d="M93.2493 45V46H92.2493V45H93.2493ZM186.707 44.2929C187.098 44.6834 187.098 45.3166 186.707 45.7071L180.343 52.0711C179.953 52.4616 179.319 52.4616 178.929 52.0711C178.538 51.6805 178.538 51.0474 178.929 50.6569L184.586 45L178.929 39.3431C178.538 38.9526 178.538 38.3195 178.929 37.9289C179.319 37.5384 179.953 37.5384 180.343 37.9289L186.707 44.2929ZM93.2493 0.999996V-3.8147e-06H94.2493V0.999996H93.2493ZM93.2493 44H186V46H93.2493V44ZM0 -3.8147e-06H93.2493V2H0V-3.8147e-06ZM94.2493 0.999996V45H92.2493V0.999996H94.2493Z" fill="url(#paint0_linear)"/>
<defs>
<linearGradient id="paint0_linear" x1="0" y1="45" x2="19.714" y2="-38.3365" gradientUnits="userSpaceOnUse">
<stop stop-color="#FF0A6C"/>
<stop offset="1" stop-color="#2D27FF"/>
</linearGradient>
</defs>
</svg>
