<svg width="187" height="52" viewBox="0 0 187 52" fill="none" xmlns="http://www.w3.org/2000/svg">
<path d="M93.2493 8V7H92.2493V8H93.2493ZM186.707 8.70711C187.098 8.31658 187.098 7.68342 186.707 7.29289L180.343 0.928932C179.953 0.538408 179.319 0.538408 178.929 0.928932C178.538 1.31946 178.538 1.95262 178.929 2.34315L184.586 8L178.929 13.6569C178.538 14.0474 178.538 14.6805 178.929 15.0711C179.319 15.4616 179.953 15.4616 180.343 15.0711L186.707 8.70711ZM93.2493 51V52H94.2493V51H93.2493ZM93.2493 9H186V7H93.2493V9ZM0 52H93.2493V50H0V52ZM94.2493 51V8H92.2493V51H94.2493Z" fill="url(#paint0_linear)"/>
<defs>
<linearGradient id="paint0_linear" x1="0" y1="8" x2="18.873" y2="89.6369" gradientUnits="userSpaceOnUse">
<stop stop-color="#FF0A6C"/>
<stop offset="1" stop-color="#2D27FF"/>
</linearGradient>
</defs>
</svg>
