<svg width="188" height="88" viewBox="0 0 188 88" fill="none" xmlns="http://www.w3.org/2000/svg">
<path d="M93.7507 80V81H92.7507V80H93.7507ZM187.707 79.2929C188.098 79.6834 188.098 80.3166 187.707 80.7071L181.343 87.0711C180.953 87.4616 180.319 87.4616 179.929 87.0711C179.538 86.6805 179.538 86.0474 179.929 85.6569L185.586 80L179.929 74.3431C179.538 73.9526 179.538 73.3195 179.929 72.9289C180.319 72.5384 180.953 72.5384 181.343 72.9289L187.707 79.2929ZM93.7507 1V0H94.7507V1H93.7507ZM93.7507 79H187V81H93.7507V79ZM0 0H93.7507V2H0V0ZM94.7507 1V80H92.7507V1H94.7507Z" fill="url(#paint0_linear)"/>
<defs>
<linearGradient id="paint0_linear" x1="0" y1="80" x2="56.64" y2="-54.0719" gradientUnits="userSpaceOnUse">
<stop stop-color="#FF0A6C"/>
<stop offset="1" stop-color="#2D27FF"/>
</linearGradient>
</defs>
</svg>
