<svg width="188" height="94" viewBox="0 0 188 94" fill="none" xmlns="http://www.w3.org/2000/svg">
<path d="M93.7507 8V7H92.7507V8H93.7507ZM187.707 8.70711C188.098 8.31658 188.098 7.68342 187.707 7.29289L181.343 0.928932C180.953 0.538408 180.319 0.538408 179.929 0.928932C179.538 1.31946 179.538 1.95262 179.929 2.34315L185.586 8L179.929 13.6569C179.538 14.0474 179.538 14.6805 179.929 15.0711C180.319 15.4616 180.953 15.4616 181.343 15.0711L187.707 8.70711ZM93.7507 93V94H94.7507V93H93.7507ZM93.7507 9H187V7H93.7507V9ZM0 94H93.7507V92H0V94ZM94.7507 93V8H92.7507V93H94.7507Z" fill="url(#paint0_linear)"/>
<defs>
<linearGradient id="paint0_linear" x1="0" y1="8" x2="64.0411" y2="148.89" gradientUnits="userSpaceOnUse">
<stop stop-color="#FF0A6C"/>
<stop offset="1" stop-color="#2D27FF"/>
</linearGradient>
</defs>
</svg>
