<svg width="45" height="45" viewBox="0 0 45 45" fill="none" xmlns="http://www.w3.org/2000/svg">
<rect width="45" height="45" rx="7" fill="#332C69"/>
<g clip-path="url(#clip0)">
<path d="M31.4193 11.8965H14.0977C13.6991 11.8965 13.376 12.2196 13.376 12.6182C13.376 13.0129 13.376 31.5138 13.376 31.8644C13.376 32.263 13.6991 32.5861 14.0977 32.5861H31.4193C31.8179 32.5861 32.141 32.2629 32.141 31.8644C32.141 31.4697 32.141 12.9687 32.141 12.6182C32.141 12.2196 31.8179 11.8965 31.4193 11.8965ZM30.6975 31.1427H14.8194V26.1708H30.6975V31.1427ZM30.6975 24.7273H14.8194V19.7553H30.6975V24.7273ZM30.6975 18.3119H14.8194V13.34H30.6975V18.3119Z" fill="white"/>
<path d="M17.5714 14.7432C16.9744 14.7432 16.4888 15.2288 16.4888 15.8258C16.4888 16.4227 16.9744 16.9084 17.5714 16.9084C18.1683 16.9084 18.654 16.4227 18.654 15.8258C18.654 15.2288 18.1683 14.7432 17.5714 14.7432Z" fill="white"/>
<path d="M28.3069 15.1042H21.0281C20.6295 15.1042 20.3064 15.4274 20.3064 15.826C20.3064 16.2246 20.6296 16.5477 21.0281 16.5477H28.3069C28.7055 16.5477 29.0287 16.2245 29.0287 15.826C29.0287 15.4274 28.7055 15.1042 28.3069 15.1042Z" fill="white"/>
<path d="M17.5714 21.1587C16.9744 21.1587 16.4888 21.6443 16.4888 22.2413C16.4888 22.8383 16.9744 23.3239 17.5714 23.3239C18.1683 23.3239 18.654 22.8383 18.654 22.2413C18.654 21.6443 18.1683 21.1587 17.5714 21.1587Z" fill="white"/>
<path d="M28.3069 21.5198H21.0281C20.6295 21.5198 20.3064 21.8429 20.3064 22.2415C20.3064 22.6401 20.6296 22.9632 21.0281 22.9632H28.3069C28.7055 22.9632 29.0287 22.6401 29.0287 22.2415C29.0287 21.8429 28.7055 21.5198 28.3069 21.5198Z" fill="white"/>
<path d="M17.5714 27.574C16.9744 27.574 16.4888 28.0596 16.4888 28.6566C16.4888 29.2536 16.9745 29.7392 17.5714 29.7392C18.1683 29.7392 18.654 29.2536 18.654 28.6566C18.654 28.0596 18.1683 27.574 17.5714 27.574Z" fill="white"/>
<path d="M28.3069 27.9348H21.0281C20.6295 27.9348 20.3064 28.258 20.3064 28.6565C20.3064 29.0551 20.6296 29.3782 21.0281 29.3782H28.3069C28.7055 29.3782 29.0287 29.0551 29.0287 28.6565C29.0287 28.258 28.7055 27.9348 28.3069 27.9348Z" fill="white"/>
</g>
<defs>
<clipPath id="clip0">
<rect width="20.6897" height="20.6897" fill="white" transform="translate(12.4138 11.8965)"/>
</clipPath>
</defs>
</svg>
