<svg width="60" height="60" viewBox="0 0 60 60" fill="none" xmlns="http://www.w3.org/2000/svg">
<rect width="60" height="60" rx="10" fill="#615793"/>
<g clip-path="url(#clip0)">
<path d="M41.8927 15.8621H18.7972C18.2658 15.8621 17.835 16.2929 17.835 16.8243C17.835 17.3506 17.835 42.0185 17.835 42.4859C17.835 43.0174 18.2658 43.4482 18.7972 43.4482H41.8927C42.4241 43.4482 42.8549 43.0173 42.8549 42.4859C42.8549 41.9596 42.8549 17.2917 42.8549 16.8243C42.855 16.2929 42.4241 15.8621 41.8927 15.8621ZM40.9304 41.5236H19.7596V34.8944H40.9304V41.5236ZM40.9304 32.9698H19.7596V26.3405H40.9304V32.9698ZM40.9304 24.4159H19.7596V17.7867H40.9304V24.4159Z" fill="white"/>
<path d="M23.4283 19.6577C22.6324 19.6577 21.9849 20.3052 21.9849 21.1012C21.9849 21.8972 22.6324 22.5447 23.4283 22.5447C24.2243 22.5447 24.8718 21.8972 24.8718 21.1012C24.8718 20.3052 24.2243 19.6577 23.4283 19.6577Z" fill="white"/>
<path d="M37.7424 20.1392H28.0372C27.5058 20.1392 27.075 20.57 27.075 21.1014C27.075 21.6329 27.5058 22.0637 28.0372 22.0637H37.7424C38.2738 22.0637 38.7046 21.6329 38.7046 21.1014C38.7047 20.57 38.2738 20.1392 37.7424 20.1392Z" fill="white"/>
<path d="M23.4283 28.2117C22.6324 28.2117 21.9849 28.8592 21.9849 29.6552C21.9849 30.4511 22.6324 31.0986 23.4283 31.0986C24.2243 31.0986 24.8718 30.4511 24.8718 29.6552C24.8718 28.8592 24.2243 28.2117 23.4283 28.2117Z" fill="white"/>
<path d="M37.7424 28.6929H28.0372C27.5058 28.6929 27.075 29.1237 27.075 29.6552C27.075 30.1866 27.5058 30.6174 28.0372 30.6174H37.7424C38.2738 30.6174 38.7046 30.1866 38.7046 29.6552C38.7046 29.1237 38.2738 28.6929 37.7424 28.6929Z" fill="white"/>
<path d="M23.4283 36.7656C22.6324 36.7656 21.9849 37.4131 21.9849 38.2091C21.9849 39.0051 22.6324 39.6526 23.4283 39.6526C24.2243 39.6526 24.8718 39.0051 24.8718 38.2091C24.8718 37.4131 24.2243 36.7656 23.4283 36.7656Z" fill="white"/>
<path d="M37.7424 37.2468H28.0372C27.5058 37.2468 27.075 37.6777 27.075 38.2091C27.075 38.7406 27.5058 39.1714 28.0372 39.1714H37.7424C38.2738 39.1714 38.7046 38.7405 38.7046 38.2091C38.7047 37.6777 38.2738 37.2468 37.7424 37.2468Z" fill="white"/>
</g>
<defs>
<clipPath id="clip0">
<rect width="27.5862" height="27.5862" fill="white" transform="translate(16.5518 15.8621)"/>
</clipPath>
</defs>
</svg>
