<svg width="18" height="18" viewBox="0 0 18 18" fill="none" xmlns="http://www.w3.org/2000/svg">
<rect x="1.5" y="3.75" width="15" height="11.25" rx="2" fill="white"/>
<mask id="mask0" mask-type="alpha" maskUnits="userSpaceOnUse" x="1" y="3" width="16" height="12">
<rect x="1.5" y="3.75" width="15" height="11.25" rx="2" fill="white"/>
</mask>
<g mask="url(#mask0)">
<rect x="1.5" y="3.75" width="15" height="11.25" fill="#F1361D"/>
<path fill-rule="evenodd" clip-rule="evenodd" d="M6.896 5.49409L7.41481 5.58696L7.80392 5.95905L7.89236 5.4143L8.24674 5.00574L7.72793 4.91286L7.33882 4.54077L7.25037 5.08552L6.896 5.49409ZM8.28563 7.39941L8.73521 7.11211L9.26136 7.12489L8.98774 6.65283L8.99991 6.10037L8.55033 6.38767L8.02418 6.37489L8.2978 6.84695L8.28563 7.39941ZM7.67579 10.4835L7.23604 10.7871L7.22984 10.2346L6.9407 9.77281L7.46696 9.7663L7.90671 9.46271L7.91291 10.0153L8.20205 10.477L7.67579 10.4835ZM8.05766 9.05507L8.58075 8.99419L9.05247 9.23925L8.99449 8.69L9.22788 8.1947L8.70479 8.25558L8.23307 8.01052L8.29105 8.55977L8.05766 9.05507Z" fill="#FFDC42"/>
<path fill-rule="evenodd" clip-rule="evenodd" d="M5.07157 8.3775L3.81203 9.32029L4.27676 7.77116L3.03359 6.80471L4.58035 6.79009L5.07157 5.25L5.56279 6.79009L7.10955 6.80471L5.86638 7.77116L6.33111 9.32029L5.07157 8.3775Z" fill="#FFDC42"/>
</g>
</svg>
