<svg width="46" height="45" viewBox="0 0 46 45" fill="none" xmlns="http://www.w3.org/2000/svg">
<rect x="0.5" width="45" height="45" rx="7" fill="#332C69"/>
<g clip-path="url(#clip0)">
<path d="M29.3901 13.7163H16.0923C14.7703 13.7163 13.6987 14.7879 13.6987 16.1099V29.4076C13.6987 30.7296 14.7703 31.8012 16.0923 31.8012H29.3901C30.712 31.8012 31.7836 30.7296 31.7836 29.4076V16.1099C31.7836 14.7879 30.712 13.7163 29.3901 13.7163ZM29.789 28.0779C29.789 29.0326 29.015 29.8066 28.0603 29.8066H17.4221C16.4674 29.8066 15.6934 29.0326 15.6934 28.0779V17.4397C15.6934 16.4849 16.4674 15.711 17.4221 15.711H28.0603C29.015 15.711 29.789 16.4849 29.789 17.4397V28.0779Z" fill="white"/>
<path d="M21.1394 23.2242H22.6022L21.8708 20.7156L21.1394 23.2242Z" fill="white"/>
<path d="M28.0602 16.5088H17.4221C16.9078 16.5088 16.4912 16.9254 16.4912 17.4396V28.0778C16.4912 28.5918 16.9078 29.0087 17.4221 29.0087H28.0602C28.5742 29.0087 28.9911 28.5918 28.9911 28.0778V17.4396C28.9911 16.9254 28.5742 16.5088 28.0602 16.5088ZM23.3408 25.057C23.2164 25.057 23.1141 25.0289 23.0775 24.9118L22.7778 23.889H20.9711L20.6714 24.9118C20.6348 25.0289 20.5325 25.0648 20.4008 25.0648C20.1886 25.0648 19.918 24.9292 19.918 24.7388C19.9169 24.716 19.9193 24.6931 19.9252 24.6711L21.3807 19.9309C21.4392 19.7553 21.6514 19.667 21.8708 19.667C22.09 19.667 22.3095 19.7545 22.3682 19.9301L23.8161 24.6692C23.8247 24.6903 23.8296 24.7126 23.8309 24.7352C23.8309 24.918 23.5603 25.057 23.3408 25.057ZM25.2012 24.8009C25.2012 24.9692 24.9997 25.057 24.8023 25.057C24.6122 25.057 24.4034 24.9692 24.4034 24.8009V19.9594C24.4034 19.7841 24.6122 19.7109 24.8023 19.7109C24.9997 19.7109 25.2012 19.7841 25.2012 19.9594V24.8009Z" fill="white"/>
<path d="M24.2039 33.1189C23.9834 33.1189 23.8049 33.2976 23.8049 33.5178V36.8423C23.8049 37.0628 23.9834 37.2412 24.2039 37.2412C24.4241 37.2412 24.6028 37.0628 24.6028 36.8423V33.5178C24.6028 33.2976 24.4241 33.1189 24.2039 33.1189Z" fill="white"/>
<path d="M21.2783 33.1189C21.0578 33.1189 20.8794 33.2976 20.8794 33.5178V36.8423C20.8794 37.0628 21.0578 37.2412 21.2783 37.2412C21.4986 37.2412 21.6773 37.0628 21.6773 36.8423V33.5178C21.6773 33.2976 21.4986 33.1189 21.2783 33.1189Z" fill="white"/>
<path d="M18.4194 33.1189C18.1989 33.1189 18.0205 33.2976 18.0205 33.5178V36.8423C18.0205 37.0628 18.1989 37.2412 18.4194 37.2412C18.6397 37.2412 18.8184 37.0628 18.8184 36.8423V33.5178C18.8184 33.2976 18.6397 33.1189 18.4194 33.1189Z" fill="white"/>
<path d="M27.0628 33.1189C26.8422 33.1189 26.6638 33.2976 26.6638 33.5178V36.8423C26.6638 37.0628 26.8422 37.2412 27.0628 37.2412C27.283 37.2412 27.4617 37.0628 27.4617 36.8423V33.5178C27.4617 33.2976 27.283 33.1189 27.0628 33.1189Z" fill="white"/>
<path d="M20.8794 8.67481V11.9992C20.8794 12.2195 21.0578 12.3982 21.2783 12.3982C21.4986 12.3982 21.6773 12.2195 21.6773 11.9992V8.67481C21.6773 8.45457 21.4986 8.27588 21.2783 8.27588C21.0578 8.27588 20.8794 8.45457 20.8794 8.67481Z" fill="white"/>
<path d="M23.8049 8.67481V11.9992C23.8049 12.2195 23.9834 12.3982 24.2039 12.3982C24.4241 12.3982 24.6028 12.2195 24.6028 11.9992V8.67481C24.6028 8.45457 24.4241 8.27588 24.2039 8.27588C23.9834 8.27588 23.8049 8.45457 23.8049 8.67481Z" fill="white"/>
<path d="M27.0628 12.3982C27.283 12.3982 27.4617 12.2195 27.4617 11.9992V8.67481C27.4617 8.45457 27.283 8.27588 27.0628 8.27588C26.8422 8.27588 26.6638 8.45457 26.6638 8.67481V11.9992C26.6638 12.2195 26.8422 12.3982 27.0628 12.3982Z" fill="white"/>
<path d="M18.0205 8.67481V11.9992C18.0205 12.2195 18.1989 12.3982 18.4194 12.3982C18.6397 12.3982 18.8184 12.2195 18.8184 11.9992V8.67481C18.8184 8.45457 18.6397 8.27588 18.4194 8.27588C18.1989 8.27588 18.0205 8.45457 18.0205 8.67481Z" fill="white"/>
<path d="M36.8247 20.8972H33.5003C33.28 20.8972 33.1013 21.0756 33.1013 21.2961C33.1013 21.5164 33.28 21.6951 33.5003 21.6951H36.8247C37.0452 21.6951 37.2236 21.5164 37.2236 21.2961C37.2236 21.0756 37.0452 20.8972 36.8247 20.8972Z" fill="white"/>
<path d="M36.8247 23.8225H33.5003C33.28 23.8225 33.1013 24.0009 33.1013 24.2214C33.1013 24.4417 33.28 24.6204 33.5003 24.6204H36.8247C37.0452 24.6204 37.2236 24.4417 37.2236 24.2214C37.2236 24.0009 37.0452 23.8225 36.8247 23.8225Z" fill="white"/>
<path d="M36.8247 26.6816H33.5003C33.28 26.6816 33.1013 26.8601 33.1013 27.0806C33.1013 27.3008 33.28 27.4795 33.5003 27.4795H36.8247C37.0452 27.4795 37.2236 27.3008 37.2236 27.0806C37.2236 26.8601 37.0452 26.6816 36.8247 26.6816Z" fill="white"/>
<path d="M36.8247 18.0381H33.5003C33.28 18.0381 33.1013 18.2165 33.1013 18.437C33.1013 18.6573 33.28 18.8359 33.5003 18.8359H36.8247C37.0452 18.8359 37.2236 18.6573 37.2236 18.437C37.2236 18.2165 37.0452 18.0381 36.8247 18.0381Z" fill="white"/>
<path d="M11.9817 23.8225H8.65723C8.43699 23.8225 8.2583 24.0009 8.2583 24.2214C8.2583 24.4417 8.43699 24.6204 8.65723 24.6204H11.9817C12.2019 24.6204 12.3806 24.4417 12.3806 24.2214C12.3806 24.0009 12.2019 23.8225 11.9817 23.8225Z" fill="white"/>
<path d="M11.9817 20.8972H8.65723C8.43699 20.8972 8.2583 21.0756 8.2583 21.2961C8.2583 21.5164 8.43699 21.6951 8.65723 21.6951H11.9817C12.2019 21.6951 12.3806 21.5164 12.3806 21.2961C12.3806 21.0756 12.2019 20.8972 11.9817 20.8972Z" fill="white"/>
<path d="M11.9817 18.0381H8.65723C8.43699 18.0381 8.2583 18.2165 8.2583 18.437C8.2583 18.6573 8.43699 18.8359 8.65723 18.8359H11.9817C12.2019 18.8359 12.3806 18.6573 12.3806 18.437C12.3806 18.2165 12.2019 18.0381 11.9817 18.0381Z" fill="white"/>
<path d="M11.9817 26.6816H8.65723C8.43699 26.6816 8.2583 26.8601 8.2583 27.0806C8.2583 27.3008 8.43699 27.4795 8.65723 27.4795H11.9817C12.2019 27.4795 12.3806 27.3008 12.3806 27.0806C12.3806 26.8601 12.2019 26.6816 11.9817 26.6816Z" fill="white"/>
</g>
<defs>
<clipPath id="clip0">
<rect width="28.9655" height="28.9655" fill="white" transform="translate(8.2583 8.27588)"/>
</clipPath>
</defs>
</svg>
