<svg width="60" height="60" viewBox="0 0 60 60" fill="none" xmlns="http://www.w3.org/2000/svg">
<rect width="60" height="60" rx="10" fill="#615793"/>
<g clip-path="url(#clip0)">
<path d="M38.5204 18.2883H20.7901C19.0274 18.2883 17.5986 19.7171 17.5986 21.4798V39.2101C17.5986 40.9727 19.0274 42.4015 20.7901 42.4015H38.5204C40.283 42.4015 41.7119 40.9727 41.7119 39.2101V21.4798C41.7119 19.7171 40.283 18.2883 38.5204 18.2883ZM39.0523 37.4371C39.0523 38.71 38.0203 39.742 36.7474 39.742H22.5631C21.2901 39.742 20.2582 38.71 20.2582 37.4371V23.2528C20.2582 21.9798 21.2901 20.9479 22.5631 20.9479H36.7474C38.0203 20.9479 39.0523 21.9798 39.0523 23.2528V37.4371Z" fill="white"/>
<path d="M27.5195 30.9655H29.4699L28.4947 27.6206L27.5195 30.9655Z" fill="white"/>
<path d="M36.7474 22.0117H22.5631C21.8775 22.0117 21.322 22.5672 21.322 23.2528V37.4371C21.322 38.1224 21.8775 38.6782 22.5631 38.6782H36.7474C37.4327 38.6782 37.9885 38.1224 37.9885 37.4371V23.2528C37.9885 22.5672 37.4327 22.0117 36.7474 22.0117ZM30.4549 33.4093C30.289 33.4093 30.1525 33.3719 30.1037 33.2157L29.7041 31.852H27.2953L26.8956 33.2157C26.8468 33.3719 26.7104 33.4197 26.5348 33.4197C26.2519 33.4197 25.891 33.239 25.891 32.9851C25.8897 32.9546 25.8928 32.9242 25.9007 32.8947L27.8414 26.5745C27.9193 26.3404 28.2022 26.2227 28.4948 26.2227C28.7871 26.2227 29.0797 26.3394 29.158 26.5735L31.0886 32.8923C31.1 32.9204 31.1066 32.9501 31.1083 32.9803C31.1083 33.2241 30.7475 33.4093 30.4549 33.4093ZM32.9354 33.0679C32.9354 33.2923 32.6666 33.4093 32.4035 33.4093C32.15 33.4093 31.8716 33.2923 31.8716 33.0679V26.6126C31.8716 26.3788 32.15 26.2812 32.4035 26.2812C32.6666 26.2812 32.9354 26.3788 32.9354 26.6126V33.0679Z" fill="white"/>
<path d="M31.6054 44.1587C31.3114 44.1587 31.0735 44.3969 31.0735 44.6906V49.1232C31.0735 49.4172 31.3114 49.6551 31.6054 49.6551C31.8991 49.6551 32.1373 49.4172 32.1373 49.1232V44.6906C32.1373 44.3969 31.8991 44.1587 31.6054 44.1587Z" fill="white"/>
<path d="M27.7048 44.1587C27.4108 44.1587 27.1729 44.3969 27.1729 44.6906V49.1232C27.1729 49.4172 27.4108 49.6551 27.7048 49.6551C27.9984 49.6551 28.2367 49.4172 28.2367 49.1232V44.6906C28.2367 44.3969 27.9984 44.1587 27.7048 44.1587Z" fill="white"/>
<path d="M23.8927 44.1587C23.5987 44.1587 23.3608 44.3969 23.3608 44.6906V49.1232C23.3608 49.4172 23.5987 49.6551 23.8927 49.6551C24.1864 49.6551 24.4247 49.4172 24.4247 49.1232V44.6906C24.4247 44.3969 24.1864 44.1587 23.8927 44.1587Z" fill="white"/>
<path d="M35.4177 44.1587C35.1236 44.1587 34.8857 44.3969 34.8857 44.6906V49.1232C34.8857 49.4172 35.1236 49.6551 35.4177 49.6551C35.7113 49.6551 35.9496 49.4172 35.9496 49.1232V44.6906C35.9496 44.3969 35.7113 44.1587 35.4177 44.1587Z" fill="white"/>
<path d="M27.1729 11.5663V15.9989C27.1729 16.2926 27.4108 16.5308 27.7048 16.5308C27.9984 16.5308 28.2367 16.2926 28.2367 15.9989V11.5663C28.2367 11.2727 27.9984 11.0344 27.7048 11.0344C27.4108 11.0344 27.1729 11.2727 27.1729 11.5663Z" fill="white"/>
<path d="M31.0735 11.5663V15.9989C31.0735 16.2926 31.3114 16.5308 31.6054 16.5308C31.8991 16.5308 32.1373 16.2926 32.1373 15.9989V11.5663C32.1373 11.2727 31.8991 11.0344 31.6054 11.0344C31.3114 11.0344 31.0735 11.2727 31.0735 11.5663Z" fill="white"/>
<path d="M35.4177 16.5308C35.7113 16.5308 35.9496 16.2926 35.9496 15.9989V11.5663C35.9496 11.2727 35.7113 11.0344 35.4177 11.0344C35.1236 11.0344 34.8857 11.2727 34.8857 11.5663V15.9989C34.8857 16.2926 35.1236 16.5308 35.4177 16.5308Z" fill="white"/>
<path d="M23.3608 11.5663V15.9989C23.3608 16.2926 23.5987 16.5308 23.8927 16.5308C24.1864 16.5308 24.4247 16.2926 24.4247 15.9989V11.5663C24.4247 11.2727 24.1864 11.0344 23.8927 11.0344C23.5987 11.0344 23.3608 11.2727 23.3608 11.5663Z" fill="white"/>
<path d="M48.4335 27.8625H44.0009C43.7072 27.8625 43.469 28.1005 43.469 28.3945C43.469 28.6881 43.7072 28.9264 44.0009 28.9264H48.4335C48.7275 28.9264 48.9654 28.6881 48.9654 28.3945C48.9654 28.1005 48.7275 27.8625 48.4335 27.8625Z" fill="white"/>
<path d="M48.4335 31.7632H44.0009C43.7072 31.7632 43.469 32.0011 43.469 32.2951C43.469 32.5888 43.7072 32.827 44.0009 32.827H48.4335C48.7275 32.827 48.9654 32.5888 48.9654 32.2951C48.9654 32.0011 48.7275 31.7632 48.4335 31.7632Z" fill="white"/>
<path d="M48.4335 35.5752H44.0009C43.7072 35.5752 43.469 35.8131 43.469 36.1071C43.469 36.4008 43.7072 36.639 44.0009 36.639H48.4335C48.7275 36.639 48.9654 36.4008 48.9654 36.1071C48.9654 35.8131 48.7275 35.5752 48.4335 35.5752Z" fill="white"/>
<path d="M48.4335 24.0505H44.0009C43.7072 24.0505 43.469 24.2884 43.469 24.5824C43.469 24.8761 43.7072 25.1144 44.0009 25.1144H48.4335C48.7275 25.1144 48.9654 24.8761 48.9654 24.5824C48.9654 24.2884 48.7275 24.0505 48.4335 24.0505Z" fill="white"/>
<path d="M15.3092 31.7632H10.8766C10.583 31.7632 10.3447 32.0011 10.3447 32.2951C10.3447 32.5888 10.583 32.827 10.8766 32.827H15.3092C15.6029 32.827 15.8411 32.5888 15.8411 32.2951C15.8411 32.0011 15.6029 31.7632 15.3092 31.7632Z" fill="white"/>
<path d="M15.3092 27.8625H10.8766C10.583 27.8625 10.3447 28.1005 10.3447 28.3945C10.3447 28.6881 10.583 28.9264 10.8766 28.9264H15.3092C15.6029 28.9264 15.8411 28.6881 15.8411 28.3945C15.8411 28.1005 15.6029 27.8625 15.3092 27.8625Z" fill="white"/>
<path d="M15.3092 24.0505H10.8766C10.583 24.0505 10.3447 24.2884 10.3447 24.5824C10.3447 24.8761 10.583 25.1144 10.8766 25.1144H15.3092C15.6029 25.1144 15.8411 24.8761 15.8411 24.5824C15.8411 24.2884 15.6029 24.0505 15.3092 24.0505Z" fill="white"/>
<path d="M15.3092 35.5752H10.8766C10.583 35.5752 10.3447 35.8131 10.3447 36.1071C10.3447 36.4008 10.583 36.639 10.8766 36.639H15.3092C15.6029 36.639 15.8411 36.4008 15.8411 36.1071C15.8411 35.8131 15.6029 35.5752 15.3092 35.5752Z" fill="white"/>
</g>
<defs>
<clipPath id="clip0">
<rect width="38.6207" height="38.6207" fill="white" transform="translate(10.3447 11.0344)"/>
</clipPath>
</defs>
</svg>
