<svg width="46" height="45" viewBox="0 0 46 45" fill="none" xmlns="http://www.w3.org/2000/svg">
<rect x="0.5" width="45" height="45" rx="7" fill="#332C69"/>
<g clip-path="url(#clip0)">
<path d="M16.5116 28.7599C16.4749 28.7599 16.438 28.7559 16.4013 28.7486C16.365 28.7411 16.3295 28.7305 16.2956 28.7164C16.2616 28.7022 16.2287 28.6846 16.1978 28.6642C16.167 28.6439 16.1376 28.6202 16.1118 28.5942C16.0857 28.5681 16.0618 28.5391 16.0415 28.5082C16.0212 28.4775 16.0037 28.4448 15.9896 28.4103C15.9754 28.3763 15.9646 28.3407 15.9573 28.3045C15.9498 28.2682 15.946 28.2309 15.946 28.1942C15.946 28.0455 16.0064 27.8994 16.1118 27.7942C16.1379 27.7681 16.167 27.7445 16.1978 27.7235C16.2289 27.7031 16.2616 27.6855 16.2956 27.6713C16.3295 27.6572 16.365 27.6466 16.4013 27.6393C16.4744 27.6245 16.5496 27.6245 16.6225 27.6393C16.6587 27.6466 16.6945 27.6572 16.7283 27.6713C16.7624 27.6855 16.7951 27.7031 16.8262 27.7235C16.8567 27.7445 16.8857 27.7681 16.9122 27.7942C17.0174 27.8994 17.078 28.0448 17.078 28.1942C17.078 28.2309 17.074 28.2682 17.0667 28.3045C17.0594 28.3407 17.0486 28.3763 17.0344 28.4103C17.0203 28.4448 17.0028 28.4775 16.9825 28.5082C16.9615 28.5391 16.9383 28.5681 16.9122 28.5942C16.8857 28.6202 16.8567 28.6439 16.8262 28.6642C16.7951 28.6846 16.7624 28.7022 16.7283 28.7164C16.6945 28.7305 16.6587 28.7411 16.6227 28.7486C16.5858 28.7559 16.5489 28.7599 16.5116 28.7599Z" fill="white"/>
<path d="M31.9459 18.0071C31.9085 18.0071 31.8718 18.0038 31.8351 17.9963C31.7989 17.989 31.7638 17.9782 31.7293 17.964C31.6953 17.9499 31.6626 17.9324 31.6321 17.9121C31.6009 17.8911 31.5719 17.8674 31.5459 17.8414C31.5194 17.8153 31.4961 17.7866 31.4752 17.7554C31.4548 17.7249 31.4374 17.692 31.4232 17.6579C31.4091 17.6235 31.3982 17.5879 31.391 17.5523C31.3837 17.5154 31.3801 17.4783 31.3801 17.4414C31.3801 17.4047 31.3837 17.3673 31.391 17.3311C31.3982 17.2949 31.4091 17.2593 31.4232 17.2253C31.4374 17.1908 31.4548 17.1578 31.4752 17.1274C31.4961 17.0962 31.5194 17.0675 31.5459 17.0414C31.5719 17.0153 31.6009 16.9917 31.6321 16.9713C31.6626 16.9508 31.6953 16.9333 31.7293 16.9192C31.7638 16.905 31.7989 16.8942 31.8351 16.8869C31.9081 16.8723 31.9832 16.8723 32.0564 16.8869C32.0924 16.8942 32.1282 16.905 32.162 16.9192C32.196 16.9333 32.2294 16.9508 32.2599 16.9713C32.291 16.9917 32.3198 17.0153 32.3459 17.0414C32.3719 17.0675 32.3958 17.0962 32.4161 17.1274C32.4365 17.1578 32.4539 17.1908 32.4681 17.2253C32.4822 17.2593 32.493 17.2949 32.5003 17.3311C32.5076 17.3673 32.5116 17.4047 32.5116 17.4414C32.5116 17.4781 32.5076 17.5154 32.5003 17.5523C32.493 17.5879 32.4822 17.6235 32.4681 17.6579C32.4539 17.692 32.4365 17.7249 32.4161 17.7554C32.3958 17.7866 32.3719 17.8153 32.3459 17.8414C32.32 17.8674 32.291 17.8911 32.2599 17.9121C32.2294 17.9324 32.196 17.9499 32.162 17.964C32.1282 17.9782 32.0924 17.989 32.0564 17.9963C32.0201 18.0038 31.9828 18.0071 31.9459 18.0071Z" fill="white"/>
<path d="M37.6983 23.6245C37.6108 23.413 37.4046 23.2753 37.1757 23.2753H32.5117V21.2068H34.5198C34.5205 21.2068 34.5211 21.207 34.522 21.207C34.5315 21.207 34.5412 21.2066 34.5508 21.2062C34.5525 21.2062 34.5541 21.2059 34.5558 21.2059C34.5585 21.2057 34.5614 21.2055 34.5642 21.2053C34.5678 21.2051 34.5715 21.2048 34.5751 21.2044C34.5759 21.2044 34.5766 21.2044 34.5773 21.2042C34.667 21.1956 34.7503 21.1659 34.8228 21.1204C34.8228 21.1204 34.8228 21.1204 34.823 21.1202C34.8263 21.1182 34.8299 21.1158 34.8332 21.1136C34.8341 21.1131 34.8347 21.1127 34.8354 21.1122C34.8383 21.1103 34.8411 21.1083 34.844 21.1063C34.8451 21.1056 34.8462 21.1047 34.8473 21.1041C34.8497 21.1023 34.852 21.1008 34.8544 21.099C34.8559 21.0977 34.8575 21.0968 34.859 21.0957C34.8608 21.0941 34.8628 21.0928 34.8646 21.0915C34.8665 21.0899 34.8685 21.0886 34.8703 21.0871C34.8718 21.0857 34.8734 21.0846 34.8747 21.0833C34.8769 21.0817 34.8791 21.08 34.8813 21.078C34.8825 21.0773 34.8833 21.0762 34.8844 21.0756C34.8871 21.0734 34.8895 21.0711 34.892 21.0692C34.8926 21.0685 34.8933 21.068 34.8939 21.0674C34.9037 21.059 34.913 21.0504 34.922 21.0411L37.5757 18.3877C37.6817 18.2814 37.7414 18.1375 37.7414 17.9875V8.49375C37.7414 8.4648 37.7392 8.43652 37.735 8.40867C37.75 8.30901 37.7385 8.20492 37.6983 8.10768C37.6108 7.8962 37.4046 7.7583 37.1757 7.7583H27.512C27.362 7.7583 27.2181 7.81797 27.112 7.92404L24.4586 10.5777C24.4555 10.5806 24.4526 10.5834 24.4498 10.5865C24.4491 10.5874 24.4482 10.5881 24.4476 10.5887C24.4453 10.5912 24.4434 10.5934 24.4412 10.5956C24.4403 10.5967 24.4394 10.5976 24.4385 10.5985C24.4365 10.6007 24.4345 10.6031 24.4325 10.6053C24.4316 10.6062 24.431 10.6071 24.4303 10.608C24.4277 10.6111 24.425 10.6139 24.4226 10.617C24.4217 10.6181 24.4208 10.6192 24.4199 10.6203C24.4182 10.6223 24.4166 10.6243 24.4149 10.6265C24.4137 10.6281 24.4124 10.6296 24.4113 10.6309C24.4102 10.6325 24.4091 10.634 24.4078 10.6356C24.4065 10.6376 24.4049 10.6393 24.4036 10.6413C24.4029 10.642 24.4025 10.6429 24.4018 10.6435C24.3404 10.7273 24.3017 10.8285 24.2942 10.9383V10.9388C24.2938 10.9441 24.2935 10.9492 24.2933 10.9545C24.2933 10.9565 24.2931 10.9584 24.2931 10.9604C24.2931 10.9624 24.2929 10.9642 24.2929 10.9662V10.9744V10.9777V13.8603H22.2244V8.49375C22.2244 8.4648 22.2218 8.20492 22.1813 8.10768C22.0938 7.8962 21.8876 7.7583 21.6587 7.7583H11.9953C11.8452 7.7583 11.7013 7.81797 11.5953 7.92404L8.94162 10.5777C8.93521 10.5839 8.86825 10.6676 8.86803 10.6681C8.81897 10.7432 8.78715 10.8307 8.77831 10.9249C8.77809 10.9268 8.77787 10.9291 8.77787 10.931C8.77765 10.9328 8.77743 10.9344 8.77743 10.9361C8.77632 10.9514 8.77588 20.6411 8.77588 20.6411C8.77588 20.9536 9.02913 21.2068 9.34161 21.2068H15.9463V23.2753H11.9953C11.8452 23.2753 11.7013 23.335 11.5953 23.441L8.94162 26.0944C8.93521 26.1009 8.77588 26.2743 8.77588 26.4991V36.1581C8.77588 36.4706 9.02913 36.7238 9.34161 36.7238H19.0028C19.2395 36.7238 19.4044 36.559 19.4052 36.5581L22.0587 33.9044C22.1647 33.7984 22.2244 33.6545 22.2244 33.5044V30.6784H24.2929V36.1581C24.2929 36.4706 24.5461 36.7238 24.8586 36.7238H34.5198C34.7454 36.7238 34.913 36.5674 34.922 36.5581L37.5757 33.9044C37.6817 33.7984 37.7414 33.6545 37.7414 33.5044V24.0107C37.7414 23.9818 37.7387 23.7217 37.6983 23.6245ZM35.8097 24.4068L34.2878 25.9287H26.2243L27.7465 24.4068H31.3802V24.8812C31.3802 25.1937 31.6335 25.447 31.9459 25.447C32.2582 25.447 32.5117 25.1937 32.5117 24.8812V24.4068H35.8097ZM25.4243 11.5434H31.38V15.2633C31.38 15.5758 31.6335 15.8291 31.9457 15.8291C32.2582 15.8291 32.5115 15.5758 32.5115 15.2633V11.5434H33.9563V20.0754H25.4243V11.5434ZM35.0878 19.2754V11.2119L36.6099 9.68997V17.7532L35.0878 19.2754ZM27.7465 8.88977H35.8097L34.2878 10.4119H26.2243L27.7465 8.88977ZM20.7281 14.9917H21.0929V17.7532L19.571 19.2754V11.2119L21.0929 9.68997V13.8603H20.7281C20.4156 13.8603 20.1624 14.1135 20.1624 14.426C20.1624 14.7385 20.4156 14.9917 20.7281 14.9917ZM12.2295 8.88977H20.293L18.7708 10.4119H10.7075L12.2295 8.88977ZM9.90734 11.5434H18.4395V20.0754H9.90734V11.5434ZM12.2295 24.4068H15.9463V24.9188C15.9463 25.2313 16.1996 25.4845 16.5121 25.4845C16.8243 25.4845 17.0778 25.2313 17.0778 24.9188V24.4068H20.293L18.7708 25.9287H10.7075L12.2295 24.4068ZM9.90734 27.0602H18.4395V35.5924H17.0778V30.3721C17.0778 30.0597 16.8243 29.8064 16.5121 29.8064C16.1996 29.8064 15.9463 30.0597 15.9463 30.3721V35.5924H9.90734V27.0602ZM21.0929 33.2702L19.571 34.7924V26.7289L21.0929 25.2067V29.547H20.7281C20.4156 29.547 20.1624 29.8002 20.1624 30.1127C20.1624 30.4252 20.4156 30.6784 20.7281 30.6784H21.0929V33.2702ZM22.2244 29.547V24.0673C22.2244 24.0284 22.2255 23.731 22.1813 23.6245C22.0938 23.413 21.8876 23.2753 21.6587 23.2753H17.0778V21.2068H19.0028C19.0035 21.2068 19.0596 21.2044 19.0603 21.2042C19.1549 21.1951 19.2424 21.1626 19.3175 21.1129C19.3177 21.1129 19.4044 21.042 19.4052 21.0411L22.0587 18.3877C22.1647 18.2816 22.2244 18.1377 22.2244 17.9877V14.9917H24.2929V20.6411C24.2929 20.9536 24.5461 21.2068 24.8586 21.2068H31.3802V23.2753H27.512C27.362 23.2753 27.2181 23.335 27.112 23.441L24.4586 26.0944C24.4555 26.0973 24.2929 26.2518 24.2929 26.4944V29.547H22.2244ZM25.4243 27.0602H33.9563V35.5924H25.4243V27.0602ZM35.0878 34.7924V26.7289L36.6099 25.2067V33.2702L35.0878 34.7924Z" fill="white"/>
</g>
<defs>
<clipPath id="clip0">
<rect width="28.9655" height="28.9655" fill="white" transform="translate(8.77588 7.7583)"/>
</clipPath>
</defs>
</svg>
