<svg width="60" height="60" viewBox="0 0 60 60" fill="none" xmlns="http://www.w3.org/2000/svg">
<rect width="60" height="60" rx="10" fill="#615793"/>
<g clip-path="url(#clip0)">
<path d="M21.3487 38.3471C21.2998 38.3471 21.2506 38.3418 21.2017 38.3321C21.1534 38.3221 21.1059 38.3079 21.0609 38.2891C21.0155 38.2702 20.9716 38.2466 20.9303 38.2195C20.8894 38.1924 20.8502 38.1609 20.8157 38.1261C20.7809 38.0914 20.7491 38.0528 20.722 38.0115C20.6949 37.9706 20.6716 37.9269 20.6528 37.881C20.6339 37.8356 20.6195 37.7882 20.6098 37.7398C20.5997 37.6915 20.5947 37.6417 20.5947 37.5928C20.5947 37.3945 20.6752 37.1997 20.8157 37.0595C20.8505 37.0247 20.8894 36.9932 20.9303 36.9652C20.9719 36.9381 21.0155 36.9145 21.0609 36.8957C21.1059 36.8768 21.1534 36.8627 21.2017 36.8529C21.2992 36.8332 21.3994 36.8332 21.4967 36.8529C21.545 36.8627 21.5927 36.8768 21.6378 36.8957C21.6832 36.9145 21.7268 36.9381 21.7683 36.9652C21.809 36.9932 21.8476 37.0247 21.8829 37.0595C22.0232 37.1997 22.1039 37.3936 22.1039 37.5928C22.1039 37.6417 22.0986 37.6915 22.0889 37.7398C22.0792 37.7882 22.0647 37.8356 22.0459 37.881C22.027 37.9269 22.0038 37.9706 21.9766 38.0115C21.9487 38.0528 21.9177 38.0914 21.8829 38.1261C21.8476 38.1609 21.809 38.1924 21.7683 38.2195C21.7268 38.2466 21.6832 38.2702 21.6378 38.2891C21.5927 38.3079 21.545 38.3221 21.497 38.3321C21.4477 38.3418 21.3985 38.3471 21.3487 38.3471Z" fill="white"/>
<path d="M41.9281 24.0099C41.8783 24.0099 41.8294 24.0055 41.7805 23.9955C41.7322 23.9857 41.6853 23.9713 41.6394 23.9524C41.594 23.9336 41.5504 23.9103 41.5097 23.8832C41.4682 23.8552 41.4296 23.8237 41.3948 23.7889C41.3595 23.7541 41.3285 23.7158 41.3005 23.6743C41.2734 23.6336 41.2501 23.5897 41.2313 23.5443C41.2124 23.4984 41.198 23.4509 41.1883 23.4035C41.1785 23.3543 41.1738 23.3048 41.1738 23.2556C41.1738 23.2067 41.1785 23.1569 41.1883 23.1085C41.198 23.0602 41.2124 23.0128 41.2313 22.9674C41.2501 22.9214 41.2734 22.8775 41.3005 22.8369C41.3285 22.7953 41.3595 22.757 41.3948 22.7223C41.4296 22.6875 41.4682 22.656 41.5097 22.6289C41.5504 22.6014 41.594 22.5782 41.6394 22.5593C41.6853 22.5405 41.7322 22.526 41.7805 22.5163C41.8778 22.4968 41.9779 22.4968 42.0755 22.5163C42.1235 22.526 42.1712 22.5405 42.2163 22.5593C42.2617 22.5782 42.3062 22.6014 42.3468 22.6289C42.3884 22.656 42.4267 22.6875 42.4615 22.7223C42.4962 22.757 42.5281 22.7953 42.5552 22.8369C42.5823 22.8775 42.6055 22.9214 42.6244 22.9674C42.6433 23.0128 42.6577 23.0602 42.6674 23.1085C42.6771 23.1569 42.6824 23.2067 42.6824 23.2556C42.6824 23.3045 42.6771 23.3543 42.6674 23.4035C42.6577 23.4509 42.6433 23.4984 42.6244 23.5443C42.6055 23.5897 42.5823 23.6336 42.5552 23.6743C42.5281 23.7158 42.4962 23.7541 42.4615 23.7889C42.427 23.8237 42.3884 23.8552 42.3468 23.8832C42.3062 23.9103 42.2617 23.9336 42.2163 23.9524C42.1712 23.9713 42.1235 23.9857 42.0755 23.9955C42.0271 24.0055 41.9773 24.0099 41.9281 24.0099Z" fill="white"/>
<path d="M49.5979 31.4996C49.4812 31.2176 49.2063 31.034 48.901 31.034H42.6824V28.2761H45.3599C45.3608 28.2761 45.3617 28.2764 45.3629 28.2764C45.3755 28.2764 45.3885 28.2758 45.4012 28.2752C45.4035 28.2752 45.4056 28.2749 45.4079 28.2749C45.4115 28.2746 45.4153 28.2743 45.4191 28.274C45.4239 28.2737 45.4289 28.2734 45.4336 28.2729C45.4348 28.2729 45.4356 28.2729 45.4365 28.2726C45.5562 28.2611 45.6672 28.2216 45.7639 28.1609C45.7639 28.1609 45.7639 28.1609 45.7642 28.1606C45.7686 28.1579 45.7733 28.1547 45.7777 28.1518C45.7789 28.1512 45.7798 28.1506 45.7807 28.15C45.7845 28.1473 45.7883 28.1447 45.7922 28.142C45.7936 28.1411 45.7951 28.14 45.7966 28.1391C45.7998 28.1367 45.8028 28.1347 45.806 28.1323C45.8081 28.1305 45.8101 28.1294 45.8122 28.1279C45.8146 28.1258 45.8172 28.1241 45.8196 28.1223C45.8222 28.1202 45.8249 28.1185 45.8272 28.1164C45.8293 28.1146 45.8314 28.1132 45.8331 28.1114C45.8361 28.1093 45.839 28.107 45.842 28.1043C45.8434 28.1034 45.8446 28.102 45.8461 28.1011C45.8496 28.0981 45.8529 28.0952 45.8561 28.0925C45.857 28.0916 45.8579 28.0911 45.8588 28.0902C45.8717 28.079 45.8841 28.0675 45.8962 28.0551L49.4344 24.5172C49.5758 24.3755 49.6554 24.1837 49.6554 23.9836V11.3253C49.6554 11.2867 49.6524 11.249 49.6468 11.2119C49.6668 11.079 49.6515 10.9402 49.5979 10.8106C49.4812 10.5286 49.2063 10.3447 48.901 10.3447H36.0162C35.8161 10.3447 35.6243 10.4243 35.4829 10.5657L31.945 14.1039C31.9409 14.1077 31.937 14.1116 31.9332 14.1157C31.9323 14.1169 31.9311 14.1178 31.9302 14.1186C31.9273 14.1219 31.9246 14.1248 31.9217 14.1278C31.9205 14.1292 31.9193 14.1304 31.9182 14.1316C31.9155 14.1345 31.9129 14.1378 31.9102 14.1407C31.909 14.1419 31.9081 14.1431 31.9073 14.1443C31.9037 14.1484 31.9002 14.1522 31.8969 14.1564C31.8958 14.1578 31.8946 14.1593 31.8934 14.1608C31.8911 14.1634 31.889 14.1661 31.8866 14.169C31.8852 14.1711 31.8834 14.1731 31.8819 14.1749C31.8804 14.177 31.879 14.179 31.8772 14.1811C31.8754 14.1838 31.8734 14.1861 31.8716 14.1888C31.8707 14.1896 31.8701 14.1908 31.8692 14.1917C31.7873 14.3034 31.7358 14.4383 31.7258 14.5848V14.5854C31.7252 14.5924 31.7249 14.5992 31.7246 14.6063C31.7246 14.6089 31.7243 14.6116 31.7243 14.6142C31.7243 14.6169 31.724 14.6192 31.724 14.6219V14.6328V14.6372V18.4807H28.966V11.3253C28.966 11.2867 28.9625 10.9402 28.9086 10.8106C28.7919 10.5286 28.517 10.3447 28.2117 10.3447H15.3272C15.1271 10.3447 14.9353 10.4243 14.7938 10.5657L11.2557 14.1039C11.2471 14.1122 11.1578 14.2238 11.1575 14.2244C11.0921 14.3246 11.0497 14.4413 11.0379 14.5668C11.0376 14.5695 11.0373 14.5724 11.0373 14.5751C11.037 14.5774 11.0367 14.5795 11.0367 14.5818C11.0353 14.6022 11.0347 27.5218 11.0347 27.5218C11.0347 27.9384 11.3723 28.2761 11.789 28.2761H20.5953V31.034H15.3272C15.1271 31.034 14.9353 31.1136 14.7938 31.255L11.2557 34.7929C11.2471 34.8015 11.0347 35.0328 11.0347 35.3324V48.2111C11.0347 48.6277 11.3723 48.9654 11.789 48.9654H24.6706C24.9862 48.9654 25.206 48.7456 25.2072 48.7444L28.7451 45.2062C28.8865 45.0648 28.966 44.873 28.966 44.6729V40.9049H31.724V48.2111C31.724 48.6277 32.0617 48.9654 32.4783 48.9654H45.3599C45.6608 48.9654 45.8841 48.7568 45.8962 48.7444L49.4344 45.2062C49.5758 45.0648 49.6554 44.873 49.6554 44.6729V32.0146C49.6554 31.976 49.6518 31.6292 49.5979 31.4996ZM47.0798 32.5427L45.0505 34.5719H34.2992L36.3288 32.5427H41.1738V33.1753C41.1738 33.5919 41.5115 33.9296 41.9281 33.9296C42.3444 33.9296 42.6824 33.5919 42.6824 33.1753V32.5427H47.0798ZM33.2326 15.3915H41.1735V20.3514C41.1735 20.7681 41.5115 21.1057 41.9278 21.1057C42.3444 21.1057 42.6821 20.7681 42.6821 20.3514V15.3915H44.6086V26.7675H33.2326V15.3915ZM46.1172 25.7008V14.9496L48.1467 12.9203V23.6713L46.1172 25.7008ZM36.3288 11.8533H47.0798L45.0505 13.8829H34.2992L36.3288 11.8533ZM26.9709 19.9893H27.4574V23.6713L25.4281 25.7008V14.9496L27.4574 12.9203V18.4807H26.9709C26.5543 18.4807 26.2166 18.8183 26.2166 19.235C26.2166 19.6516 26.5543 19.9893 26.9709 19.9893ZM15.6395 11.8533H26.3908L24.3612 13.8829H13.6102L15.6395 11.8533ZM12.5433 15.3915H23.9195V26.7675H12.5433V15.3915ZM15.6395 32.5427H20.5953V33.2254C20.5953 33.642 20.9329 33.9797 21.3496 33.9797C21.7659 33.9797 22.1039 33.642 22.1039 33.2254V32.5427H26.3908L24.3612 34.5719H13.6102L15.6395 32.5427ZM12.5433 36.0806H23.9195V47.4568H22.1039V40.4965C22.1039 40.0799 21.7659 39.7422 21.3496 39.7422C20.9329 39.7422 20.5953 40.0799 20.5953 40.4965V47.4568H12.5433V36.0806ZM27.4574 44.3606L25.4281 46.3902V35.6389L27.4574 33.6093V39.3963H26.9709C26.5543 39.3963 26.2166 39.734 26.2166 40.1506C26.2166 40.5672 26.5543 40.9049 26.9709 40.9049H27.4574V44.3606ZM28.966 39.3963V32.0901C28.966 32.0382 28.9675 31.6416 28.9086 31.4996C28.7919 31.2176 28.517 31.034 28.2117 31.034H22.1039V28.2761H24.6706C24.6715 28.2761 24.7463 28.2729 24.7472 28.2726C24.8733 28.2605 24.99 28.2172 25.0902 28.1509C25.0905 28.1509 25.206 28.0563 25.2072 28.0551L28.7451 24.5172C28.8865 24.3758 28.966 24.184 28.966 23.9839V19.9893H31.724V27.5218C31.724 27.9384 32.0617 28.2761 32.4783 28.2761H41.1738V31.034H36.0162C35.8161 31.034 35.6243 31.1136 35.4829 31.255L31.945 34.7929C31.9409 34.7968 31.724 35.0027 31.724 35.3262V39.3963H28.966ZM33.2326 36.0806H44.6086V47.4568H33.2326V36.0806ZM46.1172 46.3902V35.6389L48.1467 33.6093V44.3606L46.1172 46.3902Z" fill="white"/>
</g>
<defs>
<clipPath id="clip0">
<rect width="38.6207" height="38.6207" fill="white" transform="translate(11.0347 10.3447)"/>
</clipPath>
</defs>
</svg>
