<svg width="32" height="32" viewBox="0 0 32 32" fill="none" xmlns="http://www.w3.org/2000/svg">
<path d="M13.9899 2.14142L14 2.07107V2C14 1.44772 14.4477 1 15 1H17C17.5523 1 18 1.44772 18 2V2.07107L18.01 2.14142L18.2501 3.82209C18.5726 6.07934 21.1959 7.16593 23.02 5.79783L24.3782 4.77919L24.435 4.73655L24.4853 4.6863C24.8758 4.29577 25.509 4.29577 25.8995 4.6863L26.5783 4.00747L25.8995 4.6863L27.3137 6.10051C27.7042 6.49103 27.7042 7.1242 27.3137 7.51472L27.2635 7.56498L27.2208 7.62183L26.2022 8.98001C24.8341 10.8041 25.9207 13.4274 28.1779 13.7499L29.8586 13.9899L29.9289 14H30C30.5523 14 31 14.4477 31 15V17C31 17.5523 30.5523 18 30 18H29.9289L29.8586 18.01L28.1779 18.2501C25.9207 18.5726 24.8341 21.1959 26.2022 23.02L27.2208 24.3782L27.2635 24.435L27.3137 24.4853C27.7042 24.8758 27.7042 25.509 27.3137 25.8995L25.8995 27.3137C25.509 27.7042 24.8758 27.7042 24.4853 27.3137L24.435 27.2635L24.3782 27.2208L23.02 26.2022C21.1959 24.8341 18.5726 25.9207 18.2501 28.1779L18.01 29.8586L18 29.9289V30C18 30.5523 17.5523 31 17 31H15C14.4477 31 14 30.5523 14 30V29.9289L13.9899 29.8586L13.7499 28.1779C13.4274 25.9207 10.8041 24.8341 8.98001 26.2022L7.62182 27.2208L7.56497 27.2635L7.51472 27.3137C7.12419 27.7042 6.49103 27.7042 6.10051 27.3137L4.68629 25.8995L3.97919 26.6066L4.68629 25.8995C4.29577 25.509 4.29577 24.8758 4.68629 24.4853L4.73654 24.435L4.77919 24.3782L5.79783 23.02C7.16593 21.1959 6.07934 18.5726 3.82209 18.2501L2.14142 18.01L2.07107 18H2C1.44772 18 1 17.5523 1 17V15C1 14.4477 1.44772 14 2 14H2.07107L2.14142 13.9899L3.82208 13.7499C6.07933 13.4274 7.16592 10.8041 5.79782 8.98001L4.77919 7.62183L4.73655 7.56498L4.68629 7.51472C4.29577 7.1242 4.29577 6.49103 4.68629 6.10051L6.10051 4.6863C6.49103 4.29577 7.12419 4.29577 7.51472 4.6863L7.56497 4.73655L7.62183 4.77919L8.98001 5.79782C10.8041 7.16592 13.4274 6.07934 13.7499 3.82209L13.9899 2.14142ZM16 21C18.7614 21 21 18.7614 21 16C21 13.2386 18.7614 11 16 11C13.2386 11 11 13.2386 11 16C11 18.7614 13.2386 21 16 21Z" stroke="white" stroke-width="2"/>
</svg>
