<svg width="170" height="38" viewBox="0 0 170 38" fill="none" xmlns="http://www.w3.org/2000/svg">
<path d="M0 37.9299L16.7232 6.57107L31.4927 0L14.7462 31.3588L0 37.9299Z" fill="black"/>
<path d="M16.6763 30.7743L29.3757 6.94531L36.6325 14.1244L24.0726 38.0001L16.6763 30.7743Z" fill="black"/>
<path d="M38.0292 14.8257L47.4257 18.2866L42.7275 26.9857L31.3306 27.3833L38.0292 14.8257Z" fill="black"/>
<path d="M65.0461 29.8751H59.1299V13.0918H65.0901C66.7616 13.0918 68.2131 13.4235 69.4229 14.0869C70.6325 14.7502 71.5782 15.7231 72.2161 16.9615C72.8758 18.2219 73.1837 19.7034 73.1837 21.4502C73.1837 23.1971 72.8538 24.7008 72.194 25.9612C71.5342 27.2216 70.6105 28.1724 69.3788 28.8579C68.1912 29.5434 66.7396 29.8751 65.0461 29.8751ZM62.6488 26.8235H64.8921C66.4537 26.8235 67.6414 26.4035 68.4551 25.541C69.2688 24.7008 69.6648 23.3298 69.6648 21.4502C69.6648 19.5928 69.2688 18.244 68.4551 17.3816C67.6414 16.5413 66.4537 16.1212 64.8921 16.1212H62.6488V26.8235Z" fill="black"/>
<path d="M75.8221 29.8752H72.0393L77.8016 13.114H82.3542L88.095 29.8752H84.3117L83.08 26.0497H77.0538L75.8221 29.8752ZM77.9556 23.2858H82.2003L80.1549 16.9395H80.0229L77.9556 23.2858Z" fill="black"/>
<path d="M102.568 21.4946C102.568 23.3299 102.216 24.8777 101.534 26.1603C100.852 27.4428 99.9064 28.4156 98.741 29.1012C97.5536 29.7646 96.2335 30.1183 94.7596 30.1183C93.2866 30.1183 91.9444 29.7867 90.7791 29.1012C89.5916 28.4156 88.6677 27.4428 87.986 26.1603C87.3043 24.8777 86.9524 23.3299 86.9524 21.5167C86.9524 19.6813 87.3043 18.1335 87.986 16.851C88.6677 15.5684 89.5916 14.5955 90.7791 13.91C91.9665 13.2466 93.2866 12.8928 94.7596 12.8928C96.2335 12.8928 97.5536 13.2245 98.741 13.91C99.9285 14.5734 100.852 15.5684 101.534 16.851C102.238 18.0892 102.568 19.6592 102.568 21.4946ZM99.0045 21.4946C99.0045 19.7256 98.6093 18.3545 97.8392 17.4259C97.0691 16.4971 96.0355 16.0106 94.7596 16.0106C93.4846 16.0106 92.451 16.475 91.6809 17.4259C90.9108 18.3767 90.5156 19.7256 90.5156 21.4946C90.5156 23.2635 90.9108 24.6345 91.6809 25.5632C92.451 26.4919 93.4846 26.9784 94.7596 26.9784C96.0355 26.9784 97.0691 26.514 97.8392 25.5632C98.6093 24.6124 99.0045 23.2635 99.0045 21.4946Z" fill="black"/>
<path d="M107.295 13.0918H111.651L116.247 24.3691H116.445L121.042 13.0918H125.375V29.8751H121.943V18.9516H121.812L117.501 29.7867H115.17L110.859 18.9074H110.727V29.8751H107.295V13.0918Z" fill="black"/>
<path d="M130.5 30.0961C129.312 30.0961 128.322 29.7866 127.53 29.1454C126.738 28.5262 126.343 27.5754 126.343 26.3371C126.343 25.4083 126.562 24.6565 127.003 24.1258C127.442 23.5951 128.014 23.1971 128.74 22.9539C129.444 22.7107 130.214 22.5337 131.049 22.4674C132.127 22.3568 132.919 22.2463 133.381 22.1136C133.843 21.9809 134.085 21.7377 134.085 21.3175V21.2733C134.085 20.7647 133.93 20.3447 133.6 20.0793C133.271 19.7918 132.831 19.6591 132.237 19.6591C131.622 19.6591 131.115 19.7918 130.742 20.0793C130.368 20.3447 130.126 20.6984 130.016 21.1186L126.805 20.8532C127.047 19.7033 127.64 18.7968 128.586 18.1334C129.531 17.47 130.763 17.1162 132.259 17.1162C133.183 17.1162 134.063 17.271 134.854 17.5585C135.668 17.8459 136.306 18.3103 136.812 18.9294C137.317 19.5486 137.56 20.3668 137.56 21.3618V29.8751H134.261V28.1282H134.172C133.865 28.7031 133.424 29.1896 132.809 29.5654C132.193 29.9193 131.423 30.0961 130.5 30.0961ZM131.489 27.708C132.259 27.708 132.874 27.4869 133.359 27.0447C133.843 26.6024 134.085 26.0496 134.085 25.3862V24.0595C133.952 24.1479 133.733 24.2364 133.446 24.3027C133.161 24.369 132.853 24.4354 132.545 24.4797C132.215 24.5239 131.929 24.5681 131.687 24.6123C131.072 24.7008 130.587 24.8776 130.214 25.1209C129.84 25.3862 129.664 25.7622 129.664 26.2486C129.664 26.735 129.84 27.0889 130.192 27.3322C130.522 27.5754 130.961 27.708 131.489 27.708Z" fill="black"/>
<path d="M138.879 29.8751V13.0918H142.354V22.0473H142.552L146.554 17.271H150.535L145.895 22.7106L150.777 29.853H146.708L143.278 24.7892L142.332 25.8728V29.8751H138.879Z" fill="black"/>
<path d="M155.792 30.1185C154.516 30.1185 153.417 29.8531 152.471 29.3224C151.547 28.7916 150.821 28.0398 150.338 27.089C149.832 26.1161 149.59 24.9663 149.59 23.6395C149.59 22.357 149.832 21.2071 150.338 20.2342C150.844 19.2612 151.547 18.4873 152.449 17.9566C153.351 17.4038 154.429 17.1384 155.661 17.1384C156.76 17.1384 157.75 17.3817 158.652 17.8461C159.531 18.3104 160.235 19.018 160.763 19.9688C161.291 20.9197 161.554 22.0916 161.554 23.5289V24.4798H153.043C153.043 25.4085 153.307 26.1603 153.813 26.691C154.318 27.2217 155.022 27.5091 155.88 27.5091C156.452 27.5091 156.958 27.3765 157.376 27.1332C157.794 26.89 158.102 26.5141 158.278 26.0498L161.489 26.2709C161.247 27.4428 160.63 28.3716 159.641 29.0792C158.63 29.7646 157.354 30.1185 155.792 30.1185ZM153.021 22.3127H158.278C158.278 21.5609 158.035 20.9418 157.552 20.4553C157.068 19.9688 156.474 19.7256 155.704 19.7256C154.935 19.7256 154.296 19.9688 153.813 20.4774C153.329 20.986 153.065 21.6052 153.021 22.3127Z" fill="black"/>
<path d="M162.411 29.8751V17.2931H165.776V19.4822H165.908C166.128 18.7083 166.524 18.1113 167.052 17.7132C167.58 17.3152 168.217 17.1162 168.899 17.1162C169.295 17.1162 169.647 17.1604 169.999 17.2489V20.3447C169.845 20.3004 169.603 20.2561 169.317 20.2119C169.032 20.1677 168.767 20.1677 168.525 20.1677C167.756 20.1677 167.118 20.411 166.634 20.8975C166.128 21.3839 165.886 22.003 165.886 22.777V29.8751H162.411Z" fill="black"/>
</svg>
