<svg width="132" height="30" viewBox="0 0 132 30" fill="none" xmlns="http://www.w3.org/2000/svg">
<path d="M37.3605 13.4236C37.5911 15.34 39.1735 16.5884 41.4715 16.5884C42.7477 16.5884 44.3579 16.1033 45.1213 15.2366L46.8308 16.8945C45.5308 18.3258 43.36 19.0374 41.4198 19.0374C37.285 19.0374 34.6292 16.4094 34.6292 12.374C34.6292 8.54533 37.3088 5.81396 41.2409 5.81396C45.3002 5.81396 48.0554 8.29088 47.5703 13.4196H37.3605V13.4236ZM45.0417 11.2051C44.8867 9.21326 43.4315 8.16763 41.3164 8.16763C39.4001 8.16763 37.8177 9.21326 37.4122 11.2051H45.0417Z" fill="black"/>
<path d="M56.1977 0.426758V11.6385L62.4635 5.83383H64.1214V5.88552L57.4222 12.0718L64.8729 18.9619V19.0374H63.2905L56.1977 12.5569V19.0374H54.9731V0.426758H56.1977Z" fill="black"/>
<path d="M70.0454 12.4855C70.0454 8.42222 72.9438 5.83398 76.5418 5.83398C80.1399 5.83398 83.0423 8.42222 83.0423 12.4855C83.0423 16.5487 80.1439 19.0376 76.5418 19.0376C72.9438 19.0376 70.0454 16.5527 70.0454 12.4855ZM81.7978 12.4855C81.7978 9.17364 79.4402 7.02274 76.5418 7.02274C73.6435 7.02274 71.2859 9.16967 71.2859 12.4855C71.2859 15.8013 73.6395 17.7931 76.5418 17.7931C79.4442 17.7931 81.7978 15.8013 81.7978 12.4855Z" fill="black"/>
<path d="M100.476 12.4855C100.476 8.42222 103.374 5.83398 106.973 5.83398C110.571 5.83398 113.473 8.42222 113.473 12.4855C113.473 16.5487 110.575 19.0376 106.973 19.0376C103.37 19.0376 100.476 16.5527 100.476 12.4855ZM112.229 12.4855C112.229 9.17364 109.871 7.02274 106.973 7.02274C104.074 7.02274 101.717 9.16967 101.717 12.4855C101.717 15.8013 104.07 17.7931 106.973 17.7931C109.875 17.7931 112.229 15.8013 112.229 12.4855Z" fill="black"/>
<path d="M92.6002 2.01297C92.6002 3.34089 90.5845 3.34089 90.5845 2.01297C90.5845 0.689035 92.6002 0.689035 92.6002 2.01297ZM90.9423 19.0373H92.1947V5.8337H90.9423V19.0373Z" fill="black"/>
<path d="M130.08 8.37043C128.784 7.23336 127.515 7.02264 126.092 7.02264C124.1 6.99481 122.184 7.74623 122.236 9.38028C122.287 11.0899 124.514 11.4238 126.12 11.7101C128.398 12.0997 131.531 12.4854 131.4 15.4632C131.324 18.286 128.398 19.0375 126.144 19.0375C123.889 19.0375 121.663 18.1827 120.55 16.4731L121.48 15.6461C122.542 17.1728 124.458 17.8209 126.168 17.8209C127.722 17.8209 130.076 17.4074 130.155 15.3877C130.207 13.5509 128.084 13.1891 125.989 12.8511C123.504 12.4377 121.043 11.9725 121.019 9.40811C120.991 6.89541 123.504 5.81003 126.092 5.83388C127.957 5.83388 129.587 6.35073 130.855 7.54347L130.08 8.37043Z" fill="black"/>
<path d="M21.0399 17.825L19.1911 19.6817L21.354 21.8445C19.4376 25.0212 16.0423 26.9574 12.2812 26.9574C8.52409 26.9574 5.12877 25.0172 3.21244 21.8445L5.37527 19.6817L6.85823 18.1987L8.3412 19.6817L12.2812 23.6217L16.2252 19.6817L17.7082 18.1987L19.5569 16.35L21.0399 14.867L24.5584 11.3485L24.145 10.5096C21.9026 5.95332 17.3543 3.12256 12.2772 3.12256C7.2081 3.12256 2.6598 5.94934 0.417459 10.5096L0.00397664 11.3485L3.52652 14.867L5.37527 13.0143L3.21244 10.8435C5.12479 7.66688 8.52409 5.73465 12.2812 5.73465C16.0423 5.73465 19.4376 7.66688 21.354 10.8435L19.1911 13.0064L17.7082 14.4893L16.2252 13.0143L12.2812 9.07034L8.3412 13.0143L6.85823 14.4893L5.00949 16.3421L3.52652 17.821L0 21.3476L0.413482 22.1904C2.6598 26.7427 7.2081 29.5735 12.2812 29.5735C17.3583 29.5735 21.9066 26.7427 24.1529 22.1904L24.5664 21.3476L21.0399 17.825ZM10.1899 14.8631L12.2812 12.7718L14.3725 14.8631L15.8554 16.346L14.3764 17.829L12.2812 19.9203L8.70697 16.346L10.1899 14.8631Z" fill="black"/>
<path d="M35.3125 25.002V27.9083H37.0778V28.1349H35.074V25.002H35.3125Z" fill="black"/>
<path d="M38.1672 26.4481H40.004V26.6668H38.1672V27.9032H40.1471V28.1378H37.9326V25.0049H40.0954V25.2315H38.1712V26.4481H38.1672Z" fill="black"/>
<path d="M43.6616 28.1339L43.3157 27.3626H41.4431L41.1012 28.1339H40.8428L42.2502 25.001H42.5126L43.92 28.1339H43.6616ZM43.2203 27.14L42.3774 25.2316L41.5346 27.14H43.2203Z" fill="black"/>
<path d="M47.4624 26.5317C47.4783 27.3268 46.9694 28.1339 45.8721 28.1339C45.5182 28.1339 45.1644 28.1339 44.8105 28.1339V25.001C45.1644 25.001 45.5182 25.001 45.8721 25.001C46.9336 25.001 47.4465 25.7604 47.4624 26.5317ZM45.0531 25.2276V27.8993H45.8721C46.8024 27.8993 47.2318 27.1996 47.2199 26.5277C47.2079 25.8756 46.7786 25.2236 45.8721 25.2236H45.0531V25.2276Z" fill="black"/>
<path d="M48.4883 28.1339V25.001H48.7268V28.1339H48.4883Z" fill="black"/>
<path d="M50.0467 25.001L52.1539 27.5932V25.001H52.3924V28.1339H52.297L50.1859 25.5457V28.1339H49.9434V25.001H50.0467Z" fill="black"/>
<path d="M56.0423 25.5778C55.7679 25.3075 55.3902 25.1763 55.0364 25.1763C54.118 25.1763 53.6488 25.8482 53.6528 26.5718C53.6528 27.3113 54.1219 27.9474 55.0364 27.9474C55.3703 27.9474 55.7202 27.8321 55.9906 27.5856V26.7069H54.8972V26.4962H56.2172V27.6691C55.8912 27.9951 55.5015 28.174 55.0364 28.174C53.9709 28.174 53.4182 27.4305 53.4182 26.5757C53.4143 25.5937 54.0822 24.9536 55.0364 24.9536C55.4499 24.9536 55.8633 25.1087 56.1814 25.4228L56.0423 25.5778Z" fill="black"/>
<path d="M61.3301 25.001L60.0419 28.1458H59.7835L58.4954 25.001H58.7538L59.9147 27.8675L61.0756 25.001H61.3301Z" fill="black"/>
<path d="M62.2405 28.1339V25.001H62.479V28.1339H62.2405Z" fill="black"/>
<path d="M63.9382 26.4481H65.775V26.6668H63.9382V27.9032H65.9181V28.1378H63.7036V25.0049H65.8664V25.2315H63.9422V26.4481H63.9382Z" fill="black"/>
<path d="M67.6954 25.2196H66.5623V25.0049H69.071V25.2196H67.9379V28.1338H67.6954V25.2196Z" fill="black"/>
<path d="M70.017 25.001L72.1242 27.5932V25.001H72.3627V28.1339H72.2673L70.1522 25.5457V28.1339H69.9097V25.001H70.017Z" fill="black"/>
<path d="M76.0722 28.1339L75.7264 27.3626H73.8538L73.5118 28.1339H73.2534L74.6608 25.001H74.9232L76.3307 28.1339H76.0722ZM75.6349 27.14L74.792 25.2316L73.9492 27.14H75.6349Z" fill="black"/>
<path d="M79.9567 25.3508L78.756 27.1877H78.6765L77.4679 25.3508V28.1339H77.2253V25.001C77.3406 25.001 77.3963 25.001 77.5116 25.001L78.7123 26.8259L79.8971 25.001H80.1913V28.1339H79.9527V25.3508H79.9567Z" fill="black"/>
<path d="M81.5152 24.9814V26.1265H81.3164V24.9814H81.5152Z" fill="black"/>
<path d="M84.6243 25.6056C84.3977 25.2398 84.0279 25.1841 83.6741 25.1802C83.3083 25.1802 82.7239 25.3153 82.7239 25.8163C82.7239 26.2139 83.1532 26.3093 83.682 26.4087C84.2863 26.524 84.9145 26.6313 84.9145 27.3072C84.9105 28.0149 84.1989 28.1859 83.6741 28.1859C83.1851 28.1859 82.6324 27.9831 82.3899 27.506L82.6046 27.3986C82.7954 27.7803 83.2884 27.9672 83.6741 27.9672C84.0597 27.9672 84.672 27.8598 84.672 27.3032C84.676 26.8341 84.1591 26.7307 83.6423 26.6313C83.0697 26.52 82.4813 26.4047 82.4813 25.8242C82.4694 25.1603 83.1572 24.9575 83.6741 24.9575C84.1233 24.9575 84.513 25.0291 84.8191 25.4903L84.6243 25.6056Z" fill="black"/>
<path d="M89.749 25.8558C89.749 26.1778 89.5502 26.4283 89.2401 26.5277C89.6337 26.635 89.8563 26.9531 89.8563 27.3149C89.8563 27.959 89.256 28.1339 88.7192 28.1339C88.262 28.1339 87.8923 28.1339 87.4351 28.1339V25.001C87.8883 25.001 88.262 25.001 88.7192 25.001C89.248 25.001 89.749 25.2594 89.749 25.8558ZM87.6776 26.4203H88.751C89.1287 26.4203 89.5223 26.305 89.5223 25.8558C89.5223 25.3986 89.1089 25.2077 88.7192 25.2077H87.6776V26.4203ZM87.6776 27.9033H88.7192C89.1128 27.9033 89.6178 27.8079 89.6178 27.3109C89.6138 26.8219 89.1685 26.647 88.751 26.647C88.3733 26.647 88.0513 26.647 87.6776 26.647V27.9033Z" fill="black"/>
<path d="M91.1206 25.001V27.9073H92.8859V28.1339H90.8821V25.001H91.1206Z" fill="black"/>
<path d="M96.6986 26.5713C96.6946 27.3943 96.1698 28.1855 95.1162 28.1855C94.0626 28.1855 93.5378 27.3904 93.5378 26.5594C93.5378 25.7166 94.0626 24.9492 95.1162 24.9492C96.1738 24.9532 96.7026 25.7245 96.6986 26.5713ZM93.7764 26.5674C93.7804 27.2751 94.2296 27.9629 95.1202 27.9629C96.0148 27.9629 96.468 27.2751 96.468 26.5674C96.468 25.8438 96.0187 25.1758 95.1202 25.1758C94.2217 25.1758 93.7684 25.8279 93.7764 26.5674Z" fill="black"/>
<path d="M100.269 27.7007C99.9548 28.0148 99.5413 28.1699 99.1279 28.1699C98.0703 28.1699 97.5216 27.4304 97.5177 26.5836C97.5097 25.7447 98.0544 24.9614 99.1279 24.9614C99.5413 24.9614 99.9548 25.1165 100.269 25.4306L100.102 25.5737C99.8316 25.3033 99.4777 25.1761 99.1239 25.1761C98.2094 25.1761 97.7403 25.8202 97.7443 26.5716C97.7522 27.3071 98.2174 27.9433 99.1239 27.9433C99.4777 27.9433 99.8355 27.8081 100.106 27.5457L100.269 27.7007Z" fill="black"/>
<path d="M103.438 28.1339H103.132L101.478 26.5913V28.1299H101.235V25.001H101.478V26.4283L103 25.001H103.291V25.0248L101.716 26.5038L103.434 28.122V28.1339H103.438Z" fill="black"/>
<path d="M106.773 27.7007C106.459 28.0148 106.046 28.1699 105.632 28.1699C104.575 28.1699 104.026 27.4304 104.022 26.5836C104.014 25.7447 104.559 24.9614 105.632 24.9614C106.046 24.9614 106.459 25.1165 106.773 25.4306L106.606 25.5737C106.336 25.3033 105.982 25.1761 105.628 25.1761C104.714 25.1761 104.245 25.8202 104.249 26.5716C104.257 27.3071 104.722 27.9433 105.628 27.9433C105.982 27.9433 106.34 27.8081 106.61 27.5457L106.773 27.7007Z" fill="black"/>
<path d="M109.994 28.1339V26.7106H107.998V28.1339H107.755V25.001H107.998V26.4919H109.994V25.001H110.236V28.1339H109.994Z" fill="black"/>
<path d="M113.942 28.1339L113.596 27.3626H111.723L111.381 28.1339H111.123L112.53 25.001H112.793L114.2 28.1339H113.942ZM113.504 27.14L112.661 25.2316L111.819 27.14H113.504Z" fill="black"/>
<path d="M115.099 28.1339V25.001H115.337V28.1339H115.099Z" fill="black"/>
<path d="M116.657 25.001L118.764 27.5932V25.001H119.003V28.1339H118.907L116.792 25.5457V28.1339H116.55V25.001H116.657Z" fill="black"/>
<path d="M123.551 25.7567C123.551 25.2637 123.165 25.1802 122.748 25.1802C122.148 25.1802 121.861 25.4585 121.865 25.8124C121.869 26.2935 122.378 26.4406 122.756 26.4406C123.221 26.4406 123.619 26.4406 124.084 26.4406V26.6314H123.798V27.3152C123.798 27.6492 123.873 27.9514 124.187 27.9474V28.1342C123.933 28.17 123.73 27.9991 123.662 27.7367C123.432 28.1064 123.074 28.174 122.74 28.174C121.981 28.174 121.579 27.84 121.579 27.2993C121.579 26.9097 121.897 26.6354 122.211 26.532C121.885 26.4326 121.635 26.1623 121.635 25.8124C121.635 25.3273 122.032 24.9814 122.748 24.9814C123.249 24.9814 123.754 25.1126 123.754 25.7567H123.551ZM123.603 26.6314H122.744C122.128 26.6314 121.814 26.9813 121.814 27.3033C121.814 27.7049 122.108 27.9673 122.74 27.9673C123.098 27.9673 123.603 27.84 123.603 27.3192V26.6314Z" fill="black"/>
<path d="M129.169 28.1339L128.823 27.3626H126.95L126.609 28.1339H126.35L127.758 25.001H128.02L129.427 28.1339H129.169ZM128.732 27.14L127.889 25.2316L127.046 27.14H128.732Z" fill="black"/>
<path d="M130.322 28.1339V25.001H130.561V28.1339H130.322Z" fill="black"/>
</svg>
