<svg width="199" height="44" viewBox="0 0 199 44" fill="none" xmlns="http://www.w3.org/2000/svg">
<path d="M56.3999 19.6205C56.748 22.5134 59.1368 24.398 62.6059 24.398C64.5325 24.398 66.9633 23.6658 68.1157 22.3573L70.6965 24.8601C68.7339 27.0208 65.4568 28.0952 62.5279 28.0952C56.2859 28.0952 52.2766 24.1279 52.2766 18.036C52.2766 12.2561 56.3219 8.13281 62.2578 8.13281C68.3857 8.13281 72.5451 11.872 71.8128 19.6145H56.3999V19.6205ZM67.9956 16.2714C67.7615 13.2644 65.5648 11.6859 62.3718 11.6859C59.4789 11.6859 57.0901 13.2644 56.4779 16.2714H67.9956Z" fill="white"/>
<path d="M84.8369 0V16.9254L94.2959 8.1626H96.7987V8.24063L86.6855 17.5796L97.933 27.9809V28.0949H95.5443L84.8369 18.3118V28.0949H82.9883V0H84.8369Z" fill="white"/>
<path d="M105.742 18.2033C105.742 12.0693 110.117 8.16211 115.549 8.16211C120.981 8.16211 125.362 12.0693 125.362 18.2033C125.362 24.3373 120.987 28.0944 115.549 28.0944C110.117 28.0944 105.742 24.3433 105.742 18.2033ZM123.483 18.2033C123.483 13.2037 119.924 9.95667 115.549 9.95667C111.173 9.95667 107.614 13.1977 107.614 18.2033C107.614 23.2089 111.167 26.2158 115.549 26.2158C119.93 26.2158 123.483 23.2089 123.483 18.2033Z" fill="white"/>
<path d="M151.68 18.2033C151.68 12.0693 156.056 8.16211 161.487 8.16211C166.919 8.16211 171.3 12.0693 171.3 18.2033C171.3 24.3373 166.925 28.0944 161.487 28.0944C156.05 28.0944 151.68 24.3433 151.68 18.2033ZM169.422 18.2033C169.422 13.2037 165.863 9.95667 161.487 9.95667C157.112 9.95667 153.553 13.1977 153.553 18.2033C153.553 23.2089 157.106 26.2158 161.487 26.2158C165.869 26.2158 169.422 23.2089 169.422 18.2033Z" fill="white"/>
<path d="M139.791 2.39448C139.791 4.39912 136.748 4.39912 136.748 2.39448C136.748 0.395849 139.791 0.395849 139.791 2.39448ZM137.288 28.0947H139.178V8.16232H137.288V28.0947Z" fill="white"/>
<path d="M196.37 11.9919C194.414 10.2754 192.499 9.95725 190.351 9.95725C187.344 9.91524 184.451 11.0496 184.529 13.5164C184.607 16.0972 187.968 16.6014 190.393 17.0335C193.832 17.6217 198.561 18.2039 198.363 22.6993C198.249 26.9607 193.832 28.095 190.429 28.095C187.025 28.095 183.664 26.8046 181.984 24.2238L183.388 22.9754C184.991 25.2801 187.884 26.2584 190.465 26.2584C192.811 26.2584 196.364 25.6342 196.485 22.5853C196.563 19.8124 193.358 19.2662 190.194 18.7561C186.443 18.1319 182.728 17.4296 182.692 13.5584C182.65 9.76519 186.443 8.12668 190.351 8.16269C193.165 8.16269 195.626 8.94294 197.541 10.7435L196.37 11.9919Z" fill="white"/>
<path d="M31.7621 26.2644L28.9712 29.0673L32.2363 32.3323C29.3433 37.1279 24.2177 40.0508 18.5399 40.0508C12.8681 40.0508 7.74246 37.1219 4.84954 32.3323L8.11458 29.0673L10.3533 26.8286L12.592 29.0673L18.5399 35.0152L24.4938 29.0673L26.7325 26.8286L29.5234 24.0377L31.7621 21.799L37.0738 16.4873L36.4496 15.2209C33.0645 8.3427 26.1983 4.06934 18.5339 4.06934C10.8815 4.06934 4.01528 8.33669 0.630202 15.2209L0.00600319 16.4873L5.3237 21.799L8.11458 19.0021L4.84954 15.725C7.73646 10.9295 12.8681 8.0126 18.5399 8.0126C24.2177 8.0126 29.3433 10.9295 32.2363 15.725L28.9712 18.9901L26.7325 21.2288L24.4938 19.0021L18.5399 13.0482L12.592 19.0021L10.3533 21.2288L7.56241 24.0257L5.3237 26.2584L0 31.5821L0.624199 32.8545C4.01528 39.7267 10.8815 44 18.5399 44C26.2043 44 33.0705 39.7267 36.4616 32.8545L37.0858 31.5821L31.7621 26.2644ZM15.3829 21.793L18.5399 18.636L21.6969 21.793L23.9356 24.0317L21.7029 26.2704L18.5399 29.4274L13.1442 24.0317L15.3829 21.793Z" fill="#FF2F00"/>
<path d="M53.3084 37.0977V41.4851H55.9732V41.8272H52.9482V37.0977H53.3084Z" fill="white"/>
<path d="M57.6178 39.2822H60.3907V39.6123H57.6178V41.4789H60.6067V41.833H57.2637V37.1035H60.5287V37.4456H57.6238V39.2822H57.6178Z" fill="white"/>
<path d="M65.9123 41.8272L65.3902 40.6628H62.5633L62.0471 41.8272H61.657L63.7817 37.0977H64.1778L66.3025 41.8272H65.9123ZM65.2461 40.3267L63.9737 37.4458L62.7013 40.3267H65.2461Z" fill="white"/>
<path d="M71.6502 39.4084C71.6743 40.6088 70.906 41.8272 69.2495 41.8272C68.7153 41.8272 68.1811 41.8272 67.647 41.8272V37.0977C68.1811 37.0977 68.7153 37.0977 69.2495 37.0977C70.852 37.0977 71.6262 38.244 71.6502 39.4084ZM68.0131 37.4398V41.4731H69.2495C70.6539 41.4731 71.3021 40.4167 71.2841 39.4024C71.2661 38.4181 70.6179 37.4338 69.2495 37.4338H68.0131V37.4398Z" fill="white"/>
<path d="M73.1987 41.8272V37.0977H73.5588V41.8272H73.1987Z" fill="white"/>
<path d="M75.5516 37.0977L78.7326 41.0109V37.0977H79.0927V41.8272H78.9486L75.7616 37.9199V41.8272H75.3955V37.0977H75.5516Z" fill="white"/>
<path d="M84.6024 37.9677C84.1883 37.5596 83.6181 37.3615 83.0839 37.3615C81.6975 37.3615 80.9892 38.3758 80.9953 39.4682C80.9953 40.5845 81.7035 41.5448 83.0839 41.5448C83.5881 41.5448 84.1162 41.3708 84.5244 40.9987V39.6722H82.8739V39.3541H84.8665V41.1247C84.3743 41.6168 83.7861 41.8869 83.0839 41.8869C81.4754 41.8869 80.6411 40.7646 80.6411 39.4742C80.6351 37.9917 81.6435 37.0254 83.0839 37.0254C83.7081 37.0254 84.3323 37.2595 84.8125 37.7336L84.6024 37.9677Z" fill="white"/>
<path d="M92.585 37.0977L90.6404 41.8452H90.2503L88.3057 37.0977H88.6958L90.4483 41.425L92.2009 37.0977H92.585Z" fill="white"/>
<path d="M93.9592 41.8272V37.0977H94.3193V41.8272H93.9592Z" fill="white"/>
<path d="M96.5221 39.2822H99.295V39.6123H96.5221V41.4789H99.511V41.833H96.168V37.1035H99.433V37.4456H96.5281V39.2822H96.5221Z" fill="white"/>
<path d="M102.194 37.4276H100.483V37.1035H104.271V37.4276H102.56V41.827H102.194V37.4276Z" fill="white"/>
<path d="M105.699 37.0977L108.88 41.0109V37.0977H109.24V41.8272H109.096L105.903 37.9199V41.8272H105.537V37.0977H105.699Z" fill="white"/>
<path d="M114.84 41.8272L114.318 40.6628H111.491L110.975 41.8272H110.584L112.709 37.0977H113.105L115.23 41.8272H114.84ZM114.18 40.3267L112.907 37.4458L111.635 40.3267H114.18Z" fill="white"/>
<path d="M120.704 37.6258L118.891 40.3987H118.771L116.947 37.6258V41.8272H116.581V37.0977C116.755 37.0977 116.839 37.0977 117.013 37.0977L118.825 39.8525L120.614 37.0977H121.058V41.8272H120.698V37.6258H120.704Z" fill="white"/>
<path d="M123.056 37.0674V38.7959H122.756V37.0674H123.056Z" fill="white"/>
<path d="M127.75 38.0096C127.408 37.4574 126.85 37.3734 126.316 37.3674C125.763 37.3674 124.881 37.5714 124.881 38.3277C124.881 38.9279 125.529 39.0719 126.328 39.2219C127.24 39.396 128.188 39.5581 128.188 40.5784C128.182 41.6467 127.108 41.9048 126.316 41.9048C125.577 41.9048 124.743 41.5987 124.377 40.8785L124.701 40.7164C124.989 41.2926 125.733 41.5747 126.316 41.5747C126.898 41.5747 127.822 41.4126 127.822 40.5724C127.828 39.8641 127.048 39.7081 126.268 39.558C125.403 39.39 124.515 39.2159 124.515 38.3397C124.497 37.3373 125.535 37.0312 126.316 37.0312C126.994 37.0312 127.582 37.1393 128.044 37.8355L127.75 38.0096Z" fill="white"/>
<path d="M135.487 38.3881C135.487 38.8742 135.186 39.2523 134.718 39.4024C135.312 39.5644 135.649 40.0446 135.649 40.5908C135.649 41.5631 134.742 41.8272 133.932 41.8272C133.242 41.8272 132.684 41.8272 131.993 41.8272V37.0977C132.678 37.0977 133.242 37.0977 133.932 37.0977C134.73 37.0977 135.487 37.4878 135.487 38.3881ZM132.36 39.2403H133.98C134.55 39.2403 135.144 39.0663 135.144 38.3881C135.144 37.6978 134.52 37.4098 133.932 37.4098H132.36V39.2403ZM132.36 41.4791H133.932C134.526 41.4791 135.288 41.335 135.288 40.5848C135.282 39.8465 134.61 39.5825 133.98 39.5825C133.41 39.5825 132.924 39.5825 132.36 39.5825V41.4791Z" fill="white"/>
<path d="M137.557 37.0977V41.4851H140.222V41.8272H137.197V37.0977H137.557Z" fill="white"/>
<path d="M145.978 39.4683C145.972 40.7107 145.18 41.9051 143.589 41.9051C141.999 41.9051 141.206 40.7047 141.206 39.4503C141.206 38.1779 141.999 37.0195 143.589 37.0195C145.186 37.0255 145.984 38.1899 145.978 39.4683ZM141.566 39.4623C141.572 40.5307 142.251 41.569 143.595 41.569C144.945 41.569 145.63 40.5307 145.63 39.4623C145.63 38.37 144.951 37.3616 143.595 37.3616C142.239 37.3616 141.554 38.346 141.566 39.4623Z" fill="white"/>
<path d="M151.368 41.1724C150.893 41.6466 150.269 41.8807 149.645 41.8807C148.048 41.8807 147.22 40.7643 147.214 39.4859C147.202 38.2195 148.024 37.0371 149.645 37.0371C150.269 37.0371 150.893 37.2712 151.368 37.7453L151.115 37.9614C150.707 37.5533 150.173 37.3612 149.639 37.3612C148.259 37.3612 147.55 38.3335 147.556 39.4679C147.568 40.5782 148.271 41.5385 149.639 41.5385C150.173 41.5385 150.713 41.3345 151.121 40.9384L151.368 41.1724Z" fill="white"/>
<path d="M156.151 41.8272H155.689L153.192 39.4984V41.8212H152.826V37.0977H153.192V39.2523L155.491 37.0977H155.929V37.1337L153.552 39.3664L156.145 41.8092V41.8272H156.151Z" fill="white"/>
<path d="M161.187 41.1724C160.713 41.6466 160.088 41.8807 159.464 41.8807C157.868 41.8807 157.039 40.7643 157.033 39.4859C157.021 38.2195 157.844 37.0371 159.464 37.0371C160.088 37.0371 160.713 37.2712 161.187 37.7453L160.935 37.9614C160.526 37.5533 159.992 37.3612 159.458 37.3612C158.078 37.3612 157.369 38.3335 157.375 39.4679C157.387 40.5782 158.09 41.5385 159.458 41.5385C159.992 41.5385 160.532 41.3345 160.941 40.9384L161.187 41.1724Z" fill="white"/>
<path d="M166.048 41.8272V39.6785H163.035V41.8272H162.669V37.0977H163.035V39.3484H166.048V37.0977H166.414V41.8272H166.048Z" fill="white"/>
<path d="M172.008 41.8272L171.486 40.6628H168.659L168.143 41.8272H167.753L169.878 37.0977H170.274L172.398 41.8272H172.008ZM171.348 40.3267L170.076 37.4458L168.803 40.3267H171.348Z" fill="white"/>
<path d="M173.755 41.8272V37.0977H174.115V41.8272H173.755Z" fill="white"/>
<path d="M176.107 37.0977L179.288 41.0109V37.0977H179.648V41.8272H179.504L176.311 37.9199V41.8272H175.945V37.0977H176.107Z" fill="white"/>
<path d="M186.515 38.2377C186.515 37.4935 185.933 37.3675 185.302 37.3675C184.396 37.3675 183.964 37.7876 183.97 38.3218C183.976 39.048 184.744 39.2701 185.314 39.2701C186.017 39.2701 186.617 39.2701 187.319 39.2701V39.5582H186.887V40.5905C186.887 41.0947 187.001 41.5508 187.475 41.5448V41.8269C187.091 41.8809 186.785 41.6228 186.683 41.2267C186.335 41.7849 185.795 41.8869 185.29 41.8869C184.144 41.8869 183.538 41.3827 183.538 40.5665C183.538 39.9783 184.018 39.5642 184.492 39.4081C184 39.2581 183.622 38.8499 183.622 38.3218C183.622 37.5895 184.222 37.0674 185.302 37.0674C186.059 37.0674 186.821 37.2654 186.821 38.2377H186.515ZM186.593 39.5582H185.296C184.366 39.5582 183.892 40.0863 183.892 40.5725C183.892 41.1787 184.336 41.5748 185.29 41.5748C185.831 41.5748 186.593 41.3828 186.593 40.5965V39.5582Z" fill="white"/>
<path d="M194.995 41.8272L194.473 40.6628H191.646L191.13 41.8272H190.74L192.865 37.0977H193.261L195.385 41.8272H194.995ZM194.335 40.3267L193.063 37.4458L191.79 40.3267H194.335Z" fill="white"/>
<path d="M196.736 41.8272V37.0977H197.096V41.8272H196.736Z" fill="white"/>
</svg>
