<svg width="170" height="39" viewBox="0 0 170 39" fill="none" xmlns="http://www.w3.org/2000/svg">
<path d="M48.3507 17.6448C48.6469 20.1066 50.6797 21.7104 53.6318 21.7104C55.2713 21.7104 57.3398 21.0873 58.3205 19.9738L60.5167 22.1037C58.8465 23.9424 56.0579 24.8566 53.5654 24.8566C48.2537 24.8566 44.8419 21.4806 44.8419 16.2965C44.8419 11.378 48.2843 7.86914 53.3356 7.86914C58.5503 7.86914 62.0898 11.0511 61.4667 17.6397H48.3507V17.6448ZM58.2183 14.7949C58.0191 12.236 56.1498 10.8928 53.4326 10.8928C50.9708 10.8928 48.9381 12.236 48.4171 14.7949H58.2183Z" fill="white"/>
<path d="M72.5499 0.94873V15.3518L80.5993 7.8949H82.7291V7.9613L74.123 15.9085L83.6944 24.7598V24.8568H81.6616L72.5499 16.5316V24.8568H70.9768V0.94873H72.5499Z" fill="white"/>
<path d="M90.3393 16.4398C90.3393 11.22 94.0626 7.89502 98.6849 7.89502C103.307 7.89502 107.036 11.22 107.036 16.4398C107.036 21.6597 103.312 24.8569 98.6849 24.8569C94.0626 24.8569 90.3393 21.6648 90.3393 16.4398ZM105.437 16.4398C105.437 12.1853 102.408 9.42215 98.6849 9.42215C94.9615 9.42215 91.9328 12.1802 91.9328 16.4398C91.9328 20.6994 94.9564 23.2583 98.6849 23.2583C102.413 23.2583 105.437 20.6994 105.437 16.4398Z" fill="white"/>
<path d="M129.432 16.4398C129.432 11.22 133.155 7.89502 137.777 7.89502C142.4 7.89502 146.128 11.22 146.128 16.4398C146.128 21.6597 142.405 24.8569 137.777 24.8569C133.15 24.8569 129.432 21.6648 129.432 16.4398ZM144.53 16.4398C144.53 12.1853 141.501 9.42215 137.777 9.42215C134.054 9.42215 131.025 12.1802 131.025 16.4398C131.025 20.6994 134.049 23.2583 137.777 23.2583C141.506 23.2583 144.53 20.6994 144.53 16.4398Z" fill="white"/>
<path d="M119.314 2.98653C119.314 4.69242 116.724 4.69242 116.724 2.98653C116.724 1.28574 119.314 1.28574 119.314 2.98653ZM117.184 24.8567H118.793V7.89481H117.184V24.8567Z" fill="white"/>
<path d="M167.462 11.1536C165.797 9.69286 164.168 9.42215 162.339 9.42215C159.78 9.3864 157.319 10.3517 157.385 12.4509C157.451 14.6471 160.312 15.0761 162.375 15.4439C165.302 15.9444 169.326 16.4398 169.158 20.2653C169.061 23.8916 165.302 24.8569 162.406 24.8569C159.51 24.8569 156.65 23.7588 155.219 21.5626L156.415 20.5003C157.778 22.4615 160.24 23.2941 162.436 23.2941C164.433 23.2941 167.457 22.7629 167.559 20.1683C167.626 17.8086 164.898 17.3438 162.206 16.9097C159.014 16.3785 155.853 15.781 155.822 12.4866C155.786 9.25872 159.014 7.86438 162.339 7.89503C164.735 7.89503 166.829 8.559 168.458 10.0912L167.462 11.1536Z" fill="white"/>
<path d="M27.3845 23.2995L25.0096 25.6847L27.788 28.4632C25.3262 32.5441 20.9645 35.0314 16.1328 35.0314C11.3062 35.0314 6.94444 32.539 4.48264 28.4632L7.26111 25.6847L9.16619 23.7796L11.0713 25.6847L16.1328 30.7462L21.1994 25.6847L23.1045 23.7796L25.4795 21.4047L27.3845 19.4996L31.9047 14.9795L31.3735 13.9018C28.4929 8.04863 22.6499 4.41211 16.1277 4.41211C9.61565 4.41211 3.7727 8.04352 0.892091 13.9018L0.360913 14.9795L4.88613 19.4996L7.26111 17.1195L4.48264 14.3308C6.93934 10.2499 11.3062 7.76772 16.1328 7.76772C20.9645 7.76772 25.3262 10.2499 27.788 14.3308L25.0096 17.1093L23.1045 19.0144L21.1994 17.1195L16.1328 12.0529L11.0713 17.1195L9.16619 19.0144L6.79122 21.3945L4.88613 23.2944L0.355804 27.8248L0.886982 28.9075C3.7727 34.7556 9.61565 38.3921 16.1328 38.3921C22.655 38.3921 28.498 34.7556 31.3837 28.9075L31.9149 27.8248L27.3845 23.2995ZM13.4463 19.4945L16.1328 16.8079L18.8193 19.4945L20.7244 21.3996L18.8244 23.3046L16.1328 25.9912L11.5412 21.3996L13.4463 19.4945Z" fill="white"/>
<path d="M45.7198 32.519V36.2526H47.9875V36.5437H45.4133V32.519H45.7198Z" fill="white"/>
<path d="M49.3869 34.3765H51.7466V34.6574H49.3869V36.2458H51.9304V36.5472H49.0856V32.5225H51.864V32.8136H49.392V34.3765H49.3869Z" fill="white"/>
<path d="M56.4454 36.5423L56.0011 35.5514H53.5955L53.1562 36.5423H52.8242L54.6323 32.5176H54.9694L56.7774 36.5423H56.4454ZM55.8785 35.2654L54.7957 32.8138L53.7129 35.2654H55.8785Z" fill="white"/>
<path d="M61.3282 34.484C61.3486 35.5055 60.6949 36.5423 59.2852 36.5423C58.8306 36.5423 58.3761 36.5423 57.9215 36.5423V32.5176C58.3761 32.5176 58.8306 32.5176 59.2852 32.5176C60.6489 32.5176 61.3077 33.4931 61.3282 34.484ZM58.233 32.8087V36.2409H59.2852C60.4803 36.2409 61.0319 35.342 61.0166 34.4788C61.0013 33.6412 60.4497 32.8036 59.2852 32.8036H58.233V32.8087Z" fill="white"/>
<path d="M62.6459 36.5423V32.5176H62.9524V36.5423H62.6459Z" fill="white"/>
<path d="M64.6481 32.5176L67.355 35.8477V32.5176H67.6615V36.5423H67.5389L64.8268 33.2173V36.5423H64.5153V32.5176H64.6481Z" fill="white"/>
<path d="M72.3502 33.2584C71.9977 32.9111 71.5125 32.7426 71.058 32.7426C69.8781 32.7426 69.2755 33.6057 69.2806 34.5353C69.2806 35.4853 69.8833 36.3025 71.058 36.3025C71.487 36.3025 71.9365 36.1544 72.2838 35.8377V34.7089H70.8792V34.4382H72.5749V35.9449C72.1561 36.3638 71.6555 36.5936 71.058 36.5936C69.6892 36.5936 68.9792 35.6385 68.9792 34.5404C68.9741 33.2788 69.8322 32.4565 71.058 32.4565C71.5891 32.4565 72.1203 32.6557 72.5289 33.0592L72.3502 33.2584Z" fill="white"/>
<path d="M79.1431 32.5176L77.4883 36.5576H77.1563L75.5015 32.5176H75.8334L77.3248 36.2001L78.8162 32.5176H79.1431Z" fill="white"/>
<path d="M80.3126 36.5423V32.5176H80.6191V36.5423H80.3126Z" fill="white"/>
<path d="M82.4935 34.3765H84.8532V34.6574H82.4935V36.2458H85.037V36.5472H82.1922V32.5225H84.9706V32.8136H82.4986V34.3765H82.4935Z" fill="white"/>
<path d="M87.3201 32.7983H85.8645V32.5225H89.0873V32.7983H87.6317V36.542H87.3201V32.7983V32.7983Z" fill="white"/>
<path d="M90.3028 32.5176L93.0098 35.8477V32.5176H93.3162V36.5423H93.1936L90.4765 33.2173V36.5423H90.1649V32.5176H90.3028Z" fill="white"/>
<path d="M98.0816 36.5423L97.6372 35.5514H95.2316L94.7924 36.5423H94.4604L96.2684 32.5176H96.6055L98.4136 36.5423H98.0816ZM97.5198 35.2654L96.437 32.8138L95.3542 35.2654H97.5198Z" fill="white"/>
<path d="M103.072 32.967L101.529 35.3267H101.427L99.8743 32.967V36.5423H99.5627V32.5176C99.7109 32.5176 99.7824 32.5176 99.9305 32.5176L101.473 34.8619L102.995 32.5176H103.373V36.5423H103.066V32.967H103.072Z" fill="white"/>
<path d="M105.074 32.4927V33.9636H104.818V32.4927H105.074Z" fill="white"/>
<path d="M109.068 33.2944C108.777 32.8245 108.302 32.753 107.847 32.7479C107.377 32.7479 106.626 32.9216 106.626 33.5651C106.626 34.0759 107.178 34.1985 107.857 34.3261C108.634 34.4743 109.441 34.6122 109.441 35.4804C109.435 36.3896 108.521 36.6092 107.847 36.6092C107.219 36.6092 106.509 36.3487 106.197 35.7358L106.473 35.5979C106.718 36.0882 107.352 36.3283 107.847 36.3283C108.343 36.3283 109.129 36.1904 109.129 35.4753C109.134 34.8726 108.47 34.7398 107.806 34.6122C107.071 34.4691 106.315 34.321 106.315 33.5753C106.3 32.7224 107.183 32.4619 107.847 32.4619C108.424 32.4619 108.925 32.5538 109.318 33.1463L109.068 33.2944Z" fill="white"/>
<path d="M115.651 33.6157C115.651 34.0294 115.396 34.3512 114.998 34.4788C115.503 34.6167 115.789 35.0254 115.789 35.4901C115.789 36.3175 115.018 36.5423 114.328 36.5423C113.741 36.5423 113.266 36.5423 112.679 36.5423V32.5176C113.261 32.5176 113.741 32.5176 114.328 32.5176C115.008 32.5176 115.651 32.8496 115.651 33.6157ZM112.99 34.3409H114.369C114.854 34.3409 115.36 34.1928 115.36 33.6157C115.36 33.0283 114.829 32.7832 114.328 32.7832H112.99V34.3409ZM112.99 36.246H114.328C114.834 36.246 115.483 36.1235 115.483 35.485C115.478 34.8568 114.906 34.6321 114.369 34.6321C113.884 34.6321 113.47 34.6321 112.99 34.6321V36.246Z" fill="white"/>
<path d="M117.413 32.5176V36.2511H119.681V36.5423H117.107V32.5176H117.413Z" fill="white"/>
<path d="M124.579 34.535C124.574 35.5923 123.9 36.6087 122.546 36.6087C121.193 36.6087 120.519 35.5872 120.519 34.5197C120.519 33.4369 121.193 32.4512 122.546 32.4512C123.905 32.4563 124.584 33.4471 124.579 34.535ZM120.825 34.5299C120.83 35.439 121.407 36.3226 122.551 36.3226C123.701 36.3226 124.283 35.439 124.283 34.5299C124.283 33.6004 123.706 32.7423 122.551 32.7423C121.397 32.7423 120.815 33.5799 120.825 34.5299Z" fill="white"/>
<path d="M129.166 35.9859C128.762 36.3893 128.231 36.5885 127.7 36.5885C126.341 36.5885 125.636 35.6385 125.631 34.5507C125.621 33.473 126.321 32.4668 127.7 32.4668C128.231 32.4668 128.762 32.666 129.166 33.0695L128.951 33.2534C128.604 32.906 128.149 32.7426 127.695 32.7426C126.52 32.7426 125.917 33.57 125.922 34.5353C125.933 35.4802 126.53 36.2974 127.695 36.2974C128.149 36.2974 128.609 36.1237 128.956 35.7867L129.166 35.9859Z" fill="white"/>
<path d="M133.236 36.5423H132.843L130.718 34.5606V36.5372H130.407V32.5176H130.718V34.3512L132.675 32.5176H133.047V32.5482L131.025 34.4482L133.231 36.5269V36.5423H133.236Z" fill="white"/>
<path d="M137.522 35.9859C137.118 36.3893 136.587 36.5885 136.056 36.5885C134.697 36.5885 133.992 35.6385 133.987 34.5507C133.977 33.473 134.677 32.4668 136.056 32.4668C136.587 32.4668 137.118 32.666 137.522 33.0695L137.307 33.2534C136.96 32.906 136.505 32.7426 136.051 32.7426C134.876 32.7426 134.273 33.57 134.278 34.5353C134.288 35.4802 134.886 36.2974 136.051 36.2974C136.505 36.2974 136.965 36.1237 137.312 35.7867L137.522 35.9859Z" fill="white"/>
<path d="M141.659 36.5423V34.7138H139.095V36.5423H138.783V32.5176H139.095V34.4329H141.659V32.5176H141.97V36.5423H141.659Z" fill="white"/>
<path d="M146.73 36.5423L146.286 35.5514H143.88L143.441 36.5423H143.109L144.917 32.5176H145.254L147.062 36.5423H146.73ZM146.168 35.2654L145.086 32.8138L144.003 35.2654H146.168Z" fill="white"/>
<path d="M148.216 36.5423V32.5176H148.523V36.5423H148.216Z" fill="white"/>
<path d="M150.219 32.5176L152.926 35.8477V32.5176H153.232V36.5423H153.109L150.392 33.2173V36.5423H150.081V32.5176H150.219Z" fill="white"/>
<path d="M159.075 33.4886C159.075 32.8553 158.58 32.748 158.043 32.748C157.272 32.748 156.904 33.1056 156.909 33.5601C156.915 34.1781 157.568 34.3671 158.053 34.3671C158.651 34.3671 159.162 34.3671 159.759 34.3671V34.6123H159.392V35.4908C159.392 35.9198 159.489 36.308 159.892 36.3028V36.5429C159.565 36.5889 159.305 36.3692 159.218 36.0322C158.922 36.5071 158.462 36.594 158.033 36.594C157.058 36.594 156.542 36.1649 156.542 35.4703C156.542 34.9698 156.95 34.6174 157.354 34.4846C156.935 34.3569 156.613 34.0096 156.613 33.5601C156.613 32.937 157.124 32.4927 158.043 32.4927C158.687 32.4927 159.335 32.6612 159.335 33.4886H159.075V33.4886ZM159.141 34.6123H158.038C157.247 34.6123 156.843 35.0617 156.843 35.4754C156.843 35.9913 157.221 36.3284 158.033 36.3284C158.493 36.3284 159.141 36.165 159.141 35.4959V34.6123Z" fill="white"/>
<path d="M166.292 36.5423L165.848 35.5514H163.442L163.003 36.5423H162.671L164.479 32.5176H164.816L166.624 36.5423H166.292ZM165.73 35.2654L164.647 32.8138L163.564 35.2654H165.73Z" fill="white"/>
<path d="M167.773 36.5423V32.5176H168.079V36.5423H167.773Z" fill="white"/>
</svg>
