<svg width="18" height="18" viewBox="0 0 18 18" fill="none" xmlns="http://www.w3.org/2000/svg">
<rect x="1.5" y="3.75" width="15" height="11.25" rx="2" fill="white"/>
<mask id="mask0" mask-type="alpha" maskUnits="userSpaceOnUse" x="1" y="3" width="16" height="12">
<rect x="1.5" y="3.75" width="15" height="11.25" rx="2" fill="white"/>
</mask>
<g mask="url(#mask0)">
<rect x="1.5" y="3.75" width="15" height="11.25" fill="#0A17A7"/>
<path fill-rule="evenodd" clip-rule="evenodd" d="M0.813007 2.67188L7.21439 7.20555V2.99988H10.7858V7.20552L17.1871 2.6719L17.986 3.91545L12.9249 7.49988H16.5001V11.2499H12.9248L17.9859 14.8343L17.1871 16.0779L10.7858 11.5443V15.7499H7.21439V11.5443L0.813041 16.0779L0.0141942 14.8343L5.07532 11.2499H1.5001V7.49988H5.07527L0.0141602 3.91543L0.813007 2.67188Z" fill="white"/>
<path d="M11.5007 7.31186L18.2857 2.625" stroke="#DB1F35" stroke-width="0.666667" stroke-linecap="round"/>
<path d="M12.2209 11.4548L18.3034 15.7595" stroke="#DB1F35" stroke-width="0.666667" stroke-linecap="round"/>
<path d="M5.78881 7.29962L-0.555664 2.81006" stroke="#DB1F35" stroke-width="0.666667" stroke-linecap="round"/>
<path d="M6.47694 11.4029L-0.555664 16.2998" stroke="#DB1F35" stroke-width="0.666667" stroke-linecap="round"/>
<path fill-rule="evenodd" clip-rule="evenodd" d="M1.5 10.5H7.92857V15H10.0714V10.5H16.5V8.25H10.0714V3.75H7.92857V8.25H1.5V10.5Z" fill="#E6273E"/>
</g>
</svg>
