<svg width="94" height="36" viewBox="0 0 94 36" fill="none" xmlns="http://www.w3.org/2000/svg">
<g clip-path="url(#clip0)">
<path d="M43.5373 34.2996L41.0415 26.6501H42.1081L43.2993 30.4175C43.6279 31.4504 43.9125 32.3812 44.1165 33.2781H44.1392C44.3545 32.3926 44.6718 31.4277 45.013 30.4289L46.3063 26.6501H47.3615L44.6277 34.2996H43.5373Z" fill="white"/>
<path d="M51.9211 30.7135H48.9482V33.472H52.2611V34.3008H47.9609V26.6514H52.0911V27.4802H48.9482V29.8973H51.9211V30.7135Z" fill="white"/>
<path d="M54.2241 34.2996V26.6501H55.302L57.7524 30.5208C58.3191 31.4177 58.7623 32.2238 59.125 33.006L59.1476 32.9947C59.057 31.9731 59.0343 31.0423 59.0343 29.8507V26.6501H59.9649V34.2996H58.9663L56.5385 30.4188C56.0059 29.5673 55.4947 28.6932 55.1093 27.8656L55.0753 27.877C55.132 28.8418 55.1547 29.7613 55.1547 31.0322V34.3008H54.2241V34.2996Z" fill="white"/>
<path d="M63.8218 27.4903H61.4961V26.6501H67.1575V27.4903H64.8204V34.2996H63.8218V27.4903Z" fill="white"/>
<path d="M69.6731 26.6514V31.1796C69.6731 32.8938 70.4336 33.6194 71.4549 33.6194C72.5894 33.6194 73.316 32.8699 73.316 31.1796V26.6514H74.3145V31.1115C74.3145 33.4606 73.078 34.4255 71.4209 34.4255C69.8557 34.4255 68.6758 33.5287 68.6758 31.1569V26.6514H69.6731Z" fill="white"/>
<path d="M76.7109 26.7534C77.2096 26.6514 77.9248 26.5947 78.606 26.5947C79.6613 26.5947 80.3425 26.7874 80.8185 27.2195C81.2038 27.5596 81.4204 28.0823 81.4204 28.6718C81.4204 29.682 80.7857 30.3521 79.9798 30.6241V30.6581C80.5704 30.8622 80.9217 31.4076 81.1031 32.2011C81.3524 33.268 81.5337 34.0061 81.6936 34.3008H80.6724C80.5477 34.0854 80.3777 33.4267 80.1624 32.4732C79.9358 31.4177 79.5265 31.0209 78.6312 30.9869H77.7007V34.3008H76.7135V26.7534H76.7109ZM77.6982 30.2374H78.708C79.7633 30.2374 80.4332 29.658 80.4332 28.7851C80.4332 27.7976 79.7179 27.3668 78.674 27.3555C78.1981 27.3555 77.8568 27.4009 77.6982 27.4462V30.2374Z" fill="white"/>
<path d="M87.4544 30.7135H84.4814V33.472H87.7943V34.3008H83.4941V26.6514H87.6244V27.4802H84.4814V29.8973H87.4544V30.7135Z" fill="white"/>
<path d="M89.6206 33.0966C90.0626 33.3687 90.7099 33.5954 91.3911 33.5954C92.401 33.5954 92.9916 33.0626 92.9916 32.2905C92.9916 31.575 92.5836 31.1669 91.551 30.7702C90.3031 30.3281 89.5312 29.6806 89.5312 28.6024C89.5312 27.4109 90.5185 26.5254 92.0043 26.5254C92.7876 26.5254 93.3542 26.7068 93.6942 26.8995L93.4222 27.7056C93.1729 27.5696 92.6616 27.3429 91.9703 27.3429C90.9264 27.3429 90.5298 27.9676 90.5298 28.4891C90.5298 29.2045 90.9944 29.5559 92.0497 29.964C93.3429 30.4628 94.0015 31.0876 94.0015 32.2111C94.0015 33.3914 93.1276 34.4129 91.3244 34.4129C90.5864 34.4129 89.7818 34.1975 89.3726 33.9254L89.6206 33.0966Z" fill="white"/>
<path d="M54.5979 22.7654C53.5275 23.1496 51.4146 23.7806 48.9176 23.7806C46.1184 23.7806 43.814 23.0665 42.002 21.3371C40.4104 19.8004 39.4219 17.3291 39.4219 14.4472C39.4496 8.93022 43.236 4.89453 49.4376 4.89453C51.5783 4.89453 53.2518 5.36057 54.0476 5.74601L53.4709 7.69457C52.4824 7.25498 51.2484 6.89852 49.3822 6.89852C44.8818 6.89852 41.9453 9.69856 41.9453 14.3376C41.9453 19.032 44.7723 21.8044 49.08 21.8044C50.644 21.8044 51.7143 21.5852 52.2633 21.3106V15.7937H48.5033V13.8728H54.5954V22.7654H54.5979Z" fill="white"/>
<path d="M56.5977 5.33437C58.052 5.1152 59.7809 4.9502 61.6748 4.9502C65.1049 4.9502 67.5477 5.74625 69.1658 7.25648C70.8129 8.76672 71.7724 10.9067 71.7724 13.8995C71.7724 16.9187 70.8393 19.3887 69.1104 21.0917C67.3815 22.8211 64.5282 23.7544 60.9331 23.7544C59.2319 23.7544 57.8052 23.6726 56.5977 23.5353V5.33437ZM58.9851 21.695C59.5883 21.8046 60.4672 21.8323 61.4003 21.8323C66.5038 21.8323 69.2754 18.9781 69.2754 13.9814C69.3031 9.61693 66.8325 6.8446 61.7843 6.8446C60.5491 6.8446 59.616 6.95418 58.9851 7.09148V21.695Z" fill="white"/>
<path d="M75.1499 7.99696H75.0945L71.993 9.67094L71.5259 7.83196L75.4231 5.74609H77.4807V23.588H75.1499V7.99696Z" fill="#A7A9AC"/>
<path d="M93.6386 14.475C93.6386 20.5412 91.3884 23.8904 87.437 23.8904C83.9515 23.8904 81.5917 20.6243 81.5376 14.7219C81.5376 8.73764 84.1165 5.44385 87.7392 5.44385C91.4979 5.44511 93.6386 8.79307 93.6386 14.475ZM83.9515 14.7496C83.9515 19.3886 85.3782 22.0237 87.5742 22.0237C90.0436 22.0237 91.2234 19.1418 91.2234 14.5846C91.2234 10.1925 90.0977 7.31054 87.6007 7.31054C85.489 7.3118 83.9515 9.89142 83.9515 14.7496Z" fill="#A7A9AC"/>
<path d="M16.1948 12.5001H19.8138V3.75606C24.9904 4.41356 29.3145 7.84087 31.2537 12.5001H35.1283C32.8 5.25748 26.0003 0 17.9942 0C17.3873 0 16.7867 0.0302299 16.1948 0.08943V12.5001Z" fill="#A7A9AC"/>
<path d="M35.8938 16.1416H16.1947V19.8221L32.2332 19.8196C31.3367 26.8808 25.2925 32.3575 17.9941 32.3575C10.0787 32.3575 3.63912 25.916 3.63912 17.9983C3.63912 12.0052 7.3286 6.85982 12.5543 4.71098V0.841553C5.28364 3.15288 0 9.97097 0 17.9995C0 27.925 8.07279 35.9989 17.9941 35.9989C27.9154 35.9989 35.9882 27.9237 35.9882 17.9995C35.9895 17.3723 35.9567 16.7525 35.8938 16.1416Z" fill="white"/>
</g>
<defs>
<clipPath id="clip0">
<rect width="94" height="36" fill="white"/>
</clipPath>
</defs>
</svg>
