<svg width="24" height="24" viewBox="0 0 24 24" fill="none" xmlns="http://www.w3.org/2000/svg">
<circle cx="12" cy="12" r="12" fill="white"/>
<path d="M11.9985 0C5.373 0 0 5.35128 0 11.9526C0 17.2324 3.11571 21.7324 7.88571 23.3143C8.48571 23.4244 9.027 23.0346 9.027 22.7177C9.027 22.4334 9.0165 21.6819 9.0105 20.6849C5.673 21.4066 4.968 19.0822 4.968 19.0822C4.4235 17.7012 3.636 17.3336 3.636 17.3336C2.5455 16.5926 3.717 16.6074 3.717 16.6074C4.9215 16.6923 5.5545 17.8396 5.5545 17.8396C6.6255 19.6655 8.364 19.1387 9.048 18.8322C9.156 18.0598 9.4665 17.533 9.81 17.2339C7.146 16.9318 4.344 15.9065 4.344 11.3276C4.344 10.0225 4.812 8.95551 5.58 8.11919C5.4555 7.8171 5.0445 6.60131 5.697 4.95693C5.697 4.95693 6.705 4.6355 8.997 6.18166C9.954 5.91677 10.98 5.78433 12.0015 5.77986C13.02 5.78581 14.0475 5.91677 15.006 6.18314C17.2965 4.63699 18.303 4.95842 18.303 4.95842C18.957 6.60428 18.546 7.81859 18.423 8.12068C19.1925 8.957 19.656 10.024 19.656 11.3291C19.656 15.9199 16.851 16.9304 14.178 17.2265C14.6085 17.5955 14.9925 18.3247 14.9925 19.4393C14.9925 21.0376 14.9775 22.3263 14.9775 22.7177C14.9775 23.0376 15.5053 23.4318 16.1143 23.3143C20.9143 21.6 24 17.231 24 11.9526C24 5.35128 18.627 0 11.9985 0Z" fill="url(#paint0_linear)"/>
<defs>
<linearGradient id="paint0_linear" x1="0" y1="0" x2="23.3263" y2="23.9905" gradientUnits="userSpaceOnUse">
<stop stop-color="#FF0A6C"/>
<stop offset="1" stop-color="#2D27FF"/>
</linearGradient>
</defs>
</svg>
