<svg width="26" height="26" viewBox="0 0 26 26" fill="none" xmlns="http://www.w3.org/2000/svg">
<path d="M13.0592 0C13.0523 0 13.0383 0 13.0174 0C5.96766 0 0.234497 5.73316 0.234497 12.7829C0.234497 15.66 1.21673 18.4534 3.014 20.7035L1.15403 25.0295C1.00078 25.3847 1.16796 25.7957 1.51627 25.942C1.64166 25.9978 1.78099 26.0117 1.91335 25.9908L8.73323 24.7926C10.0986 25.2872 11.5336 25.538 12.9826 25.531C20.0324 25.531 25.7655 19.7979 25.7655 12.7481C25.7795 5.71923 20.0881 0.00696618 13.0592 0ZM8.68447 10.2124H12.4462C12.8293 10.2124 13.1428 10.5259 13.1428 10.909C13.1428 11.2922 12.8293 11.6056 12.4462 11.6056H8.68447C8.30133 11.6056 7.98785 11.2922 7.98785 10.909C7.98785 10.5259 8.30133 10.2124 8.68447 10.2124ZM17.3225 15.0887H8.68447C8.30133 15.0887 7.98785 14.7753 7.98785 14.3921C7.98785 14.009 8.30133 13.6955 8.68447 13.6955H17.3225C17.7057 13.6955 18.0191 14.009 18.0191 14.3921C18.0191 14.7753 17.7057 15.0887 17.3225 15.0887Z" fill="white"/>
</svg>
