<svg width="160" height="28" viewBox="0 0 160 28" fill="none" xmlns="http://www.w3.org/2000/svg">
<path d="M36.5039 6.75398H40.0929V22H36.5039V6.75398ZM42.978 16.214C42.978 15.378 43.1161 14.5933 43.3922 13.86C43.6836 13.112 44.0977 12.4667 44.6345 11.924C45.1713 11.3667 45.8232 10.9267 46.5901 10.604C47.3569 10.2813 48.2312 10.12 49.2128 10.12C49.857 10.12 50.4475 10.1787 50.9843 10.296C51.5211 10.3987 52.0426 10.5527 52.5488 10.758L51.8356 13.376C51.5135 13.2587 51.1607 13.156 50.7773 13.068C50.3938 12.98 49.9644 12.936 49.4889 12.936C48.4766 12.936 47.7174 13.2367 47.2113 13.838C46.7205 14.4393 46.475 15.2313 46.475 16.214C46.475 17.2553 46.7051 18.062 47.1652 18.634C47.6407 19.206 48.4612 19.492 49.6269 19.492C50.0411 19.492 50.4858 19.4553 50.9613 19.382C51.4368 19.3087 51.8739 19.1913 52.2727 19.03L52.7558 21.714C52.3571 21.8753 51.8586 22.0147 51.2604 22.132C50.6622 22.2493 50.0027 22.308 49.2818 22.308C48.1775 22.308 47.2266 22.154 46.429 21.846C45.6314 21.5233 44.972 21.0907 44.4505 20.548C43.9443 20.0053 43.5686 19.3673 43.3231 18.634C43.0931 17.886 42.978 17.0793 42.978 16.214ZM53.8972 16.302C53.8972 15.2753 54.0582 14.3807 54.3803 13.618C54.7178 12.8407 55.1549 12.1953 55.6917 11.682C56.2284 11.1687 56.842 10.78 57.5322 10.516C58.2378 10.252 58.9586 10.12 59.6948 10.12C61.4127 10.12 62.77 10.626 63.767 11.638C64.764 12.6353 65.2624 14.1093 65.2624 16.06C65.2624 16.2507 65.2547 16.4633 65.2394 16.698C65.2241 16.918 65.2087 17.116 65.1934 17.292H57.4172C57.4938 17.9667 57.8236 18.502 58.4064 18.898C58.9893 19.294 59.7716 19.492 60.7531 19.492C61.3819 19.492 61.9955 19.4407 62.5936 19.338C63.2072 19.2207 63.7057 19.0813 64.0891 18.92L64.5492 21.582C64.3651 21.67 64.1198 21.758 63.813 21.846C63.5063 21.934 63.1612 22.0073 62.7777 22.066C62.4096 22.1393 62.0108 22.198 61.5813 22.242C61.1518 22.286 60.7225 22.308 60.293 22.308C59.204 22.308 58.253 22.154 57.4402 21.846C56.6426 21.538 55.9754 21.12 55.4386 20.592C54.9171 20.0493 54.526 19.4113 54.2653 18.678C54.0198 17.9447 53.8972 17.1527 53.8972 16.302ZM61.9494 15.048C61.9342 14.7693 61.8804 14.498 61.7884 14.234C61.7117 13.97 61.5813 13.7353 61.3973 13.53C61.2286 13.3247 61.0062 13.156 60.7301 13.024C60.4694 12.892 60.1397 12.826 59.7408 12.826C59.3574 12.826 59.0276 12.892 58.7515 13.024C58.4755 13.1413 58.2454 13.3027 58.0613 13.508C57.8773 13.7133 57.7316 13.9553 57.6242 14.234C57.5322 14.498 57.4632 14.7693 57.4172 15.048H61.9494ZM67.7928 7.54598L71.2208 7.01798V10.428H75.3389V13.156H71.2208V17.226C71.2208 17.9153 71.3434 18.4653 71.5889 18.876C71.8496 19.2867 72.3633 19.492 73.1303 19.492C73.4984 19.492 73.8741 19.4627 74.2576 19.404C74.6564 19.3307 75.0168 19.2353 75.3389 19.118L75.8221 21.67C75.4079 21.8313 74.9478 21.9707 74.4417 22.088C73.9355 22.2053 73.3144 22.264 72.5781 22.264C71.6425 22.264 70.8679 22.1467 70.2545 21.912C69.6409 21.6627 69.1502 21.3253 68.7821 20.9C68.414 20.46 68.1532 19.932 67.9998 19.316C67.8618 18.7 67.7928 18.018 67.7928 17.27V7.54598ZM77.1059 16.302C77.1059 15.2753 77.267 14.3807 77.5891 13.618C77.9264 12.8407 78.3636 12.1953 78.9004 11.682C79.4372 11.1687 80.0508 10.78 80.741 10.516C81.4464 10.252 82.1674 10.12 82.9036 10.12C84.6213 10.12 85.9787 10.626 86.9757 11.638C87.9727 12.6353 88.4712 14.1093 88.4712 16.06C88.4712 16.2507 88.4634 16.4633 88.4482 16.698C88.4328 16.918 88.4174 17.116 88.4021 17.292H80.6259C80.7026 17.9667 81.0323 18.502 81.6152 18.898C82.198 19.294 82.9802 19.492 83.9619 19.492C84.5907 19.492 85.2042 19.4407 85.8024 19.338C86.4158 19.2207 86.9144 19.0813 87.2978 18.92L87.758 21.582C87.5739 21.67 87.3285 21.758 87.0218 21.846C86.7149 21.934 86.3698 22.0073 85.9865 22.066C85.6184 22.1393 85.2195 22.198 84.7901 22.242C84.3606 22.286 83.9311 22.308 83.5018 22.308C82.4127 22.308 81.4618 22.154 80.6489 21.846C79.8513 21.538 79.1842 21.12 78.6474 20.592C78.1259 20.0493 77.7347 19.4113 77.474 18.678C77.2286 17.9447 77.1059 17.1527 77.1059 16.302ZM85.1582 15.048C85.1429 14.7693 85.0892 14.498 84.9972 14.234C84.9204 13.97 84.7901 13.7353 84.6061 13.53C84.4373 13.3247 84.215 13.156 83.9389 13.024C83.6781 12.892 83.3483 12.826 82.9496 12.826C82.5661 12.826 82.2364 12.892 81.9603 13.024C81.6842 13.1413 81.4542 13.3027 81.2701 13.508C81.0861 13.7133 80.9403 13.9553 80.833 14.234C80.741 14.498 80.672 14.7693 80.6259 15.048H85.1582ZM95.7408 19.712C96.0783 19.712 96.4004 19.7047 96.7071 19.69C97.0139 19.6753 97.2592 19.6533 97.4433 19.624V17.138C97.3053 17.1087 97.0982 17.0793 96.8221 17.05C96.546 17.0207 96.293 17.006 96.0629 17.006C95.7408 17.006 95.4341 17.028 95.1426 17.072C94.8666 17.1013 94.6212 17.1673 94.4064 17.27C94.1917 17.3727 94.0231 17.512 93.9003 17.688C93.7776 17.864 93.7162 18.084 93.7162 18.348C93.7162 18.8613 93.8927 19.2207 94.2454 19.426C94.6135 19.6167 95.112 19.712 95.7408 19.712ZM95.4647 10.12C96.477 10.12 97.3206 10.23 97.9954 10.45C98.6704 10.67 99.2072 10.9853 99.6059 11.396C100.02 11.8067 100.311 12.3053 100.48 12.892C100.649 13.4787 100.733 14.1313 100.733 14.85V21.67C100.242 21.7727 99.5599 21.89 98.6856 22.022C97.8114 22.1687 96.7531 22.242 95.5107 22.242C94.7285 22.242 94.0153 22.176 93.3711 22.044C92.7423 21.912 92.1978 21.6993 91.7377 21.406C91.2775 21.098 90.9248 20.702 90.6794 20.218C90.434 19.734 90.3113 19.14 90.3113 18.436C90.3113 17.7613 90.4493 17.1893 90.7254 16.72C91.0168 16.2507 91.4003 15.8767 91.8757 15.598C92.3512 15.3193 92.8957 15.1213 93.5092 15.004C94.1227 14.872 94.7593 14.806 95.4187 14.806C95.8636 14.806 96.2547 14.828 96.5921 14.872C96.9449 14.9013 97.2286 14.9453 97.4433 15.004V14.696C97.4433 14.1387 97.267 13.6913 96.9141 13.354C96.5614 13.0167 95.9479 12.848 95.0736 12.848C94.4908 12.848 93.9157 12.892 93.3481 12.98C92.7807 13.0533 92.2898 13.1633 91.8757 13.31L91.4386 10.67C91.638 10.6113 91.8835 10.5527 92.1748 10.494C92.4816 10.4207 92.8113 10.362 93.1641 10.318C93.5169 10.2593 93.885 10.2153 94.2684 10.186C94.6672 10.142 95.066 10.12 95.4647 10.12ZM120.242 19.052V22H109.59V6.75398H113.179V19.052H120.242ZM127.218 19.712C127.555 19.712 127.877 19.7047 128.184 19.69C128.49 19.6753 128.736 19.6533 128.92 19.624V17.138C128.782 17.1087 128.575 17.0793 128.299 17.05C128.023 17.0207 127.77 17.006 127.54 17.006C127.218 17.006 126.911 17.028 126.619 17.072C126.343 17.1013 126.098 17.1673 125.883 17.27C125.669 17.3727 125.499 17.512 125.377 17.688C125.255 17.864 125.193 18.084 125.193 18.348C125.193 18.8613 125.37 19.2207 125.722 19.426C126.09 19.6167 126.589 19.712 127.218 19.712ZM126.942 10.12C127.954 10.12 128.798 10.23 129.472 10.45C130.147 10.67 130.684 10.9853 131.083 11.396C131.497 11.8067 131.789 12.3053 131.957 12.892C132.125 13.4787 132.21 14.1313 132.21 14.85V21.67C131.72 21.7727 131.037 21.89 130.162 22.022C129.288 22.1687 128.23 22.242 126.988 22.242C126.205 22.242 125.492 22.176 124.848 22.044C124.219 21.912 123.675 21.6993 123.214 21.406C122.754 21.098 122.402 20.702 122.156 20.218C121.91 19.734 121.788 19.14 121.788 18.436C121.788 17.7613 121.926 17.1893 122.202 16.72C122.494 16.2507 122.877 15.8767 123.353 15.598C123.828 15.3193 124.372 15.1213 124.986 15.004C125.6 14.872 126.236 14.806 126.896 14.806C127.34 14.806 127.731 14.828 128.069 14.872C128.421 14.9013 128.706 14.9453 128.92 15.004V14.696C128.92 14.1387 128.743 13.6913 128.391 13.354C128.039 13.0167 127.425 12.848 126.55 12.848C125.968 12.848 125.393 12.892 124.825 12.98C124.257 13.0533 123.767 13.1633 123.353 13.31L122.915 10.67C123.115 10.6113 123.36 10.5527 123.652 10.494C123.958 10.4207 124.288 10.362 124.641 10.318C124.993 10.2593 125.361 10.2153 125.745 10.186C126.144 10.142 126.543 10.12 126.942 10.12ZM143.063 16.126C143.063 14.014 142.25 12.958 140.624 12.958C140.272 12.958 139.918 13.002 139.566 13.09C139.228 13.178 138.952 13.288 138.738 13.42V19.382C138.906 19.4113 139.121 19.4407 139.382 19.47C139.642 19.4847 139.927 19.492 140.233 19.492C141.169 19.492 141.874 19.184 142.35 18.568C142.825 17.952 143.063 17.138 143.063 16.126ZM146.56 16.214C146.56 17.138 146.414 17.974 146.123 18.722C145.847 19.47 145.44 20.108 144.903 20.636C144.367 21.164 143.707 21.5747 142.925 21.868C142.143 22.1467 141.253 22.286 140.256 22.286C139.842 22.286 139.405 22.264 138.945 22.22C138.5 22.1907 138.055 22.1467 137.61 22.088C137.18 22.0293 136.766 21.9633 136.368 21.89C135.97 21.802 135.616 21.714 135.31 21.626V5.45598L138.738 4.92798V10.692C139.121 10.5307 139.52 10.406 139.934 10.318C140.348 10.23 140.793 10.186 141.268 10.186C142.127 10.186 142.886 10.3327 143.546 10.626C144.206 10.9047 144.758 11.308 145.202 11.836C145.647 12.364 145.985 13.002 146.215 13.75C146.445 14.4833 146.56 15.3047 146.56 16.214ZM152.668 19.646C153.298 19.646 153.742 19.5873 154.002 19.47C154.264 19.3527 154.394 19.1253 154.394 18.788C154.394 18.524 154.225 18.2967 153.887 18.106C153.551 17.9007 153.036 17.6733 152.346 17.424C151.81 17.2333 151.319 17.0353 150.874 16.83C150.445 16.6247 150.077 16.3827 149.769 16.104C149.463 15.8107 149.225 15.466 149.056 15.07C148.888 14.674 148.803 14.1973 148.803 13.64C148.803 12.5547 149.225 11.6967 150.068 11.066C150.912 10.4353 152.07 10.12 153.542 10.12C154.279 10.12 154.984 10.186 155.659 10.318C156.334 10.4353 156.871 10.5673 157.269 10.714L156.671 13.266C156.273 13.134 155.836 13.0167 155.36 12.914C154.9 12.8113 154.379 12.76 153.795 12.76C152.722 12.76 152.185 13.046 152.185 13.618C152.185 13.75 152.208 13.8673 152.254 13.97C152.3 14.0727 152.392 14.1753 152.53 14.278C152.668 14.366 152.852 14.4687 153.082 14.586C153.328 14.6887 153.634 14.806 154.002 14.938C154.754 15.202 155.376 15.466 155.866 15.73C156.357 15.9793 156.74 16.258 157.016 16.566C157.308 16.8593 157.508 17.1893 157.614 17.556C157.738 17.9227 157.799 18.348 157.799 18.832C157.799 19.976 157.347 20.8413 156.441 21.428C155.552 22.0147 154.287 22.308 152.645 22.308C151.572 22.308 150.675 22.22 149.953 22.044C149.248 21.868 148.757 21.7213 148.481 21.604L149.056 18.942C149.64 19.162 150.238 19.338 150.851 19.47C151.464 19.5873 152.07 19.646 152.668 19.646Z" fill="black"/>
<path d="M14.334 27.1196C22.1654 27.1196 28.5142 21.0487 28.5142 13.5598C28.5142 6.07093 22.1654 0 14.334 0C6.50249 0 0.153809 6.07093 0.153809 13.5598C0.153809 21.0487 6.50249 27.1196 14.334 27.1196Z" fill="black"/>
<path fill-rule="evenodd" clip-rule="evenodd" d="M13.7128 15.3054H18.6401C19.0472 15.3054 19.3847 15.6106 19.3847 16.0174V20.7291C19.3847 21.1185 19.0655 21.4411 18.6401 21.4411H13.7128C13.3056 21.4411 12.9683 21.136 12.9683 20.7291V15.9835C12.9683 15.6106 13.2702 15.3054 13.7128 15.3054Z" fill="#ABABAB"/>
<path fill-rule="evenodd" clip-rule="evenodd" d="M16.1409 12.2201L19.1181 8.44017C19.3835 8.13503 19.8273 8.05081 20.1463 8.30455L24.0992 11.1515C24.4182 11.4053 24.5063 11.8296 24.241 12.1348L21.2638 15.8807C20.9984 16.1859 20.5547 16.2701 20.2355 16.0163L16.2828 13.1694C15.9636 12.9496 15.911 12.5252 16.1409 12.2201Z" fill="#ABABAB"/>
<path fill-rule="evenodd" clip-rule="evenodd" d="M7.82851 14.3222L12.2422 16.4582C12.614 16.6278 12.7558 17.0685 12.5614 17.3901L10.3276 21.6107C10.1503 21.9662 9.68938 22.1018 9.35312 21.9158L4.9394 19.7798C4.56768 19.6103 4.42585 19.1695 4.62029 18.848L6.85404 14.6274C7.03131 14.2708 7.45679 14.1352 7.82851 14.3222Z" fill="#ABABAB"/>
</svg>
