<svg width="241" height="44" viewBox="0 0 241 44" fill="none" xmlns="http://www.w3.org/2000/svg">
<path d="M54.8539 10.6136H60.247V34.5716H54.8539V10.6136ZM64.5824 25.4793C64.5824 24.1656 64.7899 22.9325 65.2047 21.7801C65.6427 20.6047 66.265 19.5907 67.0716 18.7379C67.8782 17.8621 68.8578 17.1707 70.0101 16.6636C71.1625 16.1565 72.4762 15.903 73.9513 15.903C74.9193 15.903 75.8067 15.9952 76.6133 16.1796C77.4199 16.341 78.2036 16.583 78.9642 16.9056L77.8924 21.0196C77.4084 20.8352 76.8784 20.6739 76.3022 20.5356C75.7259 20.3973 75.0807 20.3281 74.3661 20.3281C72.845 20.3281 71.7042 20.8007 70.9436 21.7456C70.2061 22.6905 69.8373 23.935 69.8373 25.4793C69.8373 27.1156 70.183 28.3833 70.8744 29.2821C71.589 30.181 72.8219 30.6304 74.5736 30.6304C75.1959 30.6304 75.8642 30.5728 76.5787 30.4576C77.2932 30.3424 77.9501 30.1579 78.5493 29.9044L79.2753 34.1221C78.6761 34.3756 77.927 34.5947 77.0281 34.779C76.1293 34.9633 75.1382 35.0556 74.055 35.0556C72.3956 35.0556 70.9667 34.8136 69.7682 34.3296C68.5696 33.8225 67.5787 33.1427 66.795 32.2899C66.0344 31.437 65.4698 30.4345 65.101 29.2821C64.7553 28.1067 64.5824 26.839 64.5824 25.4793ZM80.9903 25.6176C80.9903 24.0042 81.2324 22.5984 81.7164 21.3999C82.2235 20.1784 82.8803 19.1642 83.6869 18.3576C84.4935 17.551 85.4155 16.9401 86.4526 16.5253C87.5129 16.1104 88.5961 15.903 89.7024 15.903C92.2837 15.903 94.3234 16.6981 95.8215 18.2884C97.3197 19.8556 98.0686 22.1719 98.0686 25.2373C98.0686 25.537 98.0572 25.871 98.0341 26.2399C98.0111 26.5856 97.988 26.8967 97.9649 27.1733H86.2798C86.395 28.2335 86.8906 29.0747 87.7663 29.697C88.6423 30.3193 89.8177 30.6304 91.2926 30.6304C92.2375 30.6304 93.1595 30.5498 94.0583 30.3884C94.9803 30.2041 95.7294 29.985 96.3055 29.7316L96.9969 33.9147C96.7203 34.053 96.3517 34.1913 95.8906 34.3296C95.4297 34.4679 94.9112 34.583 94.3349 34.6753C93.7818 34.7905 93.1826 34.8827 92.5372 34.9519C91.8918 35.021 91.2466 35.0556 90.6012 35.0556C88.9649 35.0556 87.5358 34.8136 86.3144 34.3296C85.1158 33.8456 84.1133 33.1887 83.3066 32.359C82.523 31.5062 81.9353 30.5036 81.5435 29.3513C81.1747 28.199 80.9903 26.9544 80.9903 25.6176ZM93.0904 23.647C93.0674 23.209 92.9866 22.7827 92.8484 22.3679C92.7332 21.953 92.5372 21.5842 92.2606 21.2616C92.0072 20.939 91.6729 20.6739 91.2581 20.4664C90.8663 20.259 90.3708 20.1553 89.7715 20.1553C89.1954 20.1553 88.6998 20.259 88.2849 20.4664C87.8701 20.6508 87.5244 20.9044 87.2478 21.227C86.9712 21.5496 86.7523 21.9299 86.5909 22.3679C86.4526 22.7827 86.3489 23.209 86.2798 23.647H93.0904ZM101.871 11.8581L107.022 11.0284V16.387H113.21V20.6739H107.022V27.0696C107.022 28.1528 107.206 29.017 107.575 29.6624C107.967 30.3078 108.739 30.6304 109.892 30.6304C110.445 30.6304 111.009 30.5844 111.586 30.4921C112.185 30.377 112.726 30.227 113.21 30.0427L113.936 34.053C113.314 34.3065 112.623 34.5255 111.862 34.7099C111.102 34.8942 110.168 34.9864 109.062 34.9864C107.656 34.9864 106.492 34.8021 105.57 34.4333C104.648 34.0415 103.911 33.5113 103.358 32.843C102.804 32.1516 102.413 31.3219 102.182 30.3539C101.975 29.3859 101.871 28.3141 101.871 27.1387V11.8581ZM115.866 25.6176C115.866 24.0042 116.108 22.5984 116.592 21.3999C117.099 20.1784 117.755 19.1642 118.562 18.3576C119.369 17.551 120.291 16.9401 121.328 16.5253C122.388 16.1104 123.471 15.903 124.578 15.903C127.159 15.903 129.199 16.6981 130.697 18.2884C132.195 19.8556 132.944 22.1719 132.944 25.2373C132.944 25.537 132.932 25.871 132.909 26.2399C132.886 26.5856 132.863 26.8967 132.84 27.1733H121.155C121.27 28.2335 121.766 29.0747 122.642 29.697C123.517 30.3193 124.693 30.6304 126.168 30.6304C127.113 30.6304 128.035 30.5498 128.934 30.3884C129.855 30.2041 130.605 29.985 131.181 29.7316L131.872 33.9147C131.596 34.053 131.227 34.1913 130.766 34.3296C130.305 34.4679 129.786 34.583 129.21 34.6753C128.657 34.7905 128.058 34.8827 127.413 34.9519C126.767 35.021 126.122 35.0556 125.477 35.0556C123.84 35.0556 122.411 34.8136 121.19 34.3296C119.991 33.8456 118.989 33.1887 118.182 32.359C117.398 31.5062 116.811 30.5036 116.419 29.3513C116.05 28.199 115.866 26.9544 115.866 25.6176ZM127.966 23.647C127.943 23.209 127.862 22.7827 127.724 22.3679C127.608 21.953 127.413 21.5842 127.136 21.2616C126.882 20.939 126.548 20.6739 126.133 20.4664C125.741 20.259 125.246 20.1553 124.647 20.1553C124.071 20.1553 123.575 20.259 123.16 20.4664C122.745 20.6508 122.4 20.9044 122.123 21.227C121.847 21.5496 121.627 21.9299 121.466 22.3679C121.328 22.7827 121.224 23.209 121.155 23.647H127.966ZM143.868 30.9761C144.375 30.9761 144.859 30.9647 145.32 30.9416C145.781 30.9185 146.15 30.8839 146.426 30.8379V26.9313C146.219 26.8852 145.908 26.839 145.493 26.793C145.078 26.747 144.698 26.7239 144.352 26.7239C143.868 26.7239 143.407 26.7584 142.969 26.8276C142.554 26.8736 142.186 26.9773 141.863 27.1387C141.54 27.3001 141.287 27.519 141.102 27.7956C140.918 28.0721 140.826 28.4179 140.826 28.8327C140.826 29.6393 141.091 30.2041 141.621 30.5267C142.174 30.8264 142.923 30.9761 143.868 30.9761ZM143.453 15.903C144.974 15.903 146.242 16.0759 147.256 16.4216C148.27 16.7673 149.077 17.2628 149.676 17.9081C150.298 18.5535 150.736 19.337 150.99 20.259C151.243 21.181 151.37 22.2065 151.37 23.3359V34.053C150.632 34.2144 149.607 34.3987 148.293 34.6061C146.979 34.8367 145.389 34.9519 143.522 34.9519C142.347 34.9519 141.275 34.8481 140.307 34.6407C139.362 34.4333 138.544 34.099 137.852 33.6381C137.161 33.1541 136.631 32.5319 136.262 31.7713C135.894 31.0107 135.709 30.0773 135.709 28.971C135.709 27.9108 135.916 27.0119 136.331 26.2744C136.769 25.537 137.346 24.9492 138.06 24.5113C138.774 24.0733 139.593 23.7622 140.514 23.5779C141.436 23.3704 142.393 23.2667 143.384 23.2667C144.052 23.2667 144.64 23.3013 145.147 23.3704C145.677 23.4165 146.104 23.4856 146.426 23.5779V23.0939C146.426 22.2181 146.161 21.515 145.631 20.985C145.101 20.455 144.179 20.1899 142.865 20.1899C141.99 20.1899 141.125 20.259 140.272 20.3973C139.42 20.5125 138.682 20.6853 138.06 20.9159L137.403 16.7673C137.703 16.675 138.072 16.583 138.509 16.4907C138.97 16.3755 139.466 16.2833 139.996 16.2141C140.526 16.1219 141.079 16.0528 141.655 16.0067C142.255 15.9376 142.854 15.903 143.453 15.903ZM180.686 29.939V34.5716H164.679V10.6136H170.073V29.939H180.686ZM191.167 30.9761C191.675 30.9761 192.159 30.9647 192.619 30.9416C193.08 30.9185 193.449 30.8839 193.726 30.8379V26.9313C193.518 26.8852 193.207 26.839 192.792 26.793C192.377 26.747 191.997 26.7239 191.651 26.7239C191.167 26.7239 190.707 26.7584 190.269 26.8276C189.854 26.8736 189.484 26.9773 189.162 27.1387C188.84 27.3001 188.586 27.519 188.402 27.7956C188.218 28.0721 188.125 28.4179 188.125 28.8327C188.125 29.6393 188.391 30.2041 188.92 30.5267C189.473 30.8264 190.223 30.9761 191.167 30.9761ZM190.753 15.903C192.274 15.903 193.542 16.0759 194.555 16.4216C195.569 16.7673 196.377 17.2628 196.975 17.9081C197.598 18.5535 198.036 19.337 198.289 20.259C198.542 21.181 198.669 22.2065 198.669 23.3359V34.053C197.932 34.2144 196.906 34.3987 195.593 34.6061C194.279 34.8367 192.689 34.9519 190.822 34.9519C189.646 34.9519 188.575 34.8481 187.607 34.6407C186.662 34.4333 185.843 34.099 185.152 33.6381C184.461 33.1541 183.931 32.5319 183.562 31.7713C183.192 31.0107 183.009 30.0773 183.009 28.971C183.009 27.9108 183.216 27.0119 183.631 26.2744C184.069 25.537 184.644 24.9492 185.359 24.5113C186.074 24.0733 186.892 23.7622 187.814 23.5779C188.736 23.3704 189.692 23.2667 190.683 23.2667C191.351 23.2667 191.939 23.3013 192.447 23.3704C192.976 23.4165 193.404 23.4856 193.726 23.5779V23.0939C193.726 22.2181 193.46 21.515 192.931 20.985C192.401 20.455 191.479 20.1899 190.165 20.1899C189.29 20.1899 188.425 20.259 187.572 20.3973C186.719 20.5125 185.982 20.6853 185.359 20.9159L184.703 16.7673C185.003 16.675 185.37 16.583 185.809 16.4907C186.269 16.3755 186.766 16.2833 187.295 16.2141C187.825 16.1219 188.378 16.0528 188.955 16.0067C189.554 15.9376 190.154 15.903 190.753 15.903ZM214.978 25.341C214.978 22.0221 213.757 20.3627 211.313 20.3627C210.784 20.3627 210.252 20.4319 209.723 20.5701C209.215 20.7084 208.8 20.8813 208.478 21.0887V30.4576C208.731 30.5036 209.055 30.5498 209.446 30.5959C209.838 30.619 210.265 30.6304 210.725 30.6304C212.132 30.6304 213.191 30.1464 213.906 29.1784C214.621 28.2104 214.978 26.9313 214.978 25.341ZM220.233 25.4793C220.233 26.9313 220.014 28.245 219.576 29.4204C219.161 30.5959 218.55 31.5984 217.743 32.4281C216.937 33.2579 215.946 33.9032 214.77 34.3641C213.595 34.8021 212.258 35.021 210.76 35.021C210.138 35.021 209.481 34.9864 208.789 34.9173C208.122 34.8712 207.452 34.8021 206.784 34.7099C206.138 34.6176 205.516 34.5139 204.917 34.3987C204.319 34.2604 203.788 34.1221 203.327 33.9839V8.57385L208.478 7.74414V16.8019C209.055 16.5484 209.654 16.3524 210.276 16.2141C210.898 16.0759 211.566 16.0067 212.281 16.0067C213.571 16.0067 214.712 16.2372 215.704 16.6981C216.695 17.1361 217.525 17.7699 218.193 18.5996C218.861 19.4293 219.368 20.4319 219.714 21.6073C220.06 22.7596 220.233 24.0504 220.233 25.4793ZM229.411 30.8724C230.357 30.8724 231.025 30.7802 231.416 30.5959C231.809 30.4115 232.004 30.0542 232.004 29.5241C232.004 29.1093 231.751 28.7521 231.244 28.4524C230.738 28.1298 229.964 27.7725 228.927 27.3807C228.121 27.081 227.384 26.7699 226.715 26.4473C226.07 26.1247 225.517 25.7444 225.055 25.3064C224.595 24.8455 224.238 24.3039 223.984 23.6816C223.731 23.0593 223.603 22.3102 223.603 21.4344C223.603 19.729 224.238 18.3807 225.505 17.3896C226.773 16.3985 228.512 15.903 230.725 15.903C231.831 15.903 232.892 16.0067 233.906 16.2141C234.921 16.3985 235.727 16.6059 236.326 16.8364L235.427 20.8467C234.828 20.6393 234.171 20.455 233.456 20.2936C232.765 20.1322 231.982 20.0516 231.105 20.0516C229.493 20.0516 228.685 20.501 228.685 21.3999C228.685 21.6073 228.72 21.7916 228.789 21.953C228.858 22.1144 228.996 22.2756 229.204 22.437C229.411 22.5753 229.688 22.7367 230.034 22.921C230.403 23.0824 230.863 23.2667 231.416 23.4741C232.546 23.889 233.48 24.3039 234.217 24.7187C234.955 25.1105 235.53 25.5484 235.945 26.0324C236.384 26.4933 236.684 27.0119 236.844 27.5881C237.03 28.1644 237.121 28.8327 237.121 29.5933C237.121 31.391 236.442 32.7508 235.081 33.6727C233.745 34.5947 231.844 35.0556 229.377 35.0556C227.764 35.0556 226.416 34.9173 225.332 34.6407C224.273 34.3641 223.534 34.1336 223.119 33.9493L223.984 29.7661C224.86 30.1119 225.759 30.3884 226.68 30.5959C227.603 30.7802 228.512 30.8724 229.411 30.8724Z" fill="white"/>
<path d="M21.5393 42.6165C33.3074 42.6165 42.8475 33.0765 42.8475 21.3083C42.8475 9.54003 33.3074 0 21.5393 0C9.77099 0 0.230957 9.54003 0.230957 21.3083C0.230957 33.0765 9.77099 42.6165 21.5393 42.6165Z" fill="white"/>
<path fill-rule="evenodd" clip-rule="evenodd" d="M20.6059 24.0513H28.01C28.6218 24.0513 29.1289 24.5309 29.1289 25.1701V32.5742C29.1289 33.1861 28.6493 33.6931 28.01 33.6931H20.6059C19.994 33.6931 19.4871 33.2136 19.4871 32.5742V25.1169C19.4871 24.5309 19.9407 24.0513 20.6059 24.0513Z" fill="#00C7F4"/>
<path fill-rule="evenodd" clip-rule="evenodd" d="M24.2547 19.2027L28.7285 13.2629C29.1272 12.7834 29.7941 12.6511 30.2736 13.0498L36.2134 17.5235C36.6929 17.9223 36.8252 18.5891 36.4265 19.0687L31.9528 24.9551C31.554 25.4347 30.8872 25.567 30.4076 25.1682L24.4679 20.6945C23.9883 20.3491 23.9093 19.6822 24.2547 19.2027Z" fill="#00C7F4"/>
<path fill-rule="evenodd" clip-rule="evenodd" d="M11.7634 22.5064L18.3958 25.863C18.9545 26.1295 19.1675 26.8221 18.8754 27.3274L15.5188 33.9598C15.2524 34.5184 14.5597 34.7315 14.0544 34.4392L7.42203 31.0827C6.86345 30.8163 6.65033 30.1236 6.94251 29.6184L10.2991 22.986C10.5655 22.4257 11.2049 22.2126 11.7634 22.5064Z" fill="#00C7F4"/>
</svg>
