<svg width="207" height="37" viewBox="0 0 207 37" fill="none" xmlns="http://www.w3.org/2000/svg">
<g clip-path="url(#clip0)">
<path d="M47.4131 9.52499H52.041V29.1843H47.4131V9.52499ZM55.7613 21.7234C55.7613 20.6454 55.9393 19.6336 56.2953 18.688C56.6711 17.7235 57.2051 16.8914 57.8973 16.1916C58.5895 15.4729 59.4301 14.9056 60.4189 14.4895C61.4078 14.0734 62.5351 13.8654 63.8009 13.8654C64.6315 13.8654 65.393 13.9411 66.0852 14.0923C66.7774 14.2247 67.4499 14.4233 68.1025 14.688L67.1829 18.0639C66.7675 17.9126 66.3127 17.7802 65.8182 17.6667C65.3237 17.5533 64.77 17.4965 64.1569 17.4965C62.8516 17.4965 61.8726 17.8843 61.2199 18.6596C60.5871 19.435 60.2706 20.4562 60.2706 21.7234C60.2706 23.0661 60.5673 24.1064 61.1606 24.8439C61.7737 25.5815 62.8317 25.9503 64.3349 25.9503C64.8689 25.9503 65.4424 25.903 66.0555 25.8085C66.6687 25.7139 67.2323 25.5626 67.7465 25.3546L68.3695 28.8155C67.8553 29.0235 67.2125 29.2033 66.4412 29.3545C65.6699 29.5058 64.8194 29.5815 63.8899 29.5815C62.4659 29.5815 61.2397 29.3829 60.2113 28.9857C59.1828 28.5696 58.3324 28.0118 57.66 27.312C57.0073 26.6122 56.5228 25.7895 56.2063 24.8439C55.9097 23.8794 55.7613 22.8392 55.7613 21.7234ZM69.8412 21.8369C69.8412 20.513 70.0489 19.3594 70.4642 18.3759C70.8994 17.3736 71.463 16.5414 72.1552 15.8795C72.8474 15.2176 73.6385 14.7164 74.5285 14.376C75.4383 14.0356 76.3678 13.8654 77.3171 13.8654C79.5323 13.8654 81.2826 14.5178 82.5681 15.8228C83.8537 17.1088 84.4964 19.0095 84.4964 21.5248C84.4964 21.7707 84.4865 22.0449 84.4667 22.3475C84.447 22.6312 84.4272 22.8865 84.4074 23.1135H74.3802C74.479 23.9835 74.9043 24.6737 75.6558 25.1844C76.4075 25.695 77.4161 25.9503 78.6818 25.9503C79.4926 25.9503 80.2838 25.8842 81.0551 25.7517C81.8462 25.6005 82.4891 25.4207 82.9834 25.2127L83.5767 28.6453C83.3394 28.7588 83.0231 28.8723 82.6274 28.9857C82.2319 29.0992 81.7869 29.1937 81.2924 29.2694C80.8178 29.3639 80.3036 29.4396 79.7498 29.4964C79.196 29.5531 78.6423 29.5815 78.0885 29.5815C76.6843 29.5815 75.458 29.3829 74.4098 28.9857C73.3814 28.5886 72.521 28.0496 71.8289 27.3687C71.1564 26.6689 70.6521 25.8462 70.3159 24.9007C69.9994 23.9551 69.8412 22.9338 69.8412 21.8369ZM80.2244 20.2199C80.2048 19.8605 80.1354 19.5107 80.0168 19.1703C79.9179 18.8298 79.7498 18.5272 79.5124 18.2625C79.2949 17.9977 79.0081 17.7802 78.6521 17.61C78.316 17.4398 77.8908 17.3547 77.3765 17.3547C76.8821 17.3547 76.4568 17.4398 76.1008 17.61C75.7448 17.7612 75.4482 17.9694 75.2108 18.2341C74.9735 18.4988 74.7857 18.8109 74.6472 19.1703C74.5285 19.5107 74.4395 19.8605 74.3802 20.2199H80.2244ZM87.7593 10.5463L92.1796 9.86541V14.2625H97.4898V17.7802H92.1796V23.0284C92.1796 23.9172 92.3377 24.6264 92.6542 25.156C92.9904 25.6856 93.6529 25.9503 94.6419 25.9503C95.1165 25.9503 95.601 25.9125 96.0955 25.8368C96.6097 25.7423 97.0745 25.6193 97.4898 25.468L98.1128 28.7588C97.5788 28.9668 96.9855 29.1465 96.3328 29.2978C95.6802 29.449 94.8792 29.5247 93.9299 29.5247C92.7234 29.5247 91.7246 29.3735 90.9336 29.0708C90.1424 28.7494 89.5096 28.3143 89.0349 27.7659C88.5603 27.1985 88.224 26.5177 88.0263 25.7234C87.8483 24.929 87.7593 24.0496 87.7593 23.0851V10.5463ZM99.7683 21.8369C99.7683 20.513 99.976 19.3594 100.391 18.3759C100.826 17.3736 101.39 16.5414 102.082 15.8795C102.774 15.2176 103.566 14.7164 104.456 14.376C105.365 14.0356 106.295 13.8654 107.244 13.8654C109.459 13.8654 111.21 14.5178 112.495 15.8228C113.781 17.1088 114.424 19.0095 114.424 21.5248C114.424 21.7707 114.414 22.0449 114.394 22.3475C114.374 22.6312 114.354 22.8865 114.335 23.1135H104.307C104.406 23.9835 104.831 24.6737 105.583 25.1844C106.334 25.695 107.343 25.9503 108.609 25.9503C109.42 25.9503 110.211 25.8842 110.982 25.7517C111.773 25.6005 112.416 25.4207 112.911 25.2127L113.504 28.6453C113.267 28.7588 112.95 28.8723 112.555 28.9857C112.159 29.0992 111.714 29.1937 111.22 29.2694C110.745 29.3639 110.231 29.4396 109.677 29.4964C109.123 29.5531 108.569 29.5815 108.016 29.5815C106.611 29.5815 105.385 29.3829 104.337 28.9857C103.308 28.5886 102.448 28.0496 101.756 27.3687C101.084 26.6689 100.579 25.8462 100.243 24.9007C99.9265 23.9551 99.7683 22.9338 99.7683 21.8369ZM110.152 20.2199C110.132 19.8605 110.063 19.5107 109.944 19.1703C109.845 18.8298 109.677 18.5272 109.44 18.2625C109.222 17.9977 108.935 17.7802 108.579 17.61C108.243 17.4398 107.818 17.3547 107.304 17.3547C106.809 17.3547 106.384 17.4398 106.028 17.61C105.672 17.7612 105.375 17.9694 105.138 18.2341C104.901 18.4988 104.713 18.8109 104.574 19.1703C104.456 19.5107 104.367 19.8605 104.307 20.2199H110.152ZM123.798 26.234C124.233 26.234 124.648 26.2246 125.044 26.2056C125.439 26.1867 125.755 26.1583 125.993 26.1205V22.9149C125.815 22.8771 125.548 22.8392 125.192 22.8014C124.836 22.7636 124.51 22.7447 124.213 22.7447C123.798 22.7447 123.402 22.773 123.026 22.8298C122.67 22.8676 122.354 22.9527 122.077 23.0851C121.8 23.2175 121.583 23.3971 121.424 23.6241C121.266 23.851 121.187 24.1347 121.187 24.4751C121.187 25.137 121.414 25.6005 121.869 25.8652C122.344 26.1111 122.987 26.234 123.798 26.234ZM123.442 13.8654C124.747 13.8654 125.835 14.0072 126.705 14.2909C127.575 14.5746 128.267 14.9811 128.781 15.5107C129.315 16.0403 129.691 16.6832 129.909 17.4398C130.126 18.1963 130.235 19.0378 130.235 19.9646V28.7588C129.602 28.8912 128.722 29.0425 127.595 29.2127C126.467 29.4018 125.103 29.4964 123.501 29.4964C122.492 29.4964 121.573 29.4113 120.742 29.241C119.931 29.0708 119.229 28.7966 118.636 28.4184C118.042 28.0212 117.587 27.5106 117.271 26.8865C116.955 26.2624 116.796 25.4964 116.796 24.5886C116.796 23.7186 116.974 22.981 117.33 22.3759C117.706 21.7707 118.201 21.2885 118.814 20.9291C119.427 20.5697 120.129 20.3144 120.92 20.1631C121.711 19.9929 122.532 19.9078 123.382 19.9078C123.956 19.9078 124.46 19.9362 124.895 19.9929C125.35 20.0307 125.716 20.0875 125.993 20.1631V19.766C125.993 19.0474 125.765 18.4705 125.311 18.0355C124.856 17.6006 124.065 17.383 122.937 17.383C122.186 17.383 121.444 17.4398 120.712 17.5533C119.981 17.6478 119.348 17.7896 118.814 17.9788L118.25 14.5746C118.507 14.4989 118.824 14.4233 119.199 14.3476C119.595 14.2531 120.02 14.1774 120.475 14.1207C120.93 14.045 121.405 13.9882 121.899 13.9505C122.413 13.8937 122.927 13.8654 123.442 13.8654ZM155.392 25.3829V29.1843H141.656V9.52499H146.284V25.3829H155.392ZM164.386 26.234C164.822 26.234 165.237 26.2246 165.632 26.2056C166.027 26.1867 166.344 26.1583 166.581 26.1205V22.9149C166.403 22.8771 166.136 22.8392 165.78 22.8014C165.424 22.7636 165.098 22.7447 164.801 22.7447C164.386 22.7447 163.991 22.773 163.615 22.8298C163.259 22.8676 162.942 22.9527 162.665 23.0851C162.389 23.2175 162.171 23.3971 162.013 23.6241C161.855 23.851 161.775 24.1347 161.775 24.4751C161.775 25.137 162.003 25.6005 162.458 25.8652C162.932 26.1111 163.576 26.234 164.386 26.234ZM164.03 13.8654C165.335 13.8654 166.424 14.0072 167.293 14.2909C168.163 14.5746 168.856 14.9811 169.37 15.5107C169.904 16.0403 170.28 16.6832 170.497 17.4398C170.714 18.1963 170.824 19.0378 170.824 19.9646V28.7588C170.191 28.8912 169.311 29.0425 168.183 29.2127C167.056 29.4018 165.691 29.4964 164.089 29.4964C163.081 29.4964 162.161 29.4113 161.33 29.241C160.52 29.0708 159.817 28.7966 159.224 28.4184C158.631 28.0212 158.176 27.5106 157.859 26.8865C157.543 26.2624 157.385 25.4964 157.385 24.5886C157.385 23.7186 157.563 22.981 157.919 22.3759C158.295 21.7707 158.789 21.2885 159.402 20.9291C160.016 20.5697 160.717 20.3144 161.508 20.1631C162.3 19.9929 163.12 19.9078 163.971 19.9078C164.544 19.9078 165.048 19.9362 165.484 19.9929C165.938 20.0307 166.305 20.0875 166.581 20.1631V19.766C166.581 19.0474 166.353 18.4705 165.899 18.0355C165.445 17.6006 164.653 17.383 163.526 17.383C162.775 17.383 162.033 17.4398 161.301 17.5533C160.569 17.6478 159.936 17.7896 159.402 17.9788L158.838 14.5746C159.096 14.4989 159.412 14.4233 159.788 14.3476C160.183 14.2531 160.609 14.1774 161.063 14.1207C161.518 14.045 161.993 13.9882 162.487 13.9505C163.001 13.8937 163.516 13.8654 164.03 13.8654ZM184.818 21.6099C184.818 18.8866 183.77 17.5249 181.673 17.5249C181.219 17.5249 180.763 17.5816 180.309 17.6951C179.873 17.8086 179.517 17.9504 179.241 18.1206V25.8085C179.458 25.8462 179.736 25.8842 180.071 25.9219C180.407 25.9409 180.774 25.9503 181.169 25.9503C182.376 25.9503 183.285 25.5532 183.898 24.7588C184.512 23.9645 184.818 22.9149 184.818 21.6099ZM189.327 21.7234C189.327 22.9149 189.14 23.9929 188.764 24.9574C188.408 25.9219 187.883 26.7446 187.191 27.4255C186.5 28.1063 185.649 28.6359 184.64 29.0141C183.631 29.3735 182.484 29.5531 181.199 29.5531C180.665 29.5531 180.101 29.5247 179.508 29.468C178.935 29.4302 178.36 29.3735 177.787 29.2978C177.233 29.2221 176.699 29.137 176.185 29.0425C175.671 28.929 175.216 28.8155 174.82 28.702V7.85125L179.241 7.17041V14.6029C179.736 14.3949 180.249 14.2341 180.783 14.1207C181.317 14.0072 181.891 13.9505 182.504 13.9505C183.611 13.9505 184.59 14.1396 185.441 14.5178C186.292 14.8772 187.004 15.3973 187.577 16.0781C188.15 16.7589 188.586 17.5816 188.882 18.5461C189.179 19.4917 189.327 20.5509 189.327 21.7234ZM197.204 26.1489C198.016 26.1489 198.589 26.0732 198.924 25.9219C199.262 25.7707 199.429 25.4775 199.429 25.0425C199.429 24.7021 199.212 24.409 198.776 24.1631C198.342 23.8984 197.678 23.6051 196.788 23.2837C196.097 23.0378 195.464 22.7825 194.89 22.5177C194.337 22.253 193.862 21.9409 193.466 21.5816C193.071 21.2034 192.765 20.7589 192.546 20.2483C192.329 19.7376 192.22 19.1229 192.22 18.4043C192.22 17.0048 192.765 15.8985 193.851 15.0852C194.94 14.2719 196.432 13.8654 198.331 13.8654C199.28 13.8654 200.191 13.9505 201.06 14.1207C201.931 14.2719 202.623 14.4421 203.137 14.6313L202.366 17.922C201.852 17.7518 201.288 17.6006 200.675 17.4681C200.081 17.3357 199.41 17.2696 198.657 17.2696C197.274 17.2696 196.581 17.6384 196.581 18.3759C196.581 18.5461 196.61 18.6974 196.67 18.8298C196.729 18.9623 196.848 19.0946 197.026 19.227C197.204 19.3405 197.441 19.4729 197.738 19.6242C198.055 19.7566 198.45 19.9078 198.924 20.078C199.894 20.4185 200.695 20.7589 201.327 21.0993C201.961 21.4208 202.455 21.7801 202.811 22.1773C203.187 22.5555 203.444 22.981 203.582 23.4539C203.741 23.9267 203.819 24.4752 203.819 25.0993C203.819 26.5744 203.237 27.6902 202.069 28.4467C200.923 29.2033 199.291 29.5815 197.174 29.5815C195.791 29.5815 194.634 29.468 193.703 29.241C192.794 29.0141 192.16 28.8249 191.804 28.6737L192.546 25.2411C193.299 25.5248 194.07 25.7517 194.86 25.9219C195.652 26.0732 196.432 26.1489 197.204 26.1489Z" fill="white"/>
<path d="M18.8253 35.7859C28.9237 35.7859 37.1103 27.9577 37.1103 18.3009C37.1103 8.64422 28.9237 0.815918 18.8253 0.815918C8.72674 0.815918 0.540283 8.64422 0.540283 18.3009C0.540283 27.9577 8.72674 35.7859 18.8253 35.7859Z" fill="white"/>
<path fill-rule="evenodd" clip-rule="evenodd" d="M18.0244 20.5518H24.378C24.903 20.5518 25.3381 20.9453 25.3381 21.4699V27.5455C25.3381 28.0476 24.9266 28.4636 24.378 28.4636H18.0244C17.4993 28.4636 17.0643 28.0702 17.0643 27.5455V21.4261C17.0643 20.9453 17.4536 20.5518 18.0244 20.5518Z" fill="#ABABAB"/>
<path fill-rule="evenodd" clip-rule="evenodd" d="M21.1554 16.5731L24.9945 11.6991C25.3366 11.3056 25.9089 11.197 26.3204 11.5242L31.4174 15.1952C31.8289 15.5225 31.9424 16.0696 31.6003 16.4631L27.7613 21.2934C27.4191 21.6869 26.8469 21.7955 26.4354 21.4682L21.3384 17.7972C20.9269 17.5138 20.8591 16.9665 21.1554 16.5731Z" fill="#ABABAB"/>
<path fill-rule="evenodd" clip-rule="evenodd" d="M10.4365 19.284L16.1279 22.0384C16.6073 22.2571 16.7901 22.8253 16.5394 23.24L13.659 28.6824C13.4304 29.1408 12.8361 29.3156 12.4025 29.0758L6.7111 26.3215C6.23177 26.1029 6.04889 25.5345 6.29961 25.1199L9.17997 19.6776C9.40856 19.2178 9.9572 19.0429 10.4365 19.284Z" fill="#ABABAB"/>
</g>
<defs>
<clipPath id="clip0">
<rect width="206.316" height="36.1053" fill="white" transform="translate(0.342102 0.815918)"/>
</clipPath>
</defs>
</svg>
