<svg width="134" height="42" viewBox="0 0 134 42" fill="none" xmlns="http://www.w3.org/2000/svg">
<path d="M39.9552 21.1029V0.904297H40.3062H40.6572V21.1029V41.3015H40.3062H39.9552V21.1029Z" fill="black"/>
<path d="M9.08664 37.8339C6.42315 37.3811 3.91239 35.8537 2.21355 33.6538C1.53026 32.7588 0.645998 30.9609 0.3834 29.9265C-0.208784 27.5739 -0.120357 25.5454 0.686193 23.2651C1.54097 20.8321 3.48098 18.6322 5.86044 17.3754L6.64555 16.9628L6.60535 15.4756C6.57588 14.2296 6.60536 13.8063 6.78757 12.9729C7.75221 8.47125 11.2598 5.09499 15.6918 4.37151C18.5964 3.8999 21.4502 4.543 23.7814 6.18022C26.2948 7.95945 27.9026 10.5506 28.3447 13.5865C28.5457 14.9022 28.5457 15.5775 28.3554 16.7323C28.275 17.2361 28.2455 17.6461 28.2938 17.6675C28.3447 17.689 28.7359 17.9596 29.178 18.2811C30.0435 18.9135 31.1475 20.0791 31.7504 20.9848C34.6444 25.3257 34.0629 31.1029 30.3731 34.7926C27.0478 38.1287 21.9727 38.9326 17.7014 36.813L16.7877 36.3602L15.8927 36.813C13.7732 37.8795 11.4098 38.2305 9.08931 37.8393L9.08664 37.8339ZM14.1108 34.0156C14.1323 33.9941 13.9902 33.7851 13.8 33.5332C13.0256 32.5177 12.4227 31.2208 12.01 29.6934C11.8091 28.919 11.7689 28.5573 11.7689 27.2309C11.7689 26.3761 11.7984 25.4222 11.8493 25.1194L11.9189 24.5674L11.5277 24.3262C10.8444 23.9029 9.68954 22.8793 9.13487 22.2067C8.68202 21.644 7.6879 20.1059 7.56732 19.7656C7.53784 19.696 7.31544 19.846 7.0448 20.0979C5.95958 21.1429 5.20662 22.4184 4.76449 23.9779C4.45366 25.0926 4.45366 26.8611 4.76449 27.9678C5.20662 29.5166 5.79077 30.5616 6.8358 31.6361C8.14343 32.992 9.75921 33.7958 11.7206 34.0772C12.203 34.1388 14.0224 34.0986 14.1135 34.0156H14.1108ZM23.1544 33.8039C28.2991 32.3274 30.6196 26.5985 27.9776 21.9066C27.7766 21.5449 27.4845 21.1027 27.3238 20.9205L27.0424 20.5775L26.6405 21.2206C25.7562 22.6167 23.9475 24.1949 22.3398 24.9801C21.7771 25.2614 21.7556 25.2829 21.8173 25.5937C21.9191 26.1269 21.8869 28.2974 21.7663 28.9699C21.4743 30.6072 20.5311 32.7294 19.6254 33.7342L19.4244 33.9566L19.6656 34.0075C20.5498 34.2085 22.0477 34.1174 23.1517 33.8066L23.1544 33.8039ZM17.5675 32.448C19.1163 31.2931 20.231 29.5326 20.6034 27.6945C20.7856 26.7995 20.9062 25.6232 20.8151 25.6232C20.7749 25.6232 20.3837 25.725 19.9308 25.8456C19.2663 26.0171 18.8054 26.068 17.5996 26.068C15.941 26.0787 15.1371 25.9474 13.7008 25.4141C13.2694 25.2534 12.8863 25.1221 12.8568 25.1221C12.8273 25.1221 12.8273 25.6553 12.8568 26.3091C12.9479 28.2089 13.5213 29.7256 14.7057 31.1725C15.2175 31.7969 16.5653 32.9518 16.7957 32.9518C16.8574 32.9625 17.1977 32.7294 17.5701 32.448H17.5675ZM19.2663 25.0122C20.1506 24.7898 20.6624 24.5701 20.6624 24.4281C20.6624 24.3772 20.5605 24.0261 20.4507 23.6537C19.8987 21.845 18.7411 20.2881 17.1655 19.2029L16.8333 18.9725L16.2813 19.3449C14.9656 20.2506 13.6794 22.0191 13.2158 23.5358L13.0336 24.1387L13.7866 24.4817C14.9522 25.0256 15.807 25.2051 17.203 25.2159C18.1168 25.2266 18.6098 25.1757 19.2636 25.0149L19.2663 25.0122ZM21.9003 23.7957C23.2562 22.8498 24.5236 21.1215 24.9845 19.5861L25.156 19.0127L24.7433 18.7903C23.6474 18.1981 22.3505 17.8846 20.9839 17.8846C20.0193 17.8846 18.8322 18.0748 18.1998 18.3374L17.8488 18.4875L18.4517 19.0609C19.5771 20.1059 20.6034 21.644 21.1742 23.1499C21.3564 23.6215 21.5171 24.0154 21.5466 24.0154C21.5681 24.0154 21.7288 23.9136 21.8976 23.793L21.9003 23.7957ZM12.4656 23.0508C12.8889 21.8155 14.3038 19.7549 15.2791 18.951C15.531 18.7501 15.7427 18.5384 15.7427 18.4982C15.7427 18.458 15.5015 18.3481 15.2202 18.257C13.4704 17.7238 11.6215 17.7533 9.95481 18.3481L9.24205 18.6107L9.32244 19.0019C9.63327 20.3792 10.4371 21.7967 11.5331 22.9007C11.8761 23.2437 12.1869 23.5143 12.2271 23.5143C12.278 23.5143 12.3771 23.3026 12.4682 23.0508H12.4656ZM17.471 17.4022C19.762 16.1857 22.9186 15.7945 25.1989 16.4376C25.3302 16.4778 25.3409 16.4081 25.29 16.0062C24.8988 13.2221 22.9775 10.7194 20.4158 9.65561C15.6516 7.6647 10.2576 10.5211 9.26081 15.5239C9.19114 15.907 9.12951 16.2286 9.14023 16.2366C9.15095 16.2473 9.50197 16.2072 9.91462 16.1562C10.89 16.0464 12.136 16.1268 13.3311 16.3974C14.3573 16.6198 15.9731 17.2415 16.4153 17.5737C16.576 17.6836 16.7073 17.7854 16.718 17.7854C16.7395 17.7854 17.0798 17.6139 17.471 17.4022Z" fill="black"/>
<path d="M59.4279 37.8634C59.2672 37.8125 59.1466 37.7026 59.1466 37.6222C59.1466 37.4508 59.2672 37.44 59.4172 37.5928C59.4788 37.6544 59.7682 37.7134 60.0496 37.7134C60.6418 37.7241 60.8535 37.5526 60.8535 37.0703C60.8535 36.7996 60.8428 36.7996 60.5828 36.939C59.3663 37.5713 58.3213 36.0038 59.3877 35.149C59.6503 34.9266 60.3336 34.9186 60.6337 35.1276C60.8347 35.2696 60.8561 35.2696 60.8561 35.1276C60.8561 35.0365 60.9258 34.9668 61.0062 34.9668C61.1268 34.9668 61.1563 35.1678 61.1563 36.1619C61.1563 36.8264 61.1268 37.4374 61.0946 37.5285C60.9446 37.9197 60.0603 38.0912 59.4252 37.8607L59.4279 37.8634ZM60.765 36.4674C60.816 36.3575 60.8561 36.0949 60.8347 35.8939C60.8052 35.5831 60.7436 35.492 60.4435 35.3419C59.8191 35.0391 59.2484 35.3714 59.2484 36.0547C59.2484 36.3655 59.5699 36.7273 59.9022 36.7996C60.1943 36.8612 60.6471 36.6898 60.7677 36.4674H60.765Z" fill="black"/>
<path d="M47.6914 35.7226C47.6914 34.0854 47.7423 34.005 48.2648 34.6963C48.4363 34.9268 48.6668 35.2081 48.7686 35.3207C48.8704 35.4305 49.1303 35.7628 49.3527 36.0549L49.7547 36.5881L49.7842 35.4332C49.8056 34.4873 49.8351 34.2676 49.9556 34.2676C50.0869 34.2676 50.1057 34.5087 50.1057 35.7253C50.1057 36.9016 50.0762 37.183 49.9637 37.183C49.8833 37.183 49.4197 36.6604 48.9374 36.0281L48.0424 34.8624L48.013 36.0281C47.9915 36.9632 47.962 37.183 47.8415 37.183C47.7102 37.183 47.6914 36.9418 47.6914 35.7253V35.7226Z" fill="black"/>
<path d="M51.5601 37.089C51.0081 36.8479 50.767 36.1431 51.0483 35.5509C51.2386 35.149 51.5601 34.9668 52.0746 34.9668C52.5274 34.9668 53.0205 35.4384 53.0205 35.8805V36.1726H52.1148C51.1287 36.1726 51.0081 36.253 51.4422 36.6549C51.7048 36.9068 52.3961 36.9577 52.5971 36.7567C52.6775 36.6764 52.7472 36.6656 52.8195 36.7353C53.0821 36.9979 52.0344 37.2873 51.5628 37.0863L51.5601 37.089ZM52.715 35.7921C52.715 35.2696 51.82 35.0579 51.4074 35.4706C51.0162 35.8618 51.1367 35.9743 51.9594 35.9743C52.6239 35.9743 52.7123 35.9529 52.7123 35.7921H52.715Z" fill="black"/>
<path d="M53.7417 36.7275C53.9239 36.4756 54.1141 36.205 54.165 36.1353C54.2347 36.0335 54.1543 35.8647 53.8944 35.5431C53.4817 35.0394 53.4523 34.9697 53.664 34.9697C53.7336 34.9697 53.9266 35.1519 54.0766 35.3717C54.2267 35.5941 54.3874 35.7736 54.4196 35.7736C54.4598 35.7736 54.6206 35.5914 54.792 35.3717C54.9528 35.1493 55.1645 34.9697 55.2637 34.9697C55.4057 34.9697 55.3548 35.0796 55.0332 35.4815C54.8108 35.7629 54.6313 36.0255 54.6313 36.0549C54.6313 36.0951 54.7224 36.2372 54.843 36.3765C55.3869 37.0598 55.4566 37.1804 55.2958 37.1804C55.2154 37.1804 54.993 36.9794 54.8135 36.7275C54.6313 36.4864 54.4625 36.2854 54.4303 36.2854C54.4008 36.2854 54.2293 36.4864 54.0471 36.7275C53.8649 36.9794 53.6452 37.1804 53.5648 37.1804C53.4549 37.1804 53.5032 37.0598 53.747 36.7275H53.7417Z" fill="black"/>
<path d="M56.2926 36.9607C56.1827 36.8107 56.1318 36.4972 56.1318 36.0068C56.1318 35.3423 56.1104 35.2726 55.9308 35.2726C55.821 35.2726 55.7299 35.203 55.7299 35.1226C55.7299 35.0422 55.821 34.9725 55.9308 34.9725C56.0809 34.9725 56.1318 34.9028 56.1318 34.7206C56.1318 34.5599 56.1934 34.4688 56.2818 34.4688C56.373 34.4688 56.4319 34.5599 56.4319 34.7206C56.4319 34.943 56.4721 34.9725 56.7829 34.9725C57.0241 34.9725 57.1339 35.0234 57.1339 35.1226C57.1339 35.2244 57.0241 35.2726 56.7829 35.2726H56.4319V36.0256C56.4319 36.8402 56.5632 37.0304 57.016 36.9098C57.2679 36.8482 57.3188 37.0304 57.0777 37.1215C56.7668 37.2421 56.4453 37.1831 56.2926 36.9607Z" fill="black"/>
<path d="M62.6032 37.0812C62.4826 37.041 62.2923 36.8695 62.161 36.7087C61.9788 36.4783 61.9493 36.3363 61.9895 35.9451C62.0512 35.302 62.2923 35.0608 62.9354 34.9992C63.3079 34.959 63.4687 34.9885 63.6294 35.1412C63.9001 35.3716 64.0716 35.7039 64.0716 35.9665C64.0716 36.1675 64.0099 36.1782 63.1659 36.1782C62.1798 36.1782 62.0512 36.2693 62.4826 36.6819C62.7345 36.9124 63.4472 36.9633 63.6482 36.7623C63.7393 36.6712 63.7983 36.6712 63.8787 36.7516C63.959 36.832 63.9081 36.9017 63.6884 37.0223C63.3454 37.1937 62.9354 37.2232 62.6032 37.0839V37.0812ZM63.7688 35.8352C63.7688 35.5244 63.4178 35.2511 63.0158 35.2511C62.7345 35.2511 62.5737 35.3127 62.4424 35.4735C62.0994 35.8968 62.1905 35.9772 63.0158 35.9772C63.5893 35.9772 63.7688 35.9477 63.7688 35.8352Z" fill="black"/>
<path d="M64.7731 36.0765C64.7731 35.1628 64.8025 34.9699 64.9231 34.9699C65.0035 34.9699 65.0732 35.061 65.0732 35.1708V35.3718L65.2741 35.1708C65.585 34.86 66.2683 34.9002 66.5898 35.2325C66.8015 35.4549 66.831 35.6049 66.8712 36.3391C66.9006 37.0626 66.8819 37.1832 66.7399 37.1832C66.6086 37.1832 66.5791 37.0626 66.5791 36.5106C66.5791 35.6773 66.429 35.3343 66.0351 35.2941C65.3009 35.203 65.0705 35.5245 65.0705 36.591C65.0705 37.0546 65.041 37.1832 64.9204 37.1832C64.7999 37.1832 64.7704 36.9929 64.7704 36.0765H64.7731Z" fill="black"/>
<path d="M68.2302 37.0811C67.6166 36.84 67.4049 35.9959 67.8068 35.4118C68.34 34.6374 69.5164 34.8892 69.6664 35.803L69.7281 36.1754H68.8036C67.8095 36.1754 67.6889 36.2558 68.1203 36.6578C68.3829 36.9096 69.0743 36.9605 69.2752 36.7596C69.3663 36.6685 69.4253 36.6685 69.5057 36.7489C69.5861 36.8292 69.5351 36.8989 69.3154 37.0195C68.9724 37.191 68.5624 37.2205 68.2302 37.0811ZM69.3958 35.8351C69.3958 35.6234 69.0635 35.2831 68.8438 35.2617C68.4419 35.2322 68.2918 35.2724 68.0908 35.4734C67.6996 35.8646 67.8202 35.9772 68.6428 35.9772C69.2163 35.9772 69.3958 35.9477 69.3958 35.8351Z" fill="black"/>
<path d="M70.5026 36.0764C70.5026 35.4038 70.5428 34.9697 70.6044 34.9697C70.666 34.9697 70.7062 35.0715 70.7062 35.1921V35.4145L70.9072 35.1921C71.1483 34.9402 71.6119 34.8893 71.6119 35.1225C71.6119 35.2136 71.5208 35.2725 71.3815 35.2725C70.9501 35.2725 70.808 35.5646 70.808 36.4087C70.808 37.033 70.7786 37.183 70.658 37.183C70.5374 37.183 70.5079 36.9928 70.5079 36.0764H70.5026Z" fill="black"/>
<path d="M72.2601 36.9282C71.9788 36.6576 71.9573 36.5558 72.1101 36.2744C72.2199 36.0628 72.7826 35.8725 73.2971 35.8725C73.6294 35.8725 73.6696 35.8109 73.5597 35.5215C73.4499 35.2508 73.056 35.1597 72.6138 35.3098C72.2414 35.4411 72.1101 35.4304 72.1101 35.2696C72.1101 35.1383 72.6219 34.9668 73.0238 34.9668C73.3159 34.9668 73.4954 35.0365 73.6669 35.2187C73.8974 35.4411 73.9188 35.5402 73.9188 36.3253C73.9188 37.0194 73.8893 37.1801 73.7687 37.1801C73.6884 37.1801 73.6187 37.1105 73.6187 37.0194C73.6187 36.8773 73.5972 36.8773 73.3963 37.0194C73.0533 37.2605 72.5415 37.2203 72.2601 36.9282ZM73.3561 36.7675C73.4981 36.6576 73.6187 36.4754 73.6187 36.3655C73.6187 36.2048 73.549 36.1753 73.0667 36.1753C72.6353 36.1753 72.504 36.2155 72.4129 36.3655C72.1422 36.8773 72.8362 37.1801 73.3588 36.7675H73.3561Z" fill="black"/>
<path d="M75.1032 37.0704C74.9531 36.99 74.921 36.8185 74.921 36.1245C74.921 35.3394 74.8995 35.2697 74.72 35.2697C74.6101 35.2697 74.519 35.2 74.519 35.1196C74.519 35.0393 74.6101 34.9696 74.72 34.9696C74.8701 34.9696 74.921 34.8999 74.921 34.7177C74.921 34.5569 74.9826 34.4658 75.071 34.4658C75.1621 34.4658 75.2211 34.5569 75.2211 34.7177C75.2211 34.9294 75.272 34.9696 75.5239 34.9696C75.7249 34.9696 75.8267 35.0205 75.8267 35.1196C75.8267 35.2215 75.7249 35.2697 75.5239 35.2697H75.2211V36.0736C75.2211 36.8989 75.2613 36.9578 75.6632 36.8882C75.7141 36.8775 75.824 36.8989 75.9151 36.9284C76.0464 36.9793 76.0571 36.998 75.9258 37.0784C75.7249 37.2097 75.3122 37.199 75.1005 37.0677L75.1032 37.0704Z" fill="black"/>
<path d="M76.6305 36.0764C76.6305 35.1626 76.66 34.9697 76.7806 34.9697C76.9012 34.9697 76.9306 35.16 76.9306 36.0764C76.9306 36.9901 76.9012 37.183 76.7806 37.183C76.66 37.183 76.6305 36.9928 76.6305 36.0764Z" fill="black"/>
<path d="M78.2892 37.0703C77.9167 36.8478 77.7372 36.537 77.7372 36.0761C77.7372 35.4035 78.048 35.0605 78.7233 34.9909C79.2163 34.9507 79.2672 34.9694 79.5968 35.3017C80.0604 35.7653 80.0791 36.2771 79.6665 36.7701C79.4441 37.0327 79.3047 37.1131 78.943 37.1426C78.6911 37.1721 78.399 37.1319 78.2892 37.0729V37.0703ZM79.4361 36.6174C79.9693 35.9341 79.3449 35.0096 78.5411 35.2803C78.1793 35.4116 78.0373 35.642 78.0373 36.1136C78.0373 36.5852 78.3481 36.8773 78.8519 36.8773C79.144 36.8773 79.2753 36.8157 79.4361 36.6147V36.6174Z" fill="black"/>
<path d="M80.6501 36.0764C80.6501 35.1626 80.6796 34.9697 80.8002 34.9697C80.8806 34.9697 80.9503 35.0394 80.9503 35.1305C80.9503 35.2725 80.9717 35.2725 81.1727 35.1305C81.4353 34.9483 81.9765 34.9188 82.2793 35.0796C82.5821 35.2404 82.7616 35.7843 82.7616 36.5266C82.7616 37.0089 82.7322 37.1804 82.6196 37.1804C82.5178 37.1804 82.4696 36.9687 82.4374 36.3872C82.4079 35.9451 82.3356 35.5137 82.2552 35.4333C82.1239 35.2725 81.4915 35.2109 81.2906 35.3529C81.0601 35.503 80.9476 35.8861 80.9476 36.5185C80.9476 37.041 80.9181 37.183 80.7975 37.183C80.6769 37.183 80.6475 36.9928 80.6475 36.0764H80.6501Z" fill="black"/>
<path d="M84.9723 35.7223V34.2646H85.9771C86.58 34.2646 86.982 34.3048 86.982 34.3665C86.982 34.4281 86.6309 34.4683 86.1272 34.4683H85.2724V35.0712V35.6741H86.0254C86.4568 35.6741 86.7783 35.7143 86.7783 35.7759C86.7783 35.8376 86.4568 35.8777 86.0254 35.8777H85.2724V36.5315C85.2724 37.0433 85.2429 37.1854 85.1223 37.1854C84.991 37.1854 84.9723 36.9549 84.9723 35.7277V35.7223Z" fill="black"/>
<path d="M88.0158 37.0812C87.6728 36.9392 87.5844 36.6578 87.5844 35.7843C87.5844 35.1305 87.6138 34.9697 87.7344 34.9697C87.855 34.9697 87.8845 35.1198 87.8845 35.7334C87.8845 36.7088 87.9756 36.8802 88.4874 36.8802C89.0715 36.8802 89.2912 36.548 89.2912 35.6637C89.2912 35.1117 89.3207 34.9697 89.4413 34.9697C89.5619 34.9697 89.5914 35.16 89.5914 36.0764C89.5914 36.9901 89.5619 37.183 89.4413 37.183C89.3609 37.183 89.2912 37.1134 89.2912 37.033C89.2912 36.891 89.2618 36.891 88.9885 37.033C88.6669 37.2045 88.3453 37.2152 88.0131 37.0839L88.0158 37.0812Z" fill="black"/>
<path d="M90.4972 36.076C90.4972 35.1622 90.5267 34.9693 90.6472 34.9693C90.7276 34.9693 90.7973 35.0604 90.7973 35.1703V35.3712L90.9983 35.1703C91.3011 34.8675 91.9924 34.8996 92.2952 35.2105C92.4855 35.4114 92.5364 35.6017 92.5766 36.3171C92.6382 37.1505 92.6275 37.1826 92.4158 37.1826C92.2148 37.1826 92.2041 37.1317 92.2041 36.3493C92.2041 35.4034 92.1344 35.2748 91.6012 35.2748C90.9768 35.2748 90.8563 35.4463 90.8161 36.3707C90.7866 36.9843 90.7357 37.1853 90.6338 37.1853C90.524 37.1853 90.4918 36.9549 90.4918 36.0787L90.4972 36.076Z" fill="black"/>
<path d="M93.8038 37.0302C93.2813 36.7489 93.15 35.6824 93.5922 35.2403C93.8735 34.9697 94.6372 34.8893 94.9695 35.109L95.2213 35.2698V34.6669C95.2213 34.1953 95.2508 34.064 95.3714 34.064C95.5027 34.064 95.5214 34.3051 95.5214 35.6208C95.5214 36.9364 95.5 37.1776 95.3714 37.1776C95.291 37.1776 95.2213 37.1079 95.2213 37.0276C95.2213 36.8855 95.1919 36.8855 94.9185 37.0276C94.5568 37.2178 94.1441 37.2178 93.8038 37.0276V37.0302ZM94.9909 36.6578C95.2535 36.4166 95.3017 35.8325 95.082 35.5511C94.7712 35.1278 93.9459 35.1492 93.7154 35.5726C93.5439 35.8834 93.5948 36.4273 93.8172 36.6578C94.0986 36.9606 94.6827 36.9606 94.9936 36.6578H94.9909Z" fill="black"/>
<path d="M76.6305 34.2675C76.6305 34.1174 76.6814 34.0665 76.8127 34.0853C76.9038 34.1067 76.9842 34.1871 76.9842 34.2675C76.9842 34.3479 76.9038 34.4283 76.8127 34.4497C76.6814 34.4711 76.6305 34.4202 76.6305 34.2675Z" fill="black"/>
<path d="M52.3134 30.4896C50.8772 30.227 50.0519 29.817 49.1381 28.9006C48.5245 28.287 48.3852 28.0753 48.0931 27.333C47.8225 26.6283 47.7608 26.2987 47.7206 25.4225C47.6912 24.7982 47.7099 24.1363 47.7823 23.804C48.2941 21.371 50.5154 19.7954 53.4496 19.7954C54.3847 19.7954 55.5396 20.0768 56.1934 20.4492C56.657 20.7199 57.2492 21.3442 57.4903 21.797L57.6511 22.1079H57.0991C56.5873 22.1079 56.5257 22.0864 56.3944 21.8158C56.1934 21.4433 55.7406 21.0628 55.1484 20.7815C54.7358 20.5912 54.516 20.5591 53.4201 20.551H52.1634L51.4399 20.9423C49.8429 21.797 48.9881 23.4557 49.1274 25.4252C49.2989 27.5662 50.5637 29.2034 52.4635 29.7071C53.0771 29.8786 54.3338 29.8893 55.0466 29.7366C55.6602 29.6053 56.5632 29.1739 57.0053 28.8014C57.3671 28.4986 57.5573 28.4692 57.7503 28.6996C57.8708 28.8497 57.8414 28.9113 57.4877 29.2114C56.5632 30.0153 55.2958 30.4467 53.7202 30.4976C53.0878 30.519 52.4528 30.519 52.3134 30.4869V30.4896Z" fill="black"/>
<path d="M58.7335 30.1275C58.8541 29.8247 60.7325 25.3632 60.904 24.972C60.9737 24.8113 61.1853 24.3289 61.3568 23.9163C61.5283 23.5036 61.7588 22.9811 61.8499 22.7614C61.9517 22.539 62.2518 21.8262 62.5224 21.1831L63.0155 19.9961H63.3987C63.822 19.9961 63.6613 19.7335 64.9367 22.4693C65.1189 22.8605 65.5906 23.8868 65.9925 24.7309C66.3837 25.5856 66.8258 26.5289 66.9678 26.8316C67.1099 27.1344 67.5198 28.0375 67.903 28.8413L68.5863 30.299L67.9218 30.3285C67.56 30.3499 67.217 30.3178 67.1769 30.2776C67.1259 30.2267 66.7937 29.5541 66.4319 28.7904L65.7781 27.3836L63.1843 27.3542L60.5905 27.3327L59.9581 28.8413L59.315 30.3499H58.9827C58.6719 30.3499 58.6505 30.3285 58.7309 30.1275H58.7335ZM65.3762 26.5798C65.3762 26.5396 65.2556 26.2689 63.8194 23.1928C63.4362 22.3675 63.0959 21.7056 63.0664 21.7056C63.0048 21.7056 60.9549 26.4297 60.9549 26.5583C60.9549 26.5985 61.949 26.628 63.1655 26.628C64.3821 26.628 65.3762 26.6066 65.3762 26.5771V26.5798Z" fill="black"/>
<path d="M70.8025 25.1625V19.9775L73.1444 20.0177C75.3765 20.0472 75.4971 20.0579 75.9472 20.2884C76.6922 20.6715 77.0941 21.0628 77.3942 21.6764C77.7774 22.4615 77.7961 23.6271 77.4344 24.3693C77.1236 25.0232 76.5287 25.5859 75.8374 25.9181C75.3336 26.1486 75.1541 26.1807 74.0689 26.1807C73.4043 26.1807 72.713 26.1513 72.5415 26.1111L72.2093 26.0414V28.1931V30.3528H71.5045H70.7998V25.1679L70.8025 25.1625ZM74.6021 25.484C75.1943 25.2724 75.6069 24.9401 75.9097 24.4176C76.1402 24.0264 76.1804 23.8549 76.1804 23.1609C76.1804 22.2766 76.0383 21.8934 75.4971 21.3227C75.0255 20.8296 74.2913 20.5992 73.1659 20.5992H72.2119V23.0108V25.4117L72.5442 25.5135C73.048 25.6555 74.1519 25.6448 74.6048 25.484H74.6021Z" fill="black"/>
<path d="M80.5507 25.1733V19.999H81.2045H81.8583V25.1733V30.3475H81.2045H80.5507V25.1733Z" fill="black"/>
<path d="M88.488 25.5752V20.8029H86.5292H84.5704V20.401V19.999H89.1927H93.8149V20.401V20.8029H91.8562H89.8974V25.5752V30.3475H89.1927H88.488V25.5752Z" fill="black"/>
<path d="M92.8393 30.2777C92.9009 30.1571 93.1501 29.6051 93.5118 28.7396C93.6941 28.327 93.9031 27.8152 93.9942 27.5928C94.096 27.3811 94.849 25.5938 95.6716 23.6243L97.1802 20.0471L97.6036 20.0176C97.9546 19.9882 98.0269 20.0176 98.0859 20.2079C98.1261 20.3285 98.4074 20.9528 98.7102 21.5959C99.013 22.239 99.3935 23.0321 99.5436 23.3644C99.6936 23.6967 100.146 24.6613 100.538 25.5161C100.94 26.3602 101.411 27.3864 101.593 27.7777C101.784 28.1689 102.116 28.8924 102.346 29.3747C102.569 29.8677 102.759 30.2804 102.759 30.3099C102.759 30.3313 102.438 30.35 102.046 30.35H101.342L101.009 29.6266C100.819 29.2246 100.506 28.5413 100.315 28.118L99.9535 27.3329H97.3811H94.8088L94.6078 27.8152C94.4979 28.0778 94.3666 28.3779 94.3157 28.4878C94.2541 28.5976 94.0638 29.0505 93.8843 29.4926C93.552 30.2777 93.5333 30.2965 93.1715 30.3259C92.9598 30.3474 92.8098 30.3259 92.8393 30.275V30.2777ZM99.281 25.9261C99.0907 25.5349 98.938 25.2026 98.938 25.1731C98.938 25.1517 98.6566 24.53 98.3056 23.7958C97.9546 23.0616 97.5821 22.2578 97.4722 22.0166L97.2606 21.5852L96.8881 22.4694C96.6764 22.9625 96.4245 23.5439 96.3254 23.7664C96.0735 24.3398 95.3313 26.0976 95.2187 26.3896L95.1169 26.6308H97.3677H99.6186L99.2756 25.9261H99.281Z" fill="black"/>
<path d="M105.068 25.1733V19.999H105.722H106.376V24.7713V29.5436H109.039H111.703V29.9456V30.3475H108.386H105.068V25.1733Z" fill="black"/>
<path d="M58.8464 11.6979C57.0484 9.89992 55.1887 8.06978 54.7064 7.61693L53.8222 6.81306V10.7922V14.7714H53.4711H53.1201V9.49531C53.1201 6.59066 53.1496 4.21924 53.1817 4.21924C53.2219 4.21924 55.1218 6.05742 57.4021 8.30022L61.5634 12.3812V8.40205V4.42289H61.9145H62.2655V9.69895C62.2655 12.6036 62.236 14.975 62.1958 14.975C62.1449 14.975 60.647 13.4986 58.849 11.6979H58.8464Z" fill="black"/>
<path d="M69.3148 14.8732C67.6267 14.632 66.0698 13.5762 65.3758 12.1802C64.8024 11.0333 64.6014 9.22463 64.923 7.98934C65.4053 6.15116 66.9729 4.74438 68.9718 4.36121C71.445 3.8896 73.5137 4.52198 74.4783 6.04933C74.6096 6.2503 74.7195 6.45127 74.7195 6.48075C74.7195 6.51022 74.4783 6.53166 74.1755 6.53166C73.712 6.53166 73.6128 6.50218 73.5619 6.33069C73.4601 6.00914 72.6267 5.34461 72.0533 5.1356C69.3898 4.14148 66.6781 5.78942 66.2655 8.67263C65.893 11.245 67.3319 13.5762 69.631 14.1202C71.22 14.5034 72.9161 14.1416 74.0925 13.185L74.5346 12.834L74.7463 13.0564L74.9687 13.2788L74.5667 13.6298C74.0737 14.0612 73.1493 14.5248 72.3668 14.7258C71.6031 14.916 70.1267 14.9884 69.3121 14.8758L69.3148 14.8732Z" fill="black"/>
<path d="M88.6192 14.862C87.4322 14.6905 86.4381 14.0768 85.937 13.214C85.4547 12.4102 85.3743 11.5848 85.3743 7.8281V4.42236H86.079H86.773L86.8025 8.37204C86.832 12.7344 86.832 12.6942 87.526 13.3775C88.1101 13.9509 88.6407 14.2028 89.4445 14.251C90.9933 14.3528 92.1187 13.7874 92.7511 12.6138C92.9521 12.2226 92.9628 12.0806 92.9922 8.32381L93.0217 4.42505H93.3727H93.7238L93.6943 8.32381L93.6648 12.2119L93.3325 12.8844C92.5394 14.5217 90.9317 15.1969 88.6192 14.8646V14.862Z" fill="black"/>
<path d="M98.3458 14.8619C97.6116 14.7414 96.6282 14.2483 96.186 13.7955C95.8752 13.4632 95.4224 12.5602 95.4224 12.2467C95.4224 12.1851 95.6448 12.1556 95.9449 12.177L96.4674 12.2065L96.5478 12.6084C96.738 13.5624 97.6223 14.1572 98.9701 14.2376C100.366 14.3287 101.484 13.9455 101.733 13.2837C102.336 11.7349 101.47 10.6898 98.8897 9.84578C97.1802 9.28307 96.2557 8.57835 95.9744 7.60567C95.8323 7.13406 95.8243 6.93309 95.9234 6.499C96.2155 5.11098 97.2204 4.35803 98.9085 4.23744C100.586 4.12758 102.073 4.78943 102.566 5.87466C102.847 6.47756 102.818 6.52848 102.263 6.52848C101.81 6.52848 101.77 6.50704 101.719 6.2364C101.628 5.82375 101.175 5.3307 100.653 5.08954C99.9696 4.78675 98.6539 4.79747 98.0001 5.11098C97.2954 5.45397 96.9846 5.91486 96.9846 6.60887C96.9846 7.13138 97.006 7.18229 97.4267 7.56279C97.9197 7.9942 98.6727 8.37738 99.7874 8.74984C101.596 9.35274 102.703 10.1566 103.014 11.0704C103.215 11.684 103.164 12.6379 102.912 13.1818C102.279 14.5082 100.398 15.2022 98.3404 14.8593L98.3458 14.8619Z" fill="black"/>
<path d="M115.479 14.873C113.981 14.6318 112.333 13.4046 111.631 12.0085C111.259 11.2743 111.069 10.441 111.069 9.54599C111.069 7.52559 112.154 5.72761 113.933 4.83263C114.967 4.32083 115.672 4.17881 117.028 4.24848C118.295 4.31011 119.027 4.55127 120.013 5.22384C120.878 5.80799 121.562 6.65206 121.964 7.62474C122.226 8.24908 122.296 8.57063 122.336 9.34234C122.376 10.1864 122.347 10.3874 122.114 11.0814C121.339 13.3724 119.472 14.7685 116.98 14.9105C116.476 14.94 115.814 14.9212 115.482 14.8703L115.479 14.873ZM118.333 13.8976C119.579 13.3054 120.343 12.3703 120.734 10.9528C120.986 10.0685 120.996 9.23516 120.795 8.3509C120.452 6.93341 119.619 5.86962 118.333 5.24528C117.639 4.91302 117.508 4.88354 116.674 4.88354C115.498 4.88354 114.825 5.13542 114.021 5.88838C112.081 7.67833 111.972 11.1939 113.791 13.0535C114.697 13.978 115.479 14.2808 116.827 14.2406C117.54 14.2192 117.792 14.1602 118.336 13.8976H118.333Z" fill="black"/>
<path d="M133.143 14.2006C132.711 13.7772 130.852 11.9497 129.021 10.1303C127.183 8.32158 125.664 6.83442 125.624 6.83442C125.594 6.83442 125.562 8.62437 125.562 10.8029V14.7713H125.259H124.957V9.47648V4.18164L126.345 5.53751C127.098 6.29047 128.968 8.12061 130.484 9.61849L133.247 12.3409L133.277 8.38053L133.298 4.42012H133.649H134V9.6962C134 12.6009 133.979 14.9723 133.971 14.9723C133.949 14.9723 133.579 14.6213 133.137 14.1979L133.143 14.2006Z" fill="black"/>
<path d="M47.6914 9.59661V4.42236H48.3452H48.999V9.59661V14.7708H48.3452H47.6914V9.59661Z" fill="black"/>
<path d="M77.032 9.59661V4.42236H77.7367H78.4414V9.19467V13.967H81.1049H83.7684V14.3689V14.7708H80.4029H77.0373V9.59661H77.032Z" fill="black"/>
<path d="M106.574 9.59661V4.42236H107.228H107.882V9.59661V14.7708H107.228H106.574V9.59661Z" fill="black"/>
</svg>
