<svg width="134" height="42" viewBox="0 0 134 42" fill="none" xmlns="http://www.w3.org/2000/svg">
<path d="M39.9551 21.1029V0.904297H40.3061H40.6571V21.1029V41.3015H40.3061H39.9551V21.1029Z" fill="white"/>
<path d="M9.08664 37.8339C6.42315 37.3811 3.91239 35.8537 2.21355 33.6538C1.53026 32.7588 0.645998 30.9609 0.3834 29.9265C-0.208784 27.5739 -0.120357 25.5454 0.686193 23.2651C1.54097 20.8321 3.48098 18.6322 5.86044 17.3754L6.64555 16.9628L6.60535 15.4756C6.57588 14.2296 6.60536 13.8063 6.78757 12.9729C7.75221 8.47125 11.2598 5.09499 15.6918 4.37151C18.5964 3.8999 21.4502 4.543 23.7814 6.18022C26.2948 7.95945 27.9026 10.5506 28.3447 13.5865C28.5457 14.9022 28.5457 15.5775 28.3554 16.7323C28.275 17.2361 28.2455 17.6461 28.2938 17.6675C28.3447 17.689 28.7359 17.9596 29.178 18.2811C30.0435 18.9135 31.1475 20.0791 31.7504 20.9848C34.6444 25.3257 34.0629 31.1029 30.3731 34.7926C27.0478 38.1287 21.9727 38.9326 17.7014 36.813L16.7877 36.3602L15.8927 36.813C13.7732 37.8795 11.4098 38.2305 9.08931 37.8393L9.08664 37.8339ZM14.1108 34.0156C14.1323 33.9941 13.9902 33.7851 13.8 33.5332C13.0256 32.5177 12.4227 31.2208 12.01 29.6934C11.8091 28.919 11.7689 28.5573 11.7689 27.2309C11.7689 26.3761 11.7984 25.4222 11.8493 25.1194L11.9189 24.5674L11.5277 24.3262C10.8444 23.9029 9.68954 22.8793 9.13487 22.2067C8.68202 21.644 7.6879 20.1059 7.56732 19.7656C7.53784 19.696 7.31544 19.846 7.0448 20.0979C5.95958 21.1429 5.20662 22.4184 4.76449 23.9779C4.45366 25.0926 4.45366 26.8611 4.76449 27.9678C5.20662 29.5166 5.79077 30.5616 6.8358 31.6361C8.14343 32.992 9.75921 33.7958 11.7206 34.0772C12.203 34.1388 14.0224 34.0986 14.1135 34.0156H14.1108ZM23.1544 33.8039C28.2991 32.3274 30.6196 26.5985 27.9776 21.9066C27.7766 21.5449 27.4845 21.1027 27.3238 20.9205L27.0424 20.5775L26.6405 21.2206C25.7562 22.6167 23.9475 24.1949 22.3398 24.9801C21.7771 25.2614 21.7556 25.2829 21.8173 25.5937C21.9191 26.1269 21.8869 28.2974 21.7663 28.9699C21.4743 30.6072 20.5311 32.7294 19.6254 33.7342L19.4244 33.9566L19.6656 34.0075C20.5498 34.2085 22.0477 34.1174 23.1517 33.8066L23.1544 33.8039ZM17.5675 32.448C19.1163 31.2931 20.231 29.5326 20.6034 27.6945C20.7856 26.7995 20.9062 25.6232 20.8151 25.6232C20.7749 25.6232 20.3837 25.725 19.9308 25.8456C19.2663 26.0171 18.8054 26.068 17.5996 26.068C15.941 26.0787 15.1371 25.9474 13.7008 25.4141C13.2694 25.2534 12.8863 25.1221 12.8568 25.1221C12.8273 25.1221 12.8273 25.6553 12.8568 26.3091C12.9479 28.2089 13.5213 29.7256 14.7057 31.1725C15.2175 31.7969 16.5653 32.9518 16.7957 32.9518C16.8574 32.9625 17.1977 32.7294 17.5701 32.448H17.5675ZM19.2663 25.0122C20.1506 24.7898 20.6624 24.5701 20.6624 24.4281C20.6624 24.3772 20.5605 24.0261 20.4507 23.6537C19.8987 21.845 18.7411 20.2881 17.1655 19.2029L16.8333 18.9725L16.2813 19.3449C14.9656 20.2506 13.6794 22.0191 13.2158 23.5358L13.0336 24.1387L13.7866 24.4817C14.9522 25.0256 15.807 25.2051 17.203 25.2159C18.1168 25.2266 18.6098 25.1757 19.2636 25.0149L19.2663 25.0122ZM21.9003 23.7957C23.2562 22.8498 24.5236 21.1215 24.9845 19.5861L25.156 19.0127L24.7433 18.7903C23.6474 18.1981 22.3505 17.8846 20.9839 17.8846C20.0193 17.8846 18.8322 18.0748 18.1998 18.3374L17.8488 18.4875L18.4517 19.0609C19.5771 20.1059 20.6034 21.644 21.1742 23.1499C21.3564 23.6215 21.5171 24.0154 21.5466 24.0154C21.5681 24.0154 21.7288 23.9136 21.8976 23.793L21.9003 23.7957ZM12.4656 23.0508C12.8889 21.8155 14.3038 19.7549 15.2791 18.951C15.531 18.7501 15.7427 18.5384 15.7427 18.4982C15.7427 18.458 15.5015 18.3481 15.2202 18.257C13.4704 17.7238 11.6215 17.7533 9.95481 18.3481L9.24205 18.6107L9.32244 19.0019C9.63327 20.3792 10.4371 21.7967 11.5331 22.9007C11.8761 23.2437 12.1869 23.5143 12.2271 23.5143C12.278 23.5143 12.3771 23.3026 12.4682 23.0508H12.4656ZM17.471 17.4022C19.762 16.1857 22.9186 15.7945 25.1989 16.4376C25.3302 16.4778 25.3409 16.4081 25.29 16.0062C24.8988 13.2221 22.9775 10.7194 20.4158 9.65561C15.6516 7.6647 10.2576 10.5211 9.26081 15.5239C9.19114 15.907 9.12951 16.2286 9.14023 16.2366C9.15095 16.2473 9.50197 16.2072 9.91462 16.1562C10.89 16.0464 12.136 16.1268 13.3311 16.3974C14.3573 16.6198 15.9731 17.2415 16.4153 17.5737C16.576 17.6836 16.7073 17.7854 16.718 17.7854C16.7395 17.7854 17.0798 17.6139 17.471 17.4022Z" fill="white"/>
<path d="M59.4279 37.8634C59.2672 37.8125 59.1466 37.7026 59.1466 37.6222C59.1466 37.4508 59.2672 37.44 59.4172 37.5928C59.4788 37.6544 59.7682 37.7134 60.0496 37.7134C60.6418 37.7241 60.8535 37.5526 60.8535 37.0703C60.8535 36.7996 60.8428 36.7996 60.5828 36.939C59.3663 37.5713 58.3213 36.0038 59.3877 35.149C59.6503 34.9266 60.3336 34.9186 60.6337 35.1276C60.8347 35.2696 60.8561 35.2696 60.8561 35.1276C60.8561 35.0365 60.9258 34.9668 61.0062 34.9668C61.1268 34.9668 61.1563 35.1678 61.1563 36.1619C61.1563 36.8264 61.1268 37.4374 61.0946 37.5285C60.9446 37.9197 60.0603 38.0912 59.4252 37.8607L59.4279 37.8634ZM60.765 36.4674C60.816 36.3575 60.8561 36.0949 60.8347 35.8939C60.8052 35.5831 60.7436 35.492 60.4435 35.3419C59.8191 35.0391 59.2484 35.3714 59.2484 36.0547C59.2484 36.3655 59.5699 36.7273 59.9022 36.7996C60.1943 36.8612 60.6471 36.6898 60.7677 36.4674H60.765Z" fill="white"/>
<path d="M47.6914 35.7226C47.6914 34.0854 47.7423 34.005 48.2648 34.6963C48.4363 34.9268 48.6668 35.2081 48.7686 35.3207C48.8704 35.4305 49.1303 35.7628 49.3527 36.0549L49.7547 36.5881L49.7842 35.4332C49.8056 34.4873 49.8351 34.2676 49.9556 34.2676C50.0869 34.2676 50.1057 34.5087 50.1057 35.7253C50.1057 36.9016 50.0762 37.183 49.9637 37.183C49.8833 37.183 49.4197 36.6604 48.9374 36.0281L48.0424 34.8624L48.013 36.0281C47.9915 36.9632 47.962 37.183 47.8415 37.183C47.7102 37.183 47.6914 36.9418 47.6914 35.7253V35.7226Z" fill="white"/>
<path d="M51.5601 37.089C51.0081 36.8479 50.767 36.1431 51.0483 35.5509C51.2386 35.149 51.5601 34.9668 52.0746 34.9668C52.5274 34.9668 53.0205 35.4384 53.0205 35.8805V36.1726H52.1148C51.1287 36.1726 51.0081 36.253 51.4422 36.6549C51.7048 36.9068 52.3961 36.9577 52.5971 36.7567C52.6775 36.6764 52.7472 36.6656 52.8195 36.7353C53.0821 36.9979 52.0344 37.2873 51.5628 37.0863L51.5601 37.089ZM52.715 35.7921C52.715 35.2696 51.82 35.0579 51.4074 35.4706C51.0162 35.8618 51.1367 35.9743 51.9594 35.9743C52.6239 35.9743 52.7123 35.9529 52.7123 35.7921H52.715Z" fill="white"/>
<path d="M53.7414 36.7275C53.9236 36.4756 54.1139 36.205 54.1648 36.1353C54.2345 36.0335 54.1541 35.8647 53.8942 35.5431C53.4815 35.0394 53.452 34.9697 53.6637 34.9697C53.7334 34.9697 53.9263 35.1519 54.0764 35.3717C54.2264 35.5941 54.3872 35.7736 54.4193 35.7736C54.4595 35.7736 54.6203 35.5914 54.7918 35.3717C54.9526 35.1493 55.1643 34.9697 55.2634 34.9697C55.4054 34.9697 55.3545 35.0796 55.033 35.4815C54.8106 35.7629 54.631 36.0255 54.631 36.0549C54.631 36.0951 54.7221 36.2372 54.8427 36.3765C55.3867 37.0598 55.4563 37.1804 55.2956 37.1804C55.2152 37.1804 54.9928 36.9794 54.8132 36.7275C54.631 36.4864 54.4622 36.2854 54.4301 36.2854C54.4006 36.2854 54.2291 36.4864 54.0469 36.7275C53.8647 36.9794 53.645 37.1804 53.5646 37.1804C53.4547 37.1804 53.5029 37.0598 53.7468 36.7275H53.7414Z" fill="white"/>
<path d="M56.2927 36.9607C56.1828 36.8107 56.1319 36.4972 56.1319 36.0068C56.1319 35.3423 56.1105 35.2726 55.9309 35.2726C55.8211 35.2726 55.73 35.203 55.73 35.1226C55.73 35.0422 55.8211 34.9725 55.9309 34.9725C56.081 34.9725 56.1319 34.9028 56.1319 34.7206C56.1319 34.5599 56.1935 34.4688 56.282 34.4688C56.3731 34.4688 56.432 34.5599 56.432 34.7206C56.432 34.943 56.4722 34.9725 56.783 34.9725C57.0242 34.9725 57.1341 35.0234 57.1341 35.1226C57.1341 35.2244 57.0242 35.2726 56.783 35.2726H56.432V36.0256C56.432 36.8402 56.5633 37.0304 57.0162 36.9098C57.268 36.8482 57.319 37.0304 57.0778 37.1215C56.767 37.2421 56.4454 37.1831 56.2927 36.9607Z" fill="white"/>
<path d="M62.603 37.0812C62.4825 37.041 62.2922 36.8695 62.1609 36.7087C61.9787 36.4783 61.9492 36.3363 61.9894 35.9451C62.051 35.302 62.2922 35.0608 62.9353 34.9992C63.3078 34.959 63.4686 34.9885 63.6293 35.1412C63.9 35.3716 64.0715 35.7039 64.0715 35.9665C64.0715 36.1675 64.0098 36.1782 63.1658 36.1782C62.1797 36.1782 62.051 36.2693 62.4825 36.6819C62.7343 36.9124 63.4471 36.9633 63.6481 36.7623C63.7392 36.6712 63.7981 36.6712 63.8785 36.7516C63.9589 36.832 63.908 36.9017 63.6883 37.0223C63.3453 37.1937 62.9353 37.2232 62.603 37.0839V37.0812ZM63.7687 35.8352C63.7687 35.5244 63.4176 35.2511 63.0157 35.2511C62.7343 35.2511 62.5736 35.3127 62.4423 35.4735C62.0993 35.8968 62.1904 35.9772 63.0157 35.9772C63.5891 35.9772 63.7687 35.9477 63.7687 35.8352Z" fill="white"/>
<path d="M64.7732 36.0765C64.7732 35.1628 64.8027 34.9699 64.9232 34.9699C65.0036 34.9699 65.0733 35.061 65.0733 35.1708V35.3718L65.2743 35.1708C65.5851 34.86 66.2684 34.9002 66.5899 35.2325C66.8016 35.4549 66.8311 35.6049 66.8713 36.3391C66.9008 37.0626 66.882 37.1832 66.74 37.1832C66.6087 37.1832 66.5792 37.0626 66.5792 36.5106C66.5792 35.6773 66.4292 35.3343 66.0353 35.2941C65.3011 35.203 65.0706 35.5245 65.0706 36.591C65.0706 37.0546 65.0411 37.1832 64.9206 37.1832C64.8 37.1832 64.7705 36.9929 64.7705 36.0765H64.7732Z" fill="white"/>
<path d="M68.2301 37.0811C67.6164 36.84 67.4047 35.9959 67.8067 35.4118C68.3399 34.6374 69.5163 34.8892 69.6663 35.803L69.7279 36.1754H68.8035C67.8094 36.1754 67.6888 36.2558 68.1202 36.6578C68.3828 36.9096 69.0741 36.9605 69.2751 36.7596C69.3662 36.6685 69.4252 36.6685 69.5055 36.7489C69.5859 36.8292 69.535 36.8989 69.3153 37.0195C68.9723 37.191 68.5623 37.2205 68.2301 37.0811ZM69.3957 35.8351C69.3957 35.6234 69.0634 35.2831 68.8437 35.2617C68.4417 35.2322 68.2917 35.2724 68.0907 35.4734C67.6995 35.8646 67.8201 35.9772 68.6427 35.9772C69.2161 35.9772 69.3957 35.9477 69.3957 35.8351Z" fill="white"/>
<path d="M70.5024 36.0764C70.5024 35.4038 70.5426 34.9697 70.6043 34.9697C70.6659 34.9697 70.7061 35.0715 70.7061 35.1921V35.4145L70.9071 35.1921C71.1482 34.9402 71.6118 34.8893 71.6118 35.1225C71.6118 35.2136 71.5207 35.2725 71.3813 35.2725C70.9499 35.2725 70.8079 35.5646 70.8079 36.4087C70.8079 37.033 70.7784 37.183 70.6579 37.183C70.5373 37.183 70.5078 36.9928 70.5078 36.0764H70.5024Z" fill="white"/>
<path d="M72.2599 36.9282C71.9785 36.6576 71.9571 36.5558 72.1098 36.2744C72.2197 36.0628 72.7824 35.8725 73.2969 35.8725C73.6292 35.8725 73.6693 35.8109 73.5595 35.5215C73.4496 35.2508 73.0557 35.1597 72.6136 35.3098C72.2411 35.4411 72.1098 35.4304 72.1098 35.2696C72.1098 35.1383 72.6216 34.9668 73.0236 34.9668C73.3156 34.9668 73.4952 35.0365 73.6667 35.2187C73.8971 35.4411 73.9186 35.5402 73.9186 36.3253C73.9186 37.0194 73.8891 37.1801 73.7685 37.1801C73.6881 37.1801 73.6184 37.1105 73.6184 37.0194C73.6184 36.8773 73.597 36.8773 73.396 37.0194C73.053 37.2605 72.5412 37.2203 72.2599 36.9282ZM73.3558 36.7675C73.4979 36.6576 73.6184 36.4754 73.6184 36.3655C73.6184 36.2048 73.5488 36.1753 73.0664 36.1753C72.635 36.1753 72.5037 36.2155 72.4126 36.3655C72.142 36.8773 72.836 37.1801 73.3585 36.7675H73.3558Z" fill="white"/>
<path d="M75.1032 37.0704C74.9531 36.99 74.921 36.8185 74.921 36.1245C74.921 35.3394 74.8995 35.2697 74.72 35.2697C74.6101 35.2697 74.519 35.2 74.519 35.1196C74.519 35.0393 74.6101 34.9696 74.72 34.9696C74.8701 34.9696 74.921 34.8999 74.921 34.7177C74.921 34.5569 74.9826 34.4658 75.071 34.4658C75.1621 34.4658 75.2211 34.5569 75.2211 34.7177C75.2211 34.9294 75.272 34.9696 75.5239 34.9696C75.7249 34.9696 75.8267 35.0205 75.8267 35.1196C75.8267 35.2215 75.7249 35.2697 75.5239 35.2697H75.2211V36.0736C75.2211 36.8989 75.2613 36.9578 75.6632 36.8882C75.7141 36.8775 75.824 36.8989 75.9151 36.9284C76.0464 36.9793 76.0571 36.998 75.9258 37.0784C75.7249 37.2097 75.3122 37.199 75.1005 37.0677L75.1032 37.0704Z" fill="white"/>
<path d="M76.6304 36.0764C76.6304 35.1626 76.6599 34.9697 76.7804 34.9697C76.901 34.9697 76.9305 35.16 76.9305 36.0764C76.9305 36.9901 76.901 37.183 76.7804 37.183C76.6599 37.183 76.6304 36.9928 76.6304 36.0764Z" fill="white"/>
<path d="M78.2893 37.0703C77.9168 36.8478 77.7373 36.537 77.7373 36.0761C77.7373 35.4035 78.0481 35.0605 78.7234 34.9909C79.2164 34.9507 79.2674 34.9694 79.597 35.3017C80.0605 35.7653 80.0793 36.2771 79.6666 36.7701C79.4442 37.0327 79.3049 37.1131 78.9431 37.1426C78.6912 37.1721 78.3992 37.1319 78.2893 37.0729V37.0703ZM79.4362 36.6174C79.9694 35.9341 79.3451 35.0096 78.5412 35.2803C78.1794 35.4116 78.0374 35.642 78.0374 36.1136C78.0374 36.5852 78.3483 36.8773 78.852 36.8773C79.1441 36.8773 79.2754 36.8157 79.4362 36.6147V36.6174Z" fill="white"/>
<path d="M80.6501 36.0764C80.6501 35.1626 80.6796 34.9697 80.8002 34.9697C80.8806 34.9697 80.9503 35.0394 80.9503 35.1305C80.9503 35.2725 80.9717 35.2725 81.1727 35.1305C81.4353 34.9483 81.9765 34.9188 82.2793 35.0796C82.5821 35.2404 82.7616 35.7843 82.7616 36.5266C82.7616 37.0089 82.7322 37.1804 82.6196 37.1804C82.5178 37.1804 82.4696 36.9687 82.4374 36.3872C82.4079 35.9451 82.3356 35.5137 82.2552 35.4333C82.1239 35.2725 81.4915 35.2109 81.2906 35.3529C81.0601 35.503 80.9476 35.8861 80.9476 36.5185C80.9476 37.041 80.9181 37.183 80.7975 37.183C80.6769 37.183 80.6475 36.9928 80.6475 36.0764H80.6501Z" fill="white"/>
<path d="M84.9722 35.7223V34.2646H85.977C86.5799 34.2646 86.9818 34.3048 86.9818 34.3665C86.9818 34.4281 86.6308 34.4683 86.1271 34.4683H85.2723V35.0712V35.6741H86.0252C86.4567 35.6741 86.7782 35.7143 86.7782 35.7759C86.7782 35.8376 86.4567 35.8777 86.0252 35.8777H85.2723V36.5315C85.2723 37.0433 85.2428 37.1854 85.1222 37.1854C84.9909 37.1854 84.9722 36.9549 84.9722 35.7277V35.7223Z" fill="white"/>
<path d="M88.0159 37.0812C87.6729 36.9392 87.5845 36.6578 87.5845 35.7843C87.5845 35.1305 87.614 34.9697 87.7345 34.9697C87.8551 34.9697 87.8846 35.1198 87.8846 35.7334C87.8846 36.7088 87.9757 36.8802 88.4875 36.8802C89.0716 36.8802 89.2914 36.548 89.2914 35.6637C89.2914 35.1117 89.3208 34.9697 89.4414 34.9697C89.562 34.9697 89.5915 35.16 89.5915 36.0764C89.5915 36.9901 89.562 37.183 89.4414 37.183C89.361 37.183 89.2914 37.1134 89.2914 37.033C89.2914 36.891 89.2619 36.891 88.9886 37.033C88.667 37.2045 88.3455 37.2152 88.0132 37.0839L88.0159 37.0812Z" fill="white"/>
<path d="M90.4971 36.076C90.4971 35.1622 90.5265 34.9693 90.6471 34.9693C90.7275 34.9693 90.7972 35.0604 90.7972 35.1703V35.3712L90.9982 35.1703C91.301 34.8675 91.9923 34.8996 92.2951 35.2105C92.4853 35.4114 92.5362 35.6017 92.5764 36.3171C92.6381 37.1505 92.6274 37.1826 92.4157 37.1826C92.2147 37.1826 92.204 37.1317 92.204 36.3493C92.204 35.4034 92.1343 35.2748 91.6011 35.2748C90.9767 35.2748 90.8561 35.4463 90.8159 36.3707C90.7865 36.9843 90.7356 37.1853 90.6337 37.1853C90.5239 37.1853 90.4917 36.9549 90.4917 36.0787L90.4971 36.076Z" fill="white"/>
<path d="M93.8036 37.0302C93.2811 36.7489 93.1498 35.6824 93.5919 35.2403C93.8733 34.9697 94.6369 34.8893 94.9692 35.109L95.2211 35.2698V34.6669C95.2211 34.1953 95.2506 34.064 95.3711 34.064C95.5024 34.064 95.5212 34.3051 95.5212 35.6208C95.5212 36.9364 95.4998 37.1776 95.3711 37.1776C95.2908 37.1776 95.2211 37.1079 95.2211 37.0276C95.2211 36.8855 95.1916 36.8855 94.9183 37.0276C94.5566 37.2178 94.1439 37.2178 93.8036 37.0276V37.0302ZM94.9907 36.6578C95.2533 36.4166 95.3015 35.8325 95.0818 35.5511C94.7709 35.1278 93.9456 35.1492 93.7152 35.5726C93.5437 35.8834 93.5946 36.4273 93.817 36.6578C94.0984 36.9606 94.6825 36.9606 94.9933 36.6578H94.9907Z" fill="white"/>
<path d="M76.6304 34.2675C76.6304 34.1174 76.6813 34.0665 76.8126 34.0853C76.9037 34.1067 76.9841 34.1871 76.9841 34.2675C76.9841 34.3479 76.9037 34.4283 76.8126 34.4497C76.6813 34.4711 76.6304 34.4202 76.6304 34.2675Z" fill="white"/>
<path d="M52.3132 30.4896C50.8769 30.227 50.0516 29.817 49.1379 28.9006C48.5243 28.287 48.3849 28.0753 48.0929 27.333C47.8222 26.6283 47.7606 26.2987 47.7204 25.4225C47.6909 24.7982 47.7097 24.1363 47.782 23.804C48.2938 21.371 50.5152 19.7954 53.4493 19.7954C54.3845 19.7954 55.5394 20.0768 56.1932 20.4492C56.6568 20.7199 57.2489 21.3442 57.4901 21.797L57.6509 22.1079H57.0989C56.5871 22.1079 56.5255 22.0864 56.3942 21.8158C56.1932 21.4433 55.7403 21.0628 55.1482 20.7815C54.7355 20.5912 54.5158 20.5591 53.4198 20.551H52.1631L51.4396 20.9423C49.8426 21.797 48.9878 23.4557 49.1272 25.4252C49.2987 27.5662 50.5634 29.2034 52.4632 29.7071C53.0769 29.8786 54.3336 29.8893 55.0463 29.7366C55.66 29.6053 56.563 29.1739 57.0051 28.8014C57.3668 28.4986 57.5571 28.4692 57.75 28.6996C57.8706 28.8497 57.8411 28.9113 57.4874 29.2114C56.563 30.0153 55.2955 30.4467 53.7199 30.4976C53.0876 30.519 52.4525 30.519 52.3132 30.4869V30.4896Z" fill="white"/>
<path d="M58.7334 30.1275C58.854 29.8247 60.7324 25.3632 60.9039 24.972C60.9735 24.8113 61.1852 24.3289 61.3567 23.9163C61.5282 23.5036 61.7586 22.9811 61.8498 22.7614C61.9516 22.539 62.2517 21.8262 62.5223 21.1831L63.0154 19.9961H63.3985C63.8219 19.9961 63.6611 19.7335 64.9366 22.4693C65.1188 22.8605 65.5904 23.8868 65.9924 24.7309C66.3836 25.5856 66.8257 26.5289 66.9677 26.8316C67.1097 27.1344 67.5197 28.0375 67.9029 28.8413L68.5862 30.299L67.9217 30.3285C67.5599 30.3499 67.2169 30.3178 67.1767 30.2776C67.1258 30.2267 66.7936 29.5541 66.4318 28.7904L65.778 27.3836L63.1842 27.3542L60.5904 27.3327L59.958 28.8413L59.3149 30.3499H58.9826C58.6718 30.3499 58.6504 30.3285 58.7307 30.1275H58.7334ZM65.3761 26.5798C65.3761 26.5396 65.2555 26.2689 63.8192 23.1928C63.4361 22.3675 63.0958 21.7056 63.0663 21.7056C63.0046 21.7056 60.9548 26.4297 60.9548 26.5583C60.9548 26.5985 61.9489 26.628 63.1654 26.628C64.3819 26.628 65.3761 26.6066 65.3761 26.5771V26.5798Z" fill="white"/>
<path d="M70.8025 25.1625V19.9775L73.1444 20.0177C75.3765 20.0472 75.4971 20.0579 75.9472 20.2884C76.6922 20.6715 77.0941 21.0628 77.3942 21.6764C77.7774 22.4615 77.7961 23.6271 77.4344 24.3693C77.1236 25.0232 76.5287 25.5859 75.8374 25.9181C75.3336 26.1486 75.1541 26.1807 74.0689 26.1807C73.4043 26.1807 72.713 26.1513 72.5415 26.1111L72.2093 26.0414V28.1931V30.3528H71.5045H70.7998V25.1679L70.8025 25.1625ZM74.6021 25.484C75.1943 25.2724 75.6069 24.9401 75.9097 24.4176C76.1402 24.0264 76.1804 23.8549 76.1804 23.1609C76.1804 22.2766 76.0383 21.8934 75.4971 21.3227C75.0255 20.8296 74.2913 20.5992 73.1659 20.5992H72.2119V23.0108V25.4117L72.5442 25.5135C73.048 25.6555 74.1519 25.6448 74.6048 25.484H74.6021Z" fill="white"/>
<path d="M80.5508 25.1733V19.999H81.2046H81.8585V25.1733V30.3475H81.2046H80.5508V25.1733Z" fill="white"/>
<path d="M88.4878 25.5752V20.8029H86.5291H84.5703V20.401V19.999H89.1926H93.8148V20.401V20.8029H91.8561H89.8973V25.5752V30.3475H89.1926H88.4878V25.5752Z" fill="white"/>
<path d="M92.8391 30.2777C92.9008 30.1571 93.15 29.6051 93.5117 28.7396C93.6939 28.327 93.9029 27.8152 93.994 27.5928C94.0959 27.3811 94.8488 25.5938 95.6715 23.6243L97.1801 20.0471L97.6034 20.0176C97.9545 19.9882 98.0268 20.0176 98.0858 20.2079C98.126 20.3285 98.4073 20.9528 98.7101 21.5959C99.0129 22.239 99.3934 23.0321 99.5434 23.3644C99.6935 23.6967 100.146 24.6613 100.538 25.5161C100.94 26.3602 101.411 27.3864 101.593 27.7777C101.784 28.1689 102.116 28.8924 102.346 29.3747C102.569 29.8677 102.759 30.2804 102.759 30.3099C102.759 30.3313 102.437 30.35 102.046 30.35H101.341L101.009 29.6266C100.819 29.2246 100.505 28.5413 100.315 28.118L99.9534 27.3329H97.381H94.8086L94.6077 27.8152C94.4978 28.0778 94.3665 28.3779 94.3156 28.4878C94.254 28.5976 94.0637 29.0505 93.8842 29.4926C93.5519 30.2777 93.5332 30.2965 93.1714 30.3259C92.9597 30.3474 92.8097 30.3259 92.8391 30.275V30.2777ZM99.2808 25.9261C99.0906 25.5349 98.9379 25.2026 98.9379 25.1731C98.9379 25.1517 98.6565 24.53 98.3055 23.7958C97.9545 23.0616 97.582 22.2578 97.4721 22.0166L97.2604 21.5852L96.888 22.4694C96.6763 22.9625 96.4244 23.5439 96.3253 23.7664C96.0734 24.3398 95.3312 26.0976 95.2186 26.3896L95.1168 26.6308H97.3676H99.6185L99.2755 25.9261H99.2808Z" fill="white"/>
<path d="M105.068 25.1733V19.999H105.722H106.376V24.7713V29.5436H109.039H111.703V29.9456V30.3475H108.386H105.068V25.1733Z" fill="white"/>
<path d="M58.8464 11.6979C57.0484 9.89992 55.1887 8.06978 54.7064 7.61693L53.8222 6.81306V10.7922V14.7714H53.4711H53.1201V9.49531C53.1201 6.59066 53.1496 4.21924 53.1817 4.21924C53.2219 4.21924 55.1218 6.05742 57.4021 8.30022L61.5634 12.3812V8.40205V4.42289H61.9145H62.2655V9.69895C62.2655 12.6036 62.236 14.975 62.1958 14.975C62.1449 14.975 60.647 13.4986 58.849 11.6979H58.8464Z" fill="white"/>
<path d="M69.3149 14.8732C67.6268 14.632 66.07 13.5762 65.376 12.1802C64.8025 11.0333 64.6016 9.22463 64.9231 7.98934C65.4054 6.15116 66.973 4.74438 68.9719 4.36121C71.4452 3.8896 73.5138 4.52198 74.4784 6.04933C74.6097 6.2503 74.7196 6.45127 74.7196 6.48075C74.7196 6.51022 74.4784 6.53166 74.1756 6.53166C73.7121 6.53166 73.6129 6.50218 73.562 6.33069C73.4602 6.00914 72.6269 5.34461 72.0534 5.1356C69.3899 4.14148 66.6782 5.78942 66.2656 8.67263C65.8931 11.245 67.332 13.5762 69.6311 14.1202C71.2201 14.5034 72.9163 14.1416 74.0926 13.185L74.5347 12.834L74.7464 13.0564L74.9688 13.2788L74.5669 13.6298C74.0738 14.0612 73.1494 14.5248 72.3669 14.7258C71.6033 14.916 70.1268 14.9884 69.3122 14.8758L69.3149 14.8732Z" fill="white"/>
<path d="M88.619 14.862C87.4319 14.6905 86.4378 14.0768 85.9367 13.214C85.4544 12.4102 85.374 11.5848 85.374 7.8281V4.42236H86.0788H86.7728L86.8022 8.37204C86.8317 12.7344 86.8317 12.6942 87.5257 13.3775C88.1099 13.9509 88.6404 14.2028 89.4443 14.251C90.9931 14.3528 92.1185 13.7874 92.7508 12.6138C92.9518 12.2226 92.9625 12.0806 92.992 8.32381L93.0215 4.42505H93.3725H93.7235L93.694 8.32381L93.6646 12.2119L93.3323 12.8844C92.5391 14.5217 90.9314 15.1969 88.619 14.8646V14.862Z" fill="white"/>
<path d="M98.3458 14.8619C97.6116 14.7414 96.6282 14.2483 96.186 13.7955C95.8752 13.4632 95.4224 12.5602 95.4224 12.2467C95.4224 12.1851 95.6448 12.1556 95.9449 12.177L96.4674 12.2065L96.5478 12.6084C96.738 13.5624 97.6223 14.1572 98.9701 14.2376C100.366 14.3287 101.484 13.9455 101.733 13.2837C102.336 11.7349 101.47 10.6898 98.8897 9.84578C97.1802 9.28307 96.2557 8.57835 95.9744 7.60567C95.8323 7.13406 95.8243 6.93309 95.9234 6.499C96.2155 5.11098 97.2204 4.35803 98.9085 4.23744C100.586 4.12758 102.073 4.78943 102.566 5.87466C102.847 6.47756 102.818 6.52848 102.263 6.52848C101.81 6.52848 101.77 6.50704 101.719 6.2364C101.628 5.82375 101.175 5.3307 100.653 5.08954C99.9696 4.78675 98.6539 4.79747 98.0001 5.11098C97.2954 5.45397 96.9846 5.91486 96.9846 6.60887C96.9846 7.13138 97.006 7.18229 97.4267 7.56279C97.9197 7.9942 98.6727 8.37738 99.7874 8.74984C101.596 9.35274 102.703 10.1566 103.014 11.0704C103.215 11.684 103.164 12.6379 102.912 13.1818C102.279 14.5082 100.398 15.2022 98.3404 14.8593L98.3458 14.8619Z" fill="white"/>
<path d="M115.479 14.873C113.981 14.6318 112.333 13.4046 111.631 12.0085C111.259 11.2743 111.068 10.441 111.068 9.54599C111.068 7.52559 112.154 5.72761 113.933 4.83263C114.967 4.32083 115.672 4.17881 117.028 4.24848C118.295 4.31011 119.027 4.55127 120.013 5.22384C120.878 5.80799 121.562 6.65206 121.963 7.62474C122.226 8.24908 122.296 8.57063 122.336 9.34234C122.376 10.1864 122.347 10.3874 122.113 11.0814C121.339 13.3724 119.471 14.7685 116.979 14.9105C116.476 14.94 115.814 14.9212 115.482 14.8703L115.479 14.873ZM118.333 13.8976C119.579 13.3054 120.342 12.3703 120.734 10.9528C120.985 10.0685 120.996 9.23516 120.795 8.3509C120.452 6.93341 119.619 5.86962 118.333 5.24528C117.639 4.91302 117.507 4.88354 116.674 4.88354C115.498 4.88354 114.825 5.13542 114.021 5.88838C112.081 7.67833 111.971 11.1939 113.791 13.0535C114.696 13.978 115.479 14.2808 116.827 14.2406C117.539 14.2192 117.791 14.1602 118.335 13.8976H118.333Z" fill="white"/>
<path d="M133.143 14.2006C132.711 13.7772 130.852 11.9497 129.021 10.1303C127.183 8.32158 125.664 6.83442 125.624 6.83442C125.594 6.83442 125.562 8.62437 125.562 10.8029V14.7713H125.259H124.957V9.47648V4.18164L126.345 5.53751C127.098 6.29047 128.968 8.12061 130.484 9.61849L133.247 12.3409L133.277 8.38053L133.298 4.42012H133.649H134V9.6962C134 12.6009 133.979 14.9723 133.971 14.9723C133.949 14.9723 133.579 14.6213 133.137 14.1979L133.143 14.2006Z" fill="white"/>
<path d="M47.6914 9.59661V4.42236H48.3452H48.999V9.59661V14.7708H48.3452H47.6914V9.59661Z" fill="white"/>
<path d="M77.0317 9.59661V4.42236H77.7365H78.4412V9.19467V13.967H81.1047H83.7682V14.3689V14.7708H80.4026H77.0371V9.59661H77.0317Z" fill="white"/>
<path d="M106.575 9.59661V4.42236H107.229H107.882V9.59661V14.7708H107.229H106.575V9.59661Z" fill="white"/>
</svg>
