<svg width="91" height="44" viewBox="0 0 91 44" fill="none" xmlns="http://www.w3.org/2000/svg">
<path d="M54.5784 29.6999C53.0298 30.6197 50.5521 31.141 48.7868 30.5277C47.486 30.0985 46.3091 28.9946 45.9993 27.7068C45.8445 26.9709 45.8755 25.8364 46.4949 25.1619C47.0524 24.4567 47.8267 24.242 48.508 24.2727C49.0036 24.334 49.654 24.5793 49.9946 25.2845C50.2734 25.7751 50.3044 26.3884 50.1185 26.9403C49.9946 27.2162 49.7159 27.5842 49.1894 27.7375C48.9726 27.7988 48.3222 28.1054 48.1673 28.4121C48.0435 28.5654 47.9196 28.9027 48.1054 29.3013C48.2603 29.8225 48.6939 30.2211 49.4372 30.4358C50.1185 30.5891 51.3574 30.5584 52.0388 30.0065C53.2466 28.9946 53.1227 27.3082 53.1227 26.2351V12.8357H50.8309V12.6211H58.9144V12.8357H56.6225V24.6713C56.6225 26.235 56.8393 28.3201 54.5784 29.6999Z" fill="white"/>
<path d="M60.1221 30.2211H62.4139V12.8357H60.1221V12.6211H66.688C68.6701 12.6211 72.015 12.5904 73.3778 15.3194C73.8424 16.2086 73.9972 18.1709 73.161 19.3054C72.2938 20.4399 70.7762 20.8079 69.7851 20.9305C71.6124 21.1452 73.6875 21.8197 74.6476 23.9354C75.1431 24.9473 75.2051 26.9403 74.3689 28.1668C72.8203 30.4358 69.0728 30.4358 67.772 30.4358H60.1221V30.2211ZM68.4224 20.6852C69.1967 20.6239 69.7851 20.256 70.1258 19.4281C70.5594 18.3243 70.4975 15.35 69.7232 14.0929C68.856 12.6518 66.5951 12.8357 65.9447 12.8357V20.7159C67.772 20.7159 68.1127 20.7159 68.4224 20.6852ZM66.5951 30.2211C67.4313 30.2211 70.0329 30.3744 70.9311 28.8413C71.6434 27.6148 71.4266 23.8434 70.5594 22.5249C69.5373 20.8385 68.3914 20.9918 65.9447 20.9918V30.2211H66.5951Z" fill="white"/>
<path d="M89.0484 30.221H90.7828C90.7828 30.4663 90.7828 30.4357 90.7828 30.4357H82.8851V30.221H85.2699L82.8851 24.0273H78.1156L75.9785 30.221H78.3943V30.4357H74.0273V30.221H75.6688L82.0179 11.8545L89.0484 30.221ZM82.7922 23.782L80.3765 17.4656L78.2085 23.782H82.7922Z" fill="white"/>
<path d="M19.2332 0L0 11.0077L19.2332 21.9847L38.4973 11.0077L19.2332 0Z" fill="#F0EFEE"/>
<path d="M19.2336 21.9848V44.0001L38.4978 32.9925V11.0078L19.2336 21.9848Z" fill="#919493"/>
<path d="M0 11.0078V32.9925L19.2332 44.0001V21.9848L0 11.0078Z" fill="#BABCBD"/>
<path d="M9.50781 16.4346V27.5649L19.2328 33.1147V21.9844L9.50781 16.4346Z" fill="#C42327"/>
<path d="M19.2336 21.9844V33.1147L28.9896 27.5649V16.4346L19.2336 21.9844Z" fill="#961A25"/>
<path d="M19.2328 10.8848L9.50781 16.4346L19.2328 21.9844L28.9888 16.4346L19.2328 10.8848Z" fill="#EA2028"/>
</svg>
