<svg width="119" height="36" viewBox="0 0 119 36" fill="none" xmlns="http://www.w3.org/2000/svg">
<path fill-rule="evenodd" clip-rule="evenodd" d="M31.3086 30.5679H15.658L7.95557 23.0135L15.743 15.3877L31.3086 30.5679Z" fill="white"/>
<path fill-rule="evenodd" clip-rule="evenodd" d="M31.2766 0.172363L15.7429 15.3879L7.93848 7.77459L15.7429 0.172363H31.2766Z" fill="white"/>
<path fill-rule="evenodd" clip-rule="evenodd" d="M7.93961 7.7749L15.744 15.3875L7.95661 23.0133L0.212402 15.4194V15.3044L7.93961 7.7749Z" fill="white"/>
<path fill-rule="evenodd" clip-rule="evenodd" d="M7.95683 23.0134L0.211914 30.5997V15.4194L7.95683 23.0134Z" fill="white"/>
<path fill-rule="evenodd" clip-rule="evenodd" d="M7.93867 7.77501L0.211466 15.3046V15.4195L0.176758 15.3862V0.205322L7.93867 7.77501Z" fill="white"/>
<mask id="mask0" mask-type="alpha" maskUnits="userSpaceOnUse" x="60" y="11" width="19" height="25">
<path d="M60.8345 11.6277H78.4961V35.7341H60.8345V11.6277Z" fill="white"/>
</mask>
<g mask="url(#mask0)">
<path fill-rule="evenodd" clip-rule="evenodd" d="M74.2326 21.7465C73.5859 23.309 72.4058 26.0616 71.7966 27.4012C71.4163 28.2569 70.9594 29.2241 70.4643 30.266C69.7028 31.9026 69.1701 33.056 67.8385 35.7345H61.824C62.8136 34.7667 63.1564 34.3208 63.7656 33.5018C64.7168 32.1629 65.4025 30.9721 67.0388 27.6615L60.8345 11.6277H67.0005L70.0839 20.3328H70.1597L73.4711 11.6277H78.4961L74.2326 21.7465Z" fill="white"/>
</g>
<path fill-rule="evenodd" clip-rule="evenodd" d="M80.8921 27.9222H86.677V1.28564H80.8921V27.9222Z" fill="white"/>
<path fill-rule="evenodd" clip-rule="evenodd" d="M91.4722 27.922H97.2571V10.489H91.4722V27.922Z" fill="white"/>
<path fill-rule="evenodd" clip-rule="evenodd" d="M112.825 27.922V19.2169C112.825 17.4315 111.911 16.3148 110.389 16.3148C108.866 16.3148 107.953 17.4315 107.953 19.2169V27.922H102.167V10.9355H107.686V14.0461C109.513 12.0737 111.188 11.1813 113.129 11.1813C116.441 11.1813 118.61 13.5622 118.61 17.0964V27.922H112.825Z" fill="white"/>
<path fill-rule="evenodd" clip-rule="evenodd" d="M97.5951 4.38567C97.5951 6.14829 96.1338 7.57652 94.3304 7.57652C92.5269 7.57652 91.0649 6.14829 91.0649 4.38567C91.0649 2.62375 92.5269 1.19482 94.3304 1.19482C96.1338 1.19482 97.5951 2.62375 97.5951 4.38567Z" fill="white"/>
<path fill-rule="evenodd" clip-rule="evenodd" d="M37.6191 1.73242H44.0133V13.8488L52.958 1.73242H60.5322L50.712 14.4923L61.4843 27.9219L53.529 27.9221L44.0133 15.9387V27.9221L37.6191 27.9219V1.73242Z" fill="white"/>
</svg>
