<svg width="119" height="36" viewBox="0 0 119 36" fill="none" xmlns="http://www.w3.org/2000/svg">
<path fill-rule="evenodd" clip-rule="evenodd" d="M31.3086 30.5682H15.658L7.95557 23.0137L15.743 15.3879L31.3086 30.5682Z" fill="black"/>
<path fill-rule="evenodd" clip-rule="evenodd" d="M31.2764 0.172607L15.7426 15.3881L7.93823 7.77484L15.7426 0.172607H31.2764Z" fill="black"/>
<path fill-rule="evenodd" clip-rule="evenodd" d="M7.93937 7.77515L15.7438 15.3878L7.95637 23.0135L0.212158 15.4196V15.3047L7.93937 7.77515Z" fill="black"/>
<path fill-rule="evenodd" clip-rule="evenodd" d="M7.95659 23.0136L0.21167 30.5999V15.4197L7.95659 23.0136Z" fill="black"/>
<path fill-rule="evenodd" clip-rule="evenodd" d="M7.93843 7.77526L0.211222 15.3048V15.4197L0.176514 15.3865V0.205566L7.93843 7.77526Z" fill="black"/>
<mask id="mask0" mask-type="alpha" maskUnits="userSpaceOnUse" x="60" y="11" width="19" height="25">
<path d="M60.8342 11.6279H78.4958V35.7344H60.8342V11.6279Z" fill="white"/>
</mask>
<g mask="url(#mask0)">
<path fill-rule="evenodd" clip-rule="evenodd" d="M74.2324 21.7467C73.5857 23.3092 72.4056 26.0619 71.7964 27.4015C71.416 28.2572 70.9591 29.2243 70.464 30.2662C69.7026 31.9029 69.1699 33.0562 67.8382 35.7348H61.8238C62.8133 34.7669 63.1561 34.3211 63.7653 33.5021C64.7166 32.1632 65.4023 30.9724 67.0385 27.6618L60.8342 11.6279H67.0003L70.0836 20.333H70.1594L73.4709 11.6279H78.4958L74.2324 21.7467Z" fill="black"/>
</g>
<path fill-rule="evenodd" clip-rule="evenodd" d="M80.8916 27.9224H86.6766V1.28589H80.8916V27.9224Z" fill="black"/>
<path fill-rule="evenodd" clip-rule="evenodd" d="M91.4719 27.9223H97.2569V10.4893H91.4719V27.9223Z" fill="black"/>
<path fill-rule="evenodd" clip-rule="evenodd" d="M112.824 27.9223V19.2172C112.824 17.4317 111.911 16.315 110.388 16.315C108.865 16.315 107.952 17.4317 107.952 19.2172V27.9223H102.167V10.9358H107.686V14.0463C109.513 12.0739 111.187 11.1816 113.129 11.1816C116.44 11.1816 118.61 13.5624 118.61 17.0966V27.9223H112.824Z" fill="black"/>
<path fill-rule="evenodd" clip-rule="evenodd" d="M97.5948 4.38591C97.5948 6.14853 96.1335 7.57676 94.3301 7.57676C92.5267 7.57676 91.0647 6.14853 91.0647 4.38591C91.0647 2.62399 92.5267 1.19507 94.3301 1.19507C96.1335 1.19507 97.5948 2.62399 97.5948 4.38591Z" fill="black"/>
<path fill-rule="evenodd" clip-rule="evenodd" d="M37.6191 1.73267H44.0133V13.8491L52.958 1.73267H60.5322L50.712 14.4926L61.4843 27.9221L53.529 27.9224L44.0133 15.939V27.9224L37.6191 27.9221V1.73267Z" fill="black"/>
</svg>
