<svg width="44" height="44" viewBox="0 0 44 44" fill="none" xmlns="http://www.w3.org/2000/svg">
<path d="M22 43.999C34.1503 43.999 44 34.1493 44 21.999C44 9.84876 34.1503 -0.000976562 22 -0.000976562C9.84974 -0.000976562 0 9.84876 0 21.999C0 34.1493 9.84974 43.999 22 43.999Z" fill="#007AB9"/>
<path d="M35.1447 23.7698V32.84H29.8861V24.3777C29.8861 22.2529 29.1269 20.8019 27.2229 20.8019C25.7699 20.8019 24.9067 21.7788 24.5255 22.7247C24.3871 23.0627 24.3514 23.5322 24.3514 24.0063V32.8396H19.0924C19.0924 32.8396 19.163 18.5073 19.0924 17.0237H24.3518V19.265C24.3412 19.2826 24.3263 19.2999 24.3169 19.3167H24.3518V19.265C25.0507 18.1896 26.297 16.6523 29.0912 16.6523C32.5509 16.6523 35.1447 18.9128 35.1447 23.7698ZM13.591 9.3999C11.7921 9.3999 10.6152 10.5807 10.6152 12.1322C10.6152 13.6506 11.758 14.8656 13.522 14.8656H13.5561C15.3903 14.8656 16.5307 13.6506 16.5307 12.1322C16.4958 10.5807 15.3903 9.3999 13.591 9.3999ZM10.9278 32.84H16.1848V17.0237H10.9278V32.84Z" fill="#F1F2F2"/>
</svg>
