<svg width="60" height="60" viewBox="0 0 60 60" fill="none" xmlns="http://www.w3.org/2000/svg">
<rect width="60" height="60" rx="10" fill="#615793"/>
<path d="M45.2722 33.0986L43.6379 19.6193C43.5576 18.9643 43.2208 18.3678 42.7014 17.9608C42.1819 17.5538 41.5222 17.3695 40.867 17.4483L20.1996 19.9544C19.5751 20.0312 19.0027 20.3413 18.5972 20.8226C18.1918 21.3038 17.9833 21.9205 18.0137 22.549C17.6379 22.7681 17.3261 23.0818 17.1092 23.4589C16.8924 23.836 16.7782 24.2633 16.7778 24.6983V38.2759C16.7786 38.9358 17.0411 39.5686 17.5077 40.0352C17.9744 40.5019 18.6071 40.7644 19.2671 40.7651H27.8116C27.824 40.8623 27.8572 40.9556 27.909 41.0387C27.9609 41.1218 28.0301 41.1928 28.1119 41.2466L29.5012 42.1604L30.0877 43.7161C30.1385 43.8501 30.2303 43.9647 30.3501 44.0434C30.4698 44.1222 30.6113 44.1611 30.7545 44.1547L32.4153 44.0776L33.8041 44.9911C33.9238 45.0699 34.0655 45.1088 34.2087 45.1021C34.3519 45.0955 34.4893 45.0437 34.6012 44.9541L35.8996 43.9157L37.5604 43.8386C37.7036 43.8319 37.841 43.7801 37.953 43.6905C38.0649 43.601 38.1456 43.4783 38.1836 43.34L38.6234 41.7366L39.8378 40.7651H40.086C40.746 40.7644 41.3787 40.5019 41.8454 40.0352C42.312 39.5686 42.5745 38.9358 42.5752 38.2759V35.9332L43.1014 35.8694C43.7567 35.7898 44.3535 35.4532 44.7607 34.9336C45.1678 34.414 45.3519 33.7539 45.2724 33.0986H45.2722ZM18.1356 27.1875H41.2175V29.4504H18.1356V27.1875ZM41.2175 25.8298H18.1356V24.6983C18.1359 24.3983 18.2553 24.1107 18.4674 23.8986C18.6795 23.6865 18.9671 23.5672 19.2671 23.5668H40.086C40.386 23.5672 40.6736 23.6865 40.8857 23.8986C41.0978 24.1107 41.2171 24.3983 41.2175 24.6983V25.8298ZM37.603 40.8142C37.4911 40.9038 37.4104 41.0264 37.3724 41.1647L37.0047 42.5051L35.6162 42.5696C35.473 42.5763 35.3356 42.6281 35.2237 42.7177L34.1382 43.586L32.977 42.8222C32.8662 42.7493 32.7365 42.7105 32.6039 42.7105C32.5935 42.7105 32.5829 42.7105 32.5724 42.7112L31.1839 42.7757L30.6936 41.4751C30.6429 41.341 30.5512 41.2263 30.4314 41.1475L29.2702 40.3837L29.6379 39.0433C29.6758 38.905 29.669 38.7583 29.6184 38.6242L29.1278 37.3232L30.2132 36.455C30.3252 36.3653 30.4059 36.2425 30.4438 36.1042L30.8115 34.7637L32.2 34.6993C32.3432 34.6926 32.4806 34.6408 32.5926 34.5513L33.678 33.6829L34.8392 34.4467C34.9589 34.5255 35.1006 34.5643 35.2438 34.5577L36.6323 34.4932L37.1227 35.7938C37.1733 35.9279 37.265 36.0426 37.3848 36.1214L38.546 36.8851L38.1783 38.2256C38.1404 38.3638 38.1472 38.5105 38.1977 38.6447L38.6882 39.9453L37.603 40.8142ZM40.086 39.4073H39.9364L39.5461 38.3726L39.9859 36.7692C40.0239 36.631 40.0171 36.4842 39.9665 36.3501C39.9159 36.2159 39.8242 36.1012 39.7044 36.0224L38.3154 35.1087L37.7288 33.5529C37.678 33.4189 37.5862 33.3043 37.4665 33.2255C37.3468 33.1467 37.2052 33.1078 37.062 33.1142L35.4012 33.1914L34.0122 32.2776C33.8924 32.1988 33.7508 32.16 33.6076 32.1666C33.4644 32.1733 33.3269 32.2251 33.215 32.3146L31.9168 33.3534L30.256 33.4305C30.1128 33.4372 29.9753 33.489 29.8634 33.5786C29.7514 33.6682 29.6707 33.7909 29.6328 33.9291L29.193 35.5325L27.8945 36.5711C27.7826 36.6606 27.7019 36.7833 27.6639 36.9215C27.626 37.0597 27.6328 37.2064 27.6833 37.3405L28.27 38.8963L28.13 39.4073H19.2671C18.9671 39.407 18.6795 39.2877 18.4674 39.0756C18.2553 38.8634 18.1359 38.5759 18.1356 38.2759V30.8082H41.2175V38.2759C41.2171 38.5759 41.0978 38.8634 40.8857 39.0756C40.6736 39.2877 40.386 39.407 40.086 39.4073ZM43.6918 34.0961C43.4387 34.4528 42.9839 34.5373 42.5752 34.5656V24.6983C42.5745 24.0383 42.312 23.4056 41.8454 22.939C41.3787 22.4723 40.746 22.2098 40.086 22.2091H19.3893C19.4353 21.9746 19.5543 21.7606 19.7292 21.5978C19.9041 21.4349 20.126 21.3315 20.3632 21.3024L41.0308 18.7961C41.3286 18.7603 41.6284 18.8441 41.8645 19.0291C42.1006 19.2141 42.2537 19.4852 42.2902 19.7829L43.9246 33.2622C43.9429 33.4097 43.9317 33.5593 43.8917 33.7025C43.8518 33.8456 43.7838 33.9794 43.6918 34.0961Z" fill="white" stroke="white" stroke-width="0.5"/>
<path d="M21.0776 33.071H19.2673C19.0872 33.071 18.9145 33.1426 18.7872 33.2699C18.6599 33.3972 18.5884 33.5699 18.5884 33.7499C18.5884 33.93 18.6599 34.1027 18.7872 34.23C18.9145 34.3573 19.0872 34.4288 19.2673 34.4288H21.0776C21.2577 34.4288 21.4303 34.3573 21.5576 34.23C21.685 34.1027 21.7565 33.93 21.7565 33.7499C21.7565 33.5699 21.685 33.3972 21.5576 33.2699C21.4303 33.1426 21.2577 33.071 21.0776 33.071Z" fill="white" stroke="white" stroke-width="0.5"/>
<path d="M27.4138 33.071H23.7931C23.6131 33.071 23.4404 33.1426 23.3131 33.2699C23.1858 33.3972 23.1143 33.5699 23.1143 33.7499C23.1143 33.93 23.1858 34.1027 23.3131 34.23C23.4404 34.3573 23.6131 34.4288 23.7931 34.4288H27.4138C27.5939 34.4288 27.7666 34.3573 27.8939 34.23C28.0212 34.1027 28.0927 33.93 28.0927 33.7499C28.0927 33.5699 28.0212 33.3972 27.8939 33.2699C27.7666 33.1426 27.5939 33.071 27.4138 33.071Z" fill="white" stroke="white" stroke-width="0.5"/>
<path d="M35.2383 36.3441L31.6176 39.9648C30.9856 40.5788 31.9641 41.5568 32.5777 40.9249L36.1984 37.3042C36.3257 37.1769 36.3973 37.0042 36.3973 36.8242C36.3973 36.6441 36.3257 36.4714 36.1984 36.3441C36.0711 36.2168 35.8984 36.1453 35.7184 36.1453C35.5383 36.1453 35.3656 36.2168 35.2383 36.3441Z" fill="white" stroke="white" stroke-width="0.5"/>
<path d="M35.4924 40.8976C35.8673 40.8976 36.1712 40.5936 36.1712 40.2187C36.1712 39.8437 35.8673 39.5398 35.4924 39.5398C35.1174 39.5398 34.8135 39.8437 34.8135 40.2187C34.8135 40.5936 35.1174 40.8976 35.4924 40.8976Z" fill="white" stroke="white" stroke-width="0.5"/>
<path d="M32.3244 37.7293C32.6993 37.7293 33.0033 37.4254 33.0033 37.0505C33.0033 36.6755 32.6993 36.3716 32.3244 36.3716C31.9495 36.3716 31.6455 36.6755 31.6455 37.0505C31.6455 37.4254 31.9495 37.7293 32.3244 37.7293Z" fill="white" stroke="white" stroke-width="0.5"/>
</svg>
