<svg width="32" height="32" viewBox="0 0 32 32" fill="none" xmlns="http://www.w3.org/2000/svg">
<path d="M5.96875 23.9456H4.09375V30.1249H2.21875V31.9999H7.84375V30.1249H5.96875V23.9456Z" fill="white"/>
<path d="M4.09375 5.46375V7.35669H5.96875V5.46375C7.05994 5.07675 7.84375 4.03469 7.84375 2.8125C7.84375 1.26169 6.58206 0 5.03125 0C3.48044 0 2.21875 1.26169 2.21875 2.8125C2.21875 4.03469 3.00256 5.07675 4.09375 5.46375Z" fill="white"/>
<path d="M27.9062 23.9456H26.0312V30.1249H24.1562V31.9999H29.7812V30.1249H27.9062V23.9456Z" fill="white"/>
<path d="M26.0312 5.46375V7.35669H27.9062V5.46375C28.9974 5.07675 29.7812 4.03469 29.7812 2.8125C29.7812 1.26169 28.5196 0 26.9688 0C25.4179 0 24.1562 1.26169 24.1562 2.8125C24.1562 4.03469 24.9401 5.07675 26.0312 5.46375Z" fill="white"/>
<path d="M17.6336 9.23169L4.79456 22.0706H12.8304L25.6694 9.23169H17.6336Z" fill="white"/>
<path d="M28.3211 9.23169L15.4821 22.0706H21.8325L32 11.9031V9.23169H28.3211Z" fill="white"/>
<path d="M9.9175 9.23169L0 19.1492V22.0706H2.14294L14.9819 9.23169H9.9175Z" fill="white"/>
<path d="M0 9.23169V16.4976L7.26587 9.23169H0Z" fill="white"/>
<path d="M32 22.0706V14.5547L24.4841 22.0706H32Z" fill="white"/>
</svg>
