<svg width="46" height="45" viewBox="0 0 46 45" fill="none" xmlns="http://www.w3.org/2000/svg">
<rect x="0.5" width="45" height="45" rx="7" fill="#332C69"/>
<path d="M34.4543 24.8239L33.2285 14.7144C33.1683 14.2231 32.9158 13.7758 32.5262 13.4705C32.1366 13.1653 31.6418 13.027 31.1504 13.0861L15.6498 14.9658C15.1814 15.0234 14.7521 15.2559 14.448 15.6169C14.144 15.9778 13.9876 16.4403 14.0104 16.9117C13.7285 17.076 13.4947 17.3113 13.3321 17.5941C13.1694 17.8769 13.0837 18.1974 13.0835 18.5237V28.7068C13.084 29.2018 13.2809 29.6764 13.6309 30.0263C13.9809 30.3763 14.4554 30.5732 14.9504 30.5738H21.3588C21.3681 30.6466 21.393 30.7167 21.4319 30.779C21.4708 30.8413 21.5227 30.8945 21.584 30.9349L22.626 31.6202L23.0659 32.787C23.104 32.8875 23.1729 32.9734 23.2627 33.0325C23.3525 33.0916 23.4586 33.1208 23.566 33.116L24.8116 33.0581L25.8532 33.7433C25.943 33.8024 26.0492 33.8315 26.1566 33.8265C26.264 33.8215 26.3671 33.7827 26.4511 33.7155L27.4248 32.9367L28.6704 32.8789C28.7778 32.8739 28.8809 32.835 28.9648 32.7678C29.0488 32.7007 29.1094 32.6087 29.1378 32.505L29.4677 31.3024L30.3785 30.5738H30.5646C31.0596 30.5732 31.5341 30.3763 31.8841 30.0263C32.2341 29.6764 32.431 29.2018 32.4316 28.7068V26.9499L32.8262 26.902C33.3176 26.8423 33.7653 26.5898 34.0706 26.2001C34.376 25.8104 34.514 25.3154 34.4544 24.8239H34.4543ZM14.1018 20.3906H31.4132V22.0878H14.1018V20.3906ZM31.4132 19.3723H14.1018V18.5237C14.1021 18.2987 14.1916 18.083 14.3506 17.9239C14.5097 17.7648 14.7254 17.6753 14.9504 17.6751H30.5646C30.7896 17.6753 31.0053 17.7648 31.1644 17.9239C31.3235 18.083 31.413 18.2987 31.4132 18.5237V19.3723ZM28.7024 30.6106C28.6184 30.6778 28.5579 30.7698 28.5294 30.8734L28.2536 31.8788L27.2123 31.9272C27.1049 31.9321 27.0018 31.971 26.9179 32.0382L26.1038 32.6894L25.2329 32.1166C25.1498 32.0619 25.0525 32.0328 24.9531 32.0328C24.9452 32.0328 24.9373 32.0328 24.9294 32.0334L23.8881 32.0817L23.5203 31.1063C23.4823 31.0057 23.4135 30.9197 23.3237 30.8605L22.4528 30.2877L22.7285 29.2824C22.757 29.1787 22.7519 29.0687 22.714 28.9681L22.346 27.9924L23.16 27.3412C23.244 27.2739 23.3046 27.1818 23.333 27.0781L23.6088 26.0728L24.6501 26.0244C24.7575 26.0194 24.8606 25.9805 24.9446 25.9134L25.7586 25.2621L26.6295 25.8349C26.7193 25.894 26.8256 25.9232 26.933 25.9182L27.9743 25.8698L28.3422 26.8453C28.3801 26.9459 28.4489 27.0319 28.5387 27.091L29.4097 27.6638L29.1339 28.6691C29.1054 28.7728 29.1105 28.8828 29.1484 28.9834L29.5162 29.9589L28.7024 30.6106ZM30.5646 29.5554H30.4525L30.1597 28.7794L30.4896 27.5769C30.518 27.4732 30.5129 27.3631 30.475 27.2625C30.437 27.1619 30.3682 27.0759 30.2784 27.0168L29.2367 26.3314L28.7967 25.1646C28.7586 25.0641 28.6898 24.9781 28.6 24.9191C28.5102 24.86 28.404 24.8308 28.2966 24.8356L27.051 24.8935L26.0093 24.2082C25.9194 24.1491 25.8132 24.1199 25.7058 24.1249C25.5984 24.1299 25.4953 24.1687 25.4114 24.2359L24.4378 25.015L23.1921 25.0728C23.0847 25.0778 22.9816 25.1167 22.8977 25.1839C22.8137 25.2511 22.7532 25.3431 22.7247 25.4468L22.3948 26.6493L21.421 27.4283C21.3371 27.4954 21.2765 27.5874 21.2481 27.6911C21.2196 27.7947 21.2247 27.9047 21.2626 28.0053L21.7026 29.1721L21.5976 29.5554H14.9504C14.7254 29.5552 14.5097 29.4657 14.3506 29.3066C14.1916 29.1475 14.1021 28.9318 14.1018 28.7068V23.1061H31.4132V28.7068C31.413 28.9318 31.3235 29.1475 31.1644 29.3066C31.0053 29.4657 30.7896 29.5552 30.5646 29.5554ZM33.269 25.572C33.0791 25.8396 32.7381 25.9029 32.4316 25.9242V18.5237C32.431 18.0287 32.2341 17.5541 31.8841 17.2042C31.5341 16.8542 31.0596 16.6573 30.5646 16.6567H15.0421C15.0766 16.4809 15.1658 16.3204 15.297 16.1983C15.4282 16.0761 15.5946 15.9986 15.7725 15.9767L31.2732 14.097C31.4966 14.0702 31.7214 14.133 31.8985 14.2718C32.0756 14.4105 32.1904 14.6138 32.2178 14.8371L33.4436 24.9466C33.4573 25.0572 33.4489 25.1694 33.4189 25.2768C33.3889 25.3841 33.338 25.4845 33.269 25.572Z" fill="white" stroke="white" stroke-width="0.5"/>
<path d="M16.3083 24.8032H14.9506C14.8155 24.8032 14.686 24.8569 14.5905 24.9524C14.495 25.0478 14.4414 25.1773 14.4414 25.3124C14.4414 25.4474 14.495 25.5769 14.5905 25.6724C14.686 25.7679 14.8155 25.8215 14.9506 25.8215H16.3083C16.4434 25.8215 16.5729 25.7679 16.6684 25.6724C16.7638 25.5769 16.8175 25.4474 16.8175 25.3124C16.8175 25.1773 16.7638 25.0478 16.6684 24.9524C16.5729 24.8569 16.4434 24.8032 16.3083 24.8032Z" fill="white" stroke="white" stroke-width="0.5"/>
<path d="M21.0604 24.8032H18.3449C18.2098 24.8032 18.0803 24.8569 17.9848 24.9524C17.8893 25.0478 17.8357 25.1773 17.8357 25.3124C17.8357 25.4474 17.8893 25.5769 17.9848 25.6724C18.0803 25.7679 18.2098 25.8215 18.3449 25.8215H21.0604C21.1954 25.8215 21.3249 25.7679 21.4204 25.6724C21.5159 25.5769 21.5695 25.4474 21.5695 25.3124C21.5695 25.1773 21.5159 25.0478 21.4204 24.9524C21.3249 24.8569 21.1954 24.8032 21.0604 24.8032Z" fill="white" stroke="white" stroke-width="0.5"/>
<path d="M26.9287 27.2583L24.2132 29.9738C23.7392 30.4343 24.4731 31.1678 24.9333 30.6939L27.6488 27.9783C27.7443 27.8829 27.7979 27.7533 27.7979 27.6183C27.7979 27.4833 27.7443 27.3538 27.6488 27.2583C27.5533 27.1628 27.4238 27.1091 27.2888 27.1091C27.1537 27.1091 27.0242 27.1628 26.9287 27.2583Z" fill="white" stroke="white" stroke-width="0.5"/>
<path d="M27.1193 30.6731C27.4005 30.6731 27.6284 30.4451 27.6284 30.1639C27.6284 29.8827 27.4005 29.6548 27.1193 29.6548C26.8381 29.6548 26.6101 29.8827 26.6101 30.1639C26.6101 30.4451 26.8381 30.6731 27.1193 30.6731Z" fill="white" stroke="white" stroke-width="0.5"/>
<path d="M24.7435 28.2971C25.0247 28.2971 25.2527 28.0692 25.2527 27.788C25.2527 27.5068 25.0247 27.2788 24.7435 27.2788C24.4623 27.2788 24.2344 27.5068 24.2344 27.788C24.2344 28.0692 24.4623 28.2971 24.7435 28.2971Z" fill="white" stroke="white" stroke-width="0.5"/>
</svg>
