<svg width="45" height="45" viewBox="0 0 45 45" fill="none" xmlns="http://www.w3.org/2000/svg">
<path d="M4.92517 22.6451C7.99182 22.6451 10.8668 22.6451 13.646 22.6451C14.0293 22.6451 14.221 22.741 14.221 23.2201C14.221 23.7951 14.221 24.3701 14.221 24.8493C14.221 25.3284 14.0293 25.5201 13.5501 25.4243C12.9751 25.4243 12.3043 25.4243 11.7293 25.4243C11.7293 25.8076 11.921 25.9034 12.1126 25.9993C15.3709 29.3534 18.7251 32.6117 22.0792 35.9659C22.3667 36.2534 22.4626 36.445 22.8459 36.0617C26.2959 32.6117 29.7459 29.1618 33.1958 25.7118C33.2917 25.6159 33.2917 25.6159 33.3875 25.4243C32.7167 25.4243 32.0459 25.4243 31.4709 25.4243C30.9917 25.4243 30.8 25.3284 30.8 24.8493C30.8959 24.1784 30.5125 23.2201 30.8959 22.8368C31.2792 22.4535 32.2375 22.741 32.9083 22.741C35.3042 22.741 37.6042 22.741 40 22.741C40 23.1243 39.7125 23.2201 39.6166 23.3159C34.0583 28.8742 28.5959 34.3367 23.0376 39.895C22.7501 40.1825 22.5584 40.3742 22.0792 39.9909C16.5209 34.3367 10.8668 28.7784 5.21267 23.1243C5.21267 22.9326 5.11684 22.8368 4.92517 22.6451Z" fill="white"/>
<path d="M21.121 28.2992C21.121 28.2033 21.121 28.1075 21.121 28.1075C21.2168 27.245 20.9293 26.8617 20.1626 26.4783C17.9585 25.52 16.7126 22.9325 17.0001 20.4409C17.0001 20.1534 17.1918 20.0576 17.4793 20.0576C17.9585 20.0576 18.4376 20.0576 18.9168 20.0576C19.5876 19.9617 19.8751 20.1534 19.8751 20.92C19.7793 21.9742 20.0668 22.8367 20.8335 23.5075C21.696 24.2742 22.7501 24.4659 23.8043 23.9867C24.8584 23.5075 25.5293 22.3575 25.4334 21.3034C25.3376 20.5367 24.8584 20.0576 24.2834 19.5784C23.3251 18.8117 22.1751 18.4284 21.121 17.7576C19.5876 16.8951 18.3418 15.7451 17.9585 13.9243C17.3835 11.4326 18.4376 9.22845 20.8335 8.17429C21.2168 7.98262 21.4085 7.79095 21.4085 7.40762C21.4085 6.73679 21.4085 6.1618 21.4085 5.49097C21.4085 5.0118 21.5043 4.82014 21.9835 4.82014C22.6543 4.91597 23.6126 4.62847 24.0918 4.91597C24.5709 5.2993 24.2834 6.25763 24.1876 6.92846C24.1876 7.59929 24.3793 7.88679 24.9543 8.27012C26.9668 9.22845 28.0209 11.3368 27.7334 13.5409C27.7334 13.8284 27.5418 13.9243 27.2543 13.9243C27.0626 13.9243 26.8709 13.9243 26.6793 13.9243C26.1043 13.9243 25.4334 14.1159 25.0501 13.8284C24.5709 13.5409 24.9543 12.8701 24.8584 12.3909C24.7626 11.4326 24.0918 10.7618 23.1334 10.5701C22.271 10.3784 21.3126 10.7618 20.8335 11.5284C20.3543 12.2951 20.4501 13.5409 21.121 14.3076C21.6001 14.8826 22.1751 15.2659 22.8459 15.5534C23.9001 16.1284 24.9543 16.6076 25.9126 17.3742C27.5418 18.5242 28.4043 20.0576 28.2126 22.07C27.9251 24.1784 26.7751 25.8075 24.7626 26.5742C24.2834 26.7658 23.9959 27.0533 24.0918 27.5325C24.0918 27.6283 24.0918 27.7242 24.0918 27.82C23.9959 28.395 24.3793 29.3533 23.9001 29.6408C23.2293 29.9283 22.3668 29.7367 21.6001 29.7367C21.3126 29.7367 21.2168 29.545 21.3126 29.3533C21.121 29.0658 21.121 28.6825 21.121 28.2992Z" fill="white"/>
</svg>
