<svg width="105" height="53" viewBox="0 0 105 53" fill="none" xmlns="http://www.w3.org/2000/svg">
<path d="M63.3375 4.42927C63.2233 4.50814 63.1646 4.54945 63.1037 4.59075C62.6255 4.91747 62.1474 5.24604 61.6671 5.5709C61.6269 5.59719 61.574 5.60468 61.5264 5.6216C61.557 5.5897 61.5851 5.55027 61.6216 5.52586C62.1357 5.15969 62.6504 4.79354 63.1667 4.43303C63.191 4.41425 63.2386 4.42927 63.3375 4.42927Z" fill="white"/>
<path d="M57.9344 11.0107C57.9022 11.0051 57.8948 11.0032 57.8853 11.0014C57.889 10.9788 57.8874 10.9507 57.8985 10.9356C58.0635 10.7329 58.2328 10.5338 58.4015 10.3329C58.4095 10.3235 58.4243 10.3197 58.4375 10.3123C58.4396 10.3197 58.447 10.3291 58.4455 10.3329C58.2746 10.5638 58.1016 10.791 57.9344 11.0107Z" fill="white"/>
<path d="M58.6619 9.72693C58.6307 9.71808 58.6233 9.71546 58.6138 9.71263C58.6201 9.69058 58.6212 9.66241 58.6339 9.64858C58.819 9.4634 59.0073 9.2823 59.1962 9.09931C59.2046 9.09072 59.4178 8.85505 59.4321 8.84887C59.5062 8.77895 59.9965 8.26692 59.4734 8.84887C59.2797 9.06155 58.8508 9.52509 58.6619 9.72693Z" fill="white"/>
<path d="M58.978 8.04583C59.1029 7.88311 59.5736 7.39297 60.2597 6.73617C60.4554 6.56178 60.7903 6.25257 60.9891 6.08059C60.9981 6.07247 61.114 5.98605 61.1283 5.98071C61.1288 5.98841 61.0352 6.08399 61.0325 6.08739C60.8268 6.28876 59.4001 7.52767 58.978 8.04583Z" fill="white"/>
<path d="M58.4097 11.6321C58.2764 11.8274 58.1436 12.0245 58.0087 12.2198C57.9976 12.2367 57.9633 12.2404 57.9389 12.2499C57.9368 12.2329 57.9294 12.2085 57.9368 12.1991C58.0923 12.0095 58.2521 11.8217 58.4097 11.6321Z" fill="white"/>
<path d="M55.6513 13.0605C55.5397 13.2686 55.4286 13.4786 55.3154 13.6868C55.3058 13.7048 55.2725 13.7121 55.2487 13.724C55.245 13.7074 55.235 13.684 55.2413 13.6738C55.3762 13.469 55.5148 13.2656 55.6513 13.0605Z" fill="white"/>
<path d="M81.8703 50.8888C81.9327 50.8718 81.9935 50.8474 82.0565 50.8399C82.1644 50.8268 82.2728 50.8249 82.3808 50.8174C82.2707 50.8418 82.1628 50.8718 82.0523 50.8888C81.9935 50.8981 81.929 50.8869 81.8682 50.8869L81.8703 50.8888Z" fill="white"/>
<path d="M63.7678 4.17794C63.7545 4.19108 63.7434 4.20798 63.7281 4.21549C63.6673 4.24741 63.6048 4.27558 63.5419 4.3075C63.5419 4.29248 63.5366 4.26619 63.5419 4.26243C63.6123 4.22864 63.6847 4.19672 63.7545 4.16479C63.7604 4.16855 63.7641 4.17418 63.7678 4.17794Z" fill="white"/>
<path d="M61.2434 5.94272C61.2074 5.89763 61.1963 5.88448 61.1963 5.8826C61.2608 5.82253 61.3254 5.76246 61.3915 5.70422C61.3936 5.70234 61.4163 5.72302 61.4163 5.72491C61.3634 5.79435 61.3079 5.86197 61.2434 5.94272Z" fill="white"/>
<path d="M58.8708 11.1741C58.7983 11.2323 58.7375 11.2811 58.6751 11.33C58.6677 11.3206 58.6523 11.3018 58.6523 11.3018C58.7111 11.2511 58.7698 11.2004 58.8306 11.1516C58.8327 11.1497 58.8459 11.1609 58.8708 11.1741Z" fill="white"/>
<path d="M59.6548 9.75072C59.6754 9.73003 59.6982 9.71128 59.7193 9.69065C59.7553 9.66059 59.7913 9.63053 59.8272 9.59863C59.8315 9.60235 59.8368 9.60612 59.8405 9.61178C59.7802 9.6587 59.7172 9.70563 59.6548 9.75072Z" fill="white"/>
<path d="M57.6558 10.5075C57.6822 10.4831 57.7013 10.4663 57.7219 10.4475C57.7277 10.455 57.7388 10.4663 57.7372 10.4681C57.7203 10.4887 57.7028 10.5094 57.6843 10.5281C57.6822 10.53 57.6669 10.5187 57.6558 10.5075Z" fill="white"/>
<path d="M61.5107 8.00444C61.5339 8.00255 61.5567 8.00066 61.5794 7.99878C61.5297 8.0345 61.4784 8.07016 61.4292 8.10583C61.4556 8.07205 61.4842 8.03822 61.5107 8.00444Z" fill="white"/>
<path d="M58.9199 44.1462C58.9596 44.1876 58.9977 44.2289 59.0373 44.2702C58.9977 44.2289 58.9596 44.1876 58.9199 44.1462Z" fill="white"/>
<path d="M55.0546 13.3467C55.0371 13.3674 54.934 13.6055 54.9208 13.6243C54.915 13.613 54.9017 13.598 54.9054 13.5905C54.9149 13.5717 55.0408 13.3636 55.0546 13.3467Z" fill="white"/>
<path d="M58.3755 11.1853C58.4115 11.1665 58.4458 11.1477 58.4818 11.1289C58.4474 11.1477 58.4115 11.1665 58.3755 11.1853Z" fill="white"/>
<path d="M63.9113 4.09347C63.8636 4.12163 63.816 4.1498 63.7684 4.17796C63.7647 4.17421 63.761 4.16857 63.7573 4.16482C63.8049 4.13665 63.852 4.10849 63.8996 4.08032C63.9017 4.08408 63.907 4.08971 63.9113 4.09347Z" fill="white"/>
<path d="M60.8561 9.0747C60.8789 9.07286 60.9022 9.07098 60.9249 9.06909C60.8847 9.08784 60.845 9.10664 60.8032 9.12544C60.8223 9.10853 60.8392 9.09161 60.8561 9.0747Z" fill="white"/>
<path d="M57.0369 41.5998C57.0141 41.5716 56.993 41.5417 56.9702 41.5135C56.9782 41.5117 56.9914 41.5061 56.993 41.5098C57.012 41.5361 57.0289 41.5623 57.048 41.5885C57.0443 41.5923 57.0406 41.596 57.0369 41.5998Z" fill="white"/>
<path d="M58.4109 11.6341C58.4262 11.6079 58.441 11.5817 58.4547 11.5554C58.4621 11.561 58.4696 11.5666 58.4775 11.5723C58.4547 11.591 58.432 11.6116 58.4109 11.6341C58.4093 11.6322 58.4109 11.6341 58.4109 11.6341Z" fill="white"/>
<path d="M81.8688 50.887C81.8116 50.8964 81.7529 50.9039 81.6958 50.9133L81.6979 50.9151C81.7545 50.9058 81.8132 50.8982 81.8704 50.8888L81.8688 50.887Z" fill="white"/>
<path d="M67.3488 50.9152C67.4456 50.9527 67.5403 50.9903 67.6371 51.0297C67.6541 51.0484 67.6731 51.0672 67.6906 51.086L67.6921 51.0842C67.2822 50.9152 66.8738 50.7462 66.4639 50.5771C66.7585 50.6898 67.0526 50.8025 67.3488 50.9152Z" fill="white"/>
<path d="M56.5435 42.2478C56.5567 42.2872 56.572 42.3285 56.5853 42.3679C56.5699 42.3285 56.5567 42.2872 56.5435 42.2478Z" fill="white"/>
<path d="M82.7909 2.04314C82.7809 2.04129 82.7708 2.03943 82.7608 2.03756C82.5349 2.0099 82.0626 2.21046 80.2736 1.73971C80.0636 1.68445 79.8774 1.64164 79.7102 1.60902C79.3532 1.57369 78.9988 1.54487 78.6587 1.52583C78.2032 1.56149 77.9409 1.69233 77.3288 1.6231C76.994 1.58523 76.6523 1.63013 76.3799 1.69326C75.7832 1.83142 75.5171 2.05691 76.3799 1.69326C76.392 1.68817 76.4042 1.68297 76.4169 1.67765C76.8422 1.49684 77.6891 1.47149 78.6587 1.52583C78.9157 1.50575 79.2337 1.51587 79.7102 1.60902C80.8412 1.72095 81.9943 1.8983 82.7608 2.03756C82.7714 2.03887 82.7814 2.0407 82.7909 2.04314Z" fill="white"/>
<path fill-rule="evenodd" clip-rule="evenodd" d="M99.7877 42.2595C99.8713 42.1514 99.9549 42.0433 100.039 41.9361C100.091 41.8597 100.142 41.7849 100.193 41.7103V41.7102C100.285 41.576 100.376 41.4425 100.468 41.3014C100.525 41.2162 100.586 41.1343 100.648 41.0525V41.0524C100.716 40.963 100.784 40.8735 100.844 40.7794C101.041 40.4696 101.237 40.1579 101.414 39.8368C101.485 39.7076 101.557 39.5786 101.628 39.4496V39.4495V39.4494L101.629 39.4493C101.909 38.9447 102.19 38.4396 102.435 37.9178C102.652 37.4583 102.836 36.9832 103.021 36.5086V36.5085V36.5085C103.092 36.3257 103.163 36.143 103.236 35.9613C103.259 35.9045 103.282 35.8476 103.305 35.7908V35.7907V35.7907V35.7906C103.414 35.5205 103.524 35.2493 103.612 34.9718C103.796 34.3859 103.967 33.7963 104.126 33.203C104.134 33.1731 104.142 33.1432 104.15 33.1133L104.164 33.0612C104.325 32.4624 104.485 31.8632 104.607 31.2559C104.724 30.6719 104.802 30.0767 104.865 29.4814C104.926 28.8975 104.976 28.3079 104.981 27.722C104.982 27.4689 104.986 27.2086 104.99 26.9458V26.9456V26.9455V26.9454V26.9454C104.999 26.4094 105.007 25.8633 104.992 25.3468C104.975 25.1479 104.963 24.9485 104.951 24.7492V24.749C104.925 24.3214 104.899 23.8941 104.833 23.4729C104.658 22.3444 104.441 21.2234 104.223 20.1024C103.564 16.7269 101.884 13.6136 99.7904 10.9037C97.9988 8.59386 96.0273 6.55053 93.5771 4.89511C90.06 2.51617 86.3636 0.959195 82.0948 0.343615C81.3776 0.241657 80.6545 0.171766 79.9324 0.101955C79.7632 0.0856269 79.5944 0.0693033 79.4257 0.0525747C79.2046 0.0308318 78.9824 0.0221569 78.7608 0.0134945C78.6571 0.00943986 78.5534 0.00538798 78.4497 0H78.1366H77.9372H77.852V6.57404e-06V7.57921e-06C77.8044 0.0169042 77.7568 0.0338002 77.7076 0.046942C77.6997 0.0482682 77.6896 0.0430373 77.6801 0.0378655C77.6758 0.035715 77.6716 0.0335749 77.6679 0.0319206C77.6753 0.0262875 77.6827 0.0211239 77.6896 0.0159603C77.6965 0.0107967 77.7039 0.00563303 77.7113 0H77.569C77.4584 0.007557 77.3474 0.0145057 77.2363 0.0214582C77.0712 0.0317804 76.9057 0.0421109 76.7412 0.0544528C76.2138 0.0957614 75.6859 0.138948 75.1601 0.18589C75.0511 0.19533 74.9421 0.204015 74.8332 0.212695C74.4867 0.240274 74.1413 0.267791 73.799 0.319206C73.2674 0.398068 72.7379 0.497585 72.2158 0.621514C71.5097 0.788626 70.8072 0.978269 70.1106 1.18106C69.9408 1.23102 69.7784 1.30324 69.6154 1.37559C69.4911 1.43104 69.3658 1.48656 69.2372 1.53219C69.0584 1.59519 68.8754 1.64848 68.6924 1.70172C68.5538 1.7421 68.4157 1.78244 68.2787 1.82698C68.2449 1.83851 68.2169 1.86577 68.1888 1.89317C68.1618 1.91931 68.1349 1.94558 68.1021 1.95842C67.9455 2.02228 67.7873 2.08262 67.6292 2.14292V2.14293C67.388 2.2351 67.1468 2.32717 66.9103 2.43159C66.4792 2.62124 66.0576 2.82966 65.6418 3.04559C65.1219 3.31598 64.6077 3.60139 64.0951 3.8868C64.0428 3.91587 64.0005 3.96281 63.9581 4.00986V4.00986V4.00987V4.00987V4.00988C63.938 4.03271 63.9174 4.05558 63.8957 4.07644C63.8994 4.079 63.9026 4.08245 63.9052 4.08557V4.08558C63.9063 4.08702 63.9079 4.08839 63.9089 4.08958C64.1396 3.97138 64.3691 3.85124 64.5987 3.73113V3.73113C65.0473 3.49636 65.4958 3.2617 65.9513 3.04184C66.4501 2.80269 66.9558 2.57971 67.462 2.35665L67.4625 2.35663V2.35661C67.6678 2.26618 67.873 2.17575 68.0777 2.08422C68.147 2.05345 68.2158 2.02137 68.2846 1.9893C68.476 1.90001 68.6675 1.81078 68.8675 1.74999C69.0182 1.70404 69.1743 1.67351 69.3303 1.64304C69.5308 1.60378 69.7308 1.56464 69.9191 1.49276L69.9492 1.48127L69.9788 1.46991C70.3264 1.3367 70.6691 1.20537 71.041 1.13787C71.3748 1.07739 71.7059 1.00033 72.0371 0.923216V0.923205C72.2407 0.875841 72.4444 0.82845 72.6485 0.784871C72.7173 0.770511 72.7887 0.76884 72.8596 0.76717C72.9278 0.765562 72.9966 0.763959 73.0627 0.751071C73.2024 0.723508 73.342 0.68956 73.4811 0.655634C73.7112 0.599429 73.9419 0.543292 74.1751 0.516361C74.657 0.458563 75.1447 0.433711 75.6309 0.40894C75.7129 0.404741 75.7954 0.400544 75.8779 0.39619C76.1604 0.381157 76.4434 0.374482 76.7269 0.367801C76.8686 0.364468 77.0099 0.361133 77.1516 0.356759C77.2156 0.354865 77.2797 0.352734 77.3437 0.350604C77.533 0.344284 77.7224 0.337982 77.9128 0.337982C78.0218 0.337982 78.1308 0.343647 78.2397 0.349312C78.3386 0.354466 78.4376 0.35962 78.537 0.360514C78.6327 0.362042 78.7285 0.359531 78.8237 0.357025C78.9623 0.35337 79.1009 0.349725 79.2395 0.358637C79.8547 0.399945 80.4677 0.454396 81.0808 0.508848V0.508851C81.1332 0.51283 81.1834 0.532734 81.2342 0.552687C81.2554 0.560978 81.276 0.569279 81.2972 0.576448C81.2723 0.577082 81.2474 0.577925 81.2231 0.578768C81.1744 0.580429 81.1263 0.582078 81.0771 0.582078C81.0163 0.583958 80.9554 0.583958 80.8946 0.582078C80.7164 0.574547 80.5386 0.565759 80.3604 0.556971C80.0059 0.539474 79.6515 0.521985 79.2966 0.514484C79.1141 0.510573 78.9316 0.509151 78.7497 0.508883C78.7592 0.507242 78.7687 0.505229 78.7782 0.503205C78.7877 0.50123 78.7973 0.499244 78.8068 0.497585C78.7962 0.493328 78.7856 0.48789 78.7756 0.482418C78.7534 0.470993 78.7311 0.459423 78.7079 0.458154C78.5777 0.454065 78.4476 0.448726 78.317 0.443384V0.443383C77.9684 0.429095 77.6193 0.414789 77.2712 0.424356C76.5703 0.44501 75.87 0.482563 75.1717 0.546403C74.8818 0.572316 74.5946 0.62773 74.3074 0.68304C74.1783 0.707885 74.0492 0.732709 73.9207 0.754826C73.8218 0.772313 73.7229 0.789616 73.624 0.806909L73.6234 0.807014C73.4044 0.845397 73.1854 0.883717 72.9659 0.923818C72.7549 0.961861 72.5433 0.998568 72.3322 1.03528V1.03528C71.7927 1.12902 71.2526 1.22275 70.7183 1.33878C70.3137 1.42704 69.9228 1.57537 69.5356 1.72558C69.0532 1.91242 68.5728 2.10777 68.0925 2.30318L68.092 2.3032C67.8244 2.41218 67.5562 2.52119 67.288 2.62875C67.1584 2.6807 67.0267 2.72896 66.895 2.77725C66.6511 2.86685 66.4067 2.95654 66.1734 3.07C65.553 3.37043 64.9415 3.68964 64.3416 4.02762C63.664 4.41067 62.9885 4.8031 62.3411 5.23309C62.1263 5.37432 61.9438 5.5629 61.7619 5.75139C61.6799 5.83607 61.5979 5.92071 61.5132 6.00105C61.4894 6.02545 61.4656 6.04944 61.4424 6.07337C61.4186 6.0973 61.3948 6.12124 61.371 6.14564C61.3059 6.19974 61.2408 6.25416 61.1763 6.30862L61.1758 6.30873V6.30889C61.0266 6.43395 60.8774 6.55917 60.7256 6.68078C60.6129 6.77133 60.4982 6.8601 60.3834 6.94892V6.94897C60.1607 7.12174 59.9375 7.29467 59.7269 7.48065C59.6148 7.57926 59.5212 7.69909 59.4275 7.81907C59.3656 7.89784 59.3043 7.97666 59.2371 8.04961C59.061 8.2405 58.8795 8.427 58.6986 8.61334V8.61344L58.6981 8.61355V8.6136V8.6137C58.6156 8.69844 58.533 8.78318 58.4516 8.86828C58.4516 8.87781 58.4516 8.88708 58.4521 8.89625V8.8963C58.4532 8.91421 58.4537 8.9316 58.4516 8.94904C58.45 8.95443 58.4357 8.95689 58.4225 8.9593C58.4172 8.96019 58.4119 8.96108 58.4077 8.96218C58.4124 8.94998 58.4167 8.93731 58.4209 8.92463V8.92458C58.4251 8.91191 58.4294 8.89923 58.4341 8.88703C58.3506 8.97905 58.2654 9.07106 58.1797 9.16308C58.1971 9.14863 58.2151 9.13512 58.2331 9.12181C58.2411 9.11616 58.2485 9.1105 58.2559 9.10484L58.267 9.12176C58.2532 9.13113 58.2384 9.14009 58.2236 9.14899C58.2088 9.1579 58.194 9.16685 58.1797 9.17623C58.1405 9.22729 58.1025 9.27908 58.0639 9.33083C57.9745 9.45222 57.8845 9.57373 57.783 9.68695C57.6518 9.83365 57.5164 9.97736 57.3815 10.121C57.1646 10.3523 56.9472 10.5834 56.7446 10.8267C56.605 10.9952 56.4881 11.1826 56.3712 11.3701V11.3701C56.3072 11.4729 56.2431 11.5757 56.1754 11.6754C56.0056 11.9269 55.8311 12.1882 55.6565 12.4496L55.656 12.4498C55.4814 12.7111 55.3069 12.9725 55.1371 13.2242C55.2445 13.0735 55.3799 12.9191 55.5137 12.7661C55.629 12.6351 55.7427 12.5051 55.8374 12.3795C56.1336 11.9871 56.4373 11.6022 56.7467 11.221C56.9208 11.0072 57.1038 10.8022 57.2868 10.5968V10.5967L57.2873 10.5966V10.5966V10.5965V10.5965C57.3439 10.5332 57.4005 10.4698 57.4566 10.4061C57.4709 10.3894 57.4926 10.3797 57.5143 10.3699C57.5243 10.3653 57.5344 10.3607 57.5439 10.3554C57.5407 10.3667 57.5391 10.3792 57.537 10.3917C57.5333 10.4168 57.5296 10.4418 57.5153 10.4568C57.4841 10.4902 57.4492 10.5209 57.4148 10.5515C57.364 10.5966 57.3132 10.6416 57.2725 10.6953C57.007 11.0464 56.7467 11.4031 56.4923 11.7618C56.3532 11.9586 56.2326 12.1576 56.1114 12.3573V12.3574C56.0109 12.5234 55.9099 12.6899 55.7978 12.8562L55.793 12.8631C55.7898 12.8672 55.7882 12.8697 55.7866 12.8722L55.7835 12.8768L55.7798 12.882C55.7718 12.8929 55.757 12.9146 55.7158 12.9729V12.9728L55.7163 12.9727V12.9727C55.7353 12.956 55.7454 12.9474 55.7554 12.9384C55.766 12.9285 55.7761 12.9184 55.7978 12.8971V12.8971C55.8316 12.85 55.8649 12.803 55.8988 12.756C56.0363 12.5631 56.1733 12.3715 56.3214 12.1842C56.4521 12.0184 56.5822 11.8515 56.7118 11.6846V11.6846V11.6845V11.6845V11.6844C57.1223 11.1562 57.5328 10.628 57.9787 10.1301C58.5902 9.44505 59.2461 8.79711 59.9004 8.15037C59.9528 8.09863 60.0052 8.04689 60.0575 7.99514C60.4881 7.56894 60.9457 7.16144 61.409 6.76714C61.5646 6.63453 61.7375 6.52088 61.91 6.40745V6.4074V6.40734C62.0089 6.34251 62.1073 6.27772 62.2025 6.20948C62.3252 6.1214 62.4458 6.03027 62.5664 5.93919C62.7722 5.7836 62.978 5.62821 63.1932 5.48843C63.4852 5.29969 63.7836 5.12141 64.0824 4.94316C64.2882 4.82 64.4945 4.69686 64.6987 4.57027C65.6741 3.96566 66.6992 3.45868 67.772 3.04372C67.9021 2.99225 68.0322 2.94024 68.1624 2.88822V2.8882V2.88819C68.6257 2.703 69.0891 2.51773 69.562 2.35649C70.1053 2.17139 70.6586 2.01297 71.2119 1.85451V1.85451L71.2124 1.85443C71.2986 1.82967 71.3854 1.8049 71.4716 1.78004C71.7832 1.68991 72.1 1.60541 72.419 1.54721C72.6189 1.51176 72.8199 1.48778 73.0215 1.46378C73.1934 1.4433 73.3658 1.42279 73.5372 1.39511C73.6673 1.37426 73.7953 1.34374 73.9239 1.31325C74.0725 1.27788 74.2217 1.24254 74.3724 1.22237C74.7819 1.16922 75.1929 1.12735 75.6039 1.08546C75.7737 1.06815 75.9435 1.05084 76.1133 1.03272C76.1609 1.0275 76.208 1.02167 76.2556 1.01585C76.3952 0.998668 76.5343 0.981553 76.675 0.980149C76.9184 0.977803 77.1612 0.982789 77.4045 0.987774C77.5505 0.99077 77.6965 0.99376 77.8425 0.995169C78.0006 0.996243 78.1593 0.997007 78.3175 0.997777C78.7137 0.999689 79.1094 1.00161 79.5055 1.00831C79.5664 1.00962 79.6272 1.03191 79.688 1.0542C79.7108 1.06259 79.7335 1.07099 79.7568 1.07827C79.6986 1.08057 79.6404 1.08361 79.5822 1.08666C79.4452 1.09384 79.3082 1.10102 79.1712 1.09844C79.0967 1.09674 79.0221 1.0862 78.948 1.07569C78.8581 1.06297 78.7687 1.0503 78.6798 1.05338C78.1244 1.07135 77.5706 1.09928 77.0162 1.12727C76.9332 1.13144 76.8507 1.13561 76.7681 1.13975C76.6846 1.14405 76.601 1.14817 76.5174 1.15229C76.1265 1.17158 75.7356 1.19087 75.3463 1.228C75.1257 1.24881 74.9072 1.28496 74.6888 1.32116C74.5322 1.34701 74.3761 1.37289 74.2185 1.39323C74.0947 1.40885 73.9694 1.41887 73.844 1.42889C73.6531 1.44418 73.4621 1.45947 73.2754 1.49463C73.0945 1.52836 72.9183 1.5823 72.7422 1.63627C72.6242 1.67243 72.5062 1.7086 72.3867 1.73873C72.2296 1.7782 72.0709 1.81172 71.9117 1.84522C71.6245 1.90574 71.3372 1.96621 71.0638 2.06169C70.9632 2.09668 70.8633 2.13161 70.7633 2.16654C69.6916 2.54032 68.6199 2.91426 67.5763 3.35729C66.8997 3.64365 66.2507 3.99796 65.6032 4.35159C65.4101 4.45707 65.2171 4.56249 65.0235 4.66603C64.6225 4.87821 64.2337 5.11667 63.856 5.36641C63.3927 5.67435 62.9372 5.99544 62.4908 6.32779C62.102 6.61693 61.7201 6.91922 61.3498 7.23282C61.1107 7.43686 60.8817 7.65169 60.6521 7.86668V7.86673C60.5648 7.94853 60.4775 8.03034 60.3897 8.11157C60.3627 8.13681 60.3405 8.1686 60.3183 8.20034C60.3093 8.21348 60.3003 8.22663 60.2908 8.23925C60.3051 8.23108 60.3199 8.22333 60.3347 8.21558C60.3712 8.19672 60.4077 8.17761 60.4389 8.151C60.6621 7.96032 60.8843 7.76749 61.1065 7.57471V7.57465C61.2408 7.45802 61.3752 7.34139 61.5095 7.22528C61.5302 7.20648 61.5582 7.19726 61.5862 7.18805C61.5979 7.18438 61.609 7.18071 61.6196 7.17647C61.6116 7.18679 61.6048 7.19753 61.5974 7.20816C61.5841 7.22858 61.5709 7.24869 61.5529 7.26472C61.3948 7.40947 61.2345 7.5525 61.0742 7.69547V7.69553V7.69558V7.69563L61.0737 7.69568C60.7648 7.97179 60.4553 8.24773 60.158 8.53593C59.756 8.92479 59.3651 9.32522 58.9747 9.72545V9.72555L58.9742 9.7256V9.72571V9.72581C58.8441 9.85889 58.7145 9.99191 58.5844 10.1245C58.5669 10.1417 58.5553 10.1646 58.5431 10.1879C58.5367 10.2001 58.5304 10.2123 58.5235 10.224C58.5352 10.2162 58.5473 10.2094 58.5595 10.2026C58.5828 10.1896 58.6055 10.1767 58.624 10.1582C58.7356 10.0478 58.8462 9.93572 58.9567 9.82354C59.134 9.6439 59.3112 9.46411 59.4936 9.29076L59.5555 9.23158C60.0189 8.78941 60.4812 8.34808 60.9626 7.9257C61.2853 7.64457 61.6196 7.37611 61.9533 7.10771L61.9539 7.10755C62.1015 6.98877 62.249 6.87005 62.3961 6.75027C62.4109 6.73786 62.4321 6.73199 62.4527 6.72623C62.4633 6.72325 62.4739 6.72026 62.4834 6.71644C62.4776 6.72608 62.4728 6.73681 62.4675 6.74755C62.458 6.76829 62.4485 6.78924 62.4321 6.80285C62.2882 6.92242 62.1427 7.04046 61.9978 7.15846V7.15851V7.15856H61.9973V7.15861C61.6984 7.40172 61.399 7.64467 61.1128 7.90129C60.6061 8.35567 60.1083 8.82319 59.6322 9.30763C59.2339 9.7123 58.8557 10.135 58.477 10.5576C58.3992 10.6448 58.3209 10.7321 58.2426 10.8192C58.1956 10.8709 58.1638 10.9358 58.1316 11.0009C58.1067 11.0517 58.0813 11.1026 58.049 11.1478C58.0025 11.2119 57.9559 11.2761 57.9094 11.3403L57.9089 11.341C56.9112 12.7188 55.9088 14.1028 55.1979 15.6542C55.0799 15.9118 54.5489 17.3327 54.6827 17.0679C55.2021 15.9606 55.7533 14.8261 56.4172 13.7967C57.3825 12.2933 58.3997 10.9343 59.6566 9.7564C59.6672 9.74608 59.6783 9.73624 59.6888 9.72639V9.72634C59.6999 9.71649 59.7111 9.70665 59.7211 9.69633L59.8126 9.56676C59.8179 9.57802 59.8237 9.59117 59.8295 9.60431C59.8322 9.60819 59.8354 9.61112 59.8385 9.61384C59.8401 9.6151 59.8417 9.61631 59.8428 9.61746C59.9142 9.5466 59.9856 9.47564 60.057 9.40467L60.0575 9.40451C60.2718 9.19162 60.4855 8.97905 60.7045 8.77061C60.8769 8.60559 61.0557 8.44559 61.234 8.28549L61.2345 8.28528V8.28507L61.235 8.28492C61.3001 8.22657 61.3651 8.16828 61.4297 8.10968C61.4466 8.08679 61.4646 8.06464 61.4826 8.04275V8.0427C61.4921 8.03055 61.5021 8.0185 61.5117 8.0064C61.5254 7.99326 61.5397 7.98058 61.554 7.96791C61.5683 7.95524 61.5825 7.94256 61.5968 7.92942C61.5931 7.94853 61.5915 7.96917 61.5894 7.98849V7.99326C61.6175 7.9764 61.646 7.95948 61.673 7.94068C61.9253 7.75371 62.1766 7.56444 62.4278 7.37522V7.37517C63.0393 6.91456 63.6508 6.45401 64.2829 6.02545C64.9283 5.58611 65.6233 5.21243 66.3157 4.84441C66.9405 4.51394 67.5763 4.19849 68.2311 3.93186C69.0135 3.61453 69.8106 3.32725 70.6173 3.08315C71.4811 2.82215 72.3544 2.58932 73.241 2.40718C75.5436 1.95091 77.8689 1.84576 80.2096 2.04855C82.1668 2.21942 84.0801 2.59683 85.9463 3.20708C86.5863 3.41678 87.2126 3.65227 87.8251 3.91247C87.3089 3.7002 86.781 3.51164 86.2367 3.35305C86.1446 3.32302 86.0462 3.28694 85.9473 3.25085V3.25083C85.8489 3.21473 85.7505 3.17864 85.6585 3.1486C85.4913 3.09415 85.2903 3.0301 85.1216 2.98504C84.9698 2.94381 84.8153 2.89948 84.6598 2.85479C84.3054 2.75293 83.9441 2.64921 83.5934 2.57612C82.9555 2.44281 82.1324 2.28134 81.4871 2.20811C80.4429 2.09169 79.7108 2.04454 78.5957 2.00365C78.5047 2.00365 78.3974 2.0031 78.2831 2.00251C78.0345 2.00123 77.7573 1.99979 77.5632 2.00365C77.1384 2.01283 76.8951 2.03618 76.482 2.07579L76.4529 2.07859C75.6785 2.1537 74.9041 2.2457 74.1334 2.36212C73.4118 2.46915 72.6962 2.60997 71.9826 2.75455C71.8614 2.77875 71.7451 2.82808 71.6287 2.87762V2.87763C71.5462 2.91266 71.4637 2.9478 71.3785 2.97424C71.1965 3.03114 71.0124 3.08341 70.8284 3.1357C70.5015 3.22834 70.1751 3.32108 69.8582 3.4399C69.1066 3.71968 68.3623 4.02386 67.6297 4.35246C66.9918 4.63787 66.3655 4.94956 65.754 5.28754C65.344 5.5131 64.9505 5.76878 64.5569 6.02456V6.02461C64.4495 6.09453 64.3416 6.16455 64.2337 6.23389C64.0946 6.32313 63.964 6.42342 63.8333 6.52371V6.52377C63.7852 6.56064 63.737 6.5975 63.6889 6.63385C63.4953 6.77819 63.3027 6.92252 63.1097 7.06686L63.1086 7.06759L63.1076 7.06853L63.107 7.0688V7.06901L63.1065 7.06927C62.914 7.21329 62.7219 7.35731 62.5289 7.50133C62.4485 7.56135 62.3654 7.61912 62.2824 7.67704C62.111 7.79666 61.9391 7.91664 61.7867 8.0571C61.2853 8.51745 60.7965 8.99177 60.3083 9.46563V9.46568L60.3072 9.46689C60.23 9.54152 60.1533 9.61615 60.076 9.69072C59.8274 9.93294 59.5867 10.1827 59.3492 10.4361C59.2159 10.5795 59.0927 10.7313 58.9689 10.8831V10.8832V10.8832C58.9504 10.9063 58.9314 10.9294 58.9128 10.9525C58.9001 10.9675 58.9007 10.9926 58.9017 11.0176C58.9023 11.0301 58.9023 11.0426 58.9012 11.0539C58.9134 11.0503 58.9266 11.0479 58.9403 11.0455C58.9694 11.0402 58.9991 11.0349 59.0133 11.0182C59.0541 10.9703 59.0916 10.9194 59.1287 10.8685C59.1747 10.8057 59.2207 10.7429 59.2731 10.6859C59.3656 10.5857 59.463 10.4908 59.5608 10.3961C59.6275 10.331 59.6941 10.2661 59.7592 10.1996C59.9941 9.9573 60.2279 9.71419 60.4617 9.47139V9.47118V9.47097L60.4622 9.47076V9.47056C60.5759 9.3523 60.6896 9.2341 60.8034 9.1161L60.8547 9.06541C60.8674 9.06227 60.8806 9.05876 60.8938 9.0552C60.9123 9.05033 60.9309 9.04535 60.9494 9.041C61.0768 8.9249 61.2012 8.80559 61.326 8.68634C61.5884 8.43548 61.8502 8.18468 62.1358 7.96325C62.878 7.38868 63.6434 6.84224 64.4141 6.30522C64.7881 6.04451 65.1848 5.81314 65.5805 5.5826C65.6318 5.55248 65.6836 5.52237 65.7349 5.4922C65.9428 5.37081 66.1571 5.25936 66.3713 5.14797C66.4781 5.09227 66.5855 5.03656 66.6918 4.9796C66.7098 4.96834 66.7283 4.95708 66.7468 4.94581C66.7654 4.93455 66.7839 4.92328 66.8019 4.912C66.8019 4.9289 66.8003 4.94579 66.7982 4.96269V4.96271C66.9293 4.90137 67.0605 4.83863 67.1917 4.77587V4.77583V4.77581C67.462 4.64645 67.7328 4.51697 68.0074 4.3994C68.5845 4.15155 69.1632 3.90369 69.754 3.69339C70.3121 3.49624 70.8797 3.32161 71.4547 3.18267C71.4975 3.1723 71.5404 3.16191 71.5832 3.15152C72.3931 2.95503 73.2066 2.75762 74.0307 2.63814C75.1146 2.48042 76.2101 2.36775 77.305 2.31518C78.6301 2.25134 79.9536 2.32644 81.2728 2.50107C82.774 2.70198 84.2456 3.03057 85.6881 3.48309C87.347 4.00321 88.9455 4.67354 90.4319 5.56542C91.4666 6.18696 92.4705 6.86853 93.4237 7.60461C94.3045 8.28617 95.1281 9.05043 95.9295 9.8259C97.0228 10.8849 97.9491 12.0904 98.788 13.3541C100.384 15.7612 101.539 18.3618 102.198 21.1708C102.776 23.6456 102.959 26.1485 102.763 28.6815C102.625 30.4785 102.292 32.2379 101.757 33.9597C101.064 36.1922 100.056 38.2784 98.7557 40.2293C97.7401 41.7558 96.5674 43.1509 95.2365 44.4146C93.849 45.7309 92.3224 46.8687 90.6387 47.7907C90.5197 47.8558 90.4012 47.9215 90.2827 47.9872L90.2817 47.9876C89.6993 48.31 89.1153 48.6331 88.5054 48.8966C87.4628 49.3454 86.3959 49.7378 85.3295 50.1246C84.8074 50.3124 84.2663 50.4532 83.7235 50.5752C83.2617 50.6792 82.7957 50.7637 82.3297 50.8484L82.3286 50.8485L82.3281 50.8486L82.3271 50.8487V50.8488C82.1287 50.8848 81.9303 50.9208 81.732 50.9583C81.6653 50.9708 81.5981 50.9817 81.531 50.9925V50.9925L81.5304 50.9926C81.5167 50.9948 81.5029 50.997 81.4897 50.9992C81.4696 51.0024 81.45 51.0057 81.4299 51.009C81.4728 50.994 81.5156 50.9785 81.5585 50.963C81.6013 50.9475 81.6436 50.932 81.6865 50.917C81.6897 50.9155 81.6928 50.9114 81.6949 50.908L81.6981 50.9076L81.696 50.9057C81.6955 50.9064 81.6949 50.9072 81.6949 50.908C81.5394 50.9256 81.3839 50.9427 81.2284 50.9598C80.8052 51.0063 80.3815 51.0528 79.9589 51.1104C78.4672 51.3169 76.9691 51.2681 75.4769 51.1705C73.89 51.0672 72.3185 50.7875 70.7977 50.3387C67.188 49.2761 63.9317 47.6041 61.0689 45.1657C59.7724 44.0597 58.5669 42.8599 57.4566 41.568C57.436 41.5437 57.4058 41.5271 57.3751 41.5106C57.3635 41.5042 57.3519 41.4978 57.3408 41.491C57.345 41.5056 57.3482 41.5208 57.3508 41.5359C57.3577 41.5693 57.3646 41.6023 57.3825 41.6281C57.4587 41.7397 57.5328 41.853 57.6068 41.9663C57.7941 42.2535 57.9813 42.5402 58.2046 42.796C58.7515 43.4232 59.3265 44.0278 59.9189 44.6155C60.2305 44.924 60.5622 45.213 60.8938 45.502V45.5021C61.0382 45.6276 61.1821 45.7531 61.3244 45.8802C61.2731 45.8431 61.2207 45.807 61.1684 45.7709V45.7707C61.0308 45.6763 60.8938 45.5817 60.7748 45.468C60.6431 45.3423 60.5114 45.2167 60.3791 45.0911V45.091C59.6571 44.4039 58.9335 43.7153 58.2368 43.0026C57.9395 42.6981 57.6751 42.363 57.4106 42.0278C57.2931 41.8793 57.1762 41.7308 57.0562 41.5849L57.0445 41.5962C57.0747 41.6438 57.1038 41.692 57.1329 41.7403V41.7404V41.7404V41.7405C57.2 41.8523 57.2678 41.9645 57.3445 42.0694C57.5381 42.3344 57.7375 42.5943 57.9369 42.8544L57.9919 42.9262C58.011 42.951 58.03 42.9758 58.049 43.0007L58.0681 43.0251C58.2114 43.2101 58.3548 43.3951 58.4987 43.58C58.6425 43.765 58.7864 43.9499 58.9298 44.1348C58.9679 44.1799 59.0054 44.2231 59.0435 44.2663V44.2664C59.2186 44.4617 59.3931 44.6568 59.5656 44.8521C59.5772 44.865 59.5857 44.8806 59.5936 44.8964V44.8964C59.5979 44.9036 59.6016 44.9108 59.6053 44.9178C59.5994 44.914 59.5926 44.9105 59.5862 44.907C59.573 44.8999 59.5598 44.8928 59.5487 44.884C59.5058 44.8484 59.4609 44.8141 59.4164 44.7797V44.7796C59.3149 44.7015 59.2133 44.623 59.1292 44.5292C58.5881 43.9264 58.0469 43.3199 57.5248 42.7003C57.446 42.6068 57.3667 42.5136 57.2873 42.4204V42.4203L57.2868 42.42C56.8938 41.9588 56.4997 41.4963 56.1696 40.9935C55.6978 40.2741 55.2624 39.53 54.8271 38.7864V38.7862V38.7862C54.6742 38.5245 54.5208 38.2628 54.3664 38.0023C54.268 37.8361 54.1733 37.6919 54.0791 37.5482C53.9781 37.3948 53.8781 37.2419 53.7739 37.0635C53.7581 37.0364 53.7406 37.0102 53.7194 36.9786V36.9785V36.9784V36.9782V36.9781C53.6909 36.9353 53.656 36.8827 53.6089 36.8044C53.6433 36.8792 53.6824 36.9777 53.7136 37.0565L53.7189 37.0691C53.7903 37.2451 53.8601 37.4216 53.93 37.598C54.058 37.9204 54.1855 38.2427 54.3209 38.5619C54.4214 38.8041 54.5409 39.0407 54.6721 39.2698C55.0725 39.9645 55.4751 40.6611 55.8961 41.3446C56.031 41.5628 56.1887 41.7684 56.3463 41.9739V41.9739C56.4156 42.0636 56.4844 42.1533 56.551 42.244C56.5579 42.2637 56.5648 42.2839 56.5722 42.3041C56.579 42.3243 56.5864 42.3445 56.5928 42.3642C56.6182 42.392 56.6436 42.4199 56.669 42.4478V42.448V42.448C56.743 42.5291 56.8171 42.6104 56.889 42.6928C56.9509 42.764 57.0133 42.8354 57.0752 42.9068V42.907V42.907V42.9071C57.2715 43.1328 57.4677 43.3589 57.6655 43.5828C57.702 43.6236 57.7396 43.6632 57.7771 43.7027V43.7028C57.8454 43.7742 57.9131 43.8453 57.9729 43.9226C58.0612 44.0345 58.1464 44.1492 58.231 44.2639C58.3543 44.4302 58.477 44.5966 58.6108 44.7545C58.9128 45.1112 59.2202 45.468 59.5524 45.7966C60.0078 46.2472 60.4691 46.6979 60.9668 47.0997C61.426 47.4699 61.9042 47.817 62.3829 48.1644C62.5865 48.3121 62.7896 48.4598 62.9922 48.6093C65.3012 50.3396 68.2216 51.429 71.0103 52.1807C73.9641 52.9832 76.7248 53.0848 79.7526 52.8884C82.8539 52.6816 85.905 52.1078 88.7614 50.8813C89.2608 50.6691 89.7543 50.442 90.2457 50.2148C90.5536 50.0739 90.8572 49.9256 91.1571 49.7697C91.3793 49.6552 91.5956 49.5313 91.8099 49.4017C92.1897 49.1726 92.5695 48.9417 92.945 48.7032C93.1524 48.5699 93.3534 48.4272 93.5507 48.2789C93.7099 48.1604 93.866 48.038 94.0225 47.9155C94.1315 47.8303 94.2399 47.7451 94.35 47.6611C94.5034 47.5428 94.6578 47.4263 94.8118 47.3097L94.8123 47.3093C95.1186 47.0781 95.4243 46.8473 95.7205 46.604C96.0506 46.3317 96.3622 46.0351 96.6658 45.7327C97.1937 45.207 97.7174 44.6756 98.2262 44.1311C98.5754 43.7574 98.9023 43.3631 99.2265 42.9688C99.4185 42.7363 99.6031 42.4977 99.7877 42.2595ZM61.4635 45.9844C61.4656 45.9891 61.4678 45.9941 61.4693 45.9992C61.4757 46.0158 61.482 46.0331 61.4942 46.0425C61.6085 46.1289 61.7259 46.2134 61.8439 46.2979C61.9613 46.3824 62.943 47.041 62.943 47.041C62.943 47.041 61.6688 46.1195 61.572 46.0425C61.5508 46.0254 61.5259 46.0138 61.5006 46.0021C61.4879 45.9964 61.4757 45.9907 61.4635 45.9844ZM79.7663 1.08118C79.7584 1.08954 79.7505 1.09822 79.7425 1.10689C79.7335 1.11675 79.7245 1.12661 79.7161 1.136C79.724 1.13828 79.7319 1.14091 79.7399 1.14352V1.14353C79.7579 1.1495 79.7753 1.15534 79.7938 1.15665C79.8605 1.16103 79.9271 1.16395 79.9938 1.16687C80.1271 1.17271 80.2604 1.17856 80.3916 1.19608C80.6502 1.23002 80.91 1.25346 81.1697 1.27689C81.8155 1.33512 82.4619 1.39335 83.0819 1.61293C83.1311 1.63053 83.1861 1.62986 83.2411 1.62918C83.2861 1.62863 83.3316 1.62807 83.3739 1.63733C83.6659 1.69769 83.9568 1.76061 84.2477 1.82346L84.2483 1.82355C84.4551 1.86822 84.6614 1.91287 84.8682 1.95654C84.9238 1.96831 84.9798 1.97582 85.0364 1.98331C85.1152 1.99375 85.1935 2.00415 85.2686 2.02601C85.3797 2.0587 85.4871 2.10412 85.5945 2.14961C85.641 2.1694 85.6881 2.1892 85.7352 2.20797C85.7431 2.18608 86.1822 2.20649 86.435 2.21823C86.5435 2.22329 86.618 2.22673 86.6085 2.22452C86.151 2.10337 85.2464 1.92053 84.5069 1.77102C84.1689 1.70271 83.8658 1.64137 83.6548 1.59603C82.947 1.44206 82.2334 1.30686 81.5156 1.20922C81.1115 1.15418 80.7037 1.13298 80.2964 1.1118C80.1197 1.10263 79.9435 1.09345 79.7674 1.08154L79.7663 1.08118ZM85.7574 2.21478L85.8066 2.22942V2.22944C85.9076 2.25984 86.0081 2.29 86.1097 2.31893C86.1224 2.3231 86.1356 2.32419 86.1488 2.32523C86.1536 2.32559 86.1584 2.32596 86.1626 2.32644C86.1594 2.3232 86.1563 2.31949 86.1531 2.31581C86.1457 2.3067 86.1377 2.29774 86.1282 2.2964C86.005 2.26805 85.8812 2.24137 85.7574 2.21478ZM78.5878 0.508914C78.4635 0.505087 78.3397 0.500867 78.2154 0.496646V0.496645C78.0498 0.491013 77.8843 0.485379 77.7192 0.480686C77.7039 0.480686 77.6885 0.484024 77.6737 0.487362C77.6658 0.489031 77.6584 0.4907 77.6505 0.491952C77.6589 0.493947 77.6669 0.496883 77.6753 0.499845C77.6907 0.505246 77.706 0.510728 77.7208 0.510728C77.9065 0.511391 78.0921 0.51065 78.2773 0.50991V0.509909V0.509909C78.381 0.509495 78.4841 0.509082 78.5878 0.508914ZM77.4965 2.08515C77.4553 2.08174 77.4135 2.07859 77.3717 2.07859C77.3632 2.07859 77.3553 2.08487 77.3474 2.09134C77.3426 2.09488 77.3384 2.09847 77.3336 2.10112V2.10111L77.3341 2.10109C77.3876 2.09578 77.4415 2.09046 77.4965 2.08515ZM77.5224 2.0835C77.5589 2.08189 77.5954 2.08047 77.6319 2.08047C77.6298 2.07671 77.6277 2.0692 77.6277 2.0692C77.5928 2.07251 77.5579 2.07728 77.5224 2.0835ZM103.069 24.791V24.7358C103.067 24.7535 103.067 24.7718 103.069 24.791ZM103.069 24.791C103.07 24.8124 103.073 24.8341 103.077 24.8559C103.074 24.8342 103.072 24.8125 103.069 24.791ZM103.069 24.5154V24.5131C103.067 24.5131 103.067 24.514 103.069 24.5154ZM103.129 25.1066V25.107C103.13 25.107 103.13 25.1068 103.129 25.1066ZM58.258 9.54236C58.2463 9.5555 57.8628 9.9529 57.8628 9.9529C57.8782 9.92472 58.2368 9.47663 58.2368 9.47663C58.2368 9.47663 58.7854 8.89834 59.061 8.60915C59.0768 8.59218 59.0932 8.57662 59.1101 8.56112V8.56107C59.1207 8.55091 59.1318 8.54075 59.1424 8.53028C59.1937 8.4777 59.2429 8.42517 59.2921 8.37259C59.281 8.39228 59.2704 8.41286 59.2598 8.43344C59.235 8.48152 59.2107 8.52975 59.1747 8.56783C58.9721 8.78564 58.7679 9.00173 58.5637 9.21786V9.21791C58.4616 9.32601 58.3595 9.4341 58.258 9.54236ZM64.4887 5.10361C64.5009 5.10442 64.5157 5.10541 64.5337 5.10541C64.5083 5.12586 64.4897 5.1421 64.4749 5.15553V5.15554C64.458 5.17045 64.4448 5.1819 64.431 5.19178C64.2697 5.29691 64.1062 5.40019 63.9433 5.50346C63.9243 5.51472 63.9031 5.52226 63.8825 5.52975C63.8857 5.52368 63.8878 5.51703 63.8904 5.51038C63.8957 5.49655 63.9005 5.48293 63.9111 5.47529C64.0872 5.35138 64.266 5.22933 64.4464 5.10728C64.4548 5.1013 64.4675 5.10218 64.4887 5.10361ZM62.5744 5.28287C62.5066 5.32886 62.4389 5.37484 62.3712 5.42087C62.3522 5.41333 62.3411 5.40961 62.3316 5.40961C62.3337 5.40411 62.3358 5.39804 62.3379 5.39196C62.3416 5.37945 62.3453 5.36709 62.3543 5.36075C62.4813 5.27439 62.6087 5.19178 62.7378 5.11104C62.7452 5.10353 62.7664 5.10728 62.7759 5.11292C62.7812 5.1148 62.7833 5.14108 62.7775 5.14484C62.7103 5.19084 62.6421 5.23685 62.5744 5.28287ZM102.891 23.1455C102.883 23.1546 102.877 23.1632 102.883 23.1705C102.886 23.1618 102.889 23.1535 102.891 23.1455ZM59.8798 7.8153C59.8883 7.81912 59.8994 7.82405 59.9131 7.82991C59.8433 7.89176 59.7793 7.94895 59.7169 8.00441V8.00462L59.7163 8.00499C59.6677 8.04862 59.6195 8.09119 59.5714 8.13409C59.5693 8.13409 59.5561 8.12471 59.5487 8.11911C59.6 8.06747 59.6513 8.01536 59.7021 7.96325C59.7534 7.91114 59.8047 7.85903 59.856 7.80739C59.8576 7.80493 59.8645 7.80807 59.8798 7.8153ZM59.3471 45.3966H59.3836C59.4318 45.4418 59.7952 45.7587 60.1818 46.0959L60.1855 46.0991L60.1861 46.0995L60.1877 46.1007L60.1882 46.1011C60.6346 46.4904 61.1102 46.9049 61.1668 46.9591C62.5468 48.1822 61.0843 46.9182 61.0843 46.9182L59.6608 45.7159C59.5582 45.6219 59.4556 45.528 59.3529 45.4323C59.3492 45.4273 59.3487 45.4182 59.3482 45.4093C59.3482 45.4048 59.3482 45.4004 59.3471 45.3966ZM60.2569 7.15992C60.2628 7.16448 60.2707 7.1705 60.2792 7.17647C60.2236 7.22476 60.1707 7.27163 60.1189 7.31751V7.31761V7.31767C60.0861 7.34668 60.0538 7.37533 60.021 7.40366L60.0041 7.38114C60.084 7.30415 60.1639 7.22717 60.2453 7.15207C60.2453 7.15107 60.2495 7.15448 60.2569 7.15992ZM76.4793 2.16121V2.16122V2.16122C76.409 2.16685 76.3391 2.17248 76.2725 2.17811C76.2043 2.17248 76.1397 2.16684 76.0752 2.15933C76.1001 2.15535 76.1244 2.15067 76.1492 2.14598C76.2064 2.13521 76.2635 2.12439 76.3217 2.12178C76.3555 2.12178 76.3905 2.13327 76.4254 2.14486C76.4434 2.15079 76.4613 2.15675 76.4793 2.16121V2.16121ZM59.874 45.1154C59.8787 45.1091 59.8846 45.102 59.8904 45.0943C59.9216 45.1317 59.9512 45.1661 59.9792 45.1989V45.1993C60.0105 45.2357 60.0401 45.2702 60.0686 45.3046L61.2493 46.4276C61.1832 46.3693 59.9168 45.207 59.8523 45.1469C59.8507 45.1455 59.8602 45.1337 59.874 45.1154ZM63.1705 6.00618C63.1441 6.02592 63.1166 6.04608 63.089 6.06677C63.0774 6.04986 63.07 6.0386 63.0716 6.0386L63.0721 6.03854C63.1552 5.97847 63.2387 5.9184 63.3244 5.86022C63.3255 5.86022 63.3292 5.86378 63.334 5.86792C63.3377 5.87111 63.3419 5.87467 63.3451 5.87713C63.2874 5.91877 63.2303 5.96135 63.1705 6.00602V6.00612V6.00618ZM102.919 23.3001C102.918 23.3005 102.918 23.3021 102.92 23.3048C102.92 23.3032 102.919 23.3016 102.919 23.3001ZM60.596 6.91137C60.5971 6.9121 60.5987 6.91289 60.6002 6.91362L60.5928 6.91969L60.5844 6.92692V6.92713C60.5521 6.95463 60.5257 6.97704 60.4976 6.99809C60.495 6.99946 60.486 6.99181 60.4775 6.98464C60.4765 6.98343 60.4749 6.98217 60.4738 6.98102C60.4722 6.97971 60.4707 6.97851 60.4691 6.97746C60.4796 6.9684 60.4902 6.95913 60.5008 6.94981V6.9497V6.94965C60.5209 6.9319 60.541 6.91393 60.5622 6.8967C60.5648 6.89534 60.5738 6.89995 60.586 6.90618L60.5902 6.90854C60.5918 6.90948 60.5939 6.91042 60.596 6.91137ZM104.943 27.0748C104.942 27.0756 104.941 27.0761 104.943 27.0761V27.0748ZM104.006 19.4558L104.007 19.4584C104.005 19.4587 104.004 19.4591 104.002 19.4595C104.002 19.4593 104.003 19.4591 104.003 19.4589C104.004 19.4579 104.005 19.4569 104.006 19.4558ZM103.967 19.3471L103.967 19.3457C103.964 19.3471 103.965 19.3475 103.967 19.3471ZM62.1009 5.59758C62.0808 5.61664 62.0602 5.6367 62.0375 5.65932C62.0364 5.65461 62.0359 5.65026 62.0348 5.64633C62.0327 5.6378 62.0316 5.63125 62.0353 5.62743C62.0655 5.59548 62.0978 5.56359 62.13 5.53164C62.13 5.52975 62.1454 5.54101 62.1528 5.54667C62.1358 5.56364 62.1189 5.58019 62.1009 5.59758ZM87.8685 2.9036C87.8812 2.91029 87.896 2.91828 87.9145 2.9273C87.8923 2.9297 87.8749 2.93313 87.8616 2.93583C87.8431 2.93947 87.8315 2.9418 87.822 2.93857C87.8045 2.93206 87.7892 2.91924 87.7738 2.90635C87.767 2.90064 87.7606 2.89493 87.7532 2.88975C87.7569 2.88915 87.7606 2.88846 87.7643 2.88774C87.7664 2.88724 87.7691 2.88672 87.7712 2.8862V2.8862L87.7717 2.88618C87.7876 2.88276 87.8029 2.87949 87.8177 2.88224C87.8336 2.8846 87.8474 2.8922 87.8685 2.9036ZM76.6227 0.513378C76.6317 0.519251 76.6422 0.526481 76.656 0.535138C76.6364 0.535138 76.6206 0.535546 76.6073 0.535892C76.5798 0.536594 76.5624 0.537039 76.546 0.533263C76.537 0.530681 76.5285 0.521014 76.5201 0.510953C76.5158 0.506368 76.5121 0.5017 76.5079 0.497585C76.5148 0.497071 76.5216 0.496276 76.5285 0.495469C76.547 0.493327 76.5666 0.491102 76.5856 0.49383C76.5957 0.495089 76.6052 0.501416 76.6227 0.513378ZM64.4078 4.24424C64.413 4.24693 64.4189 4.25007 64.4252 4.25294C64.4194 4.25776 64.4141 4.26237 64.4093 4.26677V4.26678C64.3887 4.28464 64.3718 4.2991 64.3549 4.31115C64.3538 4.31115 64.3459 4.3028 64.3379 4.29446C64.3337 4.29029 64.33 4.28611 64.3268 4.28299C64.3321 4.27898 64.3379 4.27485 64.3432 4.27068C64.3586 4.25923 64.3744 4.24756 64.3914 4.23792C64.3935 4.23676 64.3993 4.2399 64.4078 4.24424ZM104.284 20.6452C104.285 20.6469 104.285 20.6485 104.285 20.6499C104.288 20.6603 104.289 20.6733 104.288 20.6856C104.289 20.6769 104.289 20.6683 104.288 20.6601C104.287 20.6552 104.286 20.6504 104.284 20.6452ZM80.3847 51.156C80.391 51.1591 80.399 51.1629 80.409 51.1667C80.4032 51.1687 80.3979 51.1706 80.3932 51.1722L80.3926 51.1725C80.3704 51.1805 80.3567 51.1855 80.3424 51.1855C80.3371 51.1855 80.3307 51.1799 80.3249 51.1745C80.3223 51.1724 80.3202 51.1702 80.318 51.1686C80.3233 51.1666 80.3291 51.164 80.3344 51.1614C80.3445 51.1569 80.3545 51.1522 80.3651 51.1498C80.3699 51.1487 80.3757 51.1515 80.3847 51.156ZM56.0384 41.4161L56.0427 41.4209C56.0469 41.4259 56.0511 41.4312 56.0559 41.4366L56.0538 41.438L56.0511 41.4401C56.0448 41.445 56.0384 41.4498 56.0368 41.4498C56.0215 41.4329 56.0062 41.4159 55.9929 41.3972C55.9929 41.3953 56.0025 41.3859 56.0083 41.3803C56.0115 41.3843 56.0146 41.3881 56.0178 41.392C56.021 41.3956 56.0242 41.3992 56.0268 41.4027L56.0331 41.41L56.0337 41.4103V41.4105L56.0347 41.412L56.0384 41.4161ZM83.64 1.00738C83.6394 1.01019 83.6389 1.01301 83.6378 1.01582C83.6304 1.01522 83.6236 1.01481 83.6167 1.01442C83.6019 1.01356 83.5876 1.01275 83.5733 1.01019C83.5654 1.00763 83.5585 1.00246 83.5516 0.997049C83.55 0.995902 83.5484 0.994745 83.5469 0.993598C83.5458 0.992896 83.5447 0.992195 83.5442 0.991503C83.5432 0.990838 83.5421 0.990178 83.541 0.989534C83.549 0.989534 83.5559 0.988927 83.5633 0.988319C83.5744 0.987423 83.5849 0.986538 83.5961 0.987659C83.6061 0.988911 83.6161 0.991833 83.6267 0.99475C83.6315 0.996211 83.6368 0.997673 83.6415 0.998924C83.641 1.00174 83.6405 1.00456 83.64 1.00738ZM75.177 1.29369C75.1871 1.28898 75.1966 1.28452 75.2056 1.28058C75.2188 1.28433 75.2267 1.28621 75.2341 1.28809C75.2278 1.29122 75.2214 1.29456 75.2151 1.29789C75.2024 1.30457 75.1897 1.31125 75.177 1.31625C75.1717 1.3189 75.1648 1.315 75.1574 1.31115C75.1543 1.30956 75.1516 1.30797 75.149 1.30686C75.1585 1.30241 75.168 1.29796 75.177 1.29371V1.29369ZM86.024 1.59586V1.59587C86.0346 1.59808 86.0468 1.60067 86.0621 1.60354C86.0542 1.60843 86.0478 1.61284 86.0425 1.61661C86.0288 1.62586 86.0214 1.63116 86.0145 1.62982C86.0029 1.62721 85.9917 1.62096 85.9812 1.61487V1.61485C85.9764 1.61219 85.9716 1.60957 85.9669 1.60729C85.9679 1.6062 85.969 1.60502 85.9695 1.60381C85.9701 1.60315 85.9706 1.60248 85.9711 1.6018L85.9722 1.59998V1.59968C85.9764 1.59389 85.9796 1.58852 85.9822 1.58852C85.9954 1.58968 86.0076 1.59227 86.024 1.59586ZM84.3869 1.19149C84.3937 1.18976 84.4001 1.1881 84.407 1.18669C84.4239 1.19233 84.4371 1.19608 84.4482 1.19796C84.4445 1.19878 84.4403 1.1997 84.4355 1.20062C84.4202 1.20392 84.4043 1.20735 84.3895 1.20735C84.3816 1.20735 84.3736 1.20532 84.3657 1.20329C84.3604 1.20194 84.3551 1.20059 84.3498 1.19984C84.3631 1.19749 84.3752 1.19442 84.3869 1.19152V1.19149V1.19149ZM59.0795 45.1025L59.0832 45.1054L59.0869 45.1083C59.0911 45.1116 59.0959 45.1151 59.1006 45.1187C59.0911 45.1253 59.1789 45.2236 59.2308 45.2816V45.2816C59.253 45.3066 59.2688 45.3241 59.2673 45.3235C59.2535 45.3141 59.0419 45.1169 59.0303 45.1037C59.0287 45.1018 59.0472 45.0812 59.0493 45.0812C59.0594 45.0861 59.0684 45.0933 59.0795 45.1025ZM67.024 3.77601C67.0166 3.79291 67.0087 3.80981 67.0071 3.81169C66.9764 3.80793 66.969 3.80793 66.9595 3.80793C66.9632 3.80426 66.9669 3.80058 66.9701 3.79698L66.9722 3.79457V3.79451V3.7945C66.9796 3.78617 66.987 3.77841 66.9955 3.77225C66.9997 3.76952 67.0082 3.77177 67.0156 3.77392L67.0182 3.77462C67.0203 3.77516 67.0224 3.77565 67.024 3.77601ZM87.9674 2.41021V2.41033V2.41079C87.9659 2.41618 87.9637 2.42279 87.9622 2.42971C87.9463 2.41914 87.9331 2.41034 87.922 2.40267L87.9151 2.39806C87.9087 2.39394 87.9029 2.39014 87.8976 2.38653C87.9008 2.38583 87.9034 2.38433 87.9061 2.38283C87.9108 2.38034 87.9156 2.37785 87.9204 2.37902C87.9373 2.38277 87.9547 2.39028 87.9696 2.39779C87.9711 2.39779 87.9696 2.40277 87.9674 2.41021ZM57.6729 10.1901C57.6671 10.1977 57.6618 10.2052 57.6539 10.2127C57.6534 10.2118 57.6518 10.2108 57.6507 10.2096C57.6465 10.2058 57.6412 10.201 57.6428 10.1996C57.6486 10.192 57.6539 10.1845 57.6618 10.1789L57.6729 10.1901ZM82.107 0.727477V0.727498V0.727687L82.1075 0.727723C82.1102 0.729148 82.1139 0.730677 82.1176 0.732296C82.1134 0.73395 82.1102 0.735605 82.107 0.737072V0.737093C82.0996 0.740602 82.0948 0.743005 82.0906 0.741681C82.0832 0.739177 82.0758 0.735008 82.0679 0.730834C82.0642 0.72875 82.0605 0.72666 82.0568 0.724785C82.0583 0.724167 82.061 0.722942 82.0631 0.721643C82.0684 0.718988 82.0737 0.716013 82.0774 0.717275C82.088 0.718721 82.0959 0.722413 82.107 0.727477ZM80.0435 0.551373C80.0462 0.552776 80.0488 0.554285 80.052 0.555793C80.0477 0.556736 80.0435 0.557799 80.0393 0.55883V0.558836C80.0276 0.561905 80.0165 0.564707 80.0065 0.563303C80.0012 0.562051 79.9964 0.557464 79.9911 0.552876C79.989 0.550577 79.9864 0.548283 79.9837 0.546403C79.9917 0.546403 79.9991 0.545905 80.0059 0.545418C80.0128 0.544968 80.0192 0.544528 80.0255 0.544528C80.0308 0.544528 80.0366 0.547544 80.0435 0.551373ZM74.985 0.299542C74.9903 0.299348 74.9972 0.299125 75.0046 0.298551C74.9966 0.304875 74.9908 0.310147 74.9855 0.314564C74.9776 0.321951 74.9718 0.326947 74.9644 0.330471C74.9607 0.333008 74.9543 0.332118 74.948 0.331273C74.9453 0.330867 74.9421 0.330471 74.94 0.330471C74.9416 0.327578 74.9432 0.324328 74.9448 0.321106C74.9485 0.313873 74.9517 0.306782 74.957 0.304184C74.9638 0.300272 74.9718 0.299982 74.985 0.299542ZM59.5693 7.92753C59.5741 7.92125 59.5793 7.91392 59.5867 7.90501C59.5878 7.90768 59.5899 7.91035 59.5915 7.91282C59.5947 7.91737 59.5973 7.92135 59.5963 7.92381C59.592 7.9313 59.5867 7.93884 59.5788 7.94256C59.5751 7.94382 59.5709 7.9434 59.5656 7.94303L59.5651 7.94298C59.5645 7.94288 59.5635 7.94282 59.5629 7.94277C59.5614 7.94267 59.5598 7.94256 59.5582 7.94256C59.5619 7.93811 59.5651 7.93324 59.5693 7.92753ZM75.6637 52.1182L75.6896 52.1202C75.6806 52.1201 75.6721 52.1194 75.6637 52.1182ZM80.8856 51.9761C80.8639 51.9791 80.8428 51.9821 80.8211 51.985C80.91 51.9565 80.9877 51.925 81.0522 51.8902C81.1549 51.8347 81.2411 51.79 81.3125 51.7546C81.1099 51.8209 80.8142 51.8898 80.4931 51.8858C80.1398 51.8814 79.8986 51.9592 79.6431 52.0416V52.0416C79.5315 52.0776 79.4172 52.1144 79.2897 52.1457C78.8935 52.1743 78.501 52.1925 78.1133 52.2012C78.0165 52.1909 77.9134 52.1773 77.8039 52.1602C76.5925 51.9702 76.0979 52.0568 75.8483 52.1005C75.7806 52.1124 75.7308 52.1211 75.6896 52.1202C76.1059 52.153 76.6544 52.1857 77.2453 52.2047C76.7301 52.1975 76.2238 52.1736 75.7266 52.135C70.7443 51.7131 66.6284 49.6373 62.7362 47.2289C64.7325 48.8671 69.5181 51.6527 75.7266 52.135C76.319 52.1851 76.9237 52.2119 77.542 52.2131C77.8123 52.2194 78.0879 52.2226 78.3609 52.2214C78.5666 52.2329 78.7422 52.2282 78.8967 52.2131C79.6748 52.1913 80.3842 52.1253 80.8211 51.9851C80.8422 51.9822 80.8639 51.9791 80.8856 51.9761ZM81.4458 51.8905C81.2575 51.9213 81.0708 51.9498 80.8856 51.9761C81.0713 51.9499 81.258 51.9214 81.4458 51.8905ZM78.8967 52.2131C78.7206 52.218 78.5412 52.2207 78.3609 52.2214C78.2963 52.2179 78.2286 52.2127 78.1577 52.2057C78.5238 52.1964 78.8951 52.1781 79.2707 52.1503C79.1585 52.177 79.0364 52.1994 78.8967 52.2131ZM83.8288 51.8857C79.0438 53.0655 75.6145 52.7261 71.781 51.8465C71.9503 51.8588 72.2116 51.9093 72.5634 51.9774V51.9774C74.2582 52.3053 78.0599 53.0408 83.8288 51.8857ZM72.1116 50.9805C75.4013 51.9008 77.8938 52.2177 82.4223 51.1498C77.4981 52.2416 74.2365 51.4657 72.7824 51.1198C72.4803 51.048 72.2566 50.9946 72.1116 50.9805ZM72.1413 52.0635C67.3282 51.0017 64.413 49.1803 61.3815 46.6974C61.5302 46.7852 61.7444 46.9558 62.0337 47.1866C63.3879 48.2669 66.3946 50.6659 72.1413 52.0635Z" fill="white"/>
<path d="M4.875 28.497L1.1986 20.938H0V32.1519H1.1986V23.3762L4.41671 29.9081H5.33331L8.53626 23.3762V32.1519H9.7349V20.938H8.53626L4.875 28.497Z" fill="white"/>
<path d="M15.2798 20.938L11.1602 32.1519H12.4242L13.2451 29.8233L13.7236 28.4472H13.7186L15.7733 22.5984L17.0978 26.348L17.8381 28.4472H17.8331L18.2863 29.7386L19.1375 32.1519H20.4015L16.2819 20.938H15.2798Z" fill="white"/>
<path d="M28.8873 29.943L23.0252 20.938H21.8267V32.1519H23.0252V23.117L28.8873 32.1519H30.086V20.938H28.8873V29.943Z" fill="white"/>
<path d="M31.5264 22.01H34.7596V32.1519H35.9431V22.01H39.1763V20.938H31.5264V22.01Z" fill="white"/>
<path d="M47.5966 26.0738C48.0247 25.5552 48.2363 24.892 48.2363 24.0892C48.2363 23.082 47.9341 22.3042 47.3247 21.7557C46.7204 21.2123 45.8844 20.938 44.8217 20.938H40.6216V32.1519H41.8202V27.2305H44.5448L47.1031 32.1519H48.483L45.8088 27.1158C46.5743 26.9413 47.1686 26.5923 47.5966 26.0738ZM41.8202 26.2034V22.01H44.726C45.4714 22.01 46.0405 22.1845 46.4434 22.5386C46.8362 22.8926 47.0376 23.4161 47.0376 24.1092C47.0376 24.7823 46.8362 25.2959 46.4283 25.6599C46.0254 26.0239 45.4563 26.2034 44.721 26.2034H41.8202Z" fill="white"/>
<path d="M67.3584 20.938H63.4854V32.1519H67.3584C68.5618 32.1519 69.5187 31.8078 70.2239 31.1198C70.929 30.4316 71.2813 29.3447 71.2813 27.8638V25.2311C71.2813 23.7452 70.929 22.6632 70.2239 21.9751C69.514 21.2821 68.5618 20.938 67.3584 20.938ZM70.0625 27.9286C70.0625 30.0278 69.1665 31.0798 67.3733 31.0798H64.6993V22.01H67.3733C68.2397 22.01 68.9046 22.2693 69.368 22.7879C69.8308 23.3064 70.0678 24.1341 70.0678 25.276V27.9286H70.0625Z" fill="white"/>
<path d="M89.5531 21.8255C88.8479 21.1375 87.8958 20.7935 86.7072 20.7935C85.5038 20.7935 84.5469 21.1375 83.837 21.8255C83.1266 22.5137 82.769 23.6006 82.769 25.0815V27.9885C82.769 29.4744 83.1219 30.5564 83.827 31.2444C84.5316 31.9325 85.4885 32.2765 86.6924 32.2765C87.8858 32.2765 88.8379 31.9325 89.5478 31.2444C90.2582 30.5564 90.6158 29.4693 90.6158 27.9885V25.0815C90.6158 23.6006 90.2629 22.5137 89.5531 21.8255ZM89.4171 28.0583C89.4171 30.1474 88.5152 31.1946 86.7072 31.1946C85.8111 31.1946 85.1309 30.9453 84.6628 30.4466C84.1946 29.948 83.9629 29.1502 83.9629 28.0583V25.1314C83.9629 23.9846 84.1946 23.1519 84.6527 22.6383C85.1108 22.1247 85.7958 21.8654 86.7024 21.8654C88.5052 21.8654 89.4118 22.9524 89.4118 25.1314V28.0583H89.4171Z" fill="white"/>
<path d="M81.7161 32.1519L77.5965 20.938H76.5947L72.4751 32.1519H73.7388L74.419 30.2272L75.0385 28.4472L75.5119 27.0909L77.0882 22.5984L79.1581 28.4472H79.1528L79.7473 30.1424L80.4524 32.1519H81.7161Z" fill="white"/>
<path d="M58.4945 32.1519L54.3749 20.938H53.3731L49.2534 32.1519H50.5175L51.3182 29.8782L51.8168 28.4472H51.8118L53.8666 22.5984L55.745 27.9136L55.9312 28.4472L56.43 29.8782L57.2308 32.1519H58.4945Z" fill="white"/>
</svg>
