<svg width="105" height="53" viewBox="0 0 105 53" fill="none" xmlns="http://www.w3.org/2000/svg">
<g clip-path="url(#clip0)">
<path d="M63.3375 4.42927C63.2233 4.50814 63.1646 4.54945 63.1037 4.59075C62.6255 4.91747 62.1474 5.24604 61.6671 5.5709C61.6269 5.59719 61.574 5.60468 61.5264 5.6216C61.557 5.5897 61.5851 5.55027 61.6216 5.52586C62.1357 5.15969 62.6504 4.79354 63.1667 4.43303C63.191 4.41425 63.2386 4.42927 63.3375 4.42927Z" fill="black"/>
<path d="M57.9347 11.0107C57.9024 11.0051 57.895 11.0032 57.8855 11.0014C57.8892 10.9788 57.8876 10.9507 57.8987 10.9356C58.0638 10.7329 58.233 10.5338 58.4018 10.3329C58.4097 10.3235 58.4245 10.3197 58.4378 10.3123C58.4399 10.3197 58.4473 10.3291 58.4457 10.3329C58.2748 10.5638 58.1019 10.791 57.9347 11.0107Z" fill="black"/>
<path d="M58.6619 9.72693C58.6307 9.71808 58.6233 9.71546 58.6138 9.71263C58.6201 9.69058 58.6212 9.66241 58.6339 9.64858C58.819 9.4634 59.0073 9.2823 59.1962 9.09931C59.2046 9.09072 59.4178 8.85505 59.4321 8.84887C59.5062 8.77895 59.9965 8.26692 59.4734 8.84887C59.2797 9.06155 58.8508 9.52509 58.6619 9.72693Z" fill="black"/>
<path d="M58.9778 8.04583C59.1026 7.88311 59.5734 7.39297 60.2595 6.73617C60.4552 6.56178 60.79 6.25257 60.9889 6.08059C60.9979 6.07247 61.1137 5.98605 61.128 5.98071C61.1285 5.98841 61.0349 6.08399 61.0323 6.08739C60.8265 6.28876 59.3999 7.52767 58.9778 8.04583Z" fill="black"/>
<path d="M58.4097 11.6321C58.2764 11.8274 58.1436 12.0245 58.0087 12.2198C57.9976 12.2367 57.9633 12.2404 57.9389 12.2499C57.9368 12.2329 57.9294 12.2085 57.9368 12.1991C58.0923 12.0095 58.2521 11.8217 58.4097 11.6321Z" fill="black"/>
<path d="M55.6515 13.0605C55.5399 13.2686 55.4288 13.4786 55.3156 13.6868C55.3061 13.7048 55.2728 13.7121 55.249 13.724C55.2453 13.7074 55.2352 13.684 55.2416 13.6738C55.3764 13.469 55.515 13.2656 55.6515 13.0605Z" fill="black"/>
<path d="M81.8705 50.8888C81.9329 50.8718 81.9938 50.8474 82.0567 50.8399C82.1646 50.8268 82.2731 50.8249 82.381 50.8174C82.271 50.8418 82.1631 50.8718 82.0525 50.8888C81.9938 50.8981 81.9292 50.8869 81.8684 50.8869L81.8705 50.8888Z" fill="black"/>
<path d="M63.768 4.17794C63.7548 4.19108 63.7437 4.20798 63.7283 4.21549C63.6675 4.24741 63.6051 4.27558 63.5421 4.3075C63.5421 4.29248 63.5369 4.26619 63.5421 4.26243C63.6125 4.22864 63.685 4.19672 63.7548 4.16479C63.7606 4.16855 63.7643 4.17418 63.768 4.17794Z" fill="black"/>
<path d="M61.2434 5.94272C61.2074 5.89763 61.1963 5.88448 61.1963 5.8826C61.2608 5.82253 61.3254 5.76246 61.3915 5.70422C61.3936 5.70234 61.4163 5.72302 61.4163 5.72491C61.3634 5.79435 61.3079 5.86197 61.2434 5.94272Z" fill="black"/>
<path d="M58.871 11.1741C58.7986 11.2323 58.7377 11.2811 58.6753 11.33C58.6679 11.3206 58.6526 11.3018 58.6526 11.3018C58.7113 11.2511 58.77 11.2004 58.8308 11.1516C58.833 11.1497 58.8462 11.1609 58.871 11.1741Z" fill="black"/>
<path d="M59.655 9.75072C59.6757 9.73003 59.6984 9.71128 59.7196 9.69065C59.7555 9.66059 59.7915 9.63053 59.8275 9.59863C59.8317 9.60235 59.837 9.60612 59.8407 9.61178C59.7804 9.6587 59.7175 9.70563 59.655 9.75072Z" fill="black"/>
<path d="M57.656 10.5075C57.6825 10.4831 57.7015 10.4663 57.7221 10.4475C57.7279 10.455 57.7391 10.4663 57.7375 10.4681C57.7205 10.4887 57.7031 10.5094 57.6846 10.5281C57.6825 10.53 57.6671 10.5187 57.656 10.5075Z" fill="black"/>
<path d="M61.5109 8.00444C61.5342 8.00255 61.5569 8.00066 61.5797 7.99878C61.5299 8.0345 61.4786 8.07016 61.4294 8.10583C61.4559 8.07205 61.4845 8.03822 61.5109 8.00444Z" fill="black"/>
<path d="M58.9202 44.1462C58.9598 44.1876 58.9979 44.2289 59.0376 44.2702C58.9979 44.2289 58.9598 44.1876 58.9202 44.1462Z" fill="black"/>
<path d="M55.0543 13.3467C55.0369 13.3674 54.9337 13.6055 54.9205 13.6243C54.9147 13.613 54.9015 13.598 54.9052 13.5905C54.9147 13.5717 55.0406 13.3636 55.0543 13.3467Z" fill="black"/>
<path d="M58.3752 11.1853C58.4112 11.1665 58.4456 11.1477 58.4816 11.1289C58.4472 11.1477 58.4112 11.1665 58.3752 11.1853Z" fill="black"/>
<path d="M63.911 4.09347C63.8634 4.12163 63.8158 4.1498 63.7682 4.17796C63.7645 4.17421 63.7608 4.16857 63.7571 4.16482C63.8047 4.13665 63.8518 4.10849 63.8994 4.08032C63.9015 4.08408 63.9068 4.08971 63.911 4.09347Z" fill="black"/>
<path d="M60.8561 9.0747C60.8789 9.07286 60.9022 9.07098 60.9249 9.06909C60.8847 9.08784 60.845 9.10664 60.8032 9.12544C60.8223 9.10853 60.8392 9.09161 60.8561 9.0747Z" fill="black"/>
<path d="M57.0371 41.5998C57.0144 41.5716 56.9932 41.5417 56.9705 41.5135C56.9784 41.5117 56.9916 41.5061 56.9932 41.5098C57.0123 41.5361 57.0292 41.5623 57.0482 41.5885C57.0445 41.5923 57.0408 41.596 57.0371 41.5998Z" fill="black"/>
<path d="M58.4111 11.6341C58.4264 11.6079 58.4412 11.5817 58.455 11.5554C58.4624 11.561 58.4698 11.5666 58.4777 11.5723C58.455 11.591 58.4323 11.6116 58.4111 11.6341C58.4095 11.6322 58.4111 11.6341 58.4111 11.6341Z" fill="black"/>
<path d="M81.869 50.887C81.8119 50.8964 81.7532 50.9039 81.696 50.9133L81.6982 50.9151C81.7548 50.9058 81.8135 50.8982 81.8706 50.8888L81.869 50.887Z" fill="black"/>
<path d="M67.3488 50.9152C67.4456 50.9527 67.5403 50.9903 67.6371 51.0297C67.6541 51.0484 67.6731 51.0672 67.6906 51.086L67.6921 51.0842C67.2822 50.9152 66.8738 50.7462 66.4639 50.5771C66.7585 50.6898 67.0526 50.8025 67.3488 50.9152Z" fill="black"/>
<path d="M56.5432 42.2478C56.5564 42.2872 56.5718 42.3285 56.585 42.3679C56.5697 42.3285 56.5564 42.2872 56.5432 42.2478Z" fill="black"/>
<path d="M82.7909 2.04314C82.7809 2.04129 82.7708 2.03943 82.7608 2.03756C82.5349 2.0099 82.0626 2.21046 80.2736 1.73971C80.0636 1.68445 79.8774 1.64164 79.7102 1.60902C79.3532 1.57369 78.9988 1.54487 78.6587 1.52583C78.2032 1.56149 77.9409 1.69233 77.3288 1.6231C76.994 1.58523 76.6523 1.63013 76.3799 1.69326C75.7832 1.83142 75.5171 2.05691 76.3799 1.69326C76.392 1.68817 76.4042 1.68297 76.4169 1.67765C76.8422 1.49684 77.6891 1.47149 78.6587 1.52583C78.9157 1.50575 79.2337 1.51587 79.7102 1.60902C80.8412 1.72095 81.9943 1.8983 82.7608 2.03756C82.7714 2.03887 82.7814 2.0407 82.7909 2.04314Z" fill="black"/>
<path fill-rule="evenodd" clip-rule="evenodd" d="M99.7875 42.2595C99.8711 42.1514 99.9547 42.0433 100.039 41.9361C100.091 41.8597 100.141 41.7849 100.193 41.7103V41.7102C100.285 41.576 100.376 41.4425 100.468 41.3014C100.524 41.2162 100.586 41.1343 100.648 41.0525V41.0524C100.716 40.963 100.784 40.8735 100.844 40.7794C101.041 40.4696 101.237 40.1579 101.414 39.8368C101.484 39.7076 101.556 39.5786 101.628 39.4496V39.4495V39.4494L101.628 39.4493C101.909 38.9447 102.19 38.4396 102.434 37.9178C102.651 37.4583 102.836 36.9832 103.021 36.5086V36.5085V36.5085C103.092 36.3257 103.163 36.143 103.236 35.9613C103.259 35.9045 103.281 35.8476 103.305 35.7908V35.7907V35.7907V35.7906C103.414 35.5205 103.524 35.2493 103.611 34.9718C103.795 34.3859 103.966 33.7963 104.126 33.203C104.134 33.1731 104.142 33.1432 104.15 33.1133L104.164 33.0612C104.324 32.4624 104.485 31.8632 104.606 31.2559C104.724 30.6719 104.802 30.0767 104.865 29.4814C104.925 28.8975 104.976 28.3079 104.98 27.722C104.981 27.4689 104.986 27.2086 104.99 26.9458V26.9456V26.9455V26.9454V26.9454C104.998 26.4094 105.007 25.8633 104.991 25.3468C104.975 25.1479 104.963 24.9485 104.951 24.7492V24.749C104.924 24.3214 104.898 23.8941 104.832 23.4729C104.658 22.3444 104.441 21.2234 104.223 20.1024C103.564 16.7269 101.884 13.6136 99.7901 10.9037C97.9985 8.59386 96.0271 6.55053 93.5769 4.89511C90.0598 2.51617 86.3634 0.959195 82.0946 0.343615C81.3773 0.241657 80.6542 0.171766 79.9322 0.101955C79.7629 0.0856269 79.5942 0.0693033 79.4254 0.0525747C79.2043 0.0308318 78.9822 0.0221569 78.7605 0.0134945C78.6568 0.00943986 78.5532 0.00538798 78.4495 0H78.1363H77.9369H77.8518V6.57404e-06V7.57921e-06C77.8041 0.0169042 77.7565 0.0338002 77.7073 0.046942C77.6994 0.0482682 77.6894 0.0430373 77.6798 0.0378655C77.6756 0.035715 77.6714 0.0335749 77.6677 0.0319206C77.6751 0.0262875 77.6825 0.0211239 77.6894 0.0159603C77.6962 0.0107967 77.7036 0.00563303 77.711 0H77.5688C77.4582 0.007557 77.3471 0.0145057 77.236 0.0214582C77.071 0.0317804 76.9054 0.0421109 76.7409 0.0544528C76.2135 0.0957614 75.6856 0.138948 75.1598 0.18589C75.0509 0.19533 74.9419 0.204015 74.8329 0.212695C74.4865 0.240274 74.141 0.267791 73.7988 0.319206C73.2672 0.398068 72.7377 0.497585 72.2156 0.621514C71.5094 0.788626 70.807 0.978269 70.1103 1.18106C69.9405 1.23102 69.7781 1.30324 69.6152 1.37559C69.4909 1.43104 69.3655 1.48656 69.237 1.53219C69.0582 1.59519 68.8752 1.64848 68.6921 1.70172C68.5536 1.7421 68.4155 1.78244 68.2785 1.82698C68.2446 1.83851 68.2166 1.86577 68.1886 1.89317C68.1616 1.91931 68.1346 1.94558 68.1018 1.95842C67.9452 2.02228 67.7871 2.08262 67.6289 2.14292V2.14293C67.3877 2.2351 67.1465 2.32717 66.9101 2.43159C66.479 2.62124 66.0574 2.82966 65.6416 3.04559C65.1216 3.31598 64.6075 3.60139 64.0949 3.8868C64.0425 3.91587 64.0002 3.96281 63.9579 4.00986V4.00986V4.00987V4.00987V4.00988C63.9378 4.03271 63.9172 4.05558 63.8955 4.07644C63.8992 4.079 63.9023 4.08245 63.905 4.08557V4.08558C63.9061 4.08702 63.9076 4.08839 63.9087 4.08958C64.1393 3.97138 64.3689 3.85124 64.5985 3.73113V3.73113C65.047 3.49636 65.4956 3.2617 65.951 3.04184C66.4499 2.80269 66.9555 2.57971 67.4618 2.35665L67.4623 2.35663V2.35661C67.6675 2.26618 67.8728 2.17575 68.0775 2.08422C68.1468 2.05345 68.2156 2.02137 68.2843 1.9893C68.4758 1.90001 68.6673 1.81078 68.8672 1.74999C69.018 1.70404 69.174 1.67351 69.3301 1.64304C69.5306 1.60378 69.7305 1.56464 69.9188 1.49276L69.949 1.48127L69.9786 1.46991C70.3261 1.3367 70.6689 1.20537 71.0408 1.13787C71.3745 1.07739 71.7057 1.00033 72.0368 0.923216V0.923205C72.2405 0.875841 72.4441 0.82845 72.6483 0.784871C72.7171 0.770511 72.7885 0.76884 72.8594 0.76717C72.9276 0.765562 72.9964 0.763959 73.0625 0.751071C73.2021 0.723508 73.3418 0.68956 73.4809 0.655634C73.711 0.599429 73.9416 0.543292 74.1749 0.516361C74.6568 0.458563 75.1445 0.433711 75.6306 0.40894C75.7126 0.404741 75.7951 0.400544 75.8776 0.39619C76.1601 0.381157 76.4431 0.374482 76.7266 0.367801C76.8684 0.364468 77.0096 0.361133 77.1514 0.356759C77.2154 0.354865 77.2794 0.352734 77.3434 0.350604C77.5328 0.344284 77.7222 0.337982 77.9126 0.337982C78.0216 0.337982 78.1305 0.343647 78.2395 0.349312C78.3384 0.354466 78.4373 0.35962 78.5368 0.360514C78.6325 0.362042 78.7283 0.359531 78.8235 0.357025C78.9621 0.35337 79.1006 0.349725 79.2392 0.358637C79.8544 0.399945 80.4675 0.454396 81.0806 0.508848V0.508851C81.1329 0.51283 81.1832 0.532734 81.234 0.552687C81.2551 0.560978 81.2758 0.569279 81.2969 0.576448C81.2721 0.577082 81.2472 0.577925 81.2229 0.578768C81.1742 0.580429 81.1261 0.582078 81.0769 0.582078C81.016 0.583958 80.9552 0.583958 80.8944 0.582078C80.7161 0.574547 80.5384 0.565759 80.3601 0.556971C80.0057 0.539474 79.6513 0.521985 79.2964 0.514484C79.1139 0.510573 78.9314 0.509151 78.7494 0.508883C78.7589 0.507242 78.7685 0.505229 78.778 0.503205C78.7875 0.50123 78.797 0.499244 78.8065 0.497585C78.796 0.493328 78.7854 0.48789 78.7753 0.482418C78.7531 0.470993 78.7309 0.459423 78.7076 0.458154C78.5775 0.454065 78.4474 0.448726 78.3167 0.443384V0.443383C77.9681 0.429095 77.619 0.414789 77.2709 0.424356C76.5701 0.44501 75.8697 0.482563 75.1715 0.546403C74.8816 0.572316 74.5944 0.62773 74.3071 0.68304C74.1781 0.707885 74.049 0.732709 73.9205 0.754826C73.8215 0.772313 73.7226 0.789616 73.6237 0.806909L73.6232 0.807014C73.4042 0.845397 73.1852 0.883717 72.9657 0.923818C72.7546 0.961861 72.543 0.998568 72.332 1.03528V1.03528C71.7924 1.12902 71.2524 1.22275 70.7181 1.33878C70.3134 1.42704 69.9225 1.57537 69.5353 1.72558C69.0529 1.91242 68.5726 2.10777 68.0923 2.30318L68.0918 2.3032C67.8241 2.41218 67.5559 2.52119 67.2877 2.62875C67.1581 2.6807 67.0264 2.72896 66.8947 2.77725C66.6509 2.86685 66.4065 2.95654 66.1732 3.07C65.5527 3.37043 64.9412 3.68964 64.3414 4.02762C63.6638 4.41067 62.9883 4.8031 62.3408 5.23309C62.1261 5.37432 61.9436 5.5629 61.7616 5.75139C61.6796 5.83607 61.5976 5.92071 61.513 6.00105C61.4892 6.02545 61.4654 6.04944 61.4421 6.07337C61.4183 6.0973 61.3945 6.12124 61.3707 6.14564C61.3056 6.19974 61.2406 6.25416 61.1761 6.30862L61.1755 6.30873V6.30889C61.0264 6.43395 60.8772 6.55917 60.7254 6.68078C60.6127 6.77133 60.4979 6.8601 60.3831 6.94892V6.94897C60.1604 7.12174 59.9372 7.29467 59.7267 7.48065C59.6145 7.57926 59.5209 7.69909 59.4273 7.81907C59.3654 7.89784 59.304 7.97666 59.2369 8.04961C59.0607 8.2405 58.8793 8.427 58.6984 8.61334V8.61344L58.6978 8.61355V8.6136V8.6137C58.6153 8.69844 58.5328 8.78318 58.4513 8.86828C58.4513 8.87781 58.4513 8.88708 58.4519 8.89625V8.8963C58.4529 8.91421 58.4535 8.9316 58.4513 8.94904C58.4498 8.95443 58.4355 8.95689 58.4222 8.9593C58.417 8.96019 58.4117 8.96108 58.4074 8.96218C58.4122 8.94998 58.4164 8.93731 58.4207 8.92463V8.92458C58.4249 8.91191 58.4291 8.89923 58.4339 8.88703C58.3503 8.97905 58.2651 9.07106 58.1794 9.16308C58.1969 9.14863 58.2149 9.13512 58.2329 9.12181C58.2408 9.11616 58.2482 9.1105 58.2556 9.10484L58.2667 9.12176C58.253 9.13113 58.2382 9.14009 58.2234 9.14899C58.2085 9.1579 58.1937 9.16685 58.1794 9.17623C58.1403 9.22729 58.1022 9.27908 58.0636 9.33083C57.9742 9.45222 57.8843 9.57373 57.7827 9.68695C57.6515 9.83365 57.5161 9.97736 57.3812 10.121C57.1644 10.3523 56.947 10.5834 56.7444 10.8267C56.6047 10.9952 56.4878 11.1826 56.3709 11.3701V11.3701C56.3069 11.4729 56.2429 11.5757 56.1752 11.6754C56.0054 11.9269 55.8308 12.1882 55.6563 12.4496L55.6557 12.4498C55.4812 12.7111 55.3066 12.9725 55.1368 13.2242C55.2442 13.0735 55.3796 12.9191 55.5135 12.7661C55.6288 12.6351 55.7425 12.5051 55.8372 12.3795C56.1334 11.9871 56.437 11.6022 56.7465 11.221C56.9205 11.0072 57.1035 10.8022 57.2866 10.5968V10.5967L57.2871 10.5966V10.5966V10.5965V10.5965C57.3437 10.5332 57.4003 10.4698 57.4563 10.4061C57.4706 10.3894 57.4923 10.3797 57.514 10.3699C57.5241 10.3653 57.5341 10.3607 57.5436 10.3554C57.5405 10.3667 57.5389 10.3792 57.5368 10.3917C57.533 10.4168 57.5294 10.4418 57.5151 10.4568C57.4839 10.4902 57.4489 10.5209 57.4146 10.5515C57.3638 10.5966 57.313 10.6416 57.2723 10.6953C57.0067 11.0464 56.7465 11.4031 56.492 11.7618C56.3529 11.9586 56.2323 12.1576 56.1112 12.3573V12.3574C56.0107 12.5234 55.9096 12.6899 55.7975 12.8562L55.7927 12.8631C55.7896 12.8672 55.788 12.8697 55.7864 12.8722L55.7832 12.8768L55.7795 12.882C55.7716 12.8929 55.7568 12.9146 55.7155 12.9729V12.9728L55.7161 12.9727V12.9727C55.7351 12.956 55.7451 12.9474 55.7552 12.9384C55.7658 12.9285 55.7758 12.9184 55.7975 12.8971V12.8971C55.8314 12.85 55.8647 12.803 55.8985 12.756C56.0361 12.5631 56.1731 12.3715 56.3212 12.1842C56.4518 12.0184 56.582 11.8515 56.7116 11.6846V11.6846V11.6845V11.6845V11.6844C57.122 11.1562 57.5325 10.628 57.9784 10.1301C58.5899 9.44505 59.2458 8.79711 59.9002 8.15037C59.9525 8.09863 60.0049 8.04689 60.0573 7.99514C60.4879 7.56894 60.9454 7.16144 61.4088 6.76714C61.5643 6.63453 61.7373 6.52088 61.9097 6.40745V6.4074V6.40734C62.0086 6.34251 62.107 6.27772 62.2022 6.20948C62.325 6.1214 62.4456 6.03027 62.5662 5.93919C62.7719 5.7836 62.9777 5.62821 63.193 5.48843C63.485 5.29969 63.7833 5.12141 64.0822 4.94316C64.288 4.82 64.4943 4.69686 64.6984 4.57027C65.6739 3.96566 66.699 3.45868 67.7717 3.04372C67.9019 2.99225 68.032 2.94024 68.1621 2.88822V2.8882V2.88819C68.6255 2.703 69.0889 2.51773 69.5618 2.35649C70.105 2.17139 70.6583 2.01297 71.2116 1.85451V1.85451L71.2122 1.85443C71.2984 1.82967 71.3851 1.8049 71.4713 1.78004C71.7829 1.68991 72.0998 1.60541 72.4187 1.54721C72.6187 1.51176 72.8197 1.48778 73.0212 1.46378C73.1931 1.4433 73.3656 1.42279 73.537 1.39511C73.6671 1.37426 73.7951 1.34374 73.9236 1.31325C74.0723 1.27788 74.2214 1.24254 74.3722 1.22237C74.7816 1.16922 75.1926 1.12735 75.6036 1.08546C75.7734 1.06815 75.9432 1.05084 76.113 1.03272C76.1606 1.0275 76.2077 1.02167 76.2553 1.01585C76.395 0.998668 76.5341 0.981553 76.6748 0.980149C76.9181 0.977803 77.1609 0.982789 77.4042 0.987774C77.5502 0.99077 77.6962 0.99376 77.8422 0.995169C78.0004 0.996243 78.1591 0.997007 78.3172 0.997777C78.7134 0.999689 79.1091 1.00161 79.5053 1.00831C79.5661 1.00962 79.627 1.03191 79.6878 1.0542C79.7105 1.06259 79.7333 1.07099 79.7566 1.07827C79.6984 1.08057 79.6402 1.08361 79.582 1.08666C79.445 1.09384 79.308 1.10102 79.171 1.09844C79.0964 1.09674 79.0218 1.0862 78.9478 1.07569C78.8578 1.06297 78.7685 1.0503 78.6796 1.05338C78.1242 1.07135 77.5703 1.09928 77.016 1.12727C76.9329 1.13144 76.8504 1.13561 76.7679 1.13975C76.6843 1.14405 76.6007 1.14817 76.5172 1.15229C76.1263 1.17158 75.7354 1.19087 75.346 1.228C75.1255 1.24881 74.907 1.28496 74.6885 1.32116C74.5319 1.34701 74.3759 1.37289 74.2183 1.39323C74.0945 1.40885 73.9691 1.41887 73.8438 1.42889C73.6528 1.44418 73.4618 1.45947 73.2751 1.49463C73.0942 1.52836 72.9181 1.5823 72.7419 1.63627C72.624 1.67243 72.506 1.7086 72.3865 1.73873C72.2294 1.7782 72.0707 1.81172 71.9114 1.84522C71.6242 1.90574 71.337 1.96621 71.0635 2.06169C70.963 2.09668 70.863 2.13161 70.7631 2.16654C69.6914 2.54032 68.6197 2.91426 67.576 3.35729C66.8995 3.64365 66.2504 3.99796 65.603 4.35159C65.4099 4.45707 65.2168 4.56249 65.0232 4.66603C64.6223 4.87821 64.2335 5.11667 63.8558 5.36641C63.3924 5.67435 62.937 5.99544 62.4905 6.32779C62.1017 6.61693 61.7198 6.91922 61.3496 7.23282C61.1105 7.43686 60.8814 7.65169 60.6518 7.86668V7.86673C60.5646 7.94853 60.4773 8.03034 60.3895 8.11157C60.3625 8.13681 60.3403 8.1686 60.3181 8.20034C60.3091 8.21348 60.3001 8.22663 60.2906 8.23925C60.3048 8.23108 60.3197 8.22333 60.3345 8.21558C60.371 8.19672 60.4075 8.17761 60.4387 8.151C60.6619 7.96032 60.8841 7.76749 61.1062 7.57471V7.57465C61.2406 7.45802 61.3749 7.34139 61.5093 7.22528C61.5299 7.20648 61.558 7.19726 61.586 7.18805C61.5976 7.18438 61.6087 7.18071 61.6193 7.17647C61.6114 7.18679 61.6045 7.19753 61.5971 7.20816C61.5839 7.22858 61.5707 7.24869 61.5527 7.26472C61.3945 7.40947 61.2342 7.5525 61.074 7.69547V7.69553V7.69558V7.69563L61.0734 7.69568C60.7645 7.97179 60.4551 8.24773 60.1578 8.53593C59.7558 8.92479 59.3649 9.32522 58.9745 9.72545V9.72555L58.974 9.7256V9.72571V9.72581C58.8438 9.85889 58.7142 9.99191 58.5841 10.1245C58.5667 10.1417 58.555 10.1646 58.5428 10.1879C58.5365 10.2001 58.5302 10.2123 58.5233 10.224C58.5349 10.2162 58.5471 10.2094 58.5593 10.2026C58.5825 10.1896 58.6053 10.1767 58.6238 10.1582C58.7354 10.0478 58.846 9.93572 58.9565 9.82354C59.1337 9.6439 59.3109 9.46411 59.4934 9.29076L59.5553 9.23158C60.0187 8.78941 60.481 8.34808 60.9623 7.9257C61.285 7.64457 61.6193 7.37611 61.9531 7.10771L61.9536 7.10755C62.1012 6.98877 62.2488 6.87005 62.3958 6.75027C62.4107 6.73786 62.4318 6.73199 62.4524 6.72623C62.463 6.72325 62.4736 6.72026 62.4831 6.71644C62.4773 6.72608 62.4726 6.73681 62.4673 6.74755C62.4577 6.76829 62.4482 6.78924 62.4318 6.80285C62.2879 6.92242 62.1425 7.04046 61.9975 7.15846V7.15851V7.15856H61.997V7.15861C61.6981 7.40172 61.3987 7.64467 61.1126 7.90129C60.6058 8.35567 60.1081 8.82319 59.632 9.30763C59.2337 9.7123 58.8555 10.135 58.4767 10.5576C58.399 10.6448 58.3207 10.7321 58.2424 10.8192C58.1953 10.8709 58.1636 10.9358 58.1313 11.0009C58.1065 11.0517 58.0811 11.1026 58.0488 11.1478C58.0022 11.2119 57.9557 11.2761 57.9091 11.3403L57.9086 11.341C56.911 12.7188 55.9086 14.1028 55.1977 15.6542C55.0797 15.9118 54.5486 17.3327 54.6824 17.0679C55.2019 15.9606 55.7531 14.8261 56.4169 13.7967C57.3823 12.2933 58.3995 10.9343 59.6563 9.7564C59.6669 9.74608 59.678 9.73624 59.6886 9.72639V9.72634C59.6997 9.71649 59.7108 9.70665 59.7209 9.69633L59.8124 9.56676C59.8177 9.57802 59.8235 9.59117 59.8293 9.60431C59.8319 9.60819 59.8351 9.61112 59.8383 9.61384C59.8399 9.6151 59.8415 9.61631 59.8425 9.61746C59.9139 9.5466 59.9853 9.47564 60.0568 9.40467L60.0573 9.40451C60.2715 9.19162 60.4852 8.97905 60.7042 8.77061C60.8767 8.60559 61.0554 8.44559 61.2337 8.28549L61.2342 8.28528V8.28507L61.2348 8.28492C61.2998 8.22657 61.3649 8.16828 61.4294 8.10968C61.4464 8.08679 61.4643 8.06464 61.4823 8.04275V8.0427C61.4918 8.03055 61.5019 8.0185 61.5114 8.0064C61.5252 7.99326 61.5395 7.98058 61.5537 7.96791C61.568 7.95524 61.5823 7.94256 61.5966 7.92942C61.5929 7.94853 61.5913 7.96917 61.5892 7.98849V7.99326C61.6172 7.9764 61.6458 7.95948 61.6728 7.94068C61.9251 7.75371 62.1763 7.56444 62.4276 7.37522V7.37517C63.0391 6.91456 63.6506 6.45401 64.2827 6.02545C64.928 5.58611 65.6231 5.21243 66.3155 4.84441C66.9402 4.51394 67.576 4.19849 68.2309 3.93186C69.0132 3.61453 69.8104 3.32725 70.6171 3.08315C71.4809 2.82215 72.3542 2.58932 73.2407 2.40718C75.5433 1.95091 77.8687 1.84576 80.2094 2.04855C82.1665 2.21942 84.0798 2.59683 85.946 3.20708C86.5861 3.41678 87.2124 3.65227 87.8249 3.91247C87.3086 3.7002 86.7807 3.51164 86.2364 3.35305C86.1444 3.32302 86.046 3.28694 85.9471 3.25085V3.25083C85.8487 3.21473 85.7503 3.17864 85.6583 3.1486C85.4911 3.09415 85.2901 3.0301 85.1213 2.98504C84.9695 2.94381 84.8151 2.89948 84.6596 2.85479C84.3052 2.75293 83.9439 2.64921 83.5932 2.57612C82.9552 2.44281 82.1322 2.28134 81.4868 2.20811C80.4426 2.09169 79.7105 2.04454 78.5955 2.00365C78.5045 2.00365 78.3971 2.0031 78.2829 2.00251C78.0342 2.00123 77.7571 1.99979 77.5629 2.00365C77.1382 2.01283 76.8948 2.03618 76.4817 2.07579L76.4526 2.07859C75.6782 2.1537 74.9038 2.2457 74.1331 2.36212C73.4116 2.46915 72.6959 2.60997 71.9823 2.75455C71.8612 2.77875 71.7448 2.82808 71.6284 2.87762V2.87763C71.5459 2.91266 71.4634 2.9478 71.3782 2.97424C71.1963 3.03114 71.0122 3.08341 70.8281 3.1357C70.5012 3.22834 70.1748 3.32108 69.858 3.4399C69.1063 3.71968 68.3621 4.02386 67.6295 4.35246C66.9915 4.63787 66.3652 4.94956 65.7537 5.28754C65.3438 5.5131 64.9502 5.76878 64.5567 6.02456V6.02461C64.4493 6.09453 64.3414 6.16455 64.2335 6.23389C64.0944 6.32313 63.9637 6.42342 63.8331 6.52371V6.52377C63.7849 6.56064 63.7368 6.5975 63.6886 6.63385C63.495 6.77819 63.3025 6.92252 63.1094 7.06686L63.1084 7.06759L63.1073 7.06853L63.1068 7.0688V7.06901L63.1063 7.06927C62.9137 7.21329 62.7217 7.35731 62.5286 7.50133C62.4482 7.56135 62.3652 7.61912 62.2821 7.67704C62.1107 7.79666 61.9388 7.91664 61.7865 8.0571C61.285 8.51745 60.7963 8.99177 60.308 9.46563V9.46568L60.307 9.46689C60.2297 9.54152 60.153 9.61615 60.0758 9.69072C59.8272 9.93294 59.5865 10.1827 59.349 10.4361C59.2157 10.5795 59.0924 10.7313 58.9687 10.8831V10.8832V10.8832C58.9502 10.9063 58.9311 10.9294 58.9126 10.9525C58.8999 10.9675 58.9004 10.9926 58.9015 11.0176C58.902 11.0301 58.902 11.0426 58.901 11.0539C58.9131 11.0503 58.9264 11.0479 58.9401 11.0455C58.9692 11.0402 58.9988 11.0349 59.0131 11.0182C59.0538 10.9703 59.0914 10.9194 59.1284 10.8685C59.1744 10.8057 59.2205 10.7429 59.2728 10.6859C59.3654 10.5857 59.4627 10.4908 59.5606 10.3961C59.6272 10.331 59.6939 10.2661 59.7589 10.1996C59.9938 9.9573 60.2276 9.71419 60.4614 9.47139V9.47118V9.47097L60.4619 9.47076V9.47056C60.5757 9.3523 60.6894 9.2341 60.8031 9.1161L60.8544 9.06541C60.8671 9.06227 60.8804 9.05876 60.8936 9.0552C60.9121 9.05033 60.9306 9.04535 60.9491 9.041C61.0766 8.9249 61.2009 8.80559 61.3257 8.68634C61.5881 8.43548 61.85 8.18468 62.1356 7.96325C62.8777 7.38868 63.6432 6.84224 64.4139 6.30522C64.7878 6.04451 65.1846 5.81314 65.5802 5.5826C65.6315 5.55248 65.6834 5.52237 65.7347 5.4922C65.9426 5.37081 66.1568 5.25936 66.371 5.14797C66.4779 5.09227 66.5853 5.03656 66.6916 4.9796C66.7096 4.96834 66.7281 4.95708 66.7466 4.94581C66.7651 4.93455 66.7836 4.92328 66.8016 4.912C66.8016 4.9289 66.8 4.94579 66.7979 4.96269V4.96271C66.9291 4.90137 67.0603 4.83863 67.1915 4.77587V4.77583V4.77581C67.4618 4.64645 67.7326 4.51697 68.0071 4.3994C68.5842 4.15155 69.1629 3.90369 69.7538 3.69339C70.3119 3.49624 70.8794 3.32161 71.4544 3.18267C71.4973 3.1723 71.5401 3.16191 71.583 3.15152C72.3928 2.95503 73.2064 2.75762 74.0305 2.63814C75.1143 2.48042 76.2098 2.36775 77.3048 2.31518C78.6299 2.25134 79.9533 2.32644 81.2726 2.50107C82.7738 2.70198 84.2454 3.03057 85.6879 3.48309C87.3467 4.00321 88.9453 4.67354 90.4317 5.56542C91.4663 6.18696 92.4703 6.86853 93.4235 7.60461C94.3042 8.28617 95.1278 9.05043 95.9292 9.8259C97.0226 10.8849 97.9488 12.0904 98.7878 13.3541C100.384 15.7612 101.538 18.3618 102.197 21.1708C102.776 23.6456 102.959 26.1485 102.763 28.6815C102.624 30.4785 102.292 32.2379 101.757 33.9597C101.064 36.1922 100.056 38.2784 98.7555 40.2293C97.7399 41.7558 96.5672 43.1509 95.2363 44.4146C93.8488 45.7309 92.3222 46.8687 90.6385 47.7907C90.5195 47.8558 90.401 47.9215 90.2825 47.9872L90.2814 47.9876C89.699 48.31 89.1151 48.6331 88.5052 48.8966C87.4626 49.3454 86.3956 49.7378 85.3292 50.1246C84.8071 50.3124 84.266 50.4532 83.7233 50.5752C83.2615 50.6792 82.7955 50.7637 82.3295 50.8484L82.3284 50.8485L82.3279 50.8486L82.3268 50.8487V50.8488C82.1285 50.8848 81.9301 50.9208 81.7317 50.9583C81.6651 50.9708 81.5979 50.9817 81.5307 50.9925V50.9925L81.5302 50.9926C81.5164 50.9948 81.5027 50.997 81.4895 50.9992C81.4694 51.0024 81.4498 51.0057 81.4297 51.009C81.4725 50.994 81.5154 50.9785 81.5582 50.963C81.6011 50.9475 81.6434 50.932 81.6862 50.917C81.6894 50.9155 81.6926 50.9114 81.6947 50.908L81.6979 50.9076L81.6958 50.9057C81.6952 50.9064 81.6947 50.9072 81.6947 50.908C81.5392 50.9256 81.3837 50.9427 81.2281 50.9598C80.805 51.0063 80.3813 51.0528 79.9586 51.1104C78.4669 51.3169 76.9689 51.2681 75.4767 51.1705C73.8898 51.0672 72.3182 50.7875 70.7974 50.3387C67.1878 49.2761 63.9314 47.6041 61.0687 45.1657C59.7722 44.0597 58.5667 42.8599 57.4563 41.568C57.4357 41.5437 57.4056 41.5271 57.3749 41.5106C57.3633 41.5042 57.3516 41.4978 57.3405 41.491C57.3447 41.5056 57.3479 41.5208 57.3506 41.5359C57.3574 41.5693 57.3643 41.6023 57.3823 41.6281C57.4585 41.7397 57.5325 41.853 57.6066 41.9663C57.7938 42.2535 57.9811 42.5402 58.2043 42.796C58.7513 43.4232 59.3263 44.0278 59.9187 44.6155C60.2303 44.924 60.5619 45.213 60.8936 45.502V45.5021C61.038 45.6276 61.1819 45.7531 61.3242 45.8802C61.2728 45.8431 61.2205 45.807 61.1681 45.7709V45.7707C61.0306 45.6763 60.8936 45.5817 60.7746 45.468C60.6429 45.3423 60.5111 45.2167 60.3789 45.0911V45.091C59.6569 44.4039 58.9332 43.7153 58.2366 43.0026C57.9393 42.6981 57.6748 42.363 57.4103 42.0278C57.2929 41.8793 57.176 41.7308 57.0559 41.5849L57.0443 41.5962C57.0744 41.6438 57.1035 41.692 57.1326 41.7403V41.7404V41.7404V41.7405C57.1998 41.8523 57.2675 41.9645 57.3442 42.0694C57.5378 42.3344 57.7372 42.5943 57.9367 42.8544L57.9917 42.9262C58.0107 42.951 58.0298 42.9758 58.0488 43.0007L58.0678 43.0251C58.2112 43.2101 58.3545 43.3951 58.4984 43.58C58.6423 43.765 58.7862 43.9499 58.9295 44.1348C58.9676 44.1799 59.0052 44.2231 59.0433 44.2663V44.2664C59.2183 44.4617 59.3929 44.6568 59.5653 44.8521C59.577 44.865 59.5854 44.8806 59.5934 44.8964V44.8964C59.5976 44.9036 59.6013 44.9108 59.605 44.9178C59.5992 44.914 59.5923 44.9105 59.586 44.907C59.5727 44.8999 59.5595 44.8928 59.5484 44.884C59.5056 44.8484 59.4606 44.8141 59.4162 44.7797V44.7796C59.3146 44.7015 59.213 44.623 59.1289 44.5292C58.5878 43.9264 58.0467 43.3199 57.5246 42.7003C57.4458 42.6068 57.3664 42.5136 57.2871 42.4204V42.4203L57.2866 42.42C56.8935 41.9588 56.4994 41.4963 56.1694 40.9935C55.6975 40.2741 55.2622 39.53 54.8269 38.7864V38.7862V38.7862C54.674 38.5245 54.5206 38.2628 54.3661 38.0023C54.2677 37.8361 54.173 37.6919 54.0789 37.5482C53.9779 37.3948 53.8779 37.2419 53.7737 37.0635C53.7578 37.0364 53.7404 37.0102 53.7192 36.9786V36.9785V36.9784V36.9782V36.9781C53.6906 36.9353 53.6557 36.8827 53.6086 36.8044C53.643 36.8792 53.6822 36.9777 53.7134 37.0565L53.7187 37.0691C53.7901 37.2451 53.8599 37.4216 53.9297 37.598C54.0577 37.9204 54.1852 38.2427 54.3206 38.5619C54.4211 38.8041 54.5407 39.0407 54.6719 39.2698C55.0723 39.9645 55.4748 40.6611 55.8959 41.3446C56.0308 41.5628 56.1884 41.7684 56.346 41.9739V41.9739C56.4153 42.0636 56.4841 42.1533 56.5508 42.244C56.5576 42.2637 56.5645 42.2839 56.5719 42.3041C56.5788 42.3243 56.5862 42.3445 56.5925 42.3642C56.6179 42.392 56.6433 42.4199 56.6687 42.4478V42.448V42.448C56.7428 42.5291 56.8168 42.6104 56.8888 42.6928C56.9507 42.764 57.0131 42.8354 57.075 42.9068V42.907V42.907V42.9071C57.2712 43.1328 57.4675 43.3589 57.6653 43.5828C57.7018 43.6236 57.7393 43.6632 57.7769 43.7027V43.7028C57.8451 43.7742 57.9128 43.8453 57.9726 43.9226C58.061 44.0345 58.1461 44.1492 58.2308 44.2639C58.354 44.4302 58.4767 44.5966 58.6106 44.7545C58.9126 45.1112 59.2199 45.468 59.5521 45.7966C60.0076 46.2472 60.4688 46.6979 60.9666 47.0997C61.4257 47.4699 61.9039 47.817 62.3826 48.1644C62.5863 48.3121 62.7894 48.4598 62.992 48.6093C65.3009 50.3396 68.2214 51.429 71.0101 52.1807C73.9638 52.9832 76.7245 53.0848 79.7523 52.8884C82.8537 52.6816 85.9048 52.1078 88.7612 50.8813C89.2605 50.6691 89.754 50.442 90.2455 50.2148C90.5533 50.0739 90.8569 49.9256 91.1569 49.7697C91.379 49.6552 91.5954 49.5313 91.8096 49.4017C92.1894 49.1726 92.5692 48.9417 92.9448 48.7032C93.1521 48.5699 93.3531 48.4272 93.5504 48.2789C93.7097 48.1604 93.8657 48.038 94.0223 47.9155C94.1313 47.8303 94.2397 47.7451 94.3497 47.6611C94.5031 47.5428 94.6576 47.4263 94.8115 47.3097L94.812 47.3093C95.1183 47.0781 95.424 46.8473 95.7203 46.604C96.0503 46.3317 96.3619 46.0351 96.6655 45.7327C97.1934 45.207 97.7171 44.6756 98.226 44.1311C98.5751 43.7574 98.902 43.3631 99.2263 42.9688C99.4183 42.7363 99.6029 42.4977 99.7875 42.2595ZM61.4633 45.9844C61.4654 45.9891 61.4675 45.9941 61.4691 45.9992C61.4754 46.0158 61.4818 46.0331 61.494 46.0425C61.6082 46.1289 61.7256 46.2134 61.8436 46.2979C61.961 46.3824 62.9428 47.041 62.9428 47.041C62.9428 47.041 61.6685 46.1195 61.5717 46.0425C61.5506 46.0254 61.5257 46.0138 61.5003 46.0021C61.4876 45.9964 61.4754 45.9907 61.4633 45.9844ZM79.7661 1.08118C79.7581 1.08954 79.7502 1.09822 79.7423 1.10689C79.7333 1.11675 79.7243 1.12661 79.7158 1.136C79.7238 1.13828 79.7317 1.14091 79.7396 1.14352V1.14353C79.7576 1.1495 79.7751 1.15534 79.7936 1.15665C79.8602 1.16103 79.9269 1.16395 79.9935 1.16687C80.1268 1.17271 80.2601 1.17856 80.3913 1.19608C80.65 1.23002 80.9097 1.25346 81.1694 1.27689C81.8153 1.33512 82.4617 1.39335 83.0817 1.61293C83.1308 1.63053 83.1859 1.62986 83.2409 1.62918C83.2858 1.62863 83.3313 1.62807 83.3736 1.63733C83.6656 1.69769 83.9566 1.76061 84.2475 1.82346L84.248 1.82355C84.4548 1.86822 84.6611 1.91287 84.868 1.95654C84.9235 1.96831 84.9796 1.97582 85.0362 1.98331C85.115 1.99375 85.1933 2.00415 85.2684 2.02601C85.3795 2.0587 85.4869 2.10412 85.5942 2.14961C85.6408 2.1694 85.6879 2.1892 85.735 2.20797C85.7429 2.18608 86.1819 2.20649 86.4348 2.21823C86.5432 2.22329 86.6178 2.22673 86.6083 2.22452C86.1507 2.10337 85.2462 1.92053 84.5067 1.77102C84.1687 1.70271 83.8656 1.64137 83.6545 1.59603C82.9468 1.44206 82.2332 1.30686 81.5154 1.20922C81.1112 1.15418 80.7034 1.13298 80.2961 1.1118C80.1194 1.10263 79.9433 1.09345 79.7671 1.08154L79.7661 1.08118ZM85.7572 2.21478L85.8064 2.22942V2.22944C85.9074 2.25984 86.0079 2.29 86.1095 2.31893C86.1222 2.3231 86.1354 2.32419 86.1486 2.32523C86.1534 2.32559 86.1581 2.32596 86.1624 2.32644C86.1592 2.3232 86.156 2.31949 86.1528 2.31581C86.1454 2.3067 86.1375 2.29774 86.128 2.2964C86.0047 2.26805 85.8809 2.24137 85.7572 2.21478ZM78.5875 0.508914C78.4632 0.505087 78.3395 0.500867 78.2152 0.496646V0.496645C78.0496 0.491013 77.884 0.485379 77.719 0.480686C77.7036 0.480686 77.6883 0.484024 77.6735 0.487362C77.6656 0.489031 77.6581 0.4907 77.6502 0.491952C77.6587 0.493947 77.6666 0.496883 77.6751 0.499845C77.6904 0.505246 77.7058 0.510728 77.7206 0.510728C77.9062 0.511391 78.0919 0.51065 78.277 0.50991V0.509909V0.509909C78.3807 0.509495 78.4839 0.509082 78.5875 0.508914ZM77.4963 2.08515C77.455 2.08174 77.4132 2.07859 77.3714 2.07859C77.363 2.07859 77.355 2.08487 77.3471 2.09134C77.3424 2.09488 77.3381 2.09847 77.3334 2.10112V2.10111L77.3339 2.10109C77.3873 2.09578 77.4413 2.09046 77.4963 2.08515ZM77.5222 2.0835C77.5587 2.08189 77.5952 2.08047 77.6317 2.08047C77.6296 2.07671 77.6275 2.0692 77.6275 2.0692C77.5926 2.07251 77.5576 2.07728 77.5222 2.0835ZM103.069 24.791V24.7358C103.067 24.7535 103.067 24.7718 103.069 24.791ZM103.069 24.791C103.07 24.8124 103.073 24.8341 103.077 24.8559C103.074 24.8342 103.071 24.8125 103.069 24.791ZM103.069 24.5154V24.5131C103.067 24.5131 103.067 24.514 103.069 24.5154ZM103.128 25.1066V25.107C103.13 25.107 103.13 25.1068 103.128 25.1066ZM58.2577 9.54236C58.2461 9.5555 57.8626 9.9529 57.8626 9.9529C57.8779 9.92472 58.2366 9.47663 58.2366 9.47663C58.2366 9.47663 58.7851 8.89834 59.0607 8.60915C59.0766 8.59218 59.093 8.57662 59.1099 8.56112V8.56107C59.1205 8.55091 59.1316 8.54075 59.1422 8.53028C59.1935 8.4777 59.2427 8.42517 59.2919 8.37259C59.2808 8.39228 59.2702 8.41286 59.2596 8.43344C59.2347 8.48152 59.2104 8.52975 59.1744 8.56783C58.9718 8.78564 58.7677 9.00173 58.5635 9.21786V9.21791C58.4614 9.32601 58.3593 9.4341 58.2577 9.54236ZM64.4884 5.10361C64.5006 5.10442 64.5154 5.10541 64.5334 5.10541C64.508 5.12586 64.4895 5.1421 64.4747 5.15553V5.15554C64.4578 5.17045 64.4445 5.1819 64.4308 5.19178C64.2695 5.29691 64.106 5.40019 63.9431 5.50346C63.924 5.51472 63.9029 5.52226 63.8823 5.52975C63.8854 5.52368 63.8875 5.51703 63.8902 5.51038C63.8955 5.49655 63.9002 5.48293 63.9108 5.47529C64.087 5.35138 64.2657 5.22933 64.4461 5.10728C64.4546 5.1013 64.4673 5.10218 64.4884 5.10361ZM62.5741 5.28287C62.5064 5.32886 62.4387 5.37484 62.371 5.42087C62.3519 5.41333 62.3408 5.40961 62.3313 5.40961C62.3334 5.40411 62.3355 5.39804 62.3377 5.39196C62.3414 5.37945 62.3451 5.36709 62.3541 5.36075C62.481 5.27439 62.6085 5.19178 62.7376 5.11104C62.745 5.10353 62.7661 5.10728 62.7756 5.11292C62.7809 5.1148 62.7831 5.14108 62.7772 5.14484C62.7101 5.19084 62.6418 5.23685 62.5741 5.28287ZM102.89 23.1455C102.882 23.1546 102.877 23.1632 102.882 23.1705C102.886 23.1618 102.888 23.1535 102.89 23.1455ZM59.8796 7.8153C59.888 7.81912 59.8991 7.82405 59.9129 7.82991C59.8431 7.89176 59.779 7.94895 59.7166 8.00441V8.00462L59.7161 8.00499C59.6674 8.04862 59.6193 8.09119 59.5712 8.13409C59.569 8.13409 59.5558 8.12471 59.5484 8.11911C59.5997 8.06747 59.651 8.01536 59.7018 7.96325C59.7531 7.91114 59.8044 7.85903 59.8558 7.80739C59.8573 7.80493 59.8642 7.80807 59.8796 7.8153ZM59.3469 45.3966H59.3834C59.4315 45.4418 59.7949 45.7587 60.1816 46.0959L60.1853 46.0991L60.1858 46.0995L60.1874 46.1007L60.1879 46.1011C60.6344 46.4904 61.1099 46.9049 61.1665 46.9591C62.5466 48.1822 61.084 46.9182 61.084 46.9182L59.6606 45.7159C59.5579 45.6219 59.4553 45.528 59.3527 45.4323C59.349 45.4273 59.3485 45.4182 59.3479 45.4093C59.3479 45.4048 59.3479 45.4004 59.3469 45.3966ZM60.2567 7.15992C60.2625 7.16448 60.2705 7.1705 60.2789 7.17647C60.2234 7.22476 60.1705 7.27163 60.1186 7.31751V7.31761V7.31767C60.0858 7.34668 60.0536 7.37533 60.0208 7.40366L60.0039 7.38114C60.0837 7.30415 60.1636 7.22717 60.2451 7.15207C60.2451 7.15107 60.2493 7.15448 60.2567 7.15992ZM76.4791 2.16121V2.16122V2.16122C76.4087 2.16685 76.3389 2.17248 76.2723 2.17811C76.204 2.17248 76.1395 2.16684 76.075 2.15933C76.0998 2.15535 76.1241 2.15067 76.149 2.14598C76.2061 2.13521 76.2633 2.12439 76.3214 2.12178C76.3553 2.12178 76.3902 2.13327 76.4251 2.14486C76.4431 2.15079 76.4611 2.15675 76.4791 2.16121V2.16121ZM59.8737 45.1154C59.8785 45.1091 59.8843 45.102 59.8901 45.0943C59.9213 45.1317 59.951 45.1661 59.979 45.1989V45.1993C60.0102 45.2357 60.0398 45.2702 60.0684 45.3046L61.249 46.4276C61.1829 46.3693 59.9166 45.207 59.852 45.1469C59.8505 45.1455 59.86 45.1337 59.8737 45.1154ZM63.1703 6.00618C63.1438 6.02592 63.1163 6.04608 63.0888 6.06677C63.0772 6.04986 63.0698 6.0386 63.0713 6.0386L63.0719 6.03854C63.1549 5.97847 63.2385 5.9184 63.3242 5.86022C63.3252 5.86022 63.329 5.86378 63.3337 5.86792C63.3374 5.87111 63.3416 5.87467 63.3448 5.87713C63.2872 5.91877 63.23 5.96135 63.1703 6.00602V6.00612V6.00618ZM102.918 23.3001C102.917 23.3005 102.918 23.3021 102.92 23.3048C102.92 23.3032 102.919 23.3016 102.918 23.3001ZM60.5958 6.91137C60.5968 6.9121 60.5984 6.91289 60.6 6.91362L60.5926 6.91969L60.5841 6.92692V6.92713C60.5519 6.95463 60.5254 6.97704 60.4974 6.99809C60.4947 6.99946 60.4858 6.99181 60.4773 6.98464C60.4762 6.98343 60.4746 6.98217 60.4736 6.98102C60.472 6.97971 60.4704 6.97851 60.4688 6.97746C60.4794 6.9684 60.49 6.95913 60.5006 6.94981V6.9497V6.94965C60.5207 6.9319 60.5408 6.91393 60.5619 6.8967C60.5646 6.89534 60.5736 6.89995 60.5857 6.90618L60.59 6.90854C60.5915 6.90948 60.5937 6.91042 60.5958 6.91137ZM104.942 27.0748C104.942 27.0756 104.941 27.0761 104.942 27.0761V27.0748ZM104.005 19.4558L104.007 19.4584C104.005 19.4587 104.003 19.4591 104.002 19.4595C104.002 19.4593 104.002 19.4591 104.002 19.4589C104.003 19.4579 104.004 19.4569 104.005 19.4558ZM103.967 19.3471L103.966 19.3457C103.964 19.3471 103.965 19.3475 103.967 19.3471ZM62.1007 5.59758C62.0806 5.61664 62.06 5.6367 62.0372 5.65932C62.0362 5.65461 62.0356 5.65026 62.0346 5.64633C62.0324 5.6378 62.0314 5.63125 62.0351 5.62743C62.0652 5.59548 62.0975 5.56359 62.1298 5.53164C62.1298 5.52975 62.1451 5.54101 62.1525 5.54667C62.1356 5.56364 62.1187 5.58019 62.1007 5.59758ZM87.8683 2.9036C87.881 2.91029 87.8958 2.91828 87.9143 2.9273C87.8921 2.9297 87.8746 2.93313 87.8614 2.93583C87.8429 2.93947 87.8313 2.9418 87.8217 2.93857C87.8043 2.93206 87.7889 2.91924 87.7736 2.90635C87.7667 2.90064 87.7604 2.89493 87.753 2.88975C87.7567 2.88915 87.7604 2.88846 87.7641 2.88774C87.7662 2.88724 87.7688 2.88672 87.771 2.8862V2.8862L87.7715 2.88618C87.7873 2.88276 87.8027 2.87949 87.8175 2.88224C87.8334 2.8846 87.8471 2.8922 87.8683 2.9036ZM76.6224 0.513378C76.6314 0.519251 76.642 0.526481 76.6558 0.535138C76.6362 0.535138 76.6203 0.535546 76.6071 0.535892C76.5796 0.536594 76.5621 0.537039 76.5457 0.533263C76.5367 0.530681 76.5283 0.521014 76.5198 0.510953C76.5156 0.506368 76.5119 0.5017 76.5076 0.497585C76.5145 0.497071 76.5214 0.496276 76.5283 0.495469C76.5468 0.493327 76.5664 0.491102 76.5854 0.49383C76.5955 0.495089 76.605 0.501416 76.6224 0.513378ZM64.4075 4.24424C64.4128 4.24693 64.4186 4.25007 64.425 4.25294C64.4191 4.25776 64.4139 4.26237 64.4091 4.26677V4.26678C64.3885 4.28464 64.3715 4.2991 64.3546 4.31115C64.3536 4.31115 64.3456 4.3028 64.3377 4.29446C64.3335 4.29029 64.3298 4.28611 64.3266 4.28299C64.3319 4.27898 64.3377 4.27485 64.343 4.27068C64.3583 4.25923 64.3742 4.24756 64.3911 4.23792C64.3932 4.23676 64.399 4.2399 64.4075 4.24424ZM104.284 20.6452C104.284 20.6469 104.284 20.6485 104.285 20.6499C104.287 20.6603 104.288 20.6733 104.288 20.6856C104.289 20.6769 104.289 20.6683 104.287 20.6601C104.286 20.6552 104.285 20.6504 104.284 20.6452ZM80.3844 51.156C80.3908 51.1591 80.3987 51.1629 80.4088 51.1667C80.403 51.1687 80.3977 51.1706 80.3929 51.1722L80.3924 51.1725C80.3702 51.1805 80.3564 51.1855 80.3421 51.1855C80.3368 51.1855 80.3305 51.1799 80.3247 51.1745C80.322 51.1724 80.3199 51.1702 80.3178 51.1686C80.3231 51.1666 80.3289 51.164 80.3342 51.1614C80.3442 51.1569 80.3543 51.1522 80.3649 51.1498C80.3696 51.1487 80.3755 51.1515 80.3844 51.156ZM56.0382 41.4161L56.0424 41.4209C56.0467 41.4259 56.0509 41.4312 56.0556 41.4366L56.0535 41.438L56.0509 41.4401C56.0445 41.445 56.0382 41.4498 56.0366 41.4498C56.0213 41.4329 56.0059 41.4159 55.9927 41.3972C55.9927 41.3953 56.0022 41.3859 56.008 41.3803C56.0112 41.3843 56.0144 41.3881 56.0176 41.392C56.0207 41.3956 56.0239 41.3992 56.0266 41.4027L56.0329 41.41L56.0334 41.4103V41.4105L56.0345 41.412L56.0382 41.4161ZM83.6397 1.00738C83.6392 1.01019 83.6387 1.01301 83.6376 1.01582C83.6302 1.01522 83.6233 1.01481 83.6164 1.01442C83.6016 1.01356 83.5873 1.01275 83.5731 1.01019C83.5651 1.00763 83.5583 1.00246 83.5514 0.997049C83.5498 0.995902 83.5482 0.994745 83.5466 0.993598C83.5456 0.992896 83.5445 0.992195 83.544 0.991503C83.5429 0.990838 83.5419 0.990178 83.5408 0.989534C83.5487 0.989534 83.5556 0.988927 83.563 0.988319C83.5741 0.987423 83.5847 0.986538 83.5958 0.987659C83.6059 0.988911 83.6159 0.991833 83.6265 0.99475C83.6312 0.996211 83.6365 0.997673 83.6413 0.998924C83.6408 1.00174 83.6402 1.00456 83.6397 1.00738ZM75.1768 1.29369C75.1868 1.28898 75.1963 1.28452 75.2053 1.28058C75.2185 1.28433 75.2265 1.28621 75.2339 1.28809C75.2275 1.29122 75.2212 1.29456 75.2148 1.29789C75.2022 1.30457 75.1895 1.31125 75.1768 1.31625C75.1715 1.3189 75.1646 1.315 75.1572 1.31115C75.154 1.30956 75.1514 1.30797 75.1487 1.30686C75.1583 1.30241 75.1678 1.29796 75.1768 1.29371V1.29369ZM86.0238 1.59586V1.59587C86.0343 1.59808 86.0465 1.60067 86.0619 1.60354C86.0539 1.60843 86.0476 1.61284 86.0423 1.61661C86.0285 1.62586 86.0211 1.63116 86.0142 1.62982C86.0026 1.62721 85.9915 1.62096 85.9809 1.61487V1.61485C85.9762 1.61219 85.9714 1.60957 85.9666 1.60729C85.9677 1.6062 85.9688 1.60502 85.9693 1.60381C85.9698 1.60315 85.9703 1.60248 85.9709 1.6018L85.9719 1.59998V1.59968C85.9762 1.59389 85.9793 1.58852 85.982 1.58852C85.9952 1.58968 86.0074 1.59227 86.0238 1.59586ZM84.3866 1.19149C84.3935 1.18976 84.3998 1.1881 84.4067 1.18669C84.4236 1.19233 84.4369 1.19608 84.448 1.19796C84.4443 1.19878 84.44 1.1997 84.4353 1.20062C84.4199 1.20392 84.4041 1.20735 84.3893 1.20735C84.3813 1.20735 84.3734 1.20532 84.3655 1.20329C84.3602 1.20194 84.3549 1.20059 84.3496 1.19984C84.3628 1.19749 84.375 1.19442 84.3866 1.19152V1.19149V1.19149ZM59.0792 45.1025L59.0829 45.1054L59.0866 45.1083C59.0909 45.1116 59.0956 45.1151 59.1004 45.1187C59.0909 45.1253 59.1787 45.2236 59.2305 45.2816V45.2816C59.2527 45.3066 59.2686 45.3241 59.267 45.3235C59.2533 45.3141 59.0417 45.1169 59.03 45.1037C59.0284 45.1018 59.047 45.0812 59.0491 45.0812C59.0591 45.0861 59.0681 45.0933 59.0792 45.1025ZM67.0238 3.77601C67.0164 3.79291 67.0084 3.80981 67.0069 3.81169C66.9762 3.80793 66.9688 3.80793 66.9593 3.80793C66.963 3.80426 66.9667 3.80058 66.9698 3.79698L66.9719 3.79457V3.79451V3.7945C66.9794 3.78617 66.9868 3.77841 66.9952 3.77225C66.9995 3.76952 67.0079 3.77177 67.0153 3.77392L67.018 3.77462C67.0201 3.77516 67.0222 3.77565 67.0238 3.77601ZM87.9672 2.41021V2.41033V2.41079C87.9656 2.41618 87.9635 2.42279 87.9619 2.42971C87.946 2.41914 87.9328 2.41034 87.9217 2.40267L87.9148 2.39806C87.9085 2.39394 87.9027 2.39014 87.8974 2.38653C87.9005 2.38583 87.9032 2.38433 87.9058 2.38283C87.9106 2.38034 87.9154 2.37785 87.9201 2.37902C87.937 2.38277 87.9545 2.39028 87.9693 2.39779C87.9709 2.39779 87.9693 2.40277 87.9672 2.41021ZM57.6727 10.1901C57.6669 10.1977 57.6616 10.2052 57.6537 10.2127C57.6531 10.2118 57.6515 10.2108 57.6505 10.2096C57.6463 10.2058 57.641 10.201 57.6425 10.1996C57.6484 10.192 57.6537 10.1845 57.6616 10.1789L57.6727 10.1901ZM82.1068 0.727477V0.727498V0.727687L82.1073 0.727723C82.1099 0.729148 82.1136 0.730677 82.1173 0.732296C82.1131 0.73395 82.1099 0.735605 82.1068 0.737072V0.737093C82.0994 0.740602 82.0946 0.743005 82.0904 0.741681C82.083 0.739177 82.0756 0.735008 82.0676 0.730834C82.0639 0.72875 82.0602 0.72666 82.0565 0.724785C82.0581 0.724167 82.0607 0.722942 82.0629 0.721643C82.0682 0.718988 82.0734 0.716013 82.0771 0.717275C82.0877 0.718721 82.0957 0.722413 82.1068 0.727477ZM80.0433 0.551373C80.0459 0.552776 80.0486 0.554285 80.0517 0.555793C80.0475 0.556736 80.0433 0.557799 80.039 0.55883V0.558836C80.0274 0.561905 80.0163 0.564707 80.0062 0.563303C80.0009 0.562051 79.9962 0.557464 79.9909 0.552876C79.9888 0.550577 79.9861 0.548283 79.9835 0.546403C79.9914 0.546403 79.9988 0.545905 80.0057 0.545418C80.0126 0.544968 80.0189 0.544528 80.0253 0.544528C80.0306 0.544528 80.0364 0.547544 80.0433 0.551373ZM74.9847 0.299542C74.99 0.299348 74.9969 0.299125 75.0043 0.298551C74.9964 0.304875 74.9906 0.310147 74.9853 0.314564C74.9773 0.321951 74.9715 0.326947 74.9641 0.330471C74.9604 0.333008 74.9541 0.332118 74.9477 0.331273C74.9451 0.330867 74.9419 0.330471 74.9398 0.330471C74.9414 0.327578 74.943 0.324328 74.9445 0.321106C74.9483 0.313873 74.9514 0.306782 74.9567 0.304184C74.9636 0.300272 74.9715 0.299982 74.9847 0.299542ZM59.569 7.92753C59.5738 7.92125 59.5791 7.91392 59.5865 7.90501C59.5876 7.90768 59.5897 7.91035 59.5913 7.91282C59.5944 7.91737 59.5971 7.92135 59.596 7.92381C59.5918 7.9313 59.5865 7.93884 59.5786 7.94256C59.5749 7.94382 59.5706 7.9434 59.5653 7.94303L59.5648 7.94298C59.5643 7.94288 59.5632 7.94282 59.5627 7.94277C59.5611 7.94267 59.5595 7.94256 59.5579 7.94256C59.5616 7.93811 59.5648 7.93324 59.569 7.92753ZM75.6634 52.1182L75.6893 52.1202C75.6803 52.1201 75.6719 52.1194 75.6634 52.1182ZM80.8854 51.9761C80.8637 51.9791 80.8425 51.9821 80.8208 51.985C80.9097 51.9565 80.9875 51.925 81.052 51.8902C81.1546 51.8347 81.2408 51.79 81.3123 51.7546C81.1097 51.8209 80.814 51.8898 80.4929 51.8858C80.1395 51.8814 79.8983 51.9592 79.6428 52.0416V52.0416C79.5312 52.0776 79.417 52.1144 79.2895 52.1457C78.8933 52.1743 78.5008 52.1925 78.1131 52.2012C78.0163 52.1909 77.9131 52.1773 77.8036 52.1602C76.5923 51.9702 76.0977 52.0568 75.848 52.1005C75.7803 52.1124 75.7306 52.1211 75.6893 52.1202C76.1056 52.153 76.6542 52.1857 77.245 52.2047C76.7298 52.1975 76.2236 52.1736 75.7264 52.135C70.744 51.7131 66.6281 49.6373 62.736 47.2289C64.7323 48.8671 69.5179 51.6527 75.7264 52.135C76.3188 52.1851 76.9234 52.2119 77.5418 52.2131C77.8121 52.2194 78.0877 52.2226 78.3606 52.2214C78.5664 52.2329 78.742 52.2282 78.8965 52.2131C79.6746 52.1913 80.3839 52.1253 80.8208 51.9851C80.842 51.9822 80.8637 51.9791 80.8854 51.9761ZM81.4456 51.8905C81.2572 51.9213 81.0705 51.9498 80.8854 51.9761C81.071 51.9499 81.2578 51.9214 81.4456 51.8905ZM78.8965 52.2131C78.7203 52.218 78.541 52.2207 78.3606 52.2214C78.2961 52.2179 78.2284 52.2127 78.1575 52.2057C78.5235 52.1964 78.8949 52.1781 79.2704 52.1503C79.1583 52.177 79.0361 52.1994 78.8965 52.2131ZM83.8286 51.8857C79.0435 53.0655 75.6142 52.7261 71.7808 51.8465C71.9501 51.8588 72.2114 51.9093 72.5631 51.9774V51.9774C74.2579 52.3053 78.0596 53.0408 83.8286 51.8857ZM72.1114 50.9805C75.401 51.9008 77.8935 52.2177 82.422 51.1498C77.4979 52.2416 74.2363 51.4657 72.7821 51.1198C72.4801 51.048 72.2563 50.9946 72.1114 50.9805ZM72.141 52.0635C67.3279 51.0017 64.4128 49.1803 61.3813 46.6974C61.5299 46.7852 61.7442 46.9558 62.0335 47.1866C63.3877 48.2669 66.3943 50.6659 72.141 52.0635Z" fill="black"/>
<path d="M4.875 28.497L1.1986 20.938H0V32.1519H1.1986V23.3762L4.41671 29.9081H5.33331L8.53626 23.3762V32.1519H9.7349V20.938H8.53626L4.875 28.497Z" fill="black"/>
<path d="M15.2795 20.938L11.1599 32.1519H12.424L13.2449 29.8233L13.7233 28.4472H13.7183L15.773 22.5984L17.0976 26.348L17.8379 28.4472H17.8328L18.2861 29.7386L19.1372 32.1519H20.4013L16.2817 20.938H15.2795Z" fill="black"/>
<path d="M28.8876 29.943L23.0255 20.938H21.8269V32.1519H23.0255V23.117L28.8876 32.1519H30.0862V20.938H28.8876V29.943Z" fill="black"/>
<path d="M31.5264 22.01H34.7596V32.1519H35.9431V22.01H39.1763V20.938H31.5264V22.01Z" fill="black"/>
<path d="M47.5969 26.0738C48.025 25.5552 48.2365 24.892 48.2365 24.0892C48.2365 23.082 47.9343 22.3042 47.325 21.7557C46.7206 21.2123 45.8846 20.938 44.822 20.938H40.6218V32.1519H41.8205V27.2305H44.545L47.1034 32.1519H48.4833L45.8091 27.1158C46.5746 26.9413 47.1689 26.5923 47.5969 26.0738ZM41.8205 26.2034V22.01H44.7263C45.4717 22.01 46.0407 22.1845 46.4436 22.5386C46.8364 22.8926 47.0379 23.4161 47.0379 24.1092C47.0379 24.7823 46.8365 25.2959 46.4285 25.6599C46.0257 26.0239 45.4565 26.2034 44.7213 26.2034H41.8205Z" fill="black"/>
<path d="M67.3584 20.938H63.4854V32.1519H67.3584C68.5618 32.1519 69.5187 31.8078 70.2239 31.1198C70.929 30.4316 71.2813 29.3447 71.2813 27.8638V25.2311C71.2813 23.7452 70.929 22.6632 70.2239 21.9751C69.514 21.2821 68.5618 20.938 67.3584 20.938ZM70.0625 27.9286C70.0625 30.0278 69.1665 31.0798 67.3733 31.0798H64.6993V22.01H67.3733C68.2397 22.01 68.9046 22.2693 69.368 22.7879C69.8308 23.3064 70.0678 24.1341 70.0678 25.276V27.9286H70.0625Z" fill="black"/>
<path d="M89.5533 21.8255C88.8482 21.1375 87.896 20.7935 86.7075 20.7935C85.5041 20.7935 84.5472 21.1375 83.8373 21.8255C83.1269 22.5137 82.7693 23.6006 82.7693 25.0815V27.9885C82.7693 29.4744 83.1221 30.5564 83.8272 31.2444C84.5318 31.9325 85.4887 32.2765 86.6926 32.2765C87.886 32.2765 88.8381 31.9325 89.548 31.2444C90.2584 30.5564 90.616 29.4693 90.616 27.9885V25.0815C90.616 23.6006 90.2632 22.5137 89.5533 21.8255ZM89.4174 28.0583C89.4174 30.1474 88.5155 31.1946 86.7075 31.1946C85.8114 31.1946 85.1311 30.9453 84.663 30.4466C84.1949 29.948 83.9632 29.1502 83.9632 28.0583V25.1314C83.9632 23.9846 84.1949 23.1519 84.6529 22.6383C85.111 22.1247 85.796 21.8654 86.7027 21.8654C88.5054 21.8654 89.4121 22.9524 89.4121 25.1314V28.0583H89.4174Z" fill="black"/>
<path d="M81.7164 32.1519L77.5968 20.938H76.5949L72.4753 32.1519H73.739L74.4193 30.2272L75.0387 28.4472L75.5121 27.0909L77.0885 22.5984L79.1583 28.4472H79.153L79.7476 30.1424L80.4527 32.1519H81.7164Z" fill="black"/>
<path d="M58.4948 32.1519L54.3752 20.938H53.3733L49.2537 32.1519H50.5177L51.3185 29.8782L51.817 28.4472H51.812L53.8668 22.5984L55.7452 27.9136L55.9314 28.4472L56.4302 29.8782L57.2311 32.1519H58.4948Z" fill="black"/>
</g>
<defs>
<clipPath id="clip0">
<rect width="105" height="53" fill="white"/>
</clipPath>
</defs>
</svg>
