<svg width="158" height="37" viewBox="0 0 158 37" fill="none" xmlns="http://www.w3.org/2000/svg">
<path d="M6.56278 33.8538C10.4076 34.1943 13.9171 33.3181 17.0468 31.0687C20.629 28.4939 22.7401 25.0191 23.3979 20.7369C23.9358 17.232 23.2615 13.9049 21.4767 10.8081C20.963 9.91688 20.9897 9.24596 21.5481 8.69144C22.3257 7.92037 23.519 8.05431 24.0812 9.0244C26.2215 12.7208 27.1177 16.6712 26.5313 20.9121C25.7677 26.436 23.0192 30.7758 18.3649 33.9314C15.0288 36.1945 11.2961 37.1484 7.24735 36.9806C5.12608 36.893 3.09404 36.4536 1.13339 35.6676C0.471767 35.4022 0.0268598 34.9666 0.00391332 34.2331C-0.0190332 33.5108 0.348111 33.0289 1.01101 32.7235C2.68483 31.9499 4.24646 31.0274 5.58628 29.7393C7.82867 27.5851 9.30234 25.0278 10.0048 22.0324C10.8512 18.4262 10.4395 14.9551 8.80262 11.633C7.1237 8.22204 4.45553 5.80244 0.951093 4.25029C0.330263 3.9749 -0.00628512 3.50175 8.89043e-05 2.83583C0.00646293 2.17116 0.35066 1.698 0.97149 1.43263C1.37815 1.25864 1.78482 1.07589 2.20678 0.941953C6.05541 -0.270977 9.92317 -0.327305 13.782 0.864346C15.9211 1.52526 17.8678 2.57421 19.6142 3.96364C20.1637 4.40049 20.5678 4.91496 20.4046 5.67977C20.1637 6.81133 18.8124 7.28824 17.8576 6.5347C16.3227 5.32177 14.6425 4.37796 12.7698 3.78339C10.5134 3.0674 8.20601 2.94473 5.87184 3.24389C5.83742 3.25391 5.7826 3.27393 5.7724 3.31399C5.75838 3.36531 5.82212 3.42164 5.88459 3.47546C6.08728 3.65071 6.19054 3.73582 6.20711 3.74834C10.4101 6.94777 12.8769 11.1861 13.42 16.3258C14.1351 23.1026 11.8137 28.7943 6.35499 33.1441C6.35244 33.1466 6.32312 33.1691 6.28998 33.2041C6.28998 33.2041 6.28233 33.2117 6.27468 33.2192C6.10895 33.3969 5.98657 33.5283 6.01972 33.6235C6.02737 33.6447 6.04139 33.661 6.06943 33.6848C6.21986 33.8087 6.4353 33.8438 6.56278 33.8538Z" fill="white"/>
<path d="M38.2381 21.278H38.2505L41.279 13.9236H42.6856V22.8082H41.7654V15.0918H41.7391L38.4674 22.8097H37.9809L34.7092 15.0918H34.6829V22.8097H33.7627V13.9251H35.1693L38.2381 21.278Z" fill="white"/>
<path d="M48.8727 23.0349C46.1757 23.0349 44.1572 21.0651 44.1572 18.3667C44.1572 15.6683 46.1773 13.6985 48.8727 13.6985C51.5682 13.6985 53.5883 15.6683 53.5883 18.3667C53.5883 21.0651 51.5698 23.0349 48.8727 23.0349ZM48.8727 14.4894C46.546 14.4894 45.1285 16.2965 45.1285 18.3667C45.1285 20.4369 46.5475 22.2318 48.8727 22.2318C51.198 22.2318 52.617 20.4369 52.617 18.3667C52.617 16.2965 51.198 14.4894 48.8727 14.4894Z" fill="white"/>
<path d="M59.2892 23.0349C56.5922 23.0349 54.5737 21.0651 54.5737 18.3667C54.5737 15.6683 56.5938 13.6985 59.2892 13.6985C61.9847 13.6985 64.0048 15.6683 64.0048 18.3667C64.0063 21.0651 61.9863 23.0349 59.2892 23.0349ZM59.2892 14.4894C56.9625 14.4894 55.545 16.2965 55.545 18.3667C55.545 20.4369 56.964 22.2318 59.2892 22.2318C61.6145 22.2318 63.0335 20.4369 63.0335 18.3667C63.035 16.2965 61.616 14.4894 59.2892 14.4894Z" fill="white"/>
<path d="M71.8915 21.491H71.9179V13.9236H72.8381V22.8082H71.6871L66.4216 15.1648H66.3953V22.8082H65.4751V13.9236H66.6245L71.8915 21.491Z" fill="white"/>
<path d="M75.7131 22.8097H74.793V13.925H77.4513C79.2405 13.925 80.5448 14.5654 80.5448 16.2964C80.5448 17.6137 79.5472 18.4427 78.232 18.5811L80.8779 22.8097H79.7532L77.2483 18.6556H75.7147V22.8097H75.7131ZM75.7131 17.8768H77.3103C78.7804 17.8768 79.6231 17.3505 79.6231 16.2949C79.6231 15.1282 78.7153 14.7008 77.3475 14.7008H75.7116V17.8768H75.7131Z" fill="white"/>
<path d="M86.2326 23.0349C83.5356 23.0349 81.5171 21.0651 81.5171 18.3667C81.5171 15.6683 83.5371 13.6985 86.2326 13.6985C88.9281 13.6985 90.9481 15.6683 90.9481 18.3667C90.9481 21.0651 88.9296 23.0349 86.2326 23.0349ZM86.2326 14.4894C83.9058 14.4894 82.4884 16.2965 82.4884 18.3667C82.4884 20.4369 83.9074 22.2318 86.2326 22.2318C88.5578 22.2318 89.9768 20.4369 89.9768 18.3667C89.9768 16.2965 88.5578 14.4894 86.2326 14.4894Z" fill="white"/>
<path d="M100.037 21.3784C99.4364 22.2698 98.273 23.0349 96.6511 23.0349C93.9153 23.0349 91.9355 21.0651 91.9355 18.3667C91.9355 15.6683 93.9556 13.6985 96.6511 13.6985C97.9802 13.6985 99.2459 14.2385 99.8717 15.104L99.1049 15.6561C98.7207 15.0781 97.8145 14.4894 96.6635 14.4894C94.3243 14.4894 92.9053 16.2965 92.9053 18.3667C92.9053 20.4369 94.3367 22.2439 96.6635 22.2439C97.6983 22.2439 98.6959 21.8424 99.3218 20.9267L100.037 21.3784Z" fill="white"/>
<path d="M102.094 17.9149H102.107L106.413 13.9236H107.73L103.168 17.9514L107.986 22.8082H106.63L102.105 18.0777H102.093V22.8082H101.174V13.9236H102.094V17.9149Z" fill="white"/>
<path d="M118.966 21.3784C118.365 22.2698 117.201 23.0349 115.579 23.0349C112.844 23.0349 110.864 21.0651 110.864 18.3667C110.864 15.6683 112.884 13.6985 115.579 13.6985C116.908 13.6985 118.174 14.2385 118.8 15.104L118.033 15.6561C117.649 15.0781 116.743 14.4894 115.592 14.4894C113.253 14.4894 111.834 16.2965 111.834 18.3667C111.834 20.4369 113.265 22.2439 115.592 22.2439C116.626 22.2439 117.624 21.8424 118.25 20.9267L118.966 21.3784Z" fill="white"/>
<path d="M119.886 22.8097H118.876L122.788 13.925H123.683L127.568 22.8097H126.546L125.55 20.4748H120.871L119.886 22.8097ZM121.215 19.6474H125.203L123.209 14.929L121.215 19.6474Z" fill="white"/>
<path d="M128.45 13.9236H131.006C132.846 13.9236 134.061 14.7024 134.061 16.295C134.061 17.8875 132.821 18.68 130.981 18.68H129.37V22.8082H128.45V13.9236ZM129.37 17.9149H130.93C132.361 17.9149 133.14 17.3506 133.14 16.2965C133.14 15.2043 132.323 14.7024 130.93 14.7024H129.37V17.9149Z" fill="white"/>
<path d="M136.336 22.8097H135.416V13.925H136.336V22.8097Z" fill="white"/>
<path d="M141.192 22.8097H140.272V14.7267H137.244V13.9236H144.222V14.7267H141.194V22.8097H141.192Z" fill="white"/>
<path d="M144.299 22.8097H143.289L147.2 13.925H148.095L151.981 22.8097H150.958L149.962 20.4748H145.284L144.299 22.8097ZM145.628 19.6474H149.615L147.621 14.929L145.628 19.6474Z" fill="white"/>
<path d="M153.782 22.0066H158.001V22.8097H152.862V13.925H153.782V22.0066Z" fill="white"/>
</svg>
