<svg width="28" height="28" viewBox="0 0 28 28" fill="none" xmlns="http://www.w3.org/2000/svg">
<path d="M8.84335 4.75935L7.17501 3.09102C4.37501 5.22602 2.53168 8.51602 2.36835 12.2493H4.70168C4.87668 9.15768 6.46335 6.45102 8.84335 4.75935ZM23.2983 12.2493H25.6317C25.4567 8.51602 23.6133 5.22602 20.825 3.09102L19.1683 4.75935C21.525 6.45102 23.1233 9.15768 23.2983 12.2493ZM21 12.8327C21 9.25102 19.0867 6.25268 15.75 5.45935V4.66602C15.75 3.69768 14.9683 2.91602 14 2.91602C13.0317 2.91602 12.25 3.69768 12.25 4.66602V5.45935C8.90168 6.25268 7.00001 9.23935 7.00001 12.8327V18.666L4.66668 20.9993V22.166H23.3333V20.9993L21 18.666V12.8327ZM14 25.666C14.1633 25.666 14.315 25.6543 14.4667 25.6193C15.225 25.456 15.8433 24.9427 16.1467 24.2427C16.2633 23.9627 16.3217 23.6593 16.3217 23.3327H11.655C11.6667 24.616 12.705 25.666 14 25.666Z" fill="white"/>
</svg>
