<svg width="60" height="60" viewBox="0 0 60 60" fill="none" xmlns="http://www.w3.org/2000/svg">
<rect width="60" height="60" rx="10" fill="#615793"/>
<path d="M44.1329 42.2001L42.1384 24.3661C42.0926 23.957 41.7469 23.6477 41.3353 23.6477H36.3524V22.2199C36.3524 18.9074 33.6574 16.2124 30.3449 16.2124C27.0323 16.2124 24.3373 18.9074 24.3373 22.2199V23.6477H19.3518C18.9402 23.6477 18.5943 23.9571 18.5487 24.3662L16.5568 42.2002C16.5312 42.4287 16.6043 42.6573 16.7576 42.8287C16.911 43.0002 17.13 43.0981 17.36 43.0981H43.3298C43.5598 43.0981 43.7789 43.0002 43.9322 42.8287C44.0856 42.6573 44.1585 42.4286 44.1329 42.2001ZM25.9537 22.2199C25.9537 19.7986 27.9236 17.8288 30.3449 17.8288C32.7661 17.8288 34.736 19.7986 34.736 22.2199V23.6477H25.9537V22.2199ZM18.2634 41.4817L20.0748 25.2641H24.3373V27.0195C23.3967 27.3531 22.721 28.2515 22.721 29.305C22.721 30.6419 23.8086 31.7296 25.1455 31.7296C26.4824 31.7296 27.5701 30.6419 27.5701 29.305C27.5701 28.2514 26.8944 27.3531 25.9537 27.0195V25.2641H34.736V27.0195C33.7953 27.3531 33.1196 28.2515 33.1196 29.305C33.1196 30.6419 34.2073 31.7296 35.5442 31.7296C36.8811 31.7296 37.9687 30.6419 37.9687 29.305C37.9687 28.2514 37.293 27.3531 36.3524 27.0195V25.2641H40.6124L42.4262 41.4817H18.2634ZM25.1455 28.4969C25.5912 28.4969 25.9537 28.8594 25.9537 29.3051C25.9537 29.7507 25.5912 30.1133 25.1455 30.1133C24.6999 30.1133 24.3373 29.7507 24.3373 29.3051C24.3373 28.8594 24.6998 28.4969 25.1455 28.4969ZM35.5442 28.4969C35.9898 28.4969 36.3524 28.8594 36.3524 29.3051C36.3524 29.7507 35.9898 30.1133 35.5442 30.1133C35.0985 30.1133 34.736 29.7507 34.736 29.3051C34.736 28.8594 35.0985 28.4969 35.5442 28.4969Z" fill="white"/>
<path fill-rule="evenodd" clip-rule="evenodd" d="M23.9924 22.2198C23.9924 18.7168 26.8417 15.8674 30.3447 15.8674C33.8477 15.8674 36.6971 18.7168 36.6971 22.2198V23.3027H41.3351C41.9224 23.3027 42.4157 23.7441 42.481 24.3276L44.4755 42.1616C44.4755 42.1616 44.4755 42.1615 44.4755 42.1616C44.512 42.4876 44.4079 42.8138 44.1891 43.0585C43.9704 43.3031 43.6578 43.4428 43.3297 43.4428H17.3598C17.0317 43.4428 16.7192 43.303 16.5005 43.0585C16.2817 42.8139 16.1775 42.4879 16.2139 42.1618L18.2058 24.3278C18.2058 24.3278 18.2058 24.3278 18.2058 24.3278C18.271 23.7441 18.7645 23.3027 19.3517 23.3027H23.9924V22.2198ZM30.3447 16.5571C27.2226 16.5571 24.682 19.0977 24.682 22.2198V23.9924H19.3517C19.1157 23.9924 18.9174 24.1698 18.8912 24.4043L16.8993 42.2383C16.8847 42.3693 16.9265 42.5004 17.0145 42.5987C17.1024 42.697 17.228 42.7532 17.3598 42.7532H43.3297C43.4616 42.7532 43.5872 42.697 43.6751 42.5987C43.7629 42.5005 43.8048 42.3694 43.7901 42.2383L41.7956 24.4043C41.7694 24.1697 41.5711 23.9924 41.3351 23.9924H36.0074V22.2198C36.0074 19.0977 33.4668 16.5571 30.3447 16.5571ZM30.3447 18.1735C28.1139 18.1735 26.2984 19.9889 26.2984 22.2198V23.3027H34.391V22.2198C34.391 19.9889 32.5755 18.1735 30.3447 18.1735ZM25.6087 22.2198C25.6087 19.6081 27.733 17.4838 30.3447 17.4838C32.9564 17.4838 35.0807 19.6081 35.0807 22.2198V23.9924H25.6087V22.2198ZM19.7662 24.9191H24.682V27.263L24.4525 27.3444C23.6446 27.6309 23.0656 28.4024 23.0656 29.3049C23.0656 30.4513 23.9989 31.3846 25.1454 31.3846C26.2918 31.3846 27.2251 30.4513 27.2251 29.3049C27.2251 28.4023 26.6462 27.6309 25.8383 27.3444L25.6087 27.263V24.9191H35.0807V27.263L34.8511 27.3444C34.0433 27.6309 33.4643 28.4024 33.4643 29.3049C33.4643 30.4513 34.3976 31.3846 35.544 31.3846C36.6905 31.3846 37.6238 30.4513 37.6238 29.3049C37.6238 28.4023 37.0448 27.6309 36.237 27.3444L36.0074 27.263V24.9191H40.9207L42.8116 41.8264H17.8778L19.7662 24.9191ZM20.3831 25.6088L18.6488 41.1367H42.0405L40.3039 25.6088H36.6971V26.7876C37.6494 27.2254 38.3134 28.188 38.3134 29.3049C38.3134 30.8322 37.0714 32.0743 35.544 32.0743C34.0167 32.0743 32.7747 30.8322 32.7747 29.3049C32.7747 28.188 33.4387 27.2254 34.391 26.7876V25.6088H26.2984V26.7876C27.2507 27.2254 27.9148 28.188 27.9148 29.3049C27.9148 30.8322 26.6727 32.0743 25.1454 32.0743C23.618 32.0743 22.376 30.8322 22.376 29.3049C22.376 28.188 23.04 27.2254 23.9924 26.7876V25.6088H20.3831ZM25.1454 28.8416C24.8901 28.8416 24.682 29.0497 24.682 29.3049C24.682 29.5601 24.8902 29.7683 25.1454 29.7683C25.4006 29.7683 25.6087 29.5601 25.6087 29.3049C25.6087 29.0497 25.4006 28.8416 25.1454 28.8416ZM23.9924 29.3049C23.9924 28.6689 24.5092 28.1519 25.1454 28.1519C25.7815 28.1519 26.2984 28.6689 26.2984 29.3049C26.2984 29.941 25.7815 30.4579 25.1454 30.4579C24.5093 30.4579 23.9924 29.941 23.9924 29.3049ZM35.544 28.8416C35.2888 28.8416 35.0807 29.0497 35.0807 29.3049C35.0807 29.5601 35.2889 29.7683 35.544 29.7683C35.7992 29.7683 36.0074 29.5601 36.0074 29.3049C36.0074 29.0497 35.7992 28.8416 35.544 28.8416ZM34.391 29.3049C34.391 28.6689 34.9079 28.1519 35.544 28.1519C36.1801 28.1519 36.6971 28.6689 36.6971 29.3049C36.6971 29.941 36.1801 30.4579 35.544 30.4579C34.908 30.4579 34.391 29.941 34.391 29.3049Z" fill="white"/>
</svg>
