<svg width="45" height="45" viewBox="0 0 45 45" fill="none" xmlns="http://www.w3.org/2000/svg">
<rect width="45" height="45" rx="7" fill="#332C69"/>
<path d="M33.0997 31.6502L31.6038 18.2747C31.5695 17.9679 31.3101 17.7359 31.0015 17.7359H27.2643V16.6651C27.2643 14.1807 25.243 12.1594 22.7586 12.1594C20.2742 12.1594 18.253 14.1807 18.253 16.6651V17.7359H14.5139C14.2052 17.7359 13.9457 17.9679 13.9115 18.2748L12.4176 31.6503C12.3984 31.8217 12.4532 31.9931 12.5682 32.1217C12.6832 32.2503 12.8475 32.3237 13.02 32.3237H32.4974C32.6699 32.3237 32.8342 32.2503 32.9492 32.1217C33.0642 31.9931 33.1189 31.8216 33.0997 31.6502ZM19.4653 16.6651C19.4653 14.8491 20.9427 13.3717 22.7586 13.3717C24.5746 13.3717 26.052 14.8491 26.052 16.6651V17.7359H19.4653V16.6651ZM13.6976 31.1114L15.0561 18.9482H18.253V20.2648C17.5475 20.515 17.0407 21.1887 17.0407 21.9789C17.0407 22.9816 17.8565 23.7973 18.8591 23.7973C19.8618 23.7973 20.6776 22.9816 20.6776 21.9789C20.6776 21.1887 20.1708 20.515 19.4653 20.2648V18.9482H26.052V20.2648C25.3465 20.515 24.8397 21.1887 24.8397 21.9789C24.8397 22.9816 25.6555 23.7973 26.6581 23.7973C27.6608 23.7973 28.4766 22.9816 28.4766 21.9789C28.4766 21.1887 27.9698 20.515 27.2643 20.2648V18.9482H30.4593L31.8196 31.1114H13.6976ZM18.8591 21.3728C19.1934 21.3728 19.4653 21.6447 19.4653 21.9789C19.4653 22.3132 19.1934 22.5851 18.8591 22.5851C18.5249 22.5851 18.253 22.3132 18.253 21.9789C18.253 21.6447 18.5249 21.3728 18.8591 21.3728ZM26.6581 21.3728C26.9924 21.3728 27.2643 21.6447 27.2643 21.9789C27.2643 22.3132 26.9924 22.5851 26.6581 22.5851C26.3239 22.5851 26.052 22.3132 26.052 21.9789C26.052 21.6447 26.3239 21.3728 26.6581 21.3728Z" fill="white"/>
<path fill-rule="evenodd" clip-rule="evenodd" d="M17.9942 16.6649C17.9942 14.0377 20.1312 11.9006 22.7585 11.9006C25.3857 11.9006 27.5227 14.0377 27.5227 16.6649V17.4771H31.0013C31.4417 17.4771 31.8117 17.8081 31.8607 18.2457L33.3566 31.6212C33.3566 31.6212 33.3566 31.6212 33.3566 31.6212C33.3839 31.8657 33.3059 32.1104 33.1418 32.2939C32.9777 32.4774 32.7433 32.5822 32.4972 32.5822H13.0198C12.7737 32.5822 12.5393 32.4773 12.3753 32.2939C12.2112 32.1105 12.1331 31.866 12.1604 31.6214L13.6543 18.2459C13.6543 18.2459 13.6543 18.2459 13.6543 18.2459C13.7032 17.8082 14.0733 17.4771 14.5137 17.4771H17.9942V16.6649ZM22.7585 12.4179C20.4169 12.4179 18.5115 14.3233 18.5115 16.6649V17.9944H14.5137C14.3367 17.9944 14.188 18.1274 14.1684 18.3033L12.6744 31.6788C12.6634 31.777 12.6948 31.8753 12.7608 31.9491C12.8268 32.0228 12.9209 32.0649 13.0198 32.0649H32.4972C32.5961 32.0649 32.6903 32.0228 32.7562 31.9491C32.8221 31.8754 32.8535 31.7771 32.8425 31.6788L31.3467 18.3033C31.327 18.1273 31.1782 17.9944 31.0013 17.9944H27.0055V16.6649C27.0055 14.3233 25.1 12.4179 22.7585 12.4179ZM22.7585 13.6302C21.0854 13.6302 19.7237 14.9918 19.7237 16.6649V17.4771H25.7932V16.6649C25.7932 14.9918 24.4316 13.6302 22.7585 13.6302ZM19.2065 16.6649C19.2065 14.7061 20.7997 13.1129 22.7585 13.1129C24.7173 13.1129 26.3105 14.7061 26.3105 16.6649V17.9944H19.2065V16.6649ZM14.8246 18.6894H18.5115V20.4473L18.3393 20.5083C17.7334 20.7232 17.2992 21.3018 17.2992 21.9787C17.2992 22.8386 17.9991 23.5385 18.859 23.5385C19.7188 23.5385 20.4188 22.8386 20.4188 21.9787C20.4188 21.3018 19.9846 20.7232 19.3787 20.5083L19.2065 20.4473V18.6894H26.3105V20.4473L26.1383 20.5083C25.5324 20.7232 25.0982 21.3018 25.0982 21.9787C25.0982 22.8386 25.7981 23.5385 26.658 23.5385C27.5178 23.5385 28.2178 22.8386 28.2178 21.9787C28.2178 21.3018 27.7836 20.7232 27.1777 20.5083L27.0055 20.4473V18.6894H30.6905L32.1086 31.3698H13.4083L14.8246 18.6894ZM15.2873 19.2066L13.9865 30.8526H31.5303L30.2278 19.2066H27.5227V20.0908C28.237 20.4191 28.735 21.141 28.735 21.9787C28.735 23.1242 27.8035 24.0558 26.658 24.0558C25.5125 24.0558 24.5809 23.1242 24.5809 21.9787C24.5809 21.1411 25.079 20.4191 25.7932 20.0908V19.2066H19.7237V20.0908C20.438 20.4191 20.936 21.141 20.936 21.9787C20.936 23.1242 20.0045 24.0558 18.859 24.0558C17.7135 24.0558 16.7819 23.1242 16.7819 21.9787C16.7819 21.1411 17.28 20.4191 17.9942 20.0908V19.2066H15.2873ZM18.859 21.6312C18.6676 21.6312 18.5115 21.7874 18.5115 21.9788C18.5115 22.1702 18.6676 22.3263 18.859 22.3263C19.0504 22.3263 19.2065 22.1702 19.2065 21.9788C19.2065 21.7874 19.0504 21.6312 18.859 21.6312ZM17.9942 21.9788C17.9942 21.5017 18.3819 21.114 18.859 21.114C19.336 21.114 19.7237 21.5017 19.7237 21.9788C19.7237 22.4558 19.336 22.8435 18.859 22.8435C18.3819 22.8435 17.9942 22.4558 17.9942 21.9788ZM26.658 21.6312C26.4665 21.6312 26.3105 21.7874 26.3105 21.9788C26.3105 22.1702 26.4666 22.3263 26.658 22.3263C26.8494 22.3263 27.0055 22.1702 27.0055 21.9788C27.0055 21.7874 26.8494 21.6312 26.658 21.6312ZM25.7932 21.9788C25.7932 21.5017 26.1809 21.114 26.658 21.114C27.135 21.114 27.5227 21.5017 27.5227 21.9788C27.5227 22.4558 27.135 22.8435 26.658 22.8435C26.1809 22.8435 25.7932 22.4558 25.7932 21.9788Z" fill="white"/>
</svg>
