<svg width="309" height="52" viewBox="0 0 309 52" fill="none" xmlns="http://www.w3.org/2000/svg">
<path d="M63.8217 17.4238H70.3592C71.5887 17.3965 72.6682 17.6764 73.5971 18.264C74.2119 18.6192 74.6901 19.1042 75.0317 19.7191C75.3596 20.4022 75.5235 21.2424 75.5235 22.2398C75.5235 23.4422 75.1206 24.5351 74.3145 25.5188C73.4675 26.5297 72.2036 27.0491 70.5232 27.0764H63.8217V17.4238ZM59.2925 43.0205H63.8217V31.3596H70.7076C73.7817 31.305 76.1179 30.3213 77.7165 28.4085C79.2739 26.5914 80.0528 24.5762 80.0528 22.3628C80.0528 20.7233 79.7453 19.3023 79.1304 18.1001C78.5431 16.8567 77.7779 15.9005 76.8351 15.2308C75.7148 14.3429 74.6083 13.7555 73.5152 13.4686C72.4221 13.2498 71.2881 13.1407 70.1132 13.1407H59.2925V43.0205ZM82.7979 32.3637C82.7979 34.6045 82.9826 36.3122 83.3514 37.4871C83.7339 38.662 84.3215 39.6801 85.114 40.5408C85.7013 41.2102 86.521 41.8115 87.5732 42.3442C88.6115 42.9316 89.9435 43.239 91.5694 43.2665C93.2498 43.239 94.6094 42.9316 95.6477 42.3442C96.2077 42.0982 96.6655 41.8046 97.0207 41.4628C97.417 41.1625 97.7518 40.855 98.0248 40.5408C98.8721 39.6801 99.4731 38.662 99.8283 37.4871C100.17 36.3122 100.341 34.6045 100.341 32.3637C100.341 30.123 100.17 28.4017 99.8283 27.1994C99.4731 26.0242 98.8721 25.0337 98.0248 24.2276C97.4648 23.5173 96.6723 22.8819 95.6477 22.3219C94.6094 21.7888 93.2498 21.5089 91.5694 21.4816C89.9435 21.5089 88.6115 21.7888 87.5732 22.3219C86.521 22.8819 85.7013 23.5173 85.114 24.2276C84.3215 25.0337 83.7339 26.0242 83.3514 27.1994C82.9826 28.4017 82.7979 30.123 82.7979 32.3637ZM96.0574 32.4047C96.0574 33.8529 95.9892 34.9187 95.8526 35.6018C95.7159 36.2985 95.436 36.9134 95.0123 37.4462C94.6981 37.8559 94.2335 38.2182 93.6186 38.5325C93.0313 38.8328 92.3482 38.9831 91.5694 38.9831C90.8454 38.9831 90.1757 38.8328 89.5611 38.5325C88.9735 38.2182 88.4953 37.8559 88.1264 37.4462C87.7576 36.9134 87.4911 36.2985 87.3272 35.6018C87.1632 34.9187 87.0814 33.8393 87.0814 32.3637C87.0814 30.8745 87.1632 29.7815 87.3272 29.0847C87.4911 28.4153 87.7576 27.8277 88.1264 27.3222C88.4953 26.844 88.9735 26.4684 89.5611 26.195C90.1757 25.9083 90.8454 25.7648 91.5694 25.7648C92.3482 25.7648 93.0313 25.9083 93.6186 26.195C94.2335 26.4684 94.6981 26.844 95.0123 27.3222C95.436 27.8277 95.7159 28.4153 95.8526 29.0847C95.9892 29.7815 96.0574 30.8882 96.0574 32.4047ZM105.668 37.8559C105.668 39.7279 106.201 41.0599 107.267 41.8524C108.278 42.6312 109.562 43.0205 111.12 43.0205H113.026V38.9831H111.55C110.484 38.9831 109.951 38.4981 109.951 37.528V13.1407H105.668V37.8559ZM117.328 43.0205H121.612V36.893L124.973 33.0809L130.629 43.0205H135.998L127.657 30.048L134.994 21.7479H129.87L121.694 31.7284H121.612V13.1407H117.328V43.0205ZM151.142 43.0205H155.425V28.4903C155.398 25.8947 154.585 24.0637 152.987 22.9981C151.388 21.9599 149.25 21.4541 146.572 21.4816C143.403 21.4268 141.005 22.4653 139.379 24.5967L142.74 27.1583C143.109 26.5436 143.614 26.1064 144.256 25.8467C144.871 25.6281 145.711 25.5188 146.777 25.5188C149.714 25.4642 151.17 26.3726 151.142 28.2445V30.4784H145.22C142.952 30.5057 141.23 31.1203 140.055 32.3228C138.88 33.4977 138.293 34.9801 138.293 36.7699C138.293 38.6416 138.969 40.1788 140.322 41.381C141.606 42.6107 143.437 43.239 145.814 43.2665C147.262 43.2665 148.396 43.0887 149.216 42.7335C150.049 42.392 150.664 41.8592 151.06 41.1349H151.142V43.0205ZM151.142 35.5402C151.142 37.1388 150.808 38.1634 150.138 38.6143C149.4 39.0652 148.137 39.2769 146.347 39.2496C144.926 39.2496 143.908 38.9695 143.293 38.4094C142.651 37.9039 142.33 37.2891 142.33 36.5651C142.303 34.9119 143.532 34.0578 146.019 34.0032H151.142V35.5402ZM162.188 43.0205H166.717V30.2528H179.136V26.2362H166.717V17.4238H181.267V13.1407H162.188V43.0205ZM183.357 32.3637C183.357 34.6045 183.541 36.3122 183.91 37.4871C184.293 38.662 184.88 39.6801 185.673 40.5408C186.26 41.2102 187.08 41.8115 188.132 42.3442C189.17 42.9316 190.502 43.239 192.128 43.2665C193.809 43.239 195.168 42.9316 196.207 42.3442C196.767 42.0982 197.224 41.8046 197.579 41.4628C197.976 41.1625 198.31 40.855 198.584 40.5408C199.431 39.6801 200.032 38.662 200.387 37.4871C200.729 36.3122 200.899 34.6045 200.899 32.3637C200.899 30.123 200.729 28.4017 200.387 27.1994C200.032 26.0242 199.431 25.0337 198.584 24.2276C198.024 23.5173 197.231 22.8819 196.207 22.3219C195.168 21.7888 193.809 21.5089 192.128 21.4816C190.502 21.5089 189.17 21.7888 188.132 22.3219C187.08 22.8819 186.26 23.5173 185.673 24.2276C184.88 25.0337 184.293 26.0242 183.91 27.1994C183.541 28.4017 183.357 30.123 183.357 32.3637ZM196.616 32.4047C196.616 33.8529 196.548 34.9187 196.411 35.6018C196.275 36.2985 195.995 36.9134 195.571 37.4462C195.257 37.8559 194.792 38.2182 194.177 38.5325C193.59 38.8328 192.907 38.9831 192.128 38.9831C191.404 38.9831 190.735 38.8328 190.12 38.5325C189.532 38.2182 189.054 37.8559 188.685 37.4462C188.316 36.9134 188.05 36.2985 187.886 35.6018C187.722 34.9187 187.64 33.8393 187.64 32.3637C187.64 30.8745 187.722 29.7815 187.886 29.0847C188.05 28.4153 188.316 27.8277 188.685 27.3222C189.054 26.844 189.532 26.4684 190.12 26.195C190.735 25.9083 191.404 25.7648 192.128 25.7648C192.907 25.7648 193.59 25.9083 194.177 26.195C194.792 26.4684 195.257 26.844 195.571 27.3222C195.995 27.8277 196.275 28.4153 196.411 29.0847C196.548 29.7815 196.616 30.8882 196.616 32.4047ZM206.227 35.8885C206.254 38.2932 207.039 40.1103 208.584 41.3401C210.006 42.5968 211.595 43.239 213.358 43.2665C215.627 43.2665 217.463 42.4261 218.872 40.7457H218.953V43.0205H223.237V21.7479H218.953V34.4132C218.953 35.8476 218.557 36.968 217.765 37.7741C216.986 38.5802 215.981 38.9831 214.754 38.9831C213.523 38.9831 212.511 38.5802 211.719 37.7741C210.913 36.968 210.509 35.8476 210.509 34.4132V21.7479H206.227V35.8885ZM229.609 43.0205H233.892V30.3554C233.892 28.8662 234.296 27.7322 235.102 26.9534C235.894 26.1609 236.907 25.7648 238.134 25.7648C239.364 25.7648 240.369 26.1609 241.148 26.9534C241.94 27.7322 242.337 28.8662 242.337 30.3554V43.0205H246.62V28.8799C246.552 26.4479 245.794 24.6035 244.343 23.3465C242.882 22.1031 241.272 21.4816 239.509 21.4816C237.227 21.4816 235.382 22.3219 233.974 24.0023H233.892V21.7479H229.609V43.0205ZM265.72 40.7866V43.0205H270.001V13.1407H265.72V24.0023C264.928 23.2507 264.099 22.6361 263.238 22.1579C262.31 21.707 261.3 21.4816 260.206 21.4816C257.609 21.5499 255.712 22.479 254.508 24.2688C253.921 24.9382 253.532 25.8194 253.341 26.9125C253.107 27.9916 252.992 29.8087 252.992 32.3637C252.992 34.8776 253.107 36.681 253.341 37.7741C253.532 38.9217 253.921 39.8304 254.508 40.4999C255.151 41.3196 255.951 41.9754 256.906 42.4673C257.821 42.9727 258.92 43.239 260.206 43.2665C262.475 43.2117 264.311 42.3852 265.72 40.7866ZM261.517 25.7648C262.527 25.7648 263.327 25.9629 263.915 26.359C264.503 26.7553 264.907 27.2745 265.124 27.9166C265.397 28.5588 265.583 29.2555 265.678 30.007C265.704 30.7583 265.72 31.544 265.72 32.3637C265.72 33.1153 265.704 33.8802 265.678 34.659C265.583 35.4515 265.397 36.1687 265.124 36.8109C264.907 37.453 264.503 37.9721 263.915 38.3685C263.327 38.7782 262.527 38.9831 261.517 38.9831C260.507 38.9831 259.734 38.7919 259.201 38.4094C258.613 38.0131 258.183 37.5076 257.91 36.893C257.651 36.2508 257.48 35.5265 257.399 34.7204C257.315 33.9555 257.276 33.1698 257.276 32.3637C257.276 31.5167 257.315 30.6901 257.399 29.884C257.48 29.1325 257.651 28.4358 257.91 27.7936C258.183 27.1514 258.613 26.6459 259.201 26.2771C259.734 25.9356 260.507 25.7648 261.517 25.7648ZM275.638 43.0205H279.919V30.2119C279.948 28.6543 280.399 27.5273 281.273 26.8304C282.052 26.12 282.988 25.7648 284.08 25.7648C285.05 25.7648 285.987 26.12 286.889 26.8304L290.003 23.1211C288.733 22.0553 287.243 21.5089 285.535 21.4816C283.253 21.4816 281.409 22.3219 280.003 24.0023H279.919V21.7479H275.638V43.0205ZM297.4 42.1803L296.233 45.7463C296.041 46.3609 295.706 46.8254 295.228 47.1397C294.751 47.4403 294.231 47.5906 293.67 47.5906H292.421V51.6277H293.835C295.16 51.6277 296.348 51.3342 297.4 50.7466C298.439 50.1317 299.252 49.0253 299.84 47.4267L309 21.7479H304.451L299.43 36.6469H299.347L294.305 21.7479H289.777L297.4 42.1803Z" fill="#111111"/>
<path fill-rule="evenodd" clip-rule="evenodd" d="M20.9856 13.3783C13.7418 13.3783 7.8696 19.2506 7.8696 26.4943C7.8696 33.7381 13.7418 39.6103 20.9856 39.6103C28.2294 39.6103 34.1016 33.7381 34.1016 26.4943C34.1016 19.2506 28.2294 13.3783 20.9856 13.3783ZM0 26.4943C0 14.9043 9.39558 5.50873 20.9856 5.50873C32.5756 5.50873 41.9712 14.9043 41.9712 26.4943C41.9712 38.0844 32.5756 47.4799 20.9856 47.4799C9.39558 47.4799 0 38.0844 0 26.4943Z" fill="url(#paint0_linear)"/>
<path d="M46.4305 10.4928C49.328 10.4928 51.6769 8.14391 51.6769 5.2464C51.6769 2.34889 49.328 0 46.4305 0C43.533 0 41.1841 2.34889 41.1841 5.2464C41.1841 8.14391 43.533 10.4928 46.4305 10.4928Z" fill="url(#paint1_linear)"/>
<defs>
<linearGradient id="paint0_linear" x1="20.9856" y1="5.50873" x2="20.9856" y2="47.4799" gradientUnits="userSpaceOnUse">
<stop stop-color="#FC3868"/>
<stop offset="1" stop-color="#FC3A6B" stop-opacity="0"/>
</linearGradient>
<linearGradient id="paint1_linear" x1="46.4305" y1="0" x2="46.4305" y2="10.4928" gradientUnits="userSpaceOnUse">
<stop offset="0.0420559" stop-color="#08DEFC"/>
<stop offset="1" stop-color="#08DEFC"/>
</linearGradient>
</defs>
</svg>
