<svg width="35" height="35" viewBox="0 0 35 35" fill="none" xmlns="http://www.w3.org/2000/svg">
<circle cx="17.5" cy="17.5" r="17.5" fill="#605793"/>
<path d="M28.1944 11.78C27.399 12.1289 26.5515 12.3602 25.6679 12.4725C26.5769 11.9297 27.2707 11.0768 27.5969 10.0488C26.7493 10.5541 25.8136 10.9111 24.8163 11.1103C24.0116 10.2534 22.8646 9.72266 21.6133 9.72266C19.1857 9.72266 17.2313 11.6931 17.2313 14.1087C17.2313 14.4563 17.2607 14.7905 17.3329 15.1086C13.6874 14.9308 10.4617 13.1836 8.29474 10.5221C7.91643 11.1784 7.69452 11.9297 7.69452 12.7385C7.69452 14.2571 8.47655 15.6033 9.64224 16.3826C8.93775 16.3692 8.24662 16.1647 7.6611 15.8425C7.6611 15.8559 7.6611 15.8733 7.6611 15.8907C7.6611 18.0215 9.18104 19.7915 11.1742 20.1992C10.8173 20.2968 10.4283 20.3436 10.0246 20.3436C9.74384 20.3436 9.46044 20.3275 9.19441 20.2687C9.76256 22.0052 11.3747 23.2819 13.2917 23.3233C11.7998 24.4903 9.90559 25.1935 7.85493 25.1935C7.49533 25.1935 7.15044 25.1774 6.80554 25.1333C8.74792 26.3859 11.0499 27.1011 13.5323 27.1011C21.6013 27.1011 26.0128 20.4171 26.0128 14.6234C26.0128 14.4295 26.0061 14.2424 25.9967 14.0566C26.867 13.439 27.5982 12.6676 28.1944 11.78Z" fill="white"/>
</svg>
