<svg width="40" height="40" viewBox="0 0 40 40" fill="none" xmlns="http://www.w3.org/2000/svg">
<path d="M19.9994 2.03855C24.1733 5.67372 29.031 7.46763 34.9857 7.71903C34.9941 8.38119 35.0065 9.05079 35.0191 9.72613C35.1089 14.5567 35.2043 19.6806 33.842 24.4708C32.233 30.1286 28.5699 35.2951 19.9993 38.4084C11.4294 35.2952 7.76662 30.1287 6.15782 24.4709C4.79574 19.6808 4.89107 14.5569 4.98094 9.72647C4.9935 9.05102 5.00596 8.3813 5.01432 7.71902C10.9685 7.46761 15.8259 5.6737 19.9994 2.03855Z" stroke="white" stroke-width="3"/>
<path d="M24.1023 23.7514C23.3143 24.5244 22.1763 25.1456 20.9978 25.235C18.1359 25.4522 15.7725 23.3139 15.5438 20.3003C15.3151 17.2867 17.3287 14.8162 20.1906 14.599C21.5374 14.4968 22.9245 14.9263 23.847 15.9261L25.5508 13.8356C24.0964 12.5196 22.009 11.7866 19.9888 11.9399C15.7801 12.2594 12.6823 16.0603 13.0186 20.492C13.355 24.9237 16.991 28.2135 21.1997 27.8941C23.0515 27.7535 24.5128 26.9295 25.7788 25.7636L24.1023 23.7514Z" fill="white"/>
</svg>
