<svg width="60" height="60" viewBox="0 0 60 60" fill="none" xmlns="http://www.w3.org/2000/svg">
<rect width="60" height="60" rx="10" fill="#615793"/>
<path d="M23.4914 24.7989H17.5431C16.9959 24.7989 16.5518 24.3548 16.5518 23.8075C16.5518 23.2603 16.9959 22.8162 17.5431 22.8162H23.4914C24.0387 22.8162 24.4828 23.2603 24.4828 23.8075C24.4828 24.3548 24.0387 24.7989 23.4914 24.7989Z" fill="white"/>
<path d="M23.4914 36.523H17.5431C16.9959 36.523 16.5518 36.0789 16.5518 35.5317C16.5518 34.9844 16.9959 34.5403 17.5431 34.5403H23.4914C24.0387 34.5403 24.4828 34.9844 24.4828 35.5317C24.4828 36.0789 24.0387 36.523 23.4914 36.523Z" fill="white"/>
<path d="M36.1639 38.6205L42.1121 38.6205C42.6594 38.6205 43.1035 39.0647 43.1035 39.6119C43.1035 40.1591 42.6594 40.6033 42.1121 40.6033L36.1639 40.6033C35.6166 40.6033 35.1725 40.1591 35.1725 39.6119C35.1725 39.0647 35.6166 38.6205 36.1639 38.6205Z" fill="white"/>
<path d="M35.8186 26.3507L41.7669 26.3507C42.3142 26.3507 42.7583 26.7949 42.7583 27.3421C42.7583 27.8894 42.3142 28.3335 41.7669 28.3335L35.8186 28.3335C35.2714 28.3335 34.8273 27.8894 34.8273 27.3421C34.8273 26.7949 35.2714 26.3507 35.8186 26.3507Z" fill="white"/>
<path d="M29.7412 24.8851H26.1205C25.7874 24.8851 25.5171 24.4217 25.5171 23.8506C25.5171 23.2796 25.7874 22.8162 26.1205 22.8162H29.7412C30.0743 22.8162 30.3447 23.2796 30.3447 23.8506C30.3447 24.4217 30.0743 24.8851 29.7412 24.8851Z" fill="white"/>
<path d="M17.1553 38.6781L20.7759 38.6781C21.109 38.6781 21.3794 39.1416 21.3794 39.7126C21.3794 40.2836 21.109 40.7471 20.7759 40.7471L17.1553 40.7471C16.8222 40.7471 16.5518 40.2836 16.5518 39.7126C16.5518 39.1416 16.8222 38.6781 17.1553 38.6781Z" fill="white"/>
<path d="M37.1552 24.8851H32.5C32.0717 24.8851 31.7241 24.4217 31.7241 23.8506C31.7241 23.2796 32.0717 22.8162 32.5 22.8162H37.1552C37.5834 22.8162 37.931 23.2796 37.931 23.8506C37.931 24.4217 37.5834 24.8851 37.1552 24.8851Z" fill="white"/>
<path d="M41.8103 36.6092H36.1206C35.5972 36.6092 35.1724 36.1458 35.1724 35.5748C35.1724 35.0037 35.5972 34.5403 36.1206 34.5403H41.8103C42.3337 34.5403 42.7586 35.0037 42.7586 35.5748C42.7586 36.1458 42.3337 36.6092 41.8103 36.6092Z" fill="white"/>
<path d="M23.5343 38.6781L28.1895 38.6781C28.6177 38.6781 28.9653 39.1416 28.9653 39.7126C28.9653 40.2836 28.6177 40.7471 28.1895 40.7471L23.5343 40.7471C23.106 40.7471 22.7584 40.2836 22.7584 39.7126C22.7584 39.1416 23.106 38.6781 23.5343 38.6781Z" fill="white"/>
<path d="M21.8104 26.2645L24.3966 26.2645C24.6345 26.2645 24.8276 26.728 24.8276 27.299C24.8276 27.87 24.6345 28.3335 24.3966 28.3335L21.8104 28.3335C21.5725 28.3335 21.3794 27.87 21.3794 27.299C21.3794 26.728 21.5725 26.2645 21.8104 26.2645Z" fill="white"/>
<path d="M42.3273 24.8851H39.7411C39.5032 24.8851 39.3101 24.4217 39.3101 23.8506C39.3101 23.2796 39.5032 22.8162 39.7411 22.8162H42.3273C42.5652 22.8162 42.7583 23.2796 42.7583 23.8506C42.7583 24.4217 42.5652 24.8851 42.3273 24.8851Z" fill="white"/>
<path d="M30.7757 38.6781L33.3619 38.6781C33.5999 38.6781 33.793 39.1416 33.793 39.7126C33.793 40.2836 33.5999 40.7471 33.3619 40.7471L30.7757 40.7471C30.5378 40.7471 30.3447 40.2836 30.3447 39.7126C30.3447 39.1416 30.5378 38.6781 30.7757 38.6781Z" fill="white"/>
<path d="M16.9828 26.2645L19.569 26.2645C19.8069 26.2645 20 26.728 20 27.299C20 27.87 19.8069 28.3335 19.569 28.3335L16.9828 28.3335C16.7448 28.3335 16.5517 27.87 16.5517 27.299C16.5517 26.728 16.7448 26.2645 16.9828 26.2645Z" fill="white"/>
<path d="M17.4138 30.4025L22.5862 30.4025C23.062 30.4025 23.4482 30.8659 23.4482 31.437C23.4482 32.008 23.062 32.4714 22.5862 32.4714L17.4138 32.4714C16.9379 32.4714 16.5517 32.008 16.5517 31.437C16.5517 30.8659 16.9379 30.4025 17.4138 30.4025Z" fill="white"/>
<path d="M36.7238 30.4025L41.8962 30.4025C42.3721 30.4025 42.7583 30.8659 42.7583 31.437C42.7583 32.008 42.3721 32.4714 41.8962 32.4714L36.7238 32.4714C36.248 32.4714 35.8617 32.008 35.8617 31.437C35.8617 30.8659 36.248 30.4025 36.7238 30.4025Z" fill="white"/>
<path d="M41.8821 44.2528H17.428C15.4228 44.2528 13.793 42.623 13.793 40.6178V18.8074C13.793 16.8022 15.4228 15.1724 17.428 15.1724H41.8821C43.8873 15.1724 45.5171 16.8022 45.5171 18.8074V40.6178C45.5171 42.623 43.8873 44.2528 41.8821 44.2528ZM17.428 17.1551C16.5173 17.1551 15.7757 17.8967 15.7757 18.8074V40.6178C15.7757 41.5285 16.5173 42.2701 17.428 42.2701H41.8821C42.7928 42.2701 43.5344 41.5285 43.5344 40.6178V18.8074C43.5344 17.8967 42.7928 17.1551 41.8821 17.1551H17.428Z" fill="white"/>
<path d="M44.5257 21.7816H14.7843C14.2371 21.7816 13.793 21.3374 13.793 20.7902C13.793 20.243 14.2371 19.7988 14.7843 19.7988H44.5257C45.073 19.7988 45.5171 20.243 45.5171 20.7902C45.5171 21.3374 45.073 21.7816 44.5257 21.7816Z" fill="white"/>
<path fill-rule="evenodd" clip-rule="evenodd" d="M29.6548 36.3792C32.1941 36.3792 34.2525 34.3208 34.2525 31.7815C34.2525 29.2423 32.1941 27.1838 29.6548 27.1838C27.1156 27.1838 25.0571 29.2423 25.0571 31.7815C25.0571 34.3208 27.1156 36.3792 29.6548 36.3792ZM31.2804 30.156C31.4599 30.3356 31.4599 30.6267 31.2804 30.8062L30.305 31.7815L31.2804 32.7569C31.4599 32.9364 31.4599 33.2275 31.2804 33.4071C31.1008 33.5866 30.8097 33.5866 30.6301 33.4071L29.6548 32.4318L28.6795 33.4071C28.5 33.5866 28.2088 33.5866 28.0293 33.4071C27.8497 33.2275 27.8497 32.9364 28.0293 32.7569L29.0046 31.7815L28.0293 30.8062C27.8497 30.6267 27.8497 30.3356 28.0293 30.156C28.2088 29.9765 28.5 29.9765 28.6795 30.156L29.6548 31.1313L30.6301 30.156C30.8097 29.9765 31.1008 29.9765 31.2804 30.156Z" fill="white"/>
</svg>
