<svg width="45" height="45" viewBox="0 0 45 45" fill="none" xmlns="http://www.w3.org/2000/svg">
<rect width="45" height="45" rx="7" fill="#332C69"/>
<path d="M17.6186 18.5994H13.1574C12.7469 18.5994 12.4138 18.2663 12.4138 17.8558C12.4138 17.4454 12.7469 17.1123 13.1574 17.1123H17.6186C18.029 17.1123 18.3621 17.4454 18.3621 17.8558C18.3621 18.2663 18.029 18.5994 17.6186 18.5994Z" fill="white"/>
<path d="M17.6186 27.3921H13.1574C12.7469 27.3921 12.4138 27.059 12.4138 26.6486C12.4138 26.2381 12.7469 25.905 13.1574 25.905H17.6186C18.029 25.905 18.3621 26.2381 18.3621 26.6486C18.3621 27.059 18.029 27.3921 17.6186 27.3921Z" fill="white"/>
<path d="M27.1229 28.9653L31.5841 28.9653C31.9945 28.9653 32.3276 29.2984 32.3276 29.7089C32.3276 30.1193 31.9945 30.4524 31.5841 30.4524L27.1229 30.4524C26.7125 30.4524 26.3794 30.1193 26.3794 29.7089C26.3794 29.2984 26.7125 28.9653 27.1229 28.9653Z" fill="white"/>
<path d="M26.8644 19.7629L31.3256 19.7629C31.736 19.7629 32.0691 20.096 32.0691 20.5065C32.0691 20.9169 31.736 21.25 31.3256 21.25L26.8644 21.25C26.4539 21.25 26.1208 20.9169 26.1208 20.5065C26.1208 20.096 26.4539 19.7629 26.8644 19.7629Z" fill="white"/>
<path d="M22.306 18.664H19.5905C19.3407 18.664 19.1379 18.3164 19.1379 17.8882C19.1379 17.4599 19.3407 17.1123 19.5905 17.1123H22.306C22.5559 17.1123 22.7586 17.4599 22.7586 17.8882C22.7586 18.3164 22.5559 18.664 22.306 18.664Z" fill="white"/>
<path d="M12.8666 29.0086L15.5821 29.0086C15.8319 29.0086 16.0347 29.3562 16.0347 29.7844C16.0347 30.2127 15.8319 30.5603 15.5821 30.5603L12.8666 30.5603C12.6167 30.5603 12.414 30.2127 12.414 29.7844C12.414 29.3562 12.6167 29.0086 12.8666 29.0086Z" fill="white"/>
<path d="M27.8665 18.664H24.3751C24.0539 18.664 23.7932 18.3164 23.7932 17.8882C23.7932 17.4599 24.0539 17.1123 24.3751 17.1123H27.8665C28.1877 17.1123 28.4484 17.4599 28.4484 17.8882C28.4484 18.3164 28.1877 18.664 27.8665 18.664Z" fill="white"/>
<path d="M31.3581 27.4568H27.0908C26.6983 27.4568 26.3796 27.1092 26.3796 26.6809C26.3796 26.2526 26.6983 25.905 27.0908 25.905H31.3581C31.7507 25.905 32.0693 26.2526 32.0693 26.6809C32.0693 27.1092 31.7507 27.4568 31.3581 27.4568Z" fill="white"/>
<path d="M17.6508 29.0086L21.1422 29.0086C21.4634 29.0086 21.7241 29.3562 21.7241 29.7844C21.7241 30.2127 21.4634 30.5603 21.1422 30.5603L17.6508 30.5603C17.3296 30.5603 17.0689 30.2127 17.0689 29.7844C17.0689 29.3562 17.3296 29.0086 17.6508 29.0086Z" fill="white"/>
<path d="M16.3579 19.6983L18.2976 19.6983C18.476 19.6983 18.6208 20.0459 18.6208 20.4741C18.6208 20.9024 18.476 21.25 18.2976 21.25L16.3579 21.25C16.1795 21.25 16.0346 20.9024 16.0346 20.4741C16.0346 20.0459 16.1795 19.6983 16.3579 19.6983Z" fill="white"/>
<path d="M31.7458 18.664H29.8062C29.6277 18.664 29.4829 18.3164 29.4829 17.8882C29.4829 17.4599 29.6277 17.1123 29.8062 17.1123H31.7458C31.9243 17.1123 32.0691 17.4599 32.0691 17.8882C32.0691 18.3164 31.9243 18.664 31.7458 18.664Z" fill="white"/>
<path d="M23.0818 29.0086L25.0215 29.0086C25.1999 29.0086 25.3447 29.3562 25.3447 29.7844C25.3447 30.2127 25.1999 30.5603 25.0215 30.5603L23.0818 30.5603C22.9033 30.5603 22.7585 30.2127 22.7585 29.7844C22.7585 29.3562 22.9033 29.0086 23.0818 29.0086Z" fill="white"/>
<path d="M12.7371 19.6983L14.6767 19.6983C14.8552 19.6983 15 20.0459 15 20.4741C15 20.9024 14.8552 21.25 14.6767 21.25L12.7371 21.25C12.5586 21.25 12.4138 20.9024 12.4138 20.4741C12.4138 20.0459 12.5586 19.6983 12.7371 19.6983Z" fill="white"/>
<path d="M13.0606 22.8018L16.9399 22.8018C17.2968 22.8018 17.5864 23.1494 17.5864 23.5777C17.5864 24.0059 17.2968 24.3535 16.9399 24.3535L13.0606 24.3535C12.7037 24.3535 12.414 24.0059 12.414 23.5777C12.414 23.1494 12.7037 22.8018 13.0606 22.8018Z" fill="white"/>
<path d="M27.5432 22.8018L31.4225 22.8018C31.7794 22.8018 32.0691 23.1494 32.0691 23.5777C32.0691 24.0059 31.7794 24.3535 31.4225 24.3535L27.5432 24.3535C27.1863 24.3535 26.8967 24.0059 26.8967 23.5777C26.8967 23.1494 27.1863 22.8018 27.5432 22.8018Z" fill="white"/>
<path d="M31.412 33.1897H13.0715C11.5676 33.1897 10.3452 31.9674 10.3452 30.4634V14.1057C10.3452 12.6018 11.5676 11.3794 13.0715 11.3794H31.412C32.916 11.3794 34.1383 12.6018 34.1383 14.1057V30.4634C34.1383 31.9674 32.916 33.1897 31.412 33.1897ZM13.0715 12.8665C12.3884 12.8665 11.8323 13.4226 11.8323 14.1057V30.4634C11.8323 31.1465 12.3884 31.7027 13.0715 31.7027H31.412C32.0951 31.7027 32.6513 31.1465 32.6513 30.4634V14.1057C32.6513 13.4226 32.0951 12.8665 31.412 12.8665H13.0715Z" fill="white"/>
<path d="M33.3945 16.3362H11.0885C10.6781 16.3362 10.345 16.0031 10.345 15.5927C10.345 15.1822 10.6781 14.8491 11.0885 14.8491H33.3945C33.805 14.8491 34.1381 15.1822 34.1381 15.5927C34.1381 16.0031 33.805 16.3362 33.3945 16.3362Z" fill="white"/>
<g clip-path="url(#clip0)">
<path fill-rule="evenodd" clip-rule="evenodd" d="M22.2415 27.2845C24.1459 27.2845 25.6898 25.7406 25.6898 23.8362C25.6898 21.9318 24.1459 20.3879 22.2415 20.3879C20.3371 20.3879 18.7932 21.9318 18.7932 23.8362C18.7932 25.7406 20.3371 27.2845 22.2415 27.2845ZM23.4606 22.6171C23.5953 22.7517 23.5953 22.9701 23.4606 23.1047L22.7291 23.8362L23.4606 24.5677C23.5953 24.7024 23.5953 24.9207 23.4606 25.0554C23.326 25.19 23.1076 25.19 22.973 25.0554L22.2415 24.3239L21.51 25.0554C21.3753 25.19 21.157 25.19 21.0223 25.0554C20.8877 24.9207 20.8877 24.7024 21.0223 24.5677L21.7538 23.8362L21.0223 23.1047C20.8877 22.9701 20.8877 22.7517 21.0223 22.6171C21.157 22.4824 21.3753 22.4824 21.51 22.6171L22.2415 23.3486L22.973 22.6171C23.1076 22.4824 23.326 22.4824 23.4606 22.6171Z" fill="white"/>
</g>
<defs>
<clipPath id="clip0">
<rect width="8.27586" height="8.27586" fill="white" transform="translate(18.1035 19.6982)"/>
</clipPath>
</defs>
</svg>
