<svg width="18" height="18" viewBox="0 0 18 18" fill="none" xmlns="http://www.w3.org/2000/svg">
<rect x="1.75" y="4" width="14.5" height="10.75" rx="1.75" fill="white" stroke="#F5F5F5" stroke-width="0.5"/>
<mask id="mask0" mask-type="alpha" maskUnits="userSpaceOnUse" x="1" y="3" width="16" height="12">
<rect x="1.75" y="4" width="14.5" height="10.75" rx="1.75" fill="white" stroke="white" stroke-width="0.5"/>
</mask>
<g mask="url(#mask0)">
<path fill-rule="evenodd" clip-rule="evenodd" d="M9 12C10.3807 12 11.5 10.8247 11.5 9.375C11.5 7.92525 10.3807 6.75 9 6.75C7.61929 6.75 6.5 7.92525 6.5 9.375C6.5 10.8247 7.61929 12 9 12Z" fill="#E01B41"/>
<mask id="mask1" mask-type="alpha" maskUnits="userSpaceOnUse" x="6" y="6" width="6" height="6">
<path fill-rule="evenodd" clip-rule="evenodd" d="M9 12C10.3807 12 11.5 10.8247 11.5 9.375C11.5 7.92525 10.3807 6.75 9 6.75C7.61929 6.75 6.5 7.92525 6.5 9.375C6.5 10.8247 7.61929 12 9 12Z" fill="white"/>
</mask>
<g mask="url(#mask1)">
<path fill-rule="evenodd" clip-rule="evenodd" d="M6.50008 9.75C7.21436 10.4531 8.28579 10.875 9.00008 9.75C9.71436 8.625 11.1429 8.625 11.5001 9.75C11.8572 10.875 11.5001 12 11.5001 12H6.50008C6.50008 12 5.78579 9.04688 6.50008 9.75Z" fill="#0E4B9C"/>
</g>
<path opacity="0.75" fill-rule="evenodd" clip-rule="evenodd" d="M12.7701 5.79036C12.6127 5.8858 12.557 6.09394 12.6457 6.25525L13.3959 7.61963C13.4846 7.78095 13.6841 7.83435 13.8415 7.73892L13.89 7.70952C14.0474 7.61409 14.1032 7.40595 14.0145 7.24463L13.2642 5.88025C13.1755 5.71894 12.976 5.66553 12.8186 5.76096L12.7701 5.79036ZM11.8423 6.35286C11.6849 6.44829 11.6292 6.65643 11.7179 6.81775L12.4681 8.18212C12.5568 8.34344 12.7563 8.39685 12.9137 8.30141L12.9622 8.27201C13.1197 8.17658 13.1754 7.96844 13.0867 7.80713L12.3365 6.44275C12.2478 6.28143 12.0482 6.22802 11.8908 6.32346L11.8423 6.35286ZM3.98557 11.5053C3.89686 11.344 3.95258 11.1358 4.11 11.0404L4.1585 11.011C4.31593 10.9156 4.51545 10.969 4.60415 11.1303L5.35437 12.4947C5.44307 12.656 5.38736 12.8641 5.22993 12.9595L5.18143 12.9889C5.02401 13.0844 4.82448 13.031 4.73578 12.8697L3.98557 11.5053ZM5.03782 10.4779C4.88039 10.5733 4.82468 10.7815 4.91338 10.9428L5.66359 12.3072C5.7523 12.4685 5.95182 12.5219 6.10925 12.4265L6.15775 12.3971C6.31517 12.3016 6.37089 12.0935 6.28218 11.9322L5.53197 10.5678C5.44327 10.4065 5.24374 10.3531 5.08632 10.4485L5.03782 10.4779ZM12.468 10.5677C12.5567 10.4064 12.7563 10.353 12.9137 10.4484L12.9622 10.4778C13.1196 10.5733 13.1753 10.7814 13.0866 10.9427L12.3364 12.3071C12.2477 12.4684 12.0482 12.5218 11.8908 12.4264L11.8423 12.397C11.6848 12.3015 11.6291 12.0934 11.7178 11.9321L12.468 10.5677ZM13.8416 11.0109C13.6842 10.9155 13.4846 10.9689 13.3959 11.1302L12.6457 12.4946C12.557 12.6559 12.6127 12.864 12.7702 12.9595L12.8187 12.9889C12.9761 13.0843 13.1756 13.0309 13.2643 12.8696L14.0145 11.5052C14.1032 11.3439 14.0475 11.1357 13.8901 11.0403L13.8416 11.0109ZM4.73576 5.8803C4.82446 5.71898 5.02399 5.66557 5.18142 5.76101L5.22991 5.79041C5.38734 5.88584 5.44305 6.09398 5.35435 6.2553L4.60414 7.61968C4.51544 7.78099 4.31591 7.8344 4.15849 7.73897L4.10999 7.70957C3.95256 7.61413 3.89685 7.40599 3.98555 7.24468L4.73576 5.8803ZM6.1092 6.3235C5.95178 6.22807 5.75225 6.28148 5.66355 6.44279L4.91334 7.80717C4.82464 7.96849 4.88035 8.17663 5.03778 8.27206L5.08627 8.30146C5.2437 8.39689 5.44323 8.34349 5.53193 8.18217L6.28214 6.81779C6.37084 6.65648 6.31513 6.44834 6.1577 6.3529L6.1092 6.3235Z" fill="#262626"/>
</g>
</svg>
