<svg width="24" height="24" viewBox="0 0 24 24" fill="none" xmlns="http://www.w3.org/2000/svg">
<path d="M16.254 7.74604C15.1746 6.66667 13.6508 5.96826 12 5.96826C10.3492 5.96826 8.8254 6.63493 7.74604 7.74604C6.66667 8.82541 5.96826 10.3492 5.96826 12C5.96826 13.6508 6.66667 15.1746 7.74604 16.254C8.8254 17.3333 10.3492 18.0318 12 18.0318C13.6508 18.0318 15.1746 17.3651 16.254 16.254C17.3333 15.1746 18.0318 13.6508 18.0318 12C18.0318 10.3492 17.3651 8.82541 16.254 7.74604Z" fill="white"/>
<path d="M12.0002 4.09523C12.4446 4.09523 12.8256 3.71428 12.8256 3.26984V0.825396C12.8256 0.380952 12.4446 0 12.0002 0C11.5558 0 11.1748 0.380952 11.1748 0.825396V3.26984C11.1748 3.71428 11.5558 4.09523 12.0002 4.09523Z" fill="white"/>
<path d="M18.7618 6.41288L20.5078 4.66684C20.8253 4.34938 20.8253 3.84144 20.5078 3.52398C20.1904 3.20652 19.6824 3.20652 19.365 3.52398L17.619 5.27002C17.3015 5.58748 17.3015 6.09542 17.619 6.41288C17.9047 6.73034 18.4126 6.73034 18.7618 6.41288Z" fill="white"/>
<path d="M23.1746 11.1746H20.7302C20.2857 11.1746 19.9048 11.5555 19.9048 12C19.9048 12.4444 20.2857 12.8254 20.7302 12.8254H23.1746C23.6191 12.8254 24 12.4444 24 12C24 11.5555 23.6191 11.1746 23.1746 11.1746Z" fill="white"/>
<path d="M18.7301 17.5872C18.4126 17.2698 17.9047 17.2698 17.5872 17.5872C17.2698 17.9047 17.2698 18.4126 17.5872 18.7301L19.3332 20.4761C19.6507 20.7936 20.1586 20.7936 20.4761 20.4761C20.7936 20.1586 20.7936 19.6507 20.4761 19.3332L18.7301 17.5872Z" fill="white"/>
<path d="M12.0002 19.9048C11.5558 19.9048 11.1748 20.2857 11.1748 20.7302V23.1746C11.1748 23.6191 11.5558 24 12.0002 24C12.4446 24 12.8256 23.6191 12.8256 23.1746V20.7302C12.8256 20.2857 12.4446 19.9048 12.0002 19.9048Z" fill="white"/>
<path d="M5.23803 17.5872L3.492 19.3332C3.17454 19.6507 3.17454 20.1586 3.492 20.4761C3.80946 20.7936 4.3174 20.7936 4.63486 20.4761L6.38089 18.7301C6.69835 18.4126 6.69835 17.9047 6.38089 17.5872C6.09518 17.2698 5.58724 17.2698 5.23803 17.5872Z" fill="white"/>
<path d="M4.09523 12C4.09523 11.5555 3.71428 11.1746 3.26984 11.1746H0.825396C0.380952 11.1746 0 11.5555 0 12C0 12.4444 0.380952 12.8254 0.825396 12.8254H3.26984C3.71428 12.8254 4.09523 12.4444 4.09523 12Z" fill="white"/>
<path d="M5.23803 6.41288C5.55549 6.73034 6.06343 6.73034 6.38089 6.41288C6.69835 6.09542 6.69835 5.58748 6.38089 5.27002L4.63486 3.52398C4.3174 3.20652 3.80946 3.20652 3.492 3.52398C3.17454 3.84144 3.17454 4.34938 3.492 4.66684L5.23803 6.41288Z" fill="white"/>
</svg>
