<svg width="119" height="36" viewBox="0 0 119 36" fill="none" xmlns="http://www.w3.org/2000/svg">
<path d="M59.6515 26.3307H56.204L50.4475 16.7071V26.3307H47V10.6506H50.4475L56.212 20.3619V10.6506H59.6595V26.3307H59.6515Z" fill="#231D41"/>
<path d="M72.3271 10.6506V13.6657H66.483V17.1015H70.9975V19.9851H66.483V26.3307H63.0355V10.6506H72.3271Z" fill="#231D41"/>
<path d="M85.337 10.6506V13.6657H81.4675V26.3307H78.004V13.6657H74.1743V10.6506H85.337Z" fill="#231D41"/>
<path d="M91.2446 10.6506V26.3307H87.7971V10.6506H91.2446Z" fill="#231D41"/>
<path d="M103.912 10.6506V13.6657H98.068V17.1015H102.582V19.9851H98.068V26.3307H94.6205V10.6506H103.912Z" fill="#231D41"/>
<path d="M119 10.6506L114.064 21.1157V26.3307H110.6V21.1157L105.664 10.6506H109.613L112.352 17.0401L115.091 10.6506H119Z" fill="#231D41"/>
<path d="M31 0H5C2.23858 0 0 2.23858 0 5V31C0 33.7614 2.23858 36 5 36H31C33.7614 36 36 33.7614 36 31V5C36 2.23858 33.7614 0 31 0Z" fill="url(#paint0_linear)"/>
<path d="M27.9969 8.46973H15.3612V10.3513H27.9969V8.46973Z" fill="white"/>
<path d="M10.6388 28.4699L10.6388 8.46973H8.00169L8.00169 28.4699H10.6388Z" fill="white"/>
<path d="M27.9999 28.4686L27.9999 16.3767H25.3628L25.3628 28.4686H27.9999Z" fill="white"/>
<path d="M25.3629 28.4523L7.99976 8.46973H10.6369L28 28.4523H25.3629Z" fill="white"/>
<path d="M17.9983 14.817V8.46973H15.3612V11.7801L17.9983 14.817Z" fill="white"/>
<path d="M27.997 11.78H19.6212V13.6616H27.997V11.78Z" fill="white"/>
<path d="M22.2613 19.6561V11.78H19.6212V16.6191L22.2613 19.6561Z" fill="white"/>
<defs>
<linearGradient id="paint0_linear" x1="0" y1="0" x2="36" y2="36" gradientUnits="userSpaceOnUse">
<stop stop-color="#FF0A6C"/>
<stop offset="1" stop-color="#2D27FF"/>
</linearGradient>
</defs>
</svg>
